<svg width="1111" height="227" viewBox="0 0 1111 227" fill="none" xmlns="http://www.w3.org/2000/svg">
<path d="M511.889 1.92383C532.961 2.14743 632.457 1.08531 634.412 0.582211C635.715 0.190915 652.877 0.63812 657.222 1.14122C660.046 1.47662 661.784 1.42073 662.436 0.973523C663.739 -0.0326871 668.953 0.190915 674.166 1.42073C678.294 2.42694 679.163 2.42693 682.422 1.70023C686.766 0.694013 695.89 0.694028 706.318 1.64433C712.183 2.20334 716.094 2.20332 723.697 1.70023C729.128 1.36482 735.862 1.25302 738.904 1.47662C741.945 1.70023 748.462 1.86794 753.242 1.92383C758.672 1.97972 763.452 2.31514 765.19 2.87415C767.362 3.60085 770.403 3.71265 779.093 3.43315C796.255 2.87415 806.248 2.87413 820.368 3.54494C827.537 3.88034 844.916 4.21576 859.037 4.32756C876.416 4.43936 885.54 4.71887 887.061 5.22197C888.581 5.61327 890.319 5.72507 891.84 5.38966C896.619 4.43936 912.695 4.15987 929.422 4.71887C956.36 5.66918 969.394 6.5636 968.308 7.2903C967.656 7.7934 972.87 7.96111 988.294 7.96111C1012.63 7.96111 1031.74 8.46422 1044.12 9.41452C1048.9 9.74992 1055.86 10.0853 1059.33 10.1412C1094.96 10.812 1110.38 11.6159 1110.38 12.7127V224.967C1107.12 226.029 1065.41 227.538 1060.42 226.029C1056.72 224.855 1054.99 224.743 1037.17 224.967C978.953 225.638 850.13 224.464 816.675 222.954C801.034 222.284 792.344 222.228 763.017 222.731C733.256 223.29 726.956 223.234 718.918 222.507C707.187 221.445 647.663 220.439 609.647 220.607C551.861 220.942 451.062 220.495 443.459 219.88C439.331 219.545 429.121 219.097 420.649 218.874C412.394 218.594 401.097 218.147 395.666 217.812C390.235 217.532 375.897 217.253 363.515 217.197C348.308 217.197 339.184 216.917 335.056 216.358C331.581 215.911 328.105 215.743 327.453 215.967C326.584 216.135 325.063 216.023 324.195 215.631C322.891 215.072 311.595 215.072 269.45 215.52C133.676 217.085 116.948 217.532 90.4434 219.936C73.0635 221.501 69.8035 221.669 64.3734 221.054C60.6835 220.663 56.7734 220.383 55.6835 220.439C52.2135 220.607 47.4335 217.308 48.9535 215.799C49.8235 214.849 49.3834 214.402 47.6534 214.402C46.1334 214.402 42.0034 213.172 38.7434 211.607C33.0934 209.035 32.8734 208.532 33.7434 204.06C34.3934 201.433 35.4834 199.029 36.1334 198.805C36.5734 198.526 35.7034 197.352 33.7434 196.234C32.0134 195.116 30.9235 194.054 31.5735 193.886C32.2235 193.718 31.1434 192.824 29.4034 191.986C27.2334 190.868 26.7935 190.029 28.3135 189.414C29.8335 188.631 28.9634 188.24 23.9734 187.458C16.8033 186.34 16.3634 185.836 21.1434 183.936C25.0535 182.427 23.9734 179.128 18.7534 177.172C17.0234 176.501 15.7134 175.215 15.7134 174.321C15.7134 173.482 15.4934 172.029 15.2834 171.19C15.0635 170.296 17.0234 168.899 19.6234 168.004C22.0134 167.11 24.1835 166.159 24.1835 165.88C24.1835 165.6 25.4934 165.041 27.2334 164.65C28.9634 164.315 30.0535 163.7 29.4034 163.308C28.0934 162.414 32.4434 160.234 38.9634 158.613C43.3033 157.495 43.9535 156.936 42.6534 154.979C40.2634 151.29 30.9235 146.762 25.9235 146.762C22.0134 146.762 21.5835 146.482 22.6635 144.749C23.3235 143.631 25.4934 142.29 27.2334 141.787C29.6234 141.116 30.0535 140.333 28.7534 138.88C27.6635 137.706 27.8834 136.476 28.9634 135.917C30.2734 135.358 30.0535 135.023 28.7534 135.023C27.4434 135.023 25.7135 134.017 25.0535 132.843C23.9735 131.11 22.4535 130.551 18.5435 130.327C12.4535 129.936 12.0234 129.321 16.8035 128.091C19.8435 127.308 19.6234 127.029 14.6334 125.128C11.3734 123.954 8.9834 122.501 8.9834 121.886C8.9834 121.215 7.89343 120.433 6.59338 120.097C5.50342 119.818 4.42346 118.644 4.63342 117.638C4.63342 116.576 4.63342 115.234 4.85339 114.675C4.85339 114.06 3.55347 113.389 2.03345 113.166C0.0734863 112.83 0.0733643 112.439 2.46338 111.265C4.85339 110.091 5.07349 109.364 2.89343 107.296C-0.796509 103.718 -0.576538 103.551 10.0635 100.812C15.4935 99.4704 20.2734 97.7375 20.7134 97.0108C20.9333 96.2282 22.4534 94.8865 23.7534 94.048C27.4434 91.8679 27.0134 90.2468 22.6635 88.6257C17.6735 86.8368 13.1134 83.5387 14.8434 82.8679C15.4934 82.6443 13.7634 82.253 11.3734 82.0853C7.67346 81.8617 7.02344 81.5263 8.3335 80.576C9.19348 79.9611 9.85339 78.5077 9.63342 77.4456C8.1134 67.5512 8.9834 63.9735 13.1134 63.135C16.3634 62.4642 16.8035 62.0729 18.7534 57.8803C19.6234 56.4828 21.5835 54.8058 23.3235 54.135C25.0535 53.4642 26.3634 51.7871 26.3634 50.5014C26.3634 49.1598 27.8835 47.4828 29.8335 46.7561C32.0135 46.0294 33.9635 44.6878 34.1835 43.7375C34.6135 42.7872 37.2235 40.8865 39.8335 39.489C43.0835 37.7561 43.7434 36.9176 42.0034 36.7499C40.2634 36.6381 40.6935 36.135 43.5234 35.1847C46.9934 34.0667 47.4335 33.4518 45.6935 31.9984C44.6035 31.0481 43.7434 29.4269 43.7434 28.4207C43.7434 27.4704 42.8734 26.5201 41.7834 26.3524C40.6935 26.1288 41.1335 25.2903 43.0835 24.2841C44.8235 23.3897 45.9135 22.0481 45.2634 21.3773C44.6034 20.7064 45.2634 19.5325 46.7834 18.8058C49.3834 17.6319 49.1735 17.2965 46.5635 16.6257C43.3035 15.7313 43.5234 13.9984 47.2134 13.9984C48.3033 13.9984 53.7335 13.4394 58.9435 12.7685C64.3735 12.0977 74.5834 11.1474 81.7534 10.6443C88.9234 10.1412 99.5734 9.35861 105.213 8.91141C113.038 8.3524 116.949 8.29651 120.207 8.74371C123.248 9.19092 142.8 9.24681 184.727 8.91141C217.747 8.68781 251.637 8.4642 259.892 8.40831C279.226 8.29651 308.553 7.56979 314.201 7.0667C316.591 6.84309 324.846 6.67539 332.667 6.73128C340.487 6.78717 349.829 6.61948 353.739 6.33998C357.432 6.06049 367.642 5.72507 376.549 5.66918C394.363 5.44557 420.866 4.38347 426.514 3.60086C428.686 3.32137 432.814 3.09773 435.638 3.09773C438.679 3.09773 443.459 2.87415 446.5 2.53874C451.931 2.03565 490.382 1.64433 511.889 1.92383Z" fill="white"/>
</svg>
