<svg width="1111" height="227" viewBox="0 0 1111 227" fill="none" xmlns="http://www.w3.org/2000/svg">
<path d="M599.111 2.25781C578.039 2.48141 478.543 1.41929 476.588 0.916196C475.285 0.5249 458.123 0.972105 453.778 1.4752C450.954 1.8106 449.216 1.75471 448.564 1.30751C447.261 0.301297 442.047 0.5249 436.834 1.75471C432.706 2.76092 431.837 2.76091 428.578 2.03421C424.234 1.028 415.11 1.02801 404.682 1.97831C398.817 2.53732 394.906 2.5373 387.303 2.03421C381.872 1.6988 375.138 1.587 372.096 1.8106C369.055 2.03421 362.538 2.20192 357.758 2.25781C352.328 2.3137 347.548 2.64912 345.81 3.20813C343.638 3.93483 340.597 4.04663 331.907 3.76713C314.745 3.20813 304.752 3.20811 290.632 3.87892C283.463 4.21432 266.084 4.54974 251.963 4.66154C234.584 4.77334 225.46 5.05285 223.939 5.55595C222.419 5.94725 220.681 6.05905 219.16 5.72364C214.381 4.77334 198.305 4.49385 181.578 5.05285C154.64 6.00316 141.606 6.89758 142.692 7.62428C143.344 8.12738 138.13 8.29509 122.706 8.29509C98.3749 8.29509 79.2577 8.7982 66.8752 9.7485C62.0959 10.0839 55.1443 10.4193 51.6685 10.4752C16.0414 11.146 0.617188 11.9499 0.617188 13.0467V225.301C3.87573 226.363 45.5857 227.872 50.5822 226.363C54.2752 225.189 56.0132 225.077 73.8268 225.301C132.047 225.972 260.87 224.798 294.325 223.288C309.966 222.618 318.656 222.562 347.983 223.065C377.744 223.624 384.044 223.568 392.082 222.841C403.813 221.779 463.337 220.773 501.353 220.941C559.139 221.276 659.938 220.829 667.541 220.214C671.669 219.879 681.879 219.431 690.351 219.208C698.606 218.928 709.903 218.481 715.334 218.146C720.765 217.866 735.103 217.587 747.485 217.531C762.692 217.531 771.816 217.251 775.944 216.692C779.419 216.245 782.895 216.077 783.547 216.301C784.416 216.469 785.937 216.357 786.805 215.965C788.109 215.406 799.405 215.406 841.55 215.854C977.324 217.419 994.052 217.866 1020.56 220.27C1037.94 221.835 1041.2 222.003 1046.63 221.388C1050.32 220.997 1054.23 220.717 1055.32 220.773C1058.79 220.941 1063.57 217.642 1062.05 216.133C1061.18 215.183 1061.62 214.736 1063.35 214.736C1064.87 214.736 1069 213.506 1072.26 211.941C1077.91 209.369 1078.13 208.866 1077.26 204.394C1076.61 201.767 1075.52 199.363 1074.87 199.139C1074.43 198.86 1075.3 197.686 1077.26 196.568C1078.99 195.45 1080.08 194.388 1079.43 194.22C1078.78 194.052 1079.86 193.158 1081.6 192.32C1083.77 191.202 1084.21 190.363 1082.69 189.748C1081.17 188.965 1082.04 188.574 1087.03 187.792C1094.2 186.674 1094.64 186.17 1089.86 184.27C1085.95 182.761 1087.03 179.462 1092.25 177.506C1093.98 176.835 1095.29 175.549 1095.29 174.655C1095.29 173.816 1095.51 172.363 1095.72 171.524C1095.94 170.63 1093.98 169.233 1091.38 168.338C1088.99 167.444 1086.82 166.493 1086.82 166.214C1086.82 165.934 1085.51 165.375 1083.77 164.984C1082.04 164.649 1080.95 164.034 1081.6 163.642C1082.91 162.748 1078.56 160.568 1072.04 158.947C1067.7 157.829 1067.05 157.27 1068.35 155.313C1070.74 151.624 1080.08 147.096 1085.08 147.096C1088.99 147.096 1089.42 146.816 1088.34 145.083C1087.68 143.965 1085.51 142.624 1083.77 142.121C1081.38 141.45 1080.95 140.667 1082.25 139.214C1083.34 138.04 1083.12 136.81 1082.04 136.251C1080.73 135.692 1080.95 135.357 1082.25 135.357C1083.56 135.357 1085.29 134.351 1085.95 133.177C1087.03 131.444 1088.55 130.885 1092.46 130.661C1098.55 130.27 1098.98 129.655 1094.2 128.425C1091.16 127.642 1091.38 127.363 1096.37 125.462C1099.63 124.288 1102.02 122.835 1102.02 122.22C1102.02 121.549 1103.11 120.767 1104.41 120.431C1105.5 120.152 1106.58 118.978 1106.37 117.972C1106.37 116.91 1106.37 115.568 1106.15 115.009C1106.15 114.394 1107.45 113.723 1108.97 113.5C1110.93 113.164 1110.93 112.773 1108.54 111.599C1106.15 110.425 1105.93 109.698 1108.11 107.63C1111.8 104.052 1111.58 103.885 1100.94 101.146C1095.51 99.8044 1090.73 98.0715 1090.29 97.3448C1090.07 96.5622 1088.55 95.2205 1087.25 94.382C1083.56 92.2019 1083.99 90.5808 1088.34 88.9597C1093.33 87.1708 1097.89 83.8727 1096.16 83.2019C1095.51 82.9783 1097.24 82.587 1099.63 82.4193C1103.33 82.1957 1103.98 81.8603 1102.67 80.91C1101.81 80.2951 1101.15 78.8417 1101.37 77.7796C1102.89 67.8852 1102.02 64.3075 1097.89 63.469C1094.64 62.7982 1094.2 62.4069 1092.25 58.2143C1091.38 56.8168 1089.42 55.1398 1087.68 54.469C1085.95 53.7982 1084.64 52.1211 1084.64 50.8354C1084.64 49.4938 1083.12 47.8168 1081.17 47.0901C1078.99 46.3634 1077.04 45.0218 1076.82 44.0715C1076.39 43.1212 1073.78 41.2205 1071.17 39.823C1067.92 38.0901 1067.26 37.2516 1069 37.0839C1070.74 36.9721 1070.31 36.469 1067.48 35.5187C1064.01 34.4007 1063.57 33.7858 1065.31 32.3324C1066.4 31.3821 1067.26 29.7609 1067.26 28.7547C1067.26 27.8044 1068.13 26.8541 1069.22 26.6864C1070.31 26.4628 1069.87 25.6243 1067.92 24.6181C1066.18 23.7237 1065.09 22.3821 1065.74 21.7113C1066.4 21.0404 1065.74 19.8665 1064.22 19.1398C1061.62 17.9659 1061.83 17.6305 1064.44 16.9597C1067.7 16.0653 1067.48 14.3324 1063.79 14.3324C1062.7 14.3324 1057.27 13.7734 1052.06 13.1025C1046.63 12.4317 1036.42 11.4814 1029.25 10.9783C1022.08 10.4752 1011.43 9.69259 1005.79 9.24539C997.962 8.68638 994.051 8.63049 990.793 9.07769C987.752 9.5249 968.2 9.58079 926.273 9.24539C893.253 9.02179 859.363 8.79818 851.108 8.74229C831.774 8.63049 802.447 7.90377 796.799 7.40068C794.409 7.17707 786.154 7.00937 778.333 7.06526C770.513 7.12115 761.171 6.95346 757.261 6.67396C753.568 6.39447 743.358 6.05905 734.451 6.00316C716.637 5.77955 690.134 4.71745 684.486 3.93484C682.314 3.65535 678.186 3.43171 675.362 3.43171C672.321 3.43171 667.541 3.20813 664.5 2.87272C659.069 2.36963 620.618 1.97831 599.111 2.25781Z" fill="#25924F"/>
</svg>
