<svg width="1111" height="227" viewBox="0 0 1111 227" fill="none" xmlns="http://www.w3.org/2000/svg">
<path d="M511.897 2.25781C532.969 2.48141 632.465 1.41929 634.42 0.916196C635.723 0.5249 652.885 0.972105 657.23 1.4752C660.054 1.8106 661.792 1.75471 662.444 1.30751C663.747 0.301297 668.961 0.5249 674.174 1.75471C678.302 2.76092 679.171 2.76091 682.43 2.03421C686.774 1.028 695.898 1.02801 706.326 1.97831C712.191 2.53732 716.102 2.5373 723.705 2.03421C729.136 1.6988 735.87 1.587 738.912 1.8106C741.953 2.03421 748.47 2.20192 753.25 2.25781C758.68 2.3137 763.46 2.64912 765.198 3.20813C767.37 3.93483 770.411 4.04663 779.101 3.76713C796.263 3.20813 806.256 3.20811 820.376 3.87892C827.545 4.21432 844.924 4.54974 859.045 4.66154C876.424 4.77334 885.548 5.05285 887.069 5.55595C888.589 5.94725 890.327 6.05905 891.848 5.72364C896.627 4.77334 912.703 4.49385 929.43 5.05285C956.368 6.00316 969.402 6.89758 968.316 7.62428C967.664 8.12738 972.878 8.29509 988.302 8.29509C1012.63 8.29509 1031.75 8.7982 1044.13 9.7485C1048.91 10.0839 1055.86 10.4193 1059.34 10.4752C1094.97 11.146 1110.39 11.9499 1110.39 13.0467V225.301C1107.13 226.363 1065.42 227.872 1060.43 226.363C1056.73 225.189 1054.99 225.077 1037.18 225.301C978.961 225.972 850.138 224.798 816.683 223.288C801.042 222.618 792.352 222.562 763.025 223.065C733.264 223.624 726.964 223.568 718.926 222.841C707.195 221.779 647.671 220.773 609.655 220.941C551.869 221.276 451.07 220.829 443.467 220.214C439.339 219.879 429.129 219.431 420.657 219.208C412.402 218.928 401.105 218.481 395.674 218.146C390.243 217.866 375.905 217.587 363.523 217.531C348.316 217.531 339.192 217.251 335.064 216.692C331.589 216.245 328.113 216.077 327.461 216.301C326.592 216.469 325.071 216.357 324.203 215.965C322.899 215.406 311.603 215.406 269.458 215.854C133.684 217.419 116.956 217.866 90.4512 220.27C73.0713 221.835 69.8113 222.003 64.3812 221.388C60.6913 220.997 56.7812 220.717 55.6913 220.773C52.2213 220.941 47.4413 217.642 48.9613 216.133C49.8313 215.183 49.3912 214.736 47.6613 214.736C46.1412 214.736 42.0112 213.506 38.7512 211.941C33.1012 209.369 32.8812 208.866 33.7512 204.394C34.4012 201.767 35.4912 199.363 36.1412 199.139C36.5812 198.86 35.7112 197.686 33.7512 196.568C32.0212 195.45 30.9313 194.388 31.5813 194.22C32.2313 194.052 31.1512 193.158 29.4113 192.32C27.2412 191.202 26.8013 190.363 28.3213 189.748C29.8413 188.965 28.9712 188.574 23.9812 187.792C16.8112 186.674 16.3712 186.17 21.1512 184.27C25.0613 182.761 23.9812 179.462 18.7612 177.506C17.0312 176.835 15.7212 175.549 15.7212 174.655C15.7212 173.816 15.5012 172.363 15.2913 171.524C15.0713 170.63 17.0312 169.233 19.6312 168.338C22.0212 167.444 24.1913 166.493 24.1913 166.214C24.1913 165.934 25.5012 165.375 27.2412 164.984C28.9712 164.649 30.0613 164.034 29.4113 163.642C28.1012 162.748 32.4512 160.568 38.9712 158.947C43.3112 157.829 43.9613 157.27 42.6613 155.313C40.2712 151.624 30.9313 147.096 25.9313 147.096C22.0212 147.096 21.5913 146.816 22.6713 145.083C23.3313 143.965 25.5012 142.624 27.2412 142.121C29.6312 141.45 30.0613 140.667 28.7612 139.214C27.6713 138.04 27.8912 136.81 28.9712 136.251C30.2812 135.692 30.0613 135.357 28.7612 135.357C27.4512 135.357 25.7213 134.351 25.0613 133.177C23.9813 131.444 22.4613 130.885 18.5513 130.661C12.4613 130.27 12.0312 129.655 16.8113 128.425C19.8513 127.642 19.6312 127.363 14.6412 125.462C11.3812 124.288 8.99121 122.835 8.99121 122.22C8.99121 121.549 7.90125 120.767 6.6012 120.431C5.51123 120.152 4.43127 118.978 4.64124 117.972C4.64124 116.91 4.64124 115.568 4.86121 115.009C4.86121 114.394 3.56128 113.723 2.04126 113.5C0.0812988 113.164 0.0811768 112.773 2.47119 111.599C4.86121 110.425 5.0813 109.698 2.90125 107.63C-0.788696 104.052 -0.568726 103.885 10.0713 101.146C15.5013 99.8044 20.2812 98.0715 20.7212 97.3448C20.9412 96.5622 22.4612 95.2205 23.7612 94.382C27.4512 92.2019 27.0212 90.5808 22.6713 88.9597C17.6813 87.1708 13.1212 83.8727 14.8512 83.2019C15.5012 82.9783 13.7712 82.587 11.3812 82.4193C7.68127 82.1957 7.03125 81.8603 8.34131 80.91C9.20129 80.2951 9.86121 78.8417 9.64124 77.7796C8.12122 67.8852 8.99121 64.3075 13.1212 63.469C16.3712 62.7982 16.8113 62.4069 18.7612 58.2143C19.6312 56.8168 21.5913 55.1398 23.3313 54.469C25.0613 53.7982 26.3712 52.1211 26.3712 50.8354C26.3712 49.4938 27.8914 47.8168 29.8413 47.0901C32.0214 46.3634 33.9713 45.0218 34.1913 44.0715C34.6213 43.1212 37.2313 41.2205 39.8413 39.823C43.0913 38.0901 43.7512 37.2516 42.0112 37.0839C40.2712 36.9721 40.7013 36.469 43.5312 35.5187C47.0012 34.4007 47.4413 33.7858 45.7013 32.3324C44.6113 31.3821 43.7512 29.7609 43.7512 28.7547C43.7512 27.8044 42.8812 26.8541 41.7913 26.6864C40.7013 26.4628 41.1414 25.6243 43.0913 24.6181C44.8313 23.7237 45.9213 22.3821 45.2712 21.7113C44.6112 21.0404 45.2712 19.8665 46.7913 19.1398C49.3912 17.9659 49.1813 17.6305 46.5713 16.9597C43.3113 16.0653 43.5312 14.3324 47.2212 14.3324C48.3112 14.3324 53.7413 13.7734 58.9513 13.1025C64.3813 12.4317 74.5912 11.4814 81.7612 10.9783C88.9312 10.4752 99.5812 9.69259 105.221 9.24539C113.046 8.68638 116.957 8.63049 120.215 9.07769C123.256 9.5249 142.808 9.58079 184.735 9.24539C217.755 9.02179 251.645 8.79818 259.9 8.74229C279.234 8.63049 308.561 7.90377 314.209 7.40068C316.599 7.17707 324.854 7.00937 332.675 7.06526C340.495 7.12115 349.837 6.95346 353.747 6.67396C357.44 6.39447 367.65 6.05905 376.557 6.00316C394.371 5.77955 420.874 4.71745 426.522 3.93484C428.694 3.65535 432.822 3.43171 435.646 3.43171C438.687 3.43171 443.467 3.20813 446.508 2.87272C451.939 2.36963 490.39 1.97831 511.897 2.25781Z" fill="#25924F"/>
</svg>
