<svg width="269" height="216" viewBox="0 0 269 216" fill="none" xmlns="http://www.w3.org/2000/svg">
<g clipPath="url(#clip0_1343_2497)">
<path d="M266.087 145.696H2.58931C1.41011 145.696 0.445312 144.732 0.445312 143.554C0.445312 142.376 1.41011 141.412 2.58931 141.412H266.141C267.32 141.412 268.285 142.376 268.285 143.554C268.285 144.732 267.266 145.696 266.087 145.696Z" fill="white"/>
<path d="M266.087 216H2.58931C1.41011 216 0.445312 215.036 0.445312 213.858C0.445312 212.68 1.41011 211.716 2.58931 211.716H266.141C267.32 211.716 268.285 212.68 268.285 213.858C268.285 215.036 267.266 216 266.087 216Z" fill="white"/>
<path d="M73.3401 135.95H15.2377C14.0585 135.95 13.0938 134.987 13.0938 133.809C13.0938 132.631 14.0585 131.667 15.2377 131.667H73.3401C74.5193 131.667 75.4841 132.631 75.4841 133.809C75.4841 135.04 74.5193 135.95 73.3401 135.95Z" fill="white"/>
<path d="M255.367 135.95H173.574C172.394 135.95 171.43 134.987 171.43 133.809C171.43 132.631 172.394 131.667 173.574 131.667H255.367C256.546 131.667 257.511 132.631 257.511 133.809C257.458 135.04 256.546 135.95 255.367 135.95Z" fill="white"/>
<path d="M87.6492 126.58H59.0268C57.8476 126.58 56.8828 125.616 56.8828 124.438C56.8828 123.26 57.8476 122.296 59.0268 122.296H87.6492C88.8284 122.296 89.7932 123.26 89.7932 124.438C89.7932 125.67 88.8284 126.58 87.6492 126.58Z" fill="white"/>
<path d="M265.817 96.9162C254.668 96.8091 251.238 91.9901 249.522 84.7615C245.824 69.18 238.91 51.4031 218.22 52.6346C203.158 53.4913 190.455 65.4854 187.132 81.2276C186.65 82.7268 186.382 84.2796 186.382 85.9395V85.9931C186.382 86.0466 186.382 86.0466 186.382 86.1002C186.382 86.1537 186.382 86.2072 186.382 86.2072C186.382 86.2608 186.382 86.3679 186.382 86.4214C186.382 86.475 186.382 86.5821 186.435 86.6356C186.435 86.6891 186.489 86.7427 186.489 86.8498C186.489 86.9033 186.542 86.9569 186.596 87.064C186.65 87.1175 186.65 87.171 186.703 87.2246C186.757 87.2781 186.757 87.3317 186.81 87.3852C186.864 87.4388 186.918 87.4923 186.918 87.5459C186.971 87.5994 187.025 87.6529 187.078 87.7065C187.132 87.76 187.186 87.8136 187.239 87.8136C187.293 87.8671 187.346 87.8671 187.4 87.9207C187.454 87.9742 187.507 87.9742 187.561 88.0278C187.614 88.0813 187.668 88.0813 187.775 88.1349C187.829 88.1349 187.882 88.1884 187.99 88.1884C188.043 88.1884 188.15 88.2419 188.204 88.2419C188.258 88.2419 188.258 88.2419 188.311 88.2419C188.365 88.2419 188.365 88.2419 188.418 88.2419C188.472 88.2419 188.472 88.2419 188.526 88.2419C188.579 88.2419 188.579 88.2419 188.633 88.2419C188.74 88.2419 188.847 88.2419 188.901 88.1884C188.954 88.1884 188.954 88.1884 189.008 88.1884C189.115 88.1884 189.222 88.1348 189.33 88.0813C189.33 88.0813 189.33 88.0813 189.383 88.0813C189.49 88.0278 189.598 87.9742 189.705 87.9207C189.812 87.8671 189.919 87.76 189.973 87.7065L190.026 87.6529C190.08 87.5994 190.187 87.4923 190.241 87.3852C190.241 87.3317 190.294 87.3317 190.294 87.2781C190.348 87.2246 190.402 87.1175 190.402 87.064C190.402 87.0104 190.455 86.9569 190.455 86.9033C190.455 86.8498 190.509 86.7427 190.509 86.6891C190.509 86.6356 190.562 86.5285 190.562 86.475C190.562 86.4214 190.562 86.4214 190.562 86.3679C190.616 85.6182 190.723 84.8686 190.884 84.0654C191.42 82.0843 192.599 79.9425 194.207 77.8542C196.19 76.0337 198.817 74.9093 201.711 74.9093C207.822 74.9093 212.86 79.8889 212.86 85.9931C212.86 91.7759 208.358 96.5949 202.676 97.0233C197.316 97.0233 191.634 97.0768 187.882 97.0768C177.323 97.0768 163.387 97.0768 154.007 97.0768L147.843 83.1552C147.79 83.1016 147.736 82.9945 147.736 82.941L176.841 17.3485L177.055 16.8131C177.109 16.6525 177.162 16.4918 177.216 16.3312C179.574 9.53098 176.466 1.39216 173.732 0.214177C170.998 -0.96381 162.905 2.24888 159.474 8.56718C159.367 8.67427 159.314 8.8349 159.26 8.99553L137.123 58.7923L114.986 8.99553C114.933 8.8349 114.826 8.72781 114.718 8.56718C111.288 2.24888 103.194 -0.96381 100.461 0.267722C97.7271 1.44571 94.6183 9.58453 96.9767 16.3847C97.0303 16.5454 97.0303 16.706 97.1375 16.8666L97.3519 17.4021L126.457 82.7804L120.132 96.9698H78.8599L66.3175 77.3188C65.9423 76.7298 65.2455 76.355 64.5487 76.355C63.8519 76.355 63.1551 76.7298 62.7263 77.3188L57.5271 85.297L39.2495 56.6505C38.8743 56.0615 38.1775 55.6867 37.4807 55.6867C36.7839 55.6867 36.0871 56.0615 35.7119 56.6505C0.335938 110.624 0.335938 111.48 0.335938 112.284C0.335938 113.462 1.30074 114.425 2.47994 114.425C3.44474 114.425 4.24874 113.836 4.51674 112.98C5.58874 110.838 17.2199 92.7933 28.5831 75.3376H46.0567L64.7095 104.573C65.3527 105.59 66.6927 105.858 67.6575 105.216C68.6759 104.573 68.9439 103.235 68.3007 102.271L59.9927 89.2593L64.4415 82.4591L84.2199 113.462C84.3271 113.622 84.4343 113.729 84.5415 113.836C84.5951 113.89 84.5951 113.89 84.6487 113.943C84.7559 113.997 84.8095 114.104 84.9167 114.158C84.9703 114.211 85.0239 114.211 85.0775 114.211C85.1847 114.265 85.2919 114.318 85.3991 114.318C85.4527 114.318 85.5063 114.372 85.5063 114.372C85.6671 114.425 85.8279 114.425 85.9887 114.425H112.306L111.234 116.888C111.234 116.942 111.181 116.996 111.181 117.049C111.181 117.103 111.127 117.21 111.127 117.263C111.127 117.317 111.127 117.37 111.127 117.477C111.127 117.531 111.127 117.638 111.127 117.692C111.127 117.745 111.127 117.852 111.127 117.906C111.127 117.959 111.127 118.066 111.127 118.12C111.127 118.174 111.181 118.281 111.181 118.334C111.181 118.388 111.234 118.441 111.234 118.495C111.288 118.548 111.288 118.655 111.342 118.709C111.395 118.763 111.395 118.816 111.395 118.87C111.449 118.923 111.502 118.977 111.556 119.084C111.61 119.137 111.61 119.191 111.663 119.191C111.717 119.244 111.77 119.298 111.824 119.352C111.878 119.405 111.931 119.459 111.985 119.459C112.038 119.512 112.092 119.512 112.146 119.566C112.199 119.619 112.253 119.673 112.36 119.673L126.296 125.777C126.564 125.884 126.886 125.938 127.154 125.938C127.958 125.938 128.762 125.456 129.137 124.652L133.693 114.372H140.5L145.056 124.652C145.431 125.456 146.182 125.938 147.039 125.938C147.307 125.938 147.629 125.884 147.897 125.777L161.833 119.673C161.886 119.619 161.994 119.619 162.047 119.566C162.101 119.512 162.154 119.512 162.208 119.459C162.262 119.405 162.315 119.352 162.369 119.298C162.422 119.244 162.476 119.191 162.53 119.137C162.583 119.084 162.583 119.03 162.637 118.977C162.69 118.923 162.744 118.87 162.798 118.816C162.851 118.763 162.851 118.709 162.851 118.655C162.905 118.602 162.905 118.495 162.958 118.441C162.958 118.388 163.012 118.334 163.012 118.281C163.012 118.227 163.066 118.12 163.066 118.066C163.066 118.013 163.066 117.906 163.066 117.852C163.066 117.799 163.066 117.745 163.066 117.638C163.066 117.531 163.066 117.477 163.012 117.37C163.012 117.317 163.012 117.263 163.012 117.21C163.012 117.156 162.958 117.049 162.958 116.996C162.958 116.942 162.905 116.888 162.905 116.835L161.833 114.372H178.395C178.395 114.372 178.449 114.372 178.556 114.372H220.739C220.846 114.372 220.954 114.372 221.061 114.318C221.65 114.318 222.026 114.318 222.026 114.318C230.923 113.783 240.946 108.268 243.466 99.9683C243.734 100.022 244.002 100.129 244.27 100.182C248.022 100.986 254.829 101.146 259.814 101.146C263.137 101.146 265.656 101.093 265.924 101.039C267.103 100.986 268.014 100.022 268.014 98.8974C267.907 97.88 266.996 96.9162 265.817 96.9162ZM31.3703 71.054C33.4607 67.8413 35.4975 64.7357 37.4271 61.7908L43.3767 71.054H31.3703ZM217.202 85.886C217.202 77.4259 210.341 70.5721 201.926 70.5186C206.696 67.0382 212.056 64.6286 216.022 64.6286C224.974 64.6286 232.21 71.8572 232.21 80.7992C232.21 89.3128 225.51 96.4343 217.041 96.9162C216.826 96.9162 215.111 96.9162 212.485 96.9162C215.379 94.1319 217.202 90.2231 217.202 85.886ZM139.321 64.8428C139.267 64.7893 139.214 64.7357 139.16 64.6822L143.019 56.0615L146.396 57.5607L143.984 62.8617C143.502 63.9326 143.984 65.2176 145.056 65.6995C145.324 65.8066 145.646 65.9137 145.914 65.9137C146.718 65.9137 147.522 65.4318 147.843 64.6286L150.255 59.2742L152.935 60.4522L149.076 69.18L139.321 64.8428ZM171.963 4.28359C172.928 5.67575 174.965 11.0302 172.928 15.6351L154.758 56.5434L144.734 52.1527L162.905 11.2444C164.942 6.63956 170.248 4.49777 171.963 4.28359ZM134.336 65.057L125.063 69.1264L121.204 60.3986L123.884 59.2206L126.296 64.5751C126.671 65.3783 127.422 65.8602 128.226 65.8602C128.494 65.8602 128.815 65.8066 129.083 65.646C130.155 65.1641 130.638 63.879 130.155 62.8081L127.743 57.5072L131.12 56.0079L134.711 64.0932L134.336 65.057ZM102.23 4.28359C103.945 4.49777 109.251 6.69311 111.288 11.298L129.405 52.1527L119.382 56.5434L101.265 15.5816C99.2815 10.9767 101.265 5.67575 102.23 4.28359ZM126.778 73.0352L131.71 70.8399L128.762 77.4794L126.778 73.0352ZM87.2215 110.142L81.5399 101.253H118.202L114.236 110.142H87.2215ZM126.082 121.065L116.058 116.674L117.613 113.14L137.391 68.6445L147.414 73.0352L126.082 121.065ZM135.622 110.142L137.123 106.768L138.624 110.142H135.622ZM143.877 111.48L139.482 101.521L145.431 88.0813L158.134 116.674L148.111 121.065L143.877 111.48ZM221.758 110.142C220.739 110.142 182.898 110.195 178.663 110.195C178.502 110.195 178.449 110.195 178.342 110.195H159.903L155.937 101.307C167.943 101.307 176.894 101.307 183.487 101.307H183.541C183.594 101.307 185.363 101.307 188.043 101.307C202.462 101.307 202.622 101.307 202.676 101.307C202.73 101.307 202.783 101.307 202.837 101.307C210.234 101.307 216.987 101.253 217.202 101.253C224.062 100.825 229.958 97.0769 233.335 91.6153C234.461 93.3287 236.658 96.1666 239.499 98.2013C238.052 104.145 230.173 109.606 221.758 110.142ZM245.127 96.113C241 95.2028 237.248 89.9018 236.176 87.9742C235.962 87.6529 235.694 87.3852 235.372 87.171C236.015 85.1363 236.444 82.9945 236.444 80.7992C236.444 69.5548 227.278 60.3451 215.969 60.3451C210.555 60.3451 203.48 63.6648 197.584 68.4303C202.408 62.112 209.483 57.4001 218.434 56.8646C235.908 55.8473 241.804 70.8934 245.342 85.7253C246.521 90.6515 248.504 94.2925 251.398 96.8091C248.933 96.702 246.682 96.4879 245.127 96.113Z" fill="white"/>
<path d="M55.9713 31.4308C56.4001 31.8592 56.9361 32.0734 57.4721 32.0734C58.0081 32.0734 58.5441 31.8592 58.9729 31.4308L63.1537 27.2543L67.3345 31.4308C67.7633 31.8592 68.2993 32.0734 68.8353 32.0734C69.3713 32.0734 69.9073 31.8592 70.3361 31.4308C71.1937 30.5741 71.1937 29.2355 70.3361 28.4323L66.1553 24.2558L70.3361 20.0793C71.1937 19.2226 71.1937 17.884 70.3361 17.0808C69.4785 16.2241 68.1385 16.2241 67.3345 17.0808L63.1537 21.2573L58.9729 17.0808C58.1153 16.2241 56.7753 16.2241 55.9713 17.0808C55.1137 17.9375 55.1137 19.2761 55.9713 20.0793L60.1521 24.2558L55.9713 28.4323C55.1137 29.2355 55.1137 30.5741 55.9713 31.4308Z" fill="white"/>
<path d="M179.518 50.0645C179.947 50.4928 180.483 50.707 181.019 50.707C181.555 50.707 182.091 50.4928 182.52 50.0645L186.701 45.8879L190.881 50.0645C191.31 50.4928 191.846 50.707 192.382 50.707C192.918 50.707 193.454 50.4928 193.883 50.0645C194.741 49.2077 194.741 47.8691 193.883 47.0659L189.702 42.8894L193.883 38.7129C194.741 37.8562 194.741 36.5176 193.883 35.7144C193.025 34.8577 191.685 34.8577 190.881 35.7144L186.701 39.8909L182.52 35.7144C181.662 34.8577 180.322 34.8577 179.518 35.7144C178.661 36.5711 178.661 37.9098 179.518 38.7129L183.699 42.8894L179.518 47.0659C178.714 47.8691 178.714 49.2613 179.518 50.0645Z" fill="white"/>
<path d="M31.7988 78.9787C30.7804 78.3361 29.494 78.6039 28.8508 79.6212L19.3636 94.239C18.7204 95.2563 18.9884 96.5414 20.0068 97.1839C20.382 97.3981 20.7572 97.5052 21.186 97.5052C21.8828 97.5052 22.5796 97.1839 23.0084 96.5414L32.442 81.9236C33.0852 80.9598 32.7636 79.6212 31.7988 78.9787Z" fill="white"/>
<path d="M11.4322 165.507C14.7554 165.507 16.8994 167.381 17.8642 169.844C18.9362 172.468 18.561 175.467 15.9346 177.394C18.9898 178.679 20.0618 181.464 20.0618 183.98C20.0618 187.942 17.4354 191.958 12.3434 191.958H0.390625V165.507H11.4322ZM4.14262 176.056H11.325C15.5058 176.056 15.5594 169.148 11.3786 169.148H4.14262V176.056ZM4.14262 188.264H12.3434C14.9162 188.264 16.2026 186.122 16.2026 184.034C16.2026 181.945 14.9162 179.857 12.3434 179.857H4.14262V188.264Z" fill="white"/>
<path d="M29.068 169.148C31.48 166.685 34.9104 165.132 38.6088 165.132C42.3608 165.132 45.7376 166.685 48.2032 169.148C50.6152 171.611 52.1696 174.985 52.1696 178.733C52.1696 182.481 50.6152 185.854 48.2032 188.317C45.7376 190.834 42.3608 192.333 38.6088 192.333C34.9104 192.333 31.48 190.834 29.068 188.317C26.656 185.854 25.1016 182.481 25.1016 178.733C25.1016 174.985 26.656 171.611 29.068 169.148ZM45.4696 171.879C43.7008 170.112 41.2352 168.988 38.6088 168.988C35.9824 168.988 33.5704 170.112 31.8016 171.879C30.0328 173.646 28.9608 176.056 28.9608 178.733C28.9608 181.41 30.0864 183.82 31.8016 185.587C33.5704 187.353 35.9824 188.478 38.6088 188.478C41.2352 188.478 43.7008 187.407 45.4696 185.587C47.1848 183.82 48.2568 181.464 48.2568 178.733C48.3104 176.002 47.1848 173.646 45.4696 171.879Z" fill="white"/>
<path d="M62.2967 192.012H58.4375V165.507H61.5463L70.3367 178.358L79.1271 165.507H82.1823V192.012H78.3767V173.325L71.4087 183.605H69.2647L62.2967 173.325V192.012Z" fill="white"/>
<path d="M136.799 172.361C136.263 169.951 133.69 168.934 131.386 168.988C129.617 169.041 127.634 169.63 126.562 170.969C126.026 171.665 125.865 172.522 125.918 173.432C126.133 176.163 129.081 176.484 131.975 176.752C135.62 177.18 140.122 178.144 141.141 182.374C141.248 182.963 141.355 183.605 141.355 184.141C141.355 189.228 136.263 192.226 131.493 192.226C127.419 192.226 122.434 189.817 121.952 185.051L121.898 184.355L125.758 184.301L125.811 184.89V184.73C126.079 187.193 129.081 188.478 131.546 188.478C134.387 188.478 137.496 186.872 137.496 184.141C137.496 183.873 137.442 183.552 137.389 183.231C136.906 181.196 134.226 180.875 131.546 180.607C127.419 180.178 122.542 179.268 122.113 173.753V173.807C121.952 172.04 122.434 170.273 123.56 168.773C125.329 166.471 128.545 165.239 131.6 165.239C135.674 165.239 139.962 167.381 140.658 172.2L136.799 172.361Z" fill="white"/>
<path d="M156.795 165.507C162.531 165.507 165.425 169.951 165.425 174.342C165.425 178.733 162.531 183.177 156.795 183.177H150.953V192.012H147.094V165.507H156.795ZM156.795 179.375C160.011 179.375 161.619 176.859 161.619 174.396C161.619 171.879 160.011 169.362 156.795 169.362H150.953V179.375H156.795Z" fill="white"/>
<path d="M174.209 169.148C176.621 166.685 180.051 165.132 183.749 165.132C187.501 165.132 190.878 166.685 193.344 169.148C195.756 171.611 197.31 174.985 197.31 178.733C197.31 182.481 195.756 185.854 193.344 188.317C190.878 190.834 187.501 192.333 183.749 192.333C180.051 192.333 176.621 190.834 174.209 188.317C171.797 185.854 170.242 182.481 170.242 178.733C170.242 174.985 171.797 171.611 174.209 169.148ZM190.61 171.879C188.841 170.112 186.376 168.988 183.749 168.988C181.123 168.988 178.711 170.112 176.942 171.879C175.173 173.646 174.101 176.056 174.101 178.733C174.101 181.41 175.227 183.82 176.942 185.587C178.711 187.353 181.123 188.478 183.749 188.478C186.376 188.478 188.841 187.407 190.61 185.587C192.325 183.82 193.397 181.464 193.397 178.733C193.451 176.002 192.325 173.646 190.61 171.879Z" fill="white"/>
<path d="M208.73 178.572H213.233C216.449 178.572 218.057 176.27 218.057 173.967C218.057 171.718 216.449 169.362 213.233 169.362H207.337V192.012H203.531V165.507H213.233C219.022 165.507 221.862 169.737 221.862 173.967C221.862 177.715 219.558 181.303 215.002 182.053L223.363 192.012H218.378L208.677 180.393V178.572H208.73Z" fill="white"/>
<path d="M233.923 192.119V169.362H225.883V165.507H245.768V169.362H237.782V192.119H233.923Z" fill="white"/>
<path d="M263.83 172.361C263.294 169.951 260.722 168.934 258.417 168.988C256.648 169.041 254.665 169.63 253.593 170.969C253.057 171.665 252.896 172.522 252.95 173.432C253.164 176.163 256.112 176.484 259.006 176.752C262.651 177.18 267.154 178.144 268.172 182.374C268.279 182.963 268.386 183.605 268.386 184.141C268.386 189.228 263.294 192.226 258.524 192.226C254.45 192.226 249.466 189.817 248.983 185.051L248.93 184.355L252.789 184.301L252.842 184.89V184.73C253.11 187.193 256.112 188.478 258.578 188.478C261.418 188.478 264.527 186.872 264.527 184.141C264.527 183.873 264.474 183.552 264.42 183.231C263.991 181.196 261.258 180.875 258.578 180.607C254.45 180.178 249.573 179.268 249.144 173.753V173.807C248.983 172.04 249.466 170.273 250.591 168.773C252.36 166.471 255.576 165.239 258.631 165.239C262.705 165.239 266.993 167.381 267.69 172.2L263.83 172.361Z" fill="white"/>
<path d="M105.663 172.95H107.807V184.998H109.361V187.675H107.807V191.958H105.073V187.675H95.5859V185.747L105.663 172.95ZM105.127 185.105V177.769L99.1771 185.105H105.127Z" fill="white"/>
<path d="M89.5815 180.071C88.4023 180.071 87.4375 181.035 87.4375 182.213C87.4375 183.391 88.4023 184.355 89.5815 184.355C90.7607 184.355 91.7255 183.391 91.7255 182.213C91.7791 181.035 90.8143 180.071 89.5815 180.071Z" fill="white"/>
<path d="M115.042 180.071C113.863 180.071 112.898 181.035 112.898 182.213C112.898 183.391 113.863 184.355 115.042 184.355C116.222 184.355 117.186 183.391 117.186 182.213C117.186 181.035 116.222 180.071 115.042 180.071Z" fill="white"/>
</g>
<defs>
<clipPath id="clip0_1343_2497">
<rect width="268" height="216" fill="white" transform="translate(0.5)"/>
</clipPath>
</defs>
</svg>
