 <svg
          xmlns="http://www.w3.org/2000/svg"
          width="654"
          height="528"
          viewBox="0 0 654 528"
          fill="none"
        >
          <path
            d="M647.84 355.611H5.98043C3.10799 355.611 0.757812 353.26 0.757812 350.388C0.757812 347.515 3.10799 345.165 5.98043 345.165H647.97C650.843 345.165 653.193 347.515 653.193 350.388C653.193 353.26 650.712 355.611 647.84 355.611Z"
            fill="black"
          />
          <path
            d="M647.84 527.043H5.98043C3.10799 527.043 0.757812 524.693 0.757812 521.82C0.757812 518.948 3.10799 516.598 5.98043 516.598H647.97C650.843 516.598 653.193 518.948 653.193 521.82C653.193 524.693 650.712 527.043 647.84 527.043Z"
            fill="black"
          />
          <path
            d="M178.341 331.848H36.8086C33.9361 331.848 31.5859 329.498 31.5859 326.625C31.5859 323.753 33.9361 321.403 36.8086 321.403H178.341C181.214 321.403 183.564 323.753 183.564 326.625C183.564 329.628 181.214 331.848 178.341 331.848Z"
            fill="black"
          />
          <path
            d="M621.715 331.848H422.473C419.6 331.848 417.25 329.498 417.25 326.625C417.25 323.753 419.6 321.403 422.473 321.403H621.715C624.588 321.403 626.938 323.753 626.938 326.625C626.807 329.628 624.588 331.848 621.715 331.848Z"
            fill="black"
          />
          <path
            d="M213.187 308.998H143.465C140.592 308.998 138.242 306.648 138.242 303.776C138.242 300.903 140.592 298.553 143.465 298.553H213.187C216.059 298.553 218.409 300.903 218.409 303.776C218.409 306.779 216.059 308.998 213.187 308.998Z"
            fill="black"
          />
          <path
            d="M647.19 236.664C620.033 236.402 611.677 224.651 607.498 207.025C598.489 169.031 581.646 125.683 531.248 128.686C494.559 130.775 463.615 160.022 455.52 198.408C454.345 202.064 453.692 205.85 453.692 209.898V210.028C453.692 210.159 453.692 210.159 453.692 210.289C453.692 210.42 453.692 210.55 453.692 210.55C453.692 210.681 453.692 210.942 453.692 211.073C453.692 211.203 453.692 211.464 453.823 211.595C453.823 211.726 453.954 211.856 453.954 212.117C453.954 212.248 454.084 212.378 454.215 212.639C454.345 212.77 454.345 212.901 454.476 213.031C454.606 213.162 454.606 213.292 454.737 213.423C454.868 213.553 454.998 213.684 454.998 213.815C455.129 213.945 455.259 214.076 455.39 214.206C455.52 214.337 455.651 214.467 455.781 214.467C455.912 214.598 456.043 214.598 456.173 214.729C456.304 214.859 456.434 214.859 456.565 214.99C456.695 215.12 456.826 215.12 457.087 215.251C457.218 215.251 457.348 215.381 457.609 215.381C457.74 215.381 458.001 215.512 458.132 215.512C458.262 215.512 458.262 215.512 458.393 215.512C458.523 215.512 458.523 215.512 458.654 215.512C458.784 215.512 458.784 215.512 458.915 215.512C459.046 215.512 459.046 215.512 459.176 215.512C459.437 215.512 459.698 215.512 459.829 215.381C459.96 215.381 459.96 215.381 460.09 215.381C460.351 215.381 460.612 215.251 460.874 215.12C460.874 215.12 460.874 215.12 461.004 215.12C461.265 214.99 461.526 214.859 461.787 214.729C462.049 214.598 462.31 214.337 462.44 214.206L462.571 214.076C462.701 213.945 462.963 213.684 463.093 213.423C463.093 213.292 463.224 213.292 463.224 213.162C463.354 213.031 463.485 212.77 463.485 212.639C463.485 212.509 463.615 212.378 463.615 212.248C463.615 212.117 463.746 211.856 463.746 211.726C463.746 211.595 463.877 211.334 463.877 211.203C463.877 211.073 463.877 211.073 463.877 210.942C464.007 209.114 464.268 207.286 464.66 205.328C465.966 200.497 468.838 195.274 472.755 190.182C477.586 185.743 483.984 183.001 491.034 183.001C505.919 183.001 518.192 195.144 518.192 210.028C518.192 224.129 507.224 235.88 493.384 236.925C480.328 236.925 466.488 237.055 457.348 237.055C431.627 237.055 397.68 237.055 374.831 237.055L359.816 203.108C359.685 202.978 359.555 202.716 359.555 202.586L430.452 42.6433L430.974 41.3377C431.105 40.946 431.235 40.5543 431.366 40.1626C437.111 23.5808 429.538 3.73484 422.879 0.862398C416.22 -2.01004 396.505 5.82388 388.149 21.2306C387.887 21.4917 387.757 21.8834 387.626 22.2751L333.703 143.701L279.779 22.2751C279.649 21.8834 279.388 21.6223 279.127 21.2306C270.77 5.82388 251.055 -2.01004 244.396 0.992964C237.737 3.8654 230.165 23.7113 235.909 40.2931C236.04 40.6848 236.04 41.0765 236.301 41.4682L236.823 42.7739L307.72 202.194L292.314 236.794H191.778L161.226 188.877C160.312 187.44 158.615 186.526 156.917 186.526C155.22 186.526 153.523 187.44 152.478 188.877L139.813 208.331L95.2905 138.478C94.3765 137.042 92.6792 136.128 90.9818 136.128C89.2845 136.128 87.5871 137.042 86.6731 138.478C0.5 270.088 0.5 272.177 0.5 274.136C0.5 277.008 2.85018 279.358 5.72262 279.358C8.07279 279.358 10.0313 277.922 10.6841 275.833C13.2954 270.611 41.6281 226.61 69.308 184.046H111.872L157.309 255.334C158.876 257.815 162.14 258.468 164.49 256.901C166.971 255.334 167.624 252.07 166.057 249.72L145.819 217.993L156.656 201.411L204.835 277.008C205.096 277.4 205.357 277.661 205.618 277.922C205.749 278.053 205.749 278.053 205.879 278.183C206.14 278.314 206.271 278.575 206.532 278.706C206.663 278.836 206.793 278.836 206.924 278.836C207.185 278.967 207.446 279.097 207.707 279.097C207.838 279.097 207.968 279.228 207.968 279.228C208.36 279.358 208.752 279.358 209.143 279.358H273.251L270.64 285.364C270.64 285.495 270.509 285.626 270.509 285.756C270.509 285.887 270.379 286.148 270.379 286.278C270.379 286.409 270.379 286.539 270.379 286.801C270.379 286.931 270.379 287.192 270.379 287.323C270.379 287.453 270.379 287.715 270.379 287.845C270.379 287.976 270.379 288.237 270.379 288.367C270.379 288.498 270.509 288.759 270.509 288.89C270.509 289.02 270.64 289.151 270.64 289.281C270.77 289.412 270.77 289.673 270.901 289.804C271.031 289.934 271.031 290.065 271.031 290.195C271.162 290.326 271.293 290.456 271.423 290.718C271.554 290.848 271.554 290.979 271.684 290.979C271.815 291.109 271.945 291.24 272.076 291.37C272.207 291.501 272.337 291.632 272.468 291.632C272.598 291.762 272.729 291.762 272.859 291.893C272.99 292.023 273.121 292.154 273.382 292.154L307.329 307.038C307.981 307.299 308.765 307.43 309.418 307.43C311.376 307.43 313.335 306.255 314.249 304.296L325.347 279.228H341.928L353.027 304.296C353.94 306.255 355.768 307.43 357.857 307.43C358.51 307.43 359.294 307.299 359.946 307.038L393.893 292.154C394.024 292.023 394.285 292.023 394.416 291.893C394.546 291.762 394.677 291.762 394.807 291.632C394.938 291.501 395.069 291.37 395.199 291.24C395.33 291.109 395.46 290.979 395.591 290.848C395.721 290.718 395.721 290.587 395.852 290.456C395.983 290.326 396.113 290.195 396.244 290.065C396.374 289.934 396.374 289.804 396.374 289.673C396.505 289.543 396.505 289.281 396.635 289.151C396.635 289.02 396.766 288.89 396.766 288.759C396.766 288.629 396.896 288.367 396.896 288.237C396.896 288.106 396.896 287.845 396.896 287.715C396.896 287.584 396.896 287.453 396.896 287.192C396.896 286.931 396.896 286.801 396.766 286.539C396.766 286.409 396.766 286.278 396.766 286.148C396.766 286.017 396.635 285.756 396.635 285.626C396.635 285.495 396.505 285.364 396.505 285.234L393.893 279.228H434.238C434.238 279.228 434.369 279.228 434.63 279.228H537.385C537.646 279.228 537.907 279.228 538.168 279.097C539.604 279.097 540.518 279.097 540.518 279.097C562.192 277.792 586.608 264.343 592.745 244.106C593.397 244.236 594.05 244.497 594.703 244.628C603.843 246.586 620.424 246.978 632.567 246.978C640.662 246.978 646.799 246.848 647.451 246.717C650.324 246.586 652.544 244.236 652.544 241.494C652.282 239.014 650.063 236.664 647.19 236.664ZM76.0974 173.6C81.1894 165.766 86.1509 158.194 90.8512 151.013L105.344 173.6H76.0974ZM528.768 209.767C528.768 189.138 512.055 172.425 491.556 172.295C503.177 163.808 516.233 157.933 525.895 157.933C547.7 157.933 565.326 175.559 565.326 197.363C565.326 218.123 549.005 235.488 528.376 236.664C527.854 236.664 523.675 236.664 517.278 236.664C524.328 229.874 528.768 220.343 528.768 209.767ZM339.056 158.455C338.925 158.324 338.795 158.194 338.664 158.063L348.065 137.042L356.291 140.698L350.415 153.624C349.24 156.235 350.415 159.369 353.027 160.544C353.679 160.805 354.463 161.066 355.116 161.066C357.074 161.066 359.033 159.891 359.816 157.933L365.691 144.876L372.22 147.748L362.819 169.031L339.056 158.455ZM418.57 10.7854C420.921 14.1801 425.882 27.2366 420.921 38.4652L376.659 138.217L352.243 127.511L396.505 27.7589C401.466 16.5302 414.392 11.3076 418.57 10.7854ZM326.913 158.977L304.326 168.9L294.925 147.618L301.453 144.745L307.329 157.802C308.243 159.76 310.071 160.936 312.029 160.936C312.682 160.936 313.465 160.805 314.118 160.413C316.729 159.238 317.904 156.105 316.729 153.493L310.854 140.567L319.08 136.912L327.827 156.627L326.913 158.977ZM248.705 10.7854C252.883 11.3076 265.809 16.6608 270.77 27.8894L314.901 127.511L290.486 138.217L246.355 38.3347C241.524 27.106 246.355 14.1801 248.705 10.7854ZM308.504 178.431L320.516 173.078L313.335 189.268L308.504 178.431ZM212.146 268.913L198.307 247.239H287.613L277.951 268.913H212.146ZM306.806 295.548L282.391 284.842L286.177 276.225L334.356 167.725L358.771 178.431L306.806 295.548ZM330.047 268.913L333.703 260.688L337.359 268.913H330.047ZM350.154 272.177L339.448 247.892L353.94 215.12L384.884 284.842L360.469 295.548L350.154 272.177ZM539.866 268.913C537.385 268.913 445.206 269.044 434.891 269.044C434.499 269.044 434.369 269.044 434.108 269.044H389.193L379.531 247.37C408.778 247.37 430.582 247.37 446.642 247.37H446.772C446.903 247.37 451.212 247.37 457.74 247.37C492.862 247.37 493.254 247.37 493.384 247.37C493.515 247.37 493.645 247.37 493.776 247.37C511.794 247.37 528.245 247.239 528.768 247.239C545.48 246.195 559.842 237.055 568.068 223.738C570.81 227.916 576.163 234.836 583.083 239.797C579.557 254.29 560.364 267.608 539.866 268.913ZM596.792 234.705C586.739 232.485 577.599 219.559 574.988 214.859C574.465 214.076 573.813 213.423 573.029 212.901C574.596 207.939 575.641 202.716 575.641 197.363C575.641 169.945 553.314 147.487 525.765 147.487C512.577 147.487 495.343 155.582 480.981 167.203C492.731 151.796 509.966 140.306 531.771 139.001C574.335 136.52 588.697 173.209 597.314 209.375C600.187 221.387 605.018 230.266 612.068 236.402C606.062 236.141 600.578 235.619 596.792 234.705Z"
            fill="black"
          />
          <path
            d="M136.036 76.9816C137.08 78.0262 138.386 78.5484 139.691 78.5484C140.997 78.5484 142.303 78.0262 143.347 76.9816L153.531 66.7976L163.715 76.9816C164.76 78.0262 166.066 78.5484 167.371 78.5484C168.677 78.5484 169.983 78.0262 171.027 76.9816C173.116 74.8926 173.116 71.6285 171.027 69.67L160.843 59.4859L171.027 49.3018C173.116 47.2127 173.116 43.9486 171.027 41.9901C168.938 39.9011 165.674 39.9011 163.715 41.9901L153.531 52.1742L143.347 41.9901C141.258 39.9011 137.994 39.9011 136.036 41.9901C133.946 44.0792 133.946 47.3433 136.036 49.3018L146.22 59.4859L136.036 69.67C133.946 71.6285 133.946 74.8926 136.036 76.9816Z"
            fill="black"
          />
          <path
            d="M436.989 122.42C438.033 123.464 439.339 123.987 440.644 123.987C441.95 123.987 443.256 123.464 444.3 122.42L454.484 112.236L464.669 122.42C465.713 123.464 467.019 123.987 468.324 123.987C469.63 123.987 470.936 123.464 471.98 122.42C474.069 120.331 474.069 117.067 471.98 115.108L461.796 104.924L471.98 94.74C474.069 92.651 474.069 89.3868 471.98 87.4284C469.891 85.3393 466.627 85.3393 464.669 87.4284L454.484 97.6125L444.3 87.4284C442.211 85.3393 438.947 85.3393 436.989 87.4284C434.9 89.5174 434.9 92.7815 436.989 94.74L447.173 104.924L436.989 115.108C435.03 117.067 435.03 120.461 436.989 122.42Z"
            fill="black"
          />
          <path
            d="M77.1465 192.924C74.6658 191.358 71.5322 192.01 69.9654 194.491L46.8554 230.136C45.2886 232.616 45.9414 235.75 48.4222 237.317C49.3361 237.839 50.2501 238.1 51.2946 238.1C52.9919 238.1 54.6893 237.317 55.7338 235.75L78.7133 200.106C80.2801 197.755 79.4967 194.491 77.1465 192.924Z"
            fill="black"
          />
          <path
            d="M27.5683 403.923C35.6634 403.923 40.886 408.492 43.2362 414.498C45.8475 420.896 44.9335 428.208 38.5358 432.908C45.9781 436.042 48.5894 442.831 48.5894 448.968C48.5894 458.63 42.1917 468.422 29.788 468.422H0.671875V403.923H27.5683ZM9.81145 429.644H27.3072C37.4913 429.644 37.6219 412.801 27.4378 412.801H9.81145V429.644ZM9.81145 459.413H29.788C36.0551 459.413 39.1887 454.19 39.1887 449.098C39.1887 444.006 36.0551 438.914 29.788 438.914H9.81145V459.413Z"
            fill="black"
          />
          <path
            d="M70.5212 412.801C76.3967 406.795 84.7528 403.008 93.7618 403.008C102.901 403.008 111.127 406.795 117.133 412.801C123.008 418.807 126.795 427.032 126.795 436.172C126.795 445.311 123.008 453.537 117.133 459.543C111.127 465.68 102.901 469.336 93.7618 469.336C84.7528 469.336 76.3967 465.68 70.5212 459.543C64.6458 453.537 60.8594 445.311 60.8594 436.172C60.8594 427.032 64.6458 418.807 70.5212 412.801ZM110.474 419.46C106.166 415.151 100.16 412.409 93.7618 412.409C87.3641 412.409 81.4887 415.151 77.18 419.46C72.8714 423.768 70.2601 429.644 70.2601 436.172C70.2601 442.7 73.002 448.576 77.18 452.884C81.4887 457.193 87.3641 459.935 93.7618 459.935C100.16 459.935 106.166 457.324 110.474 452.884C114.652 448.576 117.264 442.831 117.264 436.172C117.394 429.513 114.652 423.768 110.474 419.46Z"
            fill="black"
          />
          <path
            d="M151.502 468.552H142.102V403.923H149.674L171.087 435.258L192.5 403.923H199.942V468.552H190.672V422.985L173.698 448.054H168.476L151.502 422.985V468.552Z"
            fill="black"
          />
          <path
            d="M332.969 420.635C331.663 414.76 325.396 412.279 319.782 412.409C315.473 412.54 310.642 413.976 308.031 417.24C306.725 418.938 306.334 421.027 306.464 423.246C306.987 429.905 314.168 430.689 321.218 431.341C330.097 432.386 341.064 434.736 343.545 445.051C343.806 446.487 344.067 448.054 344.067 449.359C344.067 461.763 331.663 469.075 320.043 469.075C310.12 469.075 297.978 463.199 296.802 451.579L296.672 449.882L306.073 449.751L306.203 451.187V450.796C306.856 456.802 314.168 459.935 320.174 459.935C327.094 459.935 334.666 456.018 334.666 449.359C334.666 448.707 334.536 447.923 334.405 447.14C333.23 442.178 326.702 441.395 320.174 440.742C310.12 439.697 298.239 437.478 297.194 424.03V424.16C296.802 419.852 297.978 415.543 300.719 411.887C305.028 406.273 312.862 403.27 320.304 403.27C330.227 403.27 340.672 408.492 342.37 420.243L332.969 420.635Z"
            fill="black"
          />
          <path
            d="M381.687 403.923C395.658 403.923 402.708 414.76 402.708 425.466C402.708 436.172 395.658 447.009 381.687 447.009H367.455V468.552H358.055V403.923H381.687ZM381.687 437.739C389.521 437.739 393.438 431.602 393.438 425.596C393.438 419.46 389.521 413.323 381.687 413.323H367.455V437.739H381.687Z"
            fill="black"
          />
          <path
            d="M424.099 412.801C429.975 406.795 438.331 403.008 447.34 403.008C456.48 403.008 464.705 406.795 470.711 412.801C476.587 418.807 480.373 427.032 480.373 436.172C480.373 445.311 476.587 453.537 470.711 459.543C464.705 465.68 456.48 469.336 447.34 469.336C438.331 469.336 429.975 465.68 424.099 459.543C418.224 453.537 414.438 445.311 414.438 436.172C414.437 427.032 418.224 418.807 424.099 412.801ZM464.052 419.46C459.744 415.151 453.738 412.409 447.34 412.409C440.942 412.409 435.067 415.151 430.758 419.46C426.45 423.768 423.838 429.644 423.838 436.172C423.838 442.7 426.58 448.576 430.758 452.884C435.067 457.193 440.942 459.935 447.34 459.935C453.738 459.935 459.744 457.324 464.052 452.884C468.23 448.576 470.842 442.831 470.842 436.172C470.972 429.513 468.23 423.768 464.052 419.46Z"
            fill="black"
          />
          <path
            d="M508.18 435.781H519.148C526.982 435.781 530.899 430.166 530.899 424.552C530.899 419.068 526.982 413.323 519.148 413.323H504.786V468.552H495.516V403.923H519.148C533.249 403.923 540.169 414.237 540.169 424.552C540.169 433.692 534.555 442.439 523.457 444.267L543.825 468.552H531.682L508.05 440.22V435.781H508.18Z"
            fill="black"
          />
          <path
            d="M569.546 468.814V413.323H549.961V403.923H598.401V413.323H578.946V468.814H569.546Z"
            fill="black"
          />
          <path
            d="M642.407 420.635C641.101 414.76 634.834 412.279 629.219 412.409C624.911 412.54 620.08 413.976 617.469 417.24C616.163 418.938 615.771 421.027 615.902 423.246C616.424 429.905 623.605 430.689 630.656 431.341C639.534 432.386 650.502 434.736 652.982 445.051C653.243 446.487 653.505 448.054 653.505 449.359C653.505 461.763 641.101 469.075 629.481 469.075C619.558 469.075 607.415 463.199 606.24 451.579L606.109 449.882L615.51 449.751L615.641 451.187V450.796C616.293 456.802 623.605 459.935 629.611 459.935C636.531 459.935 644.104 456.018 644.104 449.359C644.104 448.707 643.973 447.923 643.843 447.14C642.798 442.178 636.139 441.395 629.611 440.742C619.558 439.697 607.676 437.478 606.632 424.03V424.16C606.24 419.852 607.415 415.543 610.157 411.887C614.466 406.273 622.299 403.27 629.742 403.27C639.665 403.27 650.11 408.492 651.807 420.243L642.407 420.635Z"
            fill="black"
          />
          <path
            d="M257.093 422.067H262.316V451.444H266.102V457.972H262.316V468.418H255.657V457.972H232.547V453.272L257.093 422.067ZM255.788 451.705V433.818L241.295 451.705H255.788Z"
            fill="black"
          />
          <path
            d="M217.887 439.433C215.014 439.433 212.664 441.783 212.664 444.655C212.664 447.528 215.014 449.878 217.887 449.878C220.759 449.878 223.109 447.528 223.109 444.655C223.24 441.783 220.89 439.433 217.887 439.433Z"
            fill="black"
          />
          <path
            d="M279.926 439.433C277.053 439.433 274.703 441.783 274.703 444.655C274.703 447.528 277.053 449.878 279.926 449.878C282.798 449.878 285.148 447.528 285.148 444.655C285.148 441.783 282.798 439.433 279.926 439.433Z"
            fill="black"
          />
        </svg>