<svg width="1793" height="777" viewBox="0 0 1793 777" fill="none" xmlns="http://www.w3.org/2000/svg">
<g clip-path="url(#clip0_1799_2569)">
<mask id="mask0_1799_2569" style="mask-type:luminance" maskUnits="userSpaceOnUse" x="0" y="0" width="1793" height="777">
<path d="M0 0H1793V777H0V0Z" fill="white"/>
</mask>
<g mask="url(#mask0_1799_2569)">
<path d="M982.281 437.743C969.805 415.595 956.311 393.726 941.792 372.129C927.269 350.536 911.816 330.156 895.435 310.983V437.743H852.438V244.25H887.903C894.045 250.393 900.832 257.933 908.284 266.869C915.724 275.804 923.313 285.342 931.041 295.486C938.765 305.633 946.443 316.146 954.077 327.036C961.708 337.926 968.876 348.396 975.578 358.446V244.25H1018.86V437.743H982.281Z" fill="#0F48B7"/>
<path d="M1063.53 437.743V244.25H1194.21V280.828H1107.09V318.8H1184.44V354.538H1107.09V401.166H1200.64V437.743H1063.53Z" fill="#0F48B7"/>
<path d="M1284.13 244.251C1287.49 250.393 1291.36 257.981 1295.75 267.006C1300.13 276.038 1304.7 285.809 1309.46 296.326C1314.23 306.842 1318.94 317.592 1323.6 328.571C1328.27 339.558 1332.65 349.888 1336.76 359.562C1340.87 349.888 1345.25 339.558 1349.92 328.571C1354.59 317.592 1359.3 306.842 1364.06 296.326C1368.82 285.809 1373.39 276.038 1377.78 267.006C1382.16 257.981 1386.04 250.393 1389.4 244.251H1429.05C1430.91 257.095 1432.63 271.473 1434.21 287.39C1435.79 303.303 1437.19 319.873 1438.4 337.087C1439.61 354.306 1440.73 371.57 1441.75 388.882C1442.77 406.19 1443.66 422.483 1444.41 437.744H1401.96C1401.4 418.944 1400.66 398.47 1399.73 376.318C1398.79 354.166 1397.4 331.831 1395.54 309.306C1392.17 317.126 1388.44 325.778 1384.34 335.273C1380.23 344.768 1376.17 354.259 1372.15 363.754C1368.14 373.245 1364.26 382.32 1360.53 390.976C1356.79 399.632 1353.62 407.029 1351 413.171H1320.57C1317.95 407.029 1314.78 399.632 1311.04 390.976C1307.31 382.32 1303.43 373.245 1299.42 363.754C1295.4 354.259 1291.34 344.768 1287.23 335.273C1283.12 325.778 1279.39 317.126 1276.03 309.306C1274.16 331.831 1272.77 354.166 1271.84 376.318C1270.91 398.47 1270.17 418.944 1269.61 437.744H1227.16C1227.91 422.483 1228.79 406.19 1229.82 388.882C1230.84 371.57 1231.95 354.306 1233.17 337.087C1234.38 319.873 1235.77 303.303 1237.36 287.39C1238.94 271.473 1240.66 257.095 1242.52 244.251H1284.13Z" fill="#0F48B7"/>
<path d="M1519.8 340.858C1519.8 350.349 1520.95 358.915 1523.29 366.546C1525.61 374.18 1528.96 380.741 1533.34 386.227C1537.71 391.72 1543.06 395.959 1549.4 398.935C1555.72 401.911 1562.98 403.399 1571.18 403.399C1579.18 403.399 1586.4 401.911 1592.81 398.935C1599.24 395.959 1604.63 391.72 1609.01 386.227C1613.38 380.741 1616.73 374.18 1619.06 366.546C1621.39 358.915 1622.56 350.349 1622.56 340.858C1622.56 331.363 1621.39 322.758 1619.06 315.03C1616.73 307.307 1613.38 300.699 1609.01 295.209C1604.63 289.72 1599.24 285.481 1592.81 282.501C1586.4 279.525 1579.18 278.034 1571.18 278.034C1562.98 278.034 1555.72 279.572 1549.4 282.641C1543.06 285.714 1537.71 289.999 1533.34 295.485C1528.96 300.978 1525.61 307.587 1523.29 315.31C1520.95 323.037 1519.8 331.549 1519.8 340.858ZM1667.51 340.858C1667.51 357.427 1665.04 371.988 1660.11 384.553C1655.17 397.117 1648.42 407.637 1639.86 416.103C1631.3 424.576 1621.11 430.951 1609.29 435.228C1597.47 439.51 1584.76 441.65 1571.18 441.65C1557.95 441.65 1545.49 439.51 1533.76 435.228C1522.03 430.951 1511.79 424.576 1503.04 416.103C1494.29 407.637 1487.4 397.117 1482.38 384.553C1477.35 371.988 1474.84 357.427 1474.84 340.858C1474.84 324.292 1477.44 309.724 1482.66 297.163C1487.87 284.595 1494.9 274.036 1503.74 265.473C1512.58 256.911 1522.82 250.489 1534.45 246.204C1546.09 241.926 1558.33 239.786 1571.18 239.786C1584.39 239.786 1596.87 241.926 1608.59 246.204C1620.32 250.489 1630.55 256.911 1639.31 265.473C1648.06 274.036 1654.94 284.595 1659.97 297.163C1664.99 309.724 1667.51 324.292 1667.51 340.858Z" fill="#0F48B7"/>
<path d="M868.519 546.875C876.161 546.875 879.98 544.26 879.98 539.035C879.98 537.427 879.638 536.055 878.962 534.925C878.282 533.794 877.365 532.815 876.211 531.984C875.054 531.156 873.733 530.438 872.252 529.835C870.768 529.233 869.198 528.631 867.539 528.029C865.628 527.372 863.817 526.63 862.108 525.803C860.402 524.971 858.918 523.992 857.663 522.862C856.408 521.731 855.413 520.387 854.687 518.829C853.956 517.271 853.591 515.387 853.591 513.176C853.591 508.6 855.149 505.03 858.265 502.469C861.381 499.905 865.678 498.623 871.157 498.623C874.327 498.623 877.202 498.961 879.79 499.641C882.381 500.321 884.277 501.063 885.486 501.867L883.147 507.823C882.09 507.166 880.52 506.529 878.434 505.9C876.347 505.271 873.923 504.956 871.157 504.956C869.75 504.956 868.445 505.107 867.236 505.41C866.032 505.71 864.975 506.16 864.07 506.766C863.165 507.368 862.45 508.138 861.921 509.066C861.393 509.995 861.133 511.09 861.133 512.345C861.133 513.751 861.408 514.932 861.96 515.888C862.512 516.844 863.289 517.687 864.295 518.413C865.301 519.144 866.471 519.808 867.804 520.41C869.136 521.013 870.605 521.619 872.213 522.221C874.475 523.126 876.549 524.031 878.434 524.936C880.318 525.842 881.954 526.922 883.333 528.176C884.716 529.435 885.785 530.931 886.539 532.664C887.296 534.396 887.673 536.494 887.673 538.957C887.673 543.534 885.999 547.05 882.657 549.513C879.312 551.976 874.599 553.208 868.519 553.208C866.455 553.208 864.559 553.068 862.827 552.792C861.094 552.516 859.547 552.19 858.187 551.813C856.832 551.436 855.662 551.032 854.687 550.608C853.704 550.181 852.935 549.812 852.383 549.513L854.57 543.483C855.724 544.136 857.488 544.863 859.85 545.667C862.213 546.475 865.099 546.875 868.519 546.875Z" fill="#0F48B7"/>
<path d="M910.965 505.712C907.849 505.712 905.459 505.786 903.8 505.937V526.442H909.306C911.82 526.442 914.081 526.279 916.09 525.953C918.102 525.627 919.796 525.075 921.179 524.294C922.567 523.517 923.631 522.449 924.389 521.093C925.139 519.733 925.516 518 925.516 515.891C925.516 513.878 925.127 512.219 924.346 510.914C923.569 509.605 922.512 508.564 921.179 507.783C919.851 507.006 918.304 506.466 916.544 506.163C914.784 505.864 912.927 505.712 910.965 505.712ZM910.363 499.302C917.698 499.302 923.34 500.697 927.291 503.49C931.235 506.275 933.208 510.436 933.208 515.965C933.208 518.979 932.668 521.555 931.588 523.692C930.504 525.829 928.95 527.565 926.91 528.894C924.874 530.226 922.399 531.194 919.485 531.796C916.572 532.398 913.277 532.701 909.609 532.701H903.8V552.076H896.492V500.584C898.548 500.083 900.852 499.745 903.389 499.566C905.926 499.391 908.249 499.302 910.363 499.302Z" fill="#0F48B7"/>
<path d="M947.912 525.915C947.912 529.081 948.312 531.96 949.116 534.547C949.92 537.135 951.067 539.334 952.551 541.144C954.031 542.955 955.838 544.349 957.979 545.328C960.112 546.307 962.513 546.797 965.178 546.797C967.839 546.797 970.233 546.307 972.343 545.328C974.452 544.349 976.251 542.955 977.731 541.144C979.216 539.334 980.358 537.135 981.162 534.547C981.966 531.96 982.367 529.081 982.367 525.915C982.367 522.749 981.966 519.87 981.162 517.282C980.358 514.695 979.216 512.496 977.731 510.686C976.251 508.875 974.452 507.484 972.343 506.502C970.233 505.523 967.839 505.033 965.178 505.033C962.513 505.033 960.112 505.523 957.979 506.502C955.838 507.484 954.031 508.875 952.551 510.686C951.067 512.496 949.92 514.695 949.116 517.282C948.312 519.87 947.912 522.749 947.912 525.915ZM940.219 525.915C940.219 521.443 940.887 517.496 942.22 514.077C943.552 510.662 945.359 507.811 947.647 505.523C949.932 503.234 952.601 501.513 955.64 500.359C958.682 499.202 961.91 498.623 965.33 498.623C968.698 498.623 971.876 499.202 974.868 500.359C977.86 501.513 980.482 503.234 982.744 505.523C985.009 507.811 986.804 510.662 988.136 514.077C989.469 517.496 990.137 521.443 990.137 525.915C990.137 530.39 989.469 534.334 988.136 537.753C986.804 541.171 985.009 544.023 982.744 546.307C980.482 548.596 977.86 550.317 974.868 551.474C971.876 552.628 968.698 553.207 965.33 553.207C961.91 553.207 958.682 552.628 955.64 551.474C952.601 550.317 949.932 548.596 947.647 546.307C945.359 544.023 943.552 541.171 942.22 537.753C940.887 534.334 940.219 530.39 940.219 525.915Z" fill="#0F48B7"/>
<path d="M1015.46 505.712C1012.35 505.712 1009.96 505.786 1008.3 505.937V525.615H1013.5C1016.02 525.615 1018.28 525.491 1020.29 525.238C1022.3 524.986 1024 524.508 1025.38 523.805C1026.76 523.101 1027.83 522.111 1028.58 520.829C1029.34 519.547 1029.72 517.849 1029.72 515.739C1029.72 513.777 1029.34 512.146 1028.58 510.836C1027.83 509.531 1026.81 508.502 1025.53 507.748C1024.25 506.994 1022.74 506.466 1021.01 506.163C1019.27 505.864 1017.43 505.712 1015.46 505.712ZM1026.55 530.215C1027.35 531.221 1028.37 532.538 1029.6 534.17C1030.83 535.805 1032.1 537.616 1033.41 539.601C1034.72 541.586 1036.01 543.661 1037.29 545.821C1038.57 547.981 1039.67 550.067 1040.57 552.076H1032.58C1031.57 550.168 1030.48 548.233 1029.3 546.272C1028.12 544.313 1026.93 542.441 1025.72 540.654C1024.51 538.871 1023.32 537.2 1022.14 535.642C1020.95 534.084 1019.89 532.728 1018.93 531.571C1018.28 531.621 1017.62 531.648 1016.93 531.648H1014.86H1008.3V552.076H1000.99V500.584C1003.05 500.083 1005.35 499.745 1007.89 499.566C1010.43 499.391 1012.75 499.302 1014.86 499.302C1022.2 499.302 1027.79 500.685 1031.64 503.451C1035.48 506.213 1037.41 510.335 1037.41 515.813C1037.41 519.282 1036.49 522.251 1034.65 524.71C1032.82 527.173 1030.12 529.007 1026.55 530.215Z" fill="#0F48B7"/>
<path d="M1083.33 499.83V506.163H1066.89V552.076H1059.58V506.163H1043.14V499.83H1083.33Z" fill="#0F48B7"/>
<path d="M1094.56 525.915C1094.56 529.081 1094.96 531.96 1095.76 534.547C1096.57 537.135 1097.71 539.334 1099.2 541.144C1100.68 542.955 1102.49 544.349 1104.63 545.328C1106.76 546.307 1109.16 546.797 1111.83 546.797C1114.49 546.797 1116.88 546.307 1118.99 545.328C1121.1 544.349 1122.9 542.955 1124.38 541.144C1125.86 539.334 1127.01 537.135 1127.81 534.547C1128.61 531.96 1129.02 529.081 1129.02 525.915C1129.02 522.749 1128.61 519.87 1127.81 517.282C1127.01 514.695 1125.86 512.496 1124.38 510.686C1122.9 508.875 1121.1 507.484 1118.99 506.502C1116.88 505.523 1114.49 505.033 1111.83 505.033C1109.16 505.033 1106.76 505.523 1104.63 506.502C1102.49 507.484 1100.68 508.875 1099.2 510.686C1097.71 512.496 1096.57 514.695 1095.76 517.282C1094.96 519.87 1094.56 522.749 1094.56 525.915ZM1086.87 525.915C1086.87 521.443 1087.54 517.496 1088.87 514.077C1090.2 510.662 1092.01 507.811 1094.3 505.523C1096.58 503.234 1099.25 501.513 1102.29 500.359C1105.33 499.202 1108.56 498.623 1111.98 498.623C1115.35 498.623 1118.52 499.202 1121.52 500.359C1124.51 501.513 1127.13 503.234 1129.39 505.523C1131.66 507.811 1133.45 510.662 1134.78 514.077C1136.12 517.496 1136.79 521.443 1136.79 525.915C1136.79 530.39 1136.12 534.334 1134.78 537.753C1133.45 541.171 1131.66 544.023 1129.39 546.307C1127.13 548.596 1124.51 550.317 1121.52 551.474C1118.52 552.628 1115.35 553.207 1111.98 553.207C1108.56 553.207 1105.33 552.628 1102.29 551.474C1099.25 550.317 1096.58 548.596 1094.3 546.307C1092.01 544.023 1090.2 541.171 1088.87 537.753C1087.54 534.334 1086.87 530.39 1086.87 525.915Z" fill="#0F48B7"/>
<path d="M1175.01 516.643C1172.9 523.379 1170.76 529.611 1168.6 535.337C1166.44 541.068 1164.28 546.646 1162.12 552.078H1154.81C1152.14 544.385 1149.79 536.27 1147.76 527.726C1145.72 519.179 1143.82 509.883 1142.06 499.828H1149.76C1150.46 503.752 1151.19 507.668 1151.94 511.588C1152.69 515.512 1153.47 519.319 1154.28 523.014C1155.08 526.705 1155.89 530.24 1156.69 533.604C1157.49 536.973 1158.32 540.089 1159.18 542.956C1161.19 537.676 1163.33 531.883 1165.59 525.574C1167.85 519.269 1169.96 512.75 1171.92 506.013H1178.26C1180.22 512.75 1182.35 519.269 1184.67 525.574C1186.98 531.883 1189.14 537.676 1191.15 542.956C1191.95 540.139 1192.75 537.05 1193.56 533.682C1194.36 530.314 1195.16 526.782 1195.94 523.088C1196.72 519.393 1197.48 515.574 1198.24 511.627C1198.99 507.684 1199.72 503.752 1200.42 499.828H1207.89C1206.08 509.883 1204.15 519.179 1202.12 527.726C1200.08 536.27 1197.76 544.385 1195.15 552.078H1187.83C1185.62 546.646 1183.46 541.068 1181.35 535.337C1179.24 529.611 1177.12 523.379 1175.01 516.643Z" fill="#0F48B7"/>
<path d="M1243.17 532.701C1241.56 528.326 1239.97 524.095 1238.38 519.997C1236.8 515.902 1235.15 511.966 1233.45 508.198C1231.69 511.966 1230.01 515.902 1228.43 519.997C1226.85 524.095 1225.28 528.326 1223.72 532.701H1243.17ZM1250.03 552.075C1249.18 549.814 1248.38 547.588 1247.62 545.405C1246.87 543.217 1246.09 540.995 1245.28 538.73H1221.61L1216.86 552.075H1209.24C1211.25 546.547 1213.14 541.434 1214.9 536.733C1216.66 532.036 1218.38 527.576 1220.06 523.353C1221.75 519.13 1223.42 515.098 1225.08 511.252C1226.73 507.405 1228.47 503.598 1230.28 499.83H1236.99C1238.8 503.598 1240.53 507.405 1242.19 511.252C1243.85 515.098 1245.52 519.13 1247.21 523.353C1248.89 527.576 1250.61 532.036 1252.37 536.733C1254.13 541.434 1256.01 546.547 1258.03 552.075H1250.03Z" fill="#0F48B7"/>
<path d="M1297 505.712C1293.89 505.712 1291.5 505.786 1289.84 505.937V526.442H1295.35C1297.86 526.442 1300.12 526.279 1302.13 525.953C1304.14 525.627 1305.84 525.075 1307.22 524.294C1308.61 523.517 1309.67 522.449 1310.43 521.093C1311.18 519.733 1311.55 518 1311.55 515.891C1311.55 513.878 1311.17 512.219 1310.39 510.914C1309.61 509.605 1308.55 508.564 1307.22 507.783C1305.89 507.006 1304.34 506.466 1302.58 506.163C1300.82 505.864 1298.97 505.712 1297 505.712ZM1296.4 499.302C1303.74 499.302 1309.38 500.697 1313.33 503.49C1317.27 506.275 1319.25 510.436 1319.25 515.965C1319.25 518.979 1318.71 521.555 1317.63 523.692C1316.54 525.829 1314.99 527.565 1312.95 528.894C1310.91 530.226 1308.44 531.194 1305.52 531.796C1302.61 532.398 1299.32 532.701 1295.65 532.701H1289.84V552.076H1282.53V500.584C1284.59 500.083 1286.89 499.745 1289.43 499.566C1291.96 499.391 1294.29 499.302 1296.4 499.302Z" fill="#0F48B7"/>
<path d="M1342.84 505.712C1339.72 505.712 1337.33 505.786 1335.68 505.937V525.615H1340.88C1343.39 525.615 1345.66 525.491 1347.67 525.238C1349.67 524.986 1351.37 524.508 1352.76 523.805C1354.13 523.101 1355.21 522.111 1355.96 520.829C1356.71 519.547 1357.09 517.849 1357.09 515.739C1357.09 513.777 1356.71 512.146 1355.96 510.836C1355.21 509.531 1354.19 508.502 1352.91 507.748C1351.62 506.994 1350.12 506.466 1348.38 506.163C1346.65 505.864 1344.8 505.712 1342.84 505.712ZM1353.92 530.215C1354.73 531.221 1355.74 532.538 1356.98 534.17C1358.21 535.805 1359.48 537.616 1360.79 539.601C1362.09 541.586 1363.39 543.661 1364.67 545.821C1365.95 547.981 1367.04 550.067 1367.95 552.076H1359.95C1358.95 550.168 1357.86 548.233 1356.68 546.272C1355.49 544.313 1354.3 542.441 1353.09 540.654C1351.89 538.871 1350.69 537.2 1349.51 535.642C1348.33 534.084 1347.27 532.728 1346.31 531.571C1345.66 531.621 1344.99 531.648 1344.31 531.648H1342.24H1335.68V552.076H1328.37V500.584C1330.42 500.083 1332.73 499.745 1335.26 499.566C1337.8 499.391 1340.12 499.302 1342.24 499.302C1349.57 499.302 1355.17 500.685 1359.01 503.451C1362.86 506.213 1364.78 510.335 1364.78 515.813C1364.78 519.282 1363.86 522.251 1362.03 524.71C1360.19 527.173 1357.49 529.007 1353.92 530.215Z" fill="#0F48B7"/>
<path d="M1410.02 505.634C1408.86 506.943 1407.52 508.513 1405.99 510.346C1404.45 512.18 1402.83 514.216 1401.13 516.454C1399.42 518.691 1397.66 521.053 1395.85 523.54C1394.04 526.026 1392.27 528.544 1390.53 531.081C1388.8 533.618 1387.15 536.143 1385.59 538.656C1384.03 541.17 1382.63 543.555 1381.37 545.816H1410.78V552.075H1372.85V547.176C1373.9 545.168 1375.15 542.953 1376.59 540.541C1378.02 538.128 1379.55 535.665 1381.19 533.151C1382.82 530.642 1384.51 528.101 1386.28 525.537C1388.03 522.973 1389.78 520.513 1391.51 518.151C1393.25 515.789 1394.93 513.575 1396.56 511.516C1398.2 509.453 1399.69 507.646 1401.05 506.085H1374.21V499.83H1410.02V505.634Z" fill="#0F48B7"/>
<path d="M1433.4 552.076V531.117C1429.93 525.74 1426.66 520.437 1423.59 515.211C1420.52 509.982 1417.64 504.858 1414.92 499.831H1423.52C1425.43 503.953 1427.56 508.137 1429.93 512.383C1432.29 516.629 1434.73 520.713 1437.24 524.633C1439.7 520.713 1442.12 516.629 1444.48 512.383C1446.84 508.137 1449 503.953 1450.96 499.831H1459.11C1456.39 504.858 1453.5 509.971 1450.44 515.173C1447.37 520.375 1444.12 525.639 1440.71 530.965V552.076H1433.4Z" fill="#0F48B7"/>
<path d="M1494.85 526.368H1502.16V550.793C1501.56 550.998 1500.69 551.224 1499.56 551.472C1498.43 551.725 1497.12 551.978 1495.64 552.226C1494.16 552.479 1492.54 552.692 1490.78 552.867C1489.02 553.046 1487.23 553.131 1485.42 553.131C1481.75 553.131 1478.41 552.529 1475.4 551.321C1472.38 550.117 1469.79 548.357 1467.63 546.045C1465.47 543.734 1463.8 540.894 1462.62 537.525C1461.43 534.161 1460.84 530.288 1460.84 525.917C1460.84 521.542 1461.51 517.661 1462.84 514.266C1464.17 510.874 1465.97 508.023 1468.23 505.711C1470.49 503.399 1473.14 501.64 1476.19 500.431C1479.23 499.227 1482.48 498.625 1485.95 498.625C1488.31 498.625 1490.41 498.776 1492.24 499.075C1494.08 499.378 1495.65 499.728 1496.96 500.132C1498.27 500.536 1499.33 500.936 1500.16 501.337C1500.99 501.741 1501.56 502.044 1501.86 502.242L1499.52 508.349C1498.07 507.397 1496.13 506.605 1493.72 505.975C1491.3 505.346 1488.84 505.031 1486.33 505.031C1483.66 505.031 1481.24 505.509 1479.05 506.465C1476.87 507.42 1475.01 508.803 1473.47 510.61C1471.94 512.42 1470.75 514.619 1469.89 517.207C1469.04 519.798 1468.61 522.7 1468.61 525.917C1468.61 529.033 1468.97 531.873 1469.7 534.433C1470.43 536.997 1471.54 539.196 1473.02 541.03C1474.5 542.867 1476.34 544.285 1478.52 545.291C1480.71 546.298 1483.29 546.799 1486.25 546.799C1488.37 546.799 1490.16 546.686 1491.65 546.461C1493.13 546.235 1494.2 546.022 1494.85 545.82V526.368Z" fill="#0F48B7"/>
<path d="M1519.2 525.915C1519.2 529.081 1519.6 531.96 1520.41 534.547C1521.21 537.135 1522.36 539.334 1523.84 541.144C1525.32 542.955 1527.13 544.349 1529.27 545.328C1531.4 546.307 1533.8 546.797 1536.47 546.797C1539.13 546.797 1541.52 546.307 1543.63 545.328C1545.74 544.349 1547.54 542.955 1549.02 541.144C1550.5 539.334 1551.65 537.135 1552.45 534.547C1553.26 531.96 1553.66 529.081 1553.66 525.915C1553.66 522.749 1553.26 519.87 1552.45 517.282C1551.65 514.695 1550.5 512.496 1549.02 510.686C1547.54 508.875 1545.74 507.484 1543.63 506.502C1541.52 505.523 1539.13 505.033 1536.47 505.033C1533.8 505.033 1531.4 505.523 1529.27 506.502C1527.13 507.484 1525.32 508.875 1523.84 510.686C1522.36 512.496 1521.21 514.695 1520.41 517.282C1519.6 519.87 1519.2 522.749 1519.2 525.915ZM1511.51 525.915C1511.51 521.443 1512.18 517.496 1513.51 514.077C1514.84 510.662 1516.65 507.811 1518.94 505.523C1521.22 503.234 1523.89 501.513 1526.93 500.359C1529.97 499.202 1533.2 498.623 1536.62 498.623C1539.99 498.623 1543.17 499.202 1546.16 500.359C1549.15 501.513 1551.77 503.234 1554.03 505.523C1556.3 507.811 1558.09 510.662 1559.43 514.077C1560.76 517.496 1561.43 521.443 1561.43 525.915C1561.43 530.39 1560.76 534.334 1559.43 537.753C1558.09 541.171 1556.3 544.023 1554.03 546.307C1551.77 548.596 1549.15 550.317 1546.16 551.474C1543.17 552.628 1539.99 553.207 1536.62 553.207C1533.2 553.207 1529.97 552.628 1526.93 551.474C1523.89 550.317 1521.22 548.596 1518.94 546.307C1516.65 544.023 1514.84 541.171 1513.51 537.753C1512.18 534.334 1511.51 530.39 1511.51 525.915Z" fill="#0F48B7"/>
<path d="M1586.75 546.122C1593.69 546.122 1598.86 544.35 1602.29 540.807C1605.71 537.264 1607.41 532.299 1607.41 525.916C1607.41 519.533 1605.71 514.571 1602.29 511.028C1598.86 507.485 1593.69 505.714 1586.75 505.714C1584.69 505.714 1583.1 505.737 1581.97 505.787C1580.84 505.838 1580.04 505.888 1579.59 505.939V545.896C1580.04 545.947 1580.84 545.997 1581.97 546.048C1583.1 546.098 1584.69 546.122 1586.75 546.122ZM1615.18 525.916C1615.18 530.438 1614.48 534.373 1613.07 537.714C1611.66 541.059 1609.67 543.822 1607.11 546.009C1604.55 548.196 1601.48 549.828 1597.91 550.908C1594.35 551.992 1590.42 552.532 1586.15 552.532C1584.04 552.532 1581.71 552.442 1579.18 552.268C1576.64 552.089 1574.34 551.751 1572.28 551.246V500.585C1574.34 500.084 1576.64 499.742 1579.18 499.568C1581.71 499.393 1584.04 499.303 1586.15 499.303C1590.42 499.303 1594.35 499.843 1597.91 500.923C1601.48 502.003 1604.55 503.639 1607.11 505.822C1609.67 508.01 1611.66 510.776 1613.07 514.117C1614.48 517.462 1615.18 521.393 1615.18 525.916Z" fill="#0F48B7"/>
<path d="M1652.65 532.701C1651.04 528.326 1649.45 524.095 1647.86 519.997C1646.28 515.902 1644.63 511.966 1642.93 508.198C1641.17 511.966 1639.49 515.902 1637.91 519.997C1636.33 524.095 1634.76 528.326 1633.2 532.701H1652.65ZM1659.51 552.075C1658.66 549.814 1657.86 547.588 1657.1 545.405C1656.35 543.217 1655.57 540.995 1654.76 538.73H1631.09L1626.34 552.075H1618.73C1620.74 546.547 1622.62 541.434 1624.38 536.733C1626.14 532.036 1627.86 527.576 1629.54 523.353C1631.23 519.13 1632.9 515.098 1634.56 511.252C1636.21 507.405 1637.95 503.598 1639.76 499.83H1646.47C1648.28 503.598 1650.02 507.405 1651.67 511.252C1653.33 515.098 1655 519.13 1656.69 523.353C1658.37 527.576 1660.09 532.036 1661.85 536.733C1663.61 541.434 1665.49 546.547 1667.51 552.075H1659.51Z" fill="#0F48B7"/>
<path d="M486.868 353.231C487.019 353.674 487.175 354.121 487.672 355.558C486.747 354.412 486.503 354.109 486.258 353.806C486.46 353.612 486.666 353.421 486.868 353.231Z" fill="#FEFEFE"/>
<path d="M796.453 165.032C787.385 177.713 775.597 187.573 763.098 196.536C749.378 206.373 735.294 215.704 721.26 225.098C712.942 230.669 704.118 235.526 696.056 241.435C685.387 249.251 678.817 260.662 672.146 271.726C666.326 281.384 661.349 291.543 655.921 301.439C654.752 303.571 653.256 305.526 651.445 308.268C648.1 301.749 645.023 295.98 642.152 290.114C636.502 278.568 631.257 266.734 629.777 253.909C628.751 245.028 628.794 235.848 629.769 226.955C630.896 216.718 633.421 206.559 639.082 197.658C643.993 189.939 648.349 181.559 654.62 175.091C663.851 165.572 675.083 158.529 688.2 154.741C699.981 151.338 711.792 147.763 723.102 143.09C735.807 137.837 748.26 131.796 760.292 125.137C776.626 116.101 787.128 102.068 792.02 83.9605C792.133 83.5409 792.276 83.133 792.404 82.7174C792.785 82.562 793.166 82.4065 793.543 82.2511C796.787 88.7546 800.502 95.0716 803.175 101.8C808.031 114.026 809.686 126.843 807.538 139.896C806.011 149.15 801.904 157.41 796.453 165.032ZM659.088 321.539C675.896 344.177 680.651 369.877 677.753 397.313C676.731 406.982 674.858 416.574 673.028 426.135C672.057 431.221 669.531 435.642 664.745 438.253C663.703 438.82 662.367 438.851 661.162 439.123C662.546 436.438 664.045 433.804 665.273 431.05C666.621 428.027 666.936 424.978 663.87 421.536C662.615 424.034 661.586 426.124 660.517 428.198C659.022 431.108 658.035 434.508 655.882 436.804C651.041 441.959 649.468 448.33 647.61 454.752C646.076 460.047 644.156 465.273 639.541 468.843C638.387 469.733 637.031 470.366 635.834 471.081C633.705 468.54 637.209 463.19 631.933 462.79C631.681 466.116 631.766 468.839 631.203 471.423C630.616 474.119 631.937 475.094 633.899 474.317C639.467 472.11 645.874 471.563 650.039 466.361C651.193 464.919 653.007 464.01 655.07 462.441C653.466 472.367 623.91 501.054 615.514 501.434C615.623 499.647 615.731 497.876 615.84 496.108C615.463 495.972 615.09 495.84 614.717 495.704C613.96 497.258 612.942 498.734 612.495 500.37C610.478 507.748 604.74 510.755 598.119 512.355C596.379 512.779 593.601 511.971 592.338 510.7C588.884 507.219 585.655 503.412 582.963 499.321C580.484 495.549 579.979 491.209 582.205 486.877C582.628 486.054 582.516 484.954 582.796 482.918C579.217 485.04 576.598 486.866 573.754 488.218C569.317 490.331 564.845 492.507 560.167 493.94C556.076 495.195 554.316 492.95 555.117 488.699C555.346 487.495 554.856 486.159 554.697 484.88C553.492 485.56 551.779 485.937 551.161 486.967C545.368 496.656 537.971 504.981 530.025 512.922C528.999 513.944 528.984 516.609 529.384 518.307C530.981 525.125 531.031 531.866 528.992 538.544C527.616 543.051 524.784 543.668 521.423 540.428C516.244 535.44 516.104 528.509 521.038 523.221C526.26 517.619 526.987 510.518 527.142 503.424C527.473 488.525 523.991 474.434 517.103 461.24C515.416 458.008 515.525 455.059 516.71 451.761C520.405 441.458 524.415 431.236 527.414 420.727C531.626 405.964 530.973 390.992 528.23 375.926C526.47 366.264 526.109 356.357 524.799 346.606C523.813 339.267 522.2 332.013 521.089 324.69C520.599 321.45 520.37 318.113 520.537 314.85C520.743 310.864 522.892 309.655 526.058 311.928C533.032 316.94 540.997 321.279 541.941 331.912C543.045 330.545 543.721 329.706 544.902 328.241C549.7 333.466 554.421 338.311 558.811 343.439C571.435 358.183 584.35 372.565 599.592 384.787C609.697 392.884 620.911 396.528 633.612 396.574C641.58 396.605 649.747 390.386 653.446 381.951C659.371 368.451 660.051 354.465 658.077 340.141C657.106 333.09 656.108 326.038 655.921 318.389C656.986 319.434 658.21 320.358 659.088 321.539ZM718.96 427.93C725.161 428.198 731.576 428.921 735.982 434.616C741.083 441.205 739.288 447.297 731.3 449.566C724.792 451.411 718.494 449.884 712.192 448.334C705.459 446.679 698.784 444.593 691.954 443.56C682.738 442.165 673.654 443.571 664.877 446.842C662.728 447.643 660.432 448.043 658.202 448.629C657.992 448.214 657.786 447.794 657.58 447.379C659.185 446.349 660.735 445.207 662.41 444.305C680.088 434.799 698.349 427.041 718.96 427.93ZM725.488 465.999C724.656 470.312 721.09 473.062 716.318 473.179C709.884 473.334 704.954 469.958 700.054 466.423C696.437 463.816 692.855 461.143 689.075 458.789C681.183 453.874 672.473 452.53 663.326 453.393C662.161 453.505 660.98 453.447 659.806 453.427C659.639 453.424 659.48 453.202 659.01 452.849C665.522 448.971 672.496 447.371 679.754 446.772C690.532 445.883 700.696 448.793 710.836 451.85C713.937 452.786 717.189 453.295 720.176 454.484C724.307 456.128 726.428 461.143 725.488 465.999ZM706.108 486.928C702.825 491.831 698.022 494.954 692.455 496.1C690.508 496.504 687.182 494.562 685.842 492.709C682.011 487.406 679.353 481.225 675.332 476.096C671.466 471.166 666.443 467.157 661.994 462.674C660.723 461.396 659.69 459.877 658.551 458.47C660.311 457.744 662.04 456.905 663.855 456.333C664.83 456.023 665.953 456.17 667.666 456.077C673.887 456.998 680.593 458.105 686.522 462.281C692.02 466.151 698.015 469.305 703.582 473.089C709.298 476.971 709.954 481.182 706.108 486.928ZM612.984 559.663C615.386 570.514 615.296 581.186 607.72 590.385C606.193 592.239 604.153 593.664 601.872 595.716C602.731 590.195 603.609 585.49 604.141 580.743C604.429 578.194 604.309 575.56 604.002 573.004C603.866 571.854 602.824 570.809 602.191 569.713C601.822 570.84 601.426 571.959 601.095 573.097C601.002 573.42 601.084 573.804 601.126 574.154C602.774 587.324 597.214 597.895 588.993 607.444C586.285 610.591 583.32 613.517 580.472 616.539C580.087 616.283 579.703 616.026 579.318 615.766C580.608 609.74 582.034 603.734 583.137 597.674C583.767 594.216 583.969 590.669 584.14 587.153C584.179 586.329 583.316 585.463 582.869 584.612C582.306 585.393 581.389 586.108 581.234 586.959C579.738 595.195 578.817 603.563 576.843 611.679C574.741 620.343 570.778 628.186 563.365 633.812C555.964 639.43 547.964 639.402 539.61 636.609C538.06 636.092 536.308 635.84 535.022 634.935C530.818 631.974 527.675 633.676 524.601 636.776C519.395 642.033 514.173 647.188 506.733 649.43C499.576 651.59 493.103 650.968 487.263 646.085C481.972 641.667 481.501 636.294 486.102 631.135C497.21 618.676 507.521 605.603 515.276 590.774C519.22 583.237 522.977 575.436 525.456 567.336C529.116 555.37 531.684 543.058 534.486 530.844C536.778 520.836 540.069 511.516 549.728 506.209C552.249 504.83 555.198 504.232 557.945 503.268C561.011 502.192 564.274 501.473 567.095 499.946C571.699 497.448 574.497 496.889 578.289 500.498C583.118 505.09 587.543 510.199 591.565 515.521C601.6 528.793 609.359 543.295 612.984 559.663ZM505.085 306.291C504.444 303.214 503.799 300.141 503.08 296.695C506.686 298.684 507.44 301.613 505.085 306.291ZM501.037 287.736V279.36C504.056 282.111 504.04 284.799 501.037 287.736ZM480.503 258.672C468.758 253.595 456.597 249.527 443.794 248.086C428.494 246.365 413.174 244.205 397.819 243.746C384.582 243.354 371.267 244.943 358.007 245.957C354.269 246.24 352.451 244.368 351.973 241.477C351.017 235.697 350.617 229.822 350.104 223.975C348.573 206.563 355.691 192.526 367.584 180.588C374.523 173.622 382.663 168.929 392.947 168.517C401.025 168.191 407.035 171.408 409.81 178.7C412.459 185.662 413.792 193.129 415.599 200.401C416.411 203.684 416.962 207.033 417.635 210.351C418.085 210.471 418.532 210.588 418.979 210.708C419.437 209.861 420.335 208.983 420.284 208.167C419.997 203.42 420.875 201.45 425.39 199.931C438.339 195.576 451.635 194.589 465.102 196.808C473.323 198.164 480.923 201.112 487.061 207.014C497.754 217.282 497.909 235.798 487.376 244.826C485.88 246.112 484.175 247.153 482.566 248.307C482.729 248.719 482.892 249.131 483.059 249.543C486.374 248.867 489.676 248.144 493.002 247.534C502.572 245.77 512.106 245.021 521.652 247.88C533.607 251.458 535.869 259.962 532.283 269.791C530.577 274.465 527.861 278.797 525.359 283.144C524.318 284.958 524.217 285.949 526.427 286.404C530.997 287.348 535.624 288.055 540.139 289.212C546.919 290.953 553.799 292.538 560.311 295.036C566.609 297.452 568.078 302.919 564.873 308.944C563.606 311.318 562.056 313.54 560.731 315.887C560.074 317.041 559.631 318.319 558.843 320.11C563.089 320.11 566.699 319.9 570.269 320.172C573.622 320.425 577.096 320.731 580.231 321.835C584.567 323.358 586.285 327.526 584.746 331.924C583.596 335.211 581.964 338.33 580.569 341.536C580.227 342.324 579.975 343.152 579.547 344.333C582.745 344.333 585.445 344.111 588.099 344.372C596.627 345.203 599.308 348.109 599.712 355.428C600.054 361.672 602.032 367.825 603.275 374.022C603.489 375.083 603.632 376.159 603.885 377.697C588.056 367.18 575.413 354.275 564.158 339.9C551.581 323.839 539.412 307.429 526.233 291.878C513.804 277.208 498.177 266.314 480.503 258.672ZM346.724 248.56C332.235 260.444 328.599 272.254 334.1 290.467C335.076 293.696 336.004 296.936 336.956 300.172C317.296 288.944 302.206 274.477 300.683 250.529C299.859 237.569 309.879 221.644 321.947 216.757C327.293 214.589 333.098 213.226 338.825 212.422C345.03 211.551 347.59 214.481 347.812 220.642C348.087 228.284 348.771 235.914 348.931 243.556C348.966 245.238 348.002 247.511 346.724 248.56ZM649.227 316.59C647.878 316.33 646.297 316.438 645.225 315.751C639.284 311.944 633.072 308.416 627.679 303.921C603.221 283.552 589.688 257.083 586.91 225.615C585.263 206.99 585.826 188.179 585.061 169.465C584.474 155.001 583.848 140.51 582.349 126.124C580.954 112.748 576.078 100.242 570.794 87.8921C566.936 78.875 563.874 69.516 560.482 60.3008C560.245 59.6598 560.218 58.9411 560.098 58.2807C583.58 57.527 603.52 65.4018 620.922 80.499C638.694 95.9146 653.31 113.739 663.711 134.873C666.132 139.791 667.962 145.013 669.854 150.172C671.047 153.416 670.141 156.8 667.243 158.265C650.975 166.512 644.832 182.717 636.452 197.064C627.387 212.589 623.976 229.469 625.822 247.464C627.756 266.349 633.445 283.917 642.995 300.308C645.295 304.255 647.183 308.459 649.032 312.647C649.53 313.769 649.184 315.265 649.227 316.59ZM793.578 77.2161C792.976 76.2721 792.028 75.5495 790.633 74.0848C789.996 77.4492 789.518 80.0599 789.013 82.659C785.209 102.231 772.858 115.394 756.271 124.811C734 137.453 710.133 146.19 685.069 151.489C676.292 153.342 673.351 154.407 670.34 143.478C670.246 143.14 670.052 142.833 669.924 142.503C660.183 117.212 643.356 97.2472 623.409 79.3839C604.293 62.2589 581.638 55.4368 556.64 54.5627C552.397 54.4151 551.931 55.3281 553.799 58.9333C557.693 66.4508 561.488 74.0188 565.292 81.5829C578.145 107.13 583.102 134.31 582.17 162.74C581.774 174.76 581.49 186.788 581.455 198.816C581.362 228.311 587.551 256.085 604.033 281.101C614.682 297.27 627.415 311.019 645.691 318.552C649.468 320.11 651.659 322.41 652.716 326.209C656.209 338.754 657.172 351.504 655.552 364.387C654.48 372.899 650.878 380.537 645.042 386.745C642.633 389.306 638.934 391.71 635.574 392.111C627.756 393.047 610.949 387.623 607.401 375.875C605.105 368.272 603.376 360.456 602.012 352.627C601.126 347.538 598.644 344.465 593.884 343.097C591.192 342.324 588.421 341.839 585.344 341.147C585.931 338.575 586.37 336.167 587.031 333.828C588.6 328.28 587.24 323.509 582.395 320.564C579.509 318.812 575.86 317.822 572.461 317.507C563.618 316.687 563.443 317.522 567.382 308.731C570.813 301.077 568.824 295.778 561.026 292.721C556.655 291.007 552.129 289.62 547.583 288.416C541.837 286.893 535.997 285.704 529.913 284.31C531.552 280.044 533.157 276.143 534.563 272.173C539.63 257.864 533.65 247.192 518.676 244.562C513.392 243.634 507.891 243.898 502.486 243.715C499.401 243.606 496.312 243.696 493.418 243.696C494.89 238.626 497.171 233.754 497.594 228.723C498.678 215.899 492.275 206.645 481.77 200.005C474.605 195.475 466.5 193.397 458.182 193.61C447.136 193.89 436.105 195.021 425.087 196.027C419.278 196.559 418.882 196.415 417.363 190.654C416.345 186.796 415.366 182.864 413.761 179.236C409.534 169.659 400.811 164.411 390.604 166.369C371.31 170.063 357.241 180.592 350.694 199.741C349.525 203.156 348.892 206.757 348.204 209.504C342.827 209.504 337.721 208.917 332.803 209.613C316.201 211.959 300.178 229.255 297.644 247.223C297.299 249.667 296.401 250.829 294.093 251.738C283.444 255.941 273.124 260.829 263.97 267.86C254.039 275.487 246.172 284.947 243.965 297.332C242.271 306.839 242.745 316.78 242.725 326.532C242.714 333.478 242.943 342.223 243.355 349.17C243.545 349.154 243.141 350.25 243.3 350.366C244.917 351.536 243.429 350.646 244.501 352.309C244.975 353.047 246.098 353.995 246.646 354.655C249.738 358.396 251.425 356.912 251.646 357.06C251.553 356.885 250.142 354.251 250.045 354.084C246.89 348.622 246.432 342.456 246.203 336.376C245.814 326.038 244.641 315.541 245.9 305.37C248.056 287.942 257.012 274.092 272.615 265.331C278.307 262.134 284.465 259.714 290.558 257.305C295.173 255.475 294.932 256.221 296.972 260.654C299.898 266.994 303.433 273.191 307.575 278.804C315.983 290.195 327.627 298.105 338.996 306.229C340.014 306.959 341.265 307.367 343.577 308.494C343.021 306.12 342.947 304.496 342.283 303.171C337.83 294.345 334.788 285.176 334.897 275.16C335.041 261.707 343.083 252.247 356.367 249.465C368.05 247.014 379.5 248.257 391.047 250.526C410.835 254.411 429.866 260.526 447.998 269.317C468.517 279.267 487.702 291.174 502.401 309.065C513.932 323.105 519.896 339.523 521.874 357.441C523.098 368.509 522.9 379.597 521.062 390.58C519.17 401.912 517.507 413.342 514.659 424.453C511.955 435.024 508.139 445.347 504.219 455.553C502.719 459.457 503.205 462.336 505.458 465.354C511.651 473.645 515.016 483.051 517.013 493.128C521.155 514.033 509.557 538.925 491.273 549.896C479.469 556.978 466.71 559.814 453.403 560.875C422.076 563.365 390.717 562.868 359.526 559.329C333.65 556.395 308.912 549.22 287.197 534.053C261.744 516.275 245.36 492.095 237.321 462.196C236.074 457.546 235.161 452.802 234.182 448.082C232.923 441.99 234.022 436.03 237.566 431.19C243.996 422.41 245.519 412.27 247.108 402.048C248.196 395.071 249.125 388.07 250.232 381.097C250.372 380.207 252.171 378.016 252.559 377.165C249.707 374.908 249.836 363.035 245.806 364.787C245.655 375.125 245.519 390.129 244.198 400.343C242.822 410.933 241.719 421.963 233.708 430.467C232.468 431.784 231.901 433.96 231.547 435.836C228.905 449.846 233.032 462.852 237.663 475.77C242.543 484.593 247.096 493.618 252.412 502.169C255.99 507.926 260.575 513.07 264.848 518.381C266.721 520.708 266.523 522.27 263.865 523.637C255.306 528.027 246.549 531.71 236.645 531.127C234.889 531.023 233.16 530.475 231.477 529.232C238.825 527.118 246.176 525.001 253.523 522.883C253.422 522.297 253.325 521.706 253.227 521.12C251.335 521.318 249.412 521.372 247.551 521.745C241.463 522.965 235.405 524.34 229.317 525.568C226.803 526.073 224.181 526.893 221.717 526.613C216.915 526.061 212.152 524.978 207.466 523.762C206.518 523.517 205.978 521.706 205.03 520.284C209.813 518.61 213.974 517.153 218.135 515.7C218.034 515.226 217.933 514.752 217.832 514.278C216.581 514.278 215.311 514.154 214.075 514.298C201.529 515.782 190.468 512.274 180.576 504.566C176.558 501.438 174.235 497.464 175 492.402C176.042 485.514 173.54 480.137 169.172 475.102C165.027 470.323 163.989 464.585 165.854 458.583C168.042 451.539 172.945 449.111 179.418 452.647C186.369 456.442 192.791 461.225 199.361 465.692C205.399 469.799 211.546 473.633 218.873 474.943C219.829 475.114 220.909 474.601 221.931 474.406C221.574 474.138 221.247 473.719 220.847 473.626C219.662 473.354 218.236 473.556 217.28 472.965C211.118 469.123 205.069 465.094 198.95 461.182C192.527 457.068 186.342 452.448 179.538 449.103C173.341 446.062 166.433 449.36 163.282 455.572C161.006 460.055 160.652 464.892 162.801 469.243C165.322 474.348 168.943 478.901 171.783 483.866C172.7 485.471 173.178 487.693 172.937 489.515C172.23 494.9 172.595 500.02 176.38 504.123C178.901 506.858 181.741 509.616 184.993 511.291C193.098 515.463 201.347 519.03 208.061 525.731C210.718 528.381 216.057 528.245 220.086 529.636C234.943 534.764 249.284 533.897 263.084 526.194C266.787 524.127 270.012 524.356 273.493 527.068C287.302 537.825 301.883 547.277 318.54 553.198C338.409 560.257 359.044 563.12 379.924 564.212C411.387 565.855 442.819 566.26 474.1 560.968C488.495 558.528 503.08 557.18 517.584 555.374C523.082 554.69 524.306 555.844 523.273 561.368C522.476 565.63 521.637 570.012 519.931 573.956C512.126 592.002 502.447 608.874 488.608 623.151C485.227 626.644 482.434 630.844 480.006 635.078C478.012 638.563 478.999 642.359 481.824 645.172C491.533 654.845 505.691 658.124 516.656 648.307C519.64 645.634 522.651 642.984 525.522 640.195C529.236 636.586 530.748 636.384 535.577 638.381C538.709 639.674 541.973 640.89 545.291 641.434C553.675 642.817 560.976 640.016 566.975 634.259C581.09 620.712 594.995 606.951 609.056 593.35C613.587 588.967 616.427 583.645 616.835 577.522C617.212 571.831 617.068 565.941 616.031 560.343C613.8 548.276 608.206 537.444 602.16 526.877C601.185 525.176 600.046 523.606 602.723 522.277C618.575 514.399 631.451 502.627 643.982 490.448C650.388 484.224 656.613 477.802 662.849 471.407C665.277 468.917 667.154 469.651 668.809 472.153C672.313 477.456 675.736 482.814 679.245 488.113C680.861 490.56 682.306 493.214 684.342 495.269C689.84 500.809 695.512 500.964 701.527 496.143C706.174 492.413 709.515 487.817 710.809 481.92C711.617 478.229 713.249 476.182 717.562 475.708C725.554 474.83 727.994 471.469 727.897 463.416C727.885 462.355 727.866 461.291 727.733 460.242C727.461 458.027 726.094 454.974 727.05 453.835C728.277 452.371 731.351 452.48 733.616 451.866C742.311 449.508 744.798 442.445 739.665 434.931C735.162 428.334 728.569 425.704 720.988 424.997C708.629 423.843 696.892 427.002 685.185 430.323C683.46 430.813 681.7 431.197 679.653 431.706C680.978 423.459 682.361 415.821 683.41 408.14C685.889 390.028 684.684 372.06 679.392 354.62C675.973 343.362 670.949 332.678 663.754 323.113C657.192 314.383 655.641 304.997 661.415 295.063C664.135 290.378 666.532 285.51 669.221 280.805C678.499 264.562 689.751 250.176 705.754 239.784C720.476 230.226 734.844 220.114 749.208 210.024C763.478 200.005 777.974 190.234 789.968 177.359C803.128 163.234 811.672 147.111 811.12 127.27C810.607 108.77 803.373 92.5153 793.578 77.2161Z" fill="black"/>
<path d="M262.036 373.045C264.484 362.606 268.388 352.84 275.856 344.848C281.727 338.562 289.117 336.119 297.54 336.558C299.226 336.647 300.877 337.288 303.749 337.956C301.876 339.215 301.048 339.883 300.128 340.376C291.187 345.194 285.348 352.61 282.006 362.082C280.678 365.847 281.35 366.701 285.336 366.822C285.806 366.837 286.28 366.845 286.75 366.861C293.39 367.094 293.845 367.727 293.017 374.18C292.633 377.206 292.742 380.291 292.54 383.345C292.334 386.433 293.557 387.622 296.677 386.927C299.848 386.223 302.202 387.622 303.819 390.283C305.478 393.018 304.351 395.124 301.114 395.365C299.611 395.474 298.092 395.38 296.538 395.38C298.74 405.505 308.792 408.414 320.766 402.284C319.096 410.248 317.903 418.065 313.454 424.778C308.749 431.876 296.996 434.452 289.338 430.699C282.605 427.4 275.712 424.405 268.761 421.592C264.787 419.98 262.436 417.373 261.395 413.282C257.968 399.801 258.904 386.398 262.036 373.045ZM319.531 380.598C319.426 381.721 317.918 382.711 317.021 383.764C315.933 382.773 314.363 381.954 313.944 380.734C313.695 380.011 315.261 378.663 316.566 376.798C318.047 378.589 319.616 379.669 319.531 380.598ZM314.678 358.558C319.033 358.554 323.762 363.01 323.517 367.035C323.323 370.225 321.361 371.554 318.291 371.464C313.551 371.406 308.524 367.156 308.648 363.314C308.737 360.652 311.383 358.562 314.678 358.558ZM251.74 357.043C251.709 357.047 251.678 357.063 251.647 357.059C250.551 356.965 249.587 356.538 248.736 355.847C247.963 355.213 247.493 354.366 246.976 353.527C245.997 351.93 244.89 350.287 243.355 349.172C243.293 349.126 243.247 349.067 243.192 349.013C240.235 351.616 242.244 354.366 243.056 357.035C243.849 359.638 245.364 362.218 245.807 364.79C246.009 364.864 246.188 364.984 246.277 365.182C248.119 369.184 248.915 374.3 252.56 377.167C252.657 377.241 252.723 377.342 252.769 377.451C252.968 377.459 253.166 377.467 253.364 377.474C254.572 384.254 255.917 391.01 256.934 397.816C257.661 402.688 257.91 407.63 258.45 412.529C258.858 416.219 258.516 419.584 253.993 422.28C256.223 422.715 257.463 423.119 258.714 423.177C269.935 423.679 280.184 427.148 289.563 433.244C292.854 435.384 292.846 436.46 289.979 439.176C289.089 440.019 288.475 441.157 287.737 442.163C288.033 442.443 288.324 442.727 288.615 443.01C290.344 441.744 292.093 440.505 293.798 439.207C307.51 428.787 321.901 428.702 336.436 437.004C341.902 440.128 346.705 444.425 351.814 448.177C352.983 449.036 354.165 449.867 355.342 450.714C355.602 450.477 355.866 450.244 356.127 450.011C355.676 449.223 355.373 448.278 354.743 447.672C345.535 438.772 335.13 431.927 322.394 429.188C316.935 428.01 316.869 427.641 318.517 422.078C321.124 413.282 324.022 404.518 325.79 395.543C328.692 380.765 327.41 366.27 320.805 352.424C312.708 335.446 300.539 330.225 282.772 336.705C276.373 339.04 270.183 341.958 263.94 344.704C259.51 346.651 255.726 346.056 252.439 342.397C251.903 341.806 250.943 341.6 250.178 341.216C249.894 342.043 249.343 342.882 249.374 343.698C249.572 349.265 252.159 353.873 255.547 358.329C253.62 358.714 252.529 358.045 251.74 357.043Z" fill="black"/>
<path d="M454.829 396.503C451.473 396.845 446.115 391.74 446.13 388.488C446.15 385.59 447.626 383.869 450.695 383.846C454.27 383.819 457.32 388.084 457.367 394.324C456.912 394.743 455.948 396.391 454.829 396.503ZM447.68 407.156C447.844 406.099 449.483 405.276 450.478 404.351C451.414 405.392 452.984 406.371 453.097 407.494C453.19 408.453 451.605 409.576 450.12 411.429C448.893 409.417 447.521 408.166 447.68 407.156ZM447.964 447.432C445.003 451.266 440.877 452.941 436.021 451.437C422.134 447.144 407.949 445.516 393.441 446.126C388.973 446.313 385.173 444.774 382.788 440.547C370.398 418.582 375.281 383.667 393.232 366.243C404.511 355.295 420.468 352.175 433.231 358.438C433.942 358.788 434.587 359.258 436.114 360.19C427.504 362.766 421.664 367.692 417.111 374.258C416.373 375.318 415.65 376.398 415.028 377.529C411.236 384.413 411.768 385.983 418.84 388.935C424.326 391.227 424.24 391.216 423.661 397.284C422.818 406.06 424.613 414.137 430.317 421.126C437.994 430.54 447.902 429.922 454.243 419.611C455.09 418.232 456.003 416.899 457.227 415.676C456.046 426.837 455.175 438.092 447.964 447.432ZM440.403 407.591C441.258 410.178 441.748 413.073 441.522 415.761C441.402 417.179 439.583 419.254 438.22 419.545C436.798 419.844 434.354 418.784 433.507 417.54C432.003 415.318 431.366 412.513 430.084 409.223C431.51 407.296 432.481 404.654 434.264 403.869C437.237 402.568 439.51 404.895 440.403 407.591ZM474.104 398.434C476.133 395.392 478.304 393.652 480.239 391.678C481.731 390.151 482.031 388.838 479.734 387.168C475.204 383.869 470.852 380.248 466.788 376.383C460.918 370.792 455.77 364.39 449.6 359.18C432.819 345.008 409.981 340.983 393.752 360.015C380.519 375.536 372.332 392.894 373.253 413.718C373.72 424.328 376.968 434.25 381.669 444.04C378.747 445.532 375.946 446.962 373.141 448.391C373.234 448.733 373.327 449.071 373.42 449.413C375.561 449.413 377.749 449.708 379.835 449.366C406.108 445.07 430.523 451.056 453.99 462.529C454.899 462.976 456.011 463.011 457.025 463.236C457.227 462.847 457.425 462.455 457.623 462.066C455.657 460.61 453.73 459.094 451.717 457.711C446.721 454.281 446.775 454.141 450.105 449.3C453.633 444.168 457.701 439.195 460.094 433.543C463.28 426.029 467.488 421.394 476.171 422.49C476.848 422.575 477.656 422.486 478.254 422.183C481.774 420.392 485.283 418.566 488.709 416.6C489.195 416.321 489.417 415.213 489.354 414.526C489.327 414.25 488.212 413.959 487.571 413.885C486.071 413.714 484.556 413.667 482.007 413.508C488.601 409.429 493.562 405.412 496.325 398.745C492.113 399.3 488.496 400.198 484.898 400.132C481.292 400.066 477.702 399.04 474.104 398.434Z" fill="black"/>
<path d="M397.465 305.387C403.708 302.143 410.449 301.114 417.326 301.409C434.134 302.128 448.836 309.051 463.053 317.349C464.821 318.383 466.981 318.736 468.958 319.408C467.983 317.369 467.529 314.703 465.951 313.386C446.688 297.299 424.864 293.503 401.043 300.686C398.195 301.549 395.732 303.693 393.094 305.243C393.408 305.756 393.723 306.273 394.038 306.786C395.184 306.327 396.373 305.954 397.465 305.387Z" fill="black"/>
<path d="M368.73 481.543C370.253 485.168 368.291 487.483 365.703 489.344C363.625 490.844 361.328 492.126 358.974 493.144C347.116 498.264 334.904 497.876 323.361 493.066C314.506 489.379 304.405 485.618 304.56 472.953C304.56 472.817 304.23 472.678 304.055 472.534C300.962 475.063 297.866 477.592 294.68 480.191C294.8 480.28 295.387 481.023 296.075 481.139C302.038 482.122 306.429 485.949 311.134 489.243C327.67 500.828 344.928 503.843 363.353 493.692C365.338 492.6 367.669 492.153 369.822 491.357C372.728 490.28 375.619 489.158 378.704 487.984C375.164 484.958 372.145 482.371 368.959 479.643C368.889 480.137 368.489 480.972 368.73 481.543Z" fill="black"/>
<path d="M272.827 288.353C266.163 290.198 260.864 294.266 256.19 299.149C255.397 299.977 255.479 301.636 255.156 302.91C256.4 302.774 257.728 302.864 258.863 302.44C260.04 302.001 261.046 301.08 262.103 300.338C275.48 290.96 289.825 288.874 305.207 294.608C308.467 295.824 311.726 297.044 314.986 298.26C315.247 297.93 315.503 297.595 315.763 297.265C313.646 295.365 311.785 293 309.364 291.64C297.732 285.113 285.411 284.864 272.827 288.353Z" fill="black"/>
<path d="M412.916 338.004C408.227 338.256 403.809 339.402 399.57 342.487C405.453 341.547 410.768 340.07 416.11 339.958C434.309 339.585 448.692 349.523 463.534 358.175C466.763 360.055 470.372 361.275 473.803 362.802C473.962 362.335 474.122 361.869 474.281 361.403C470.866 359.286 467.35 357.312 464.047 355.032C448.642 344.394 432.191 336.962 412.916 338.004Z" fill="black"/>
<path d="M281.57 325.656C278.89 326.697 276.745 329.11 274.352 330.893C274.705 331.554 275.063 332.218 275.416 332.878C285.689 323.99 297.24 323.469 309.455 327.113C300.247 322.882 290.903 322.028 281.57 325.656Z" fill="black"/>
<path d="M532.171 430.205C534.048 423.846 535.936 417.443 537.828 411.045C537.455 410.955 537.082 410.87 536.713 410.784C533.869 417.055 528.48 422.82 532.171 430.205Z" fill="#F7F4F2"/>
<path d="M548.156 461.367C549.815 465.109 551.474 468.85 553.133 472.595C554.334 467.754 552.115 464.207 549.679 460.746C549.17 460.952 548.665 461.161 548.156 461.367Z" fill="#F7F4F2"/>
<path d="M673.647 387.517C676.25 382.692 675.64 381.752 667.683 376.798C666.285 382.245 672.998 382.602 673.647 387.517Z" fill="#F7F4F2"/>
<path d="M667.719 359.312C669.557 361.915 670.843 363.733 672.129 365.551C673.885 361.619 672.024 360.198 667.719 359.312Z" fill="#F7F4F2"/>
<path d="M787.969 100.106C787.654 101.469 787.774 102.965 787.316 104.262C780.684 123.105 767.784 135.276 748.513 140.708C746.815 141.186 745.312 142.359 743.719 143.21C743.878 143.633 744.037 144.057 744.197 144.48C745.374 144.387 746.691 144.608 747.701 144.15C754.714 140.987 762.038 138.291 768.546 134.282C779.942 127.269 788.023 117.429 790.214 103.703C790.599 101.279 790.479 98.7725 790.591 96.3055C790.141 96.2356 789.69 96.1656 789.239 96.0957C788.808 97.4283 788.283 98.7414 787.969 100.106Z" fill="#F7F4F2"/>
<path d="M252.659 502.144C247.344 493.593 242.791 484.568 237.911 475.741C232.669 475.29 227.424 474.836 222.179 474.381C221.157 474.576 220.077 475.088 219.121 474.918C211.794 473.608 205.647 469.77 199.613 465.667C193.039 461.2 186.621 456.417 179.67 452.622C173.193 449.086 168.29 451.514 166.102 458.554C164.237 464.56 165.279 470.294 169.42 475.073C173.787 480.112 176.289 485.485 175.248 492.377C174.487 497.439 176.81 501.413 180.824 504.541C190.716 512.248 201.777 515.753 214.323 514.273C215.562 514.129 216.829 514.253 218.084 514.253C218.185 514.727 218.282 515.201 218.383 515.675C214.222 517.128 210.061 518.585 205.278 520.255C206.23 521.681 206.77 523.488 207.714 523.733C212.4 524.949 217.163 526.032 221.965 526.584C224.429 526.868 227.055 526.048 229.569 525.539C235.657 524.315 241.714 522.936 247.803 521.72C249.66 521.347 251.583 521.293 253.475 521.095C253.576 521.681 253.673 522.268 253.77 522.858C246.423 524.976 239.076 527.089 231.729 529.207C233.411 530.45 235.137 530.997 236.893 531.098C246.796 531.685 255.554 528.002 264.113 523.608C266.775 522.245 266.973 520.683 265.096 518.352C260.826 513.045 256.238 507.901 252.659 502.144Z" fill="#F4731C"/>
<path d="M487.821 413.856C488.466 413.929 489.581 414.225 489.604 414.497C489.67 415.184 489.449 416.295 488.959 416.575C485.532 418.537 482.024 420.363 478.504 422.154C477.905 422.457 477.097 422.55 476.421 422.465C467.742 421.365 463.53 426 460.348 433.514C457.954 439.166 453.886 444.139 450.355 449.271C447.029 454.112 446.971 454.252 451.967 457.682C453.984 459.065 455.907 460.58 457.877 462.037C457.675 462.43 457.477 462.818 457.278 463.207C456.26 462.981 455.149 462.946 454.24 462.5C430.777 451.027 406.361 445.044 380.085 449.337C378.002 449.679 375.811 449.384 373.67 449.384C373.577 449.042 373.488 448.704 373.394 448.362C376.196 446.932 378.997 445.503 381.919 444.015C377.218 434.221 373.973 424.298 373.503 413.692C372.586 392.865 380.769 375.511 394.002 359.99C410.231 340.957 433.069 344.978 449.85 359.151C456.02 364.365 461.168 370.767 467.042 376.354C471.106 380.219 475.454 383.84 479.988 387.142C482.28 388.813 481.985 390.122 480.489 391.649C478.558 393.623 476.386 395.367 474.354 398.405C477.952 399.011 481.542 400.041 485.152 400.103C488.749 400.169 492.363 399.271 496.574 398.716C493.812 405.386 488.854 409.399 482.261 413.479C484.81 413.642 486.321 413.685 487.821 413.856ZM370.072 491.33C367.92 492.127 365.589 492.573 363.607 493.665C345.179 503.817 327.924 500.802 311.385 489.217C306.68 485.922 302.289 482.096 296.325 481.113C295.638 480.996 295.055 480.254 294.934 480.165C298.116 477.566 301.213 475.033 304.31 472.504C304.48 472.651 304.815 472.791 304.811 472.927C304.655 485.592 314.761 489.353 323.612 493.04C335.159 497.849 347.367 498.238 359.225 493.117C361.583 492.099 363.875 490.817 365.958 489.318C368.542 487.457 370.504 485.141 368.981 481.517C368.744 480.946 369.14 480.11 369.214 479.617C372.396 482.344 375.419 484.932 378.954 487.958C375.873 489.131 372.983 490.254 370.072 491.33ZM474.529 361.373C474.37 361.839 474.214 362.306 474.055 362.772C470.621 361.249 467.011 360.029 463.786 358.149C448.944 349.497 434.561 339.555 416.362 339.932C411.02 340.041 405.705 341.521 399.818 342.461C404.057 339.376 408.479 338.23 413.164 337.978C432.44 336.933 448.894 344.365 464.299 355.006C467.602 357.286 471.114 359.26 474.529 361.373ZM401.291 300.662C425.112 293.475 446.94 297.271 466.199 313.362C467.776 314.679 468.231 317.341 469.21 319.38C467.229 318.712 465.068 318.355 463.301 317.325C449.084 309.027 434.386 302.1 417.578 301.381C410.701 301.086 403.956 302.119 397.713 305.359C396.625 305.926 395.432 306.299 394.29 306.762C393.971 306.245 393.656 305.732 393.342 305.215C395.984 303.665 398.443 301.521 401.291 300.662ZM315.235 298.234C311.975 297.014 308.715 295.794 305.456 294.582C290.074 288.848 275.729 290.93 262.352 300.309C261.295 301.051 260.289 301.971 259.112 302.414C257.977 302.838 256.648 302.748 255.405 302.884C255.728 301.61 255.646 299.951 256.439 299.124C261.113 294.236 266.412 290.173 273.075 288.327C285.656 284.839 297.98 285.087 309.613 291.614C312.034 292.974 313.891 295.336 316.012 297.24C315.752 297.57 315.495 297.9 315.235 298.234ZM275.671 332.853C275.313 332.189 274.96 331.529 274.606 330.864C276.996 329.081 279.144 326.672 281.825 325.627C291.158 321.999 300.498 322.857 309.71 327.088C297.495 323.444 285.94 323.964 275.671 332.853ZM517.26 493.102C515.267 483.028 511.898 473.619 505.709 465.328C503.455 462.309 502.966 459.431 504.466 455.526C508.386 445.32 512.201 434.998 514.909 424.427C517.753 413.316 519.416 401.89 521.312 390.553C523.146 379.57 523.344 368.483 522.124 357.414C520.143 339.497 514.179 323.079 502.647 309.038C487.949 291.148 468.767 279.24 448.245 269.291C430.112 260.499 411.086 254.384 391.294 250.499C379.751 248.23 368.301 246.987 356.614 249.439C343.33 252.22 335.287 261.68 335.143 275.134C335.039 285.149 338.081 294.318 342.529 303.145C343.198 304.47 343.271 306.093 343.827 308.467C341.511 307.341 340.264 306.933 339.242 306.202C327.878 298.079 316.234 290.169 307.826 278.778C303.68 273.164 300.144 266.968 297.223 260.627C295.179 256.195 295.424 255.449 290.804 257.278C284.716 259.687 278.554 262.108 272.862 265.305C257.258 274.066 248.303 287.916 246.146 305.344C244.887 315.515 246.061 326.012 246.453 336.35C246.683 342.43 247.137 348.595 250.296 354.058C251.461 356.082 252.18 359.023 255.797 358.3C252.409 353.844 249.818 349.236 249.62 343.673C249.593 342.853 250.144 342.018 250.428 341.187C251.189 341.571 252.153 341.781 252.685 342.372C255.976 346.027 259.76 346.626 264.186 344.675C270.43 341.929 276.619 339.011 283.018 336.676C300.789 330.196 312.954 335.421 321.055 352.395C327.66 366.241 328.942 380.736 326.036 395.515C324.272 404.493 321.37 413.257 318.767 422.053C317.119 427.612 317.182 427.985 322.644 429.159C335.38 431.898 345.781 438.747 354.993 447.643C355.619 448.253 355.922 449.197 356.377 449.982C356.112 450.219 355.852 450.452 355.592 450.685C354.415 449.842 353.23 449.007 352.064 448.152C346.955 444.396 342.153 440.099 336.682 436.975C322.151 428.673 307.76 428.758 294.048 439.178C292.343 440.476 290.594 441.719 288.865 442.985C288.57 442.702 288.279 442.418 287.987 442.135C288.726 441.132 289.336 439.99 290.229 439.147C293.093 436.435 293.104 435.359 289.81 433.218C280.43 427.119 270.185 423.654 258.964 423.149C257.709 423.094 256.474 422.69 254.243 422.255C258.762 419.559 259.104 416.19 258.7 412.504C258.16 407.601 257.911 402.659 257.181 397.791C256.163 390.985 254.818 384.225 253.614 377.445C253.039 377.426 252.464 377.407 251.889 377.383C251.403 378.611 250.681 379.8 250.482 381.07C249.375 388.044 248.443 395.044 247.359 402.022C245.769 412.243 244.243 422.383 237.812 431.163C234.273 436.004 233.173 441.964 234.432 448.055C235.407 452.776 236.32 457.519 237.571 462.169C245.606 492.068 261.995 516.249 287.447 534.026C309.158 549.193 333.896 556.369 359.776 559.302C390.964 562.841 422.322 563.339 453.649 560.848C466.957 559.788 479.72 556.952 491.52 549.869C509.808 538.898 521.402 514.007 517.26 493.102Z" fill="#F4731C"/>
<path d="M553.138 472.594C551.478 468.852 549.819 465.111 548.16 461.366C548.669 461.16 549.174 460.954 549.683 460.744C552.12 464.206 554.338 467.753 553.138 472.594ZM532.172 430.204C528.485 422.819 533.874 417.054 536.714 410.783C537.087 410.869 537.456 410.958 537.829 411.044C535.941 417.446 534.053 423.845 532.172 430.204ZM667.684 376.797C675.642 381.751 676.255 382.695 673.648 387.516C673 382.601 666.286 382.244 667.684 376.797ZM672.133 365.55C670.847 363.732 669.561 361.914 667.723 359.311C672.028 360.197 673.885 361.619 672.133 365.55ZM635.833 471.078C637.033 470.367 638.389 469.734 639.539 468.845C644.155 465.274 646.078 460.049 647.609 454.754C649.47 448.332 651.044 441.96 655.881 436.805C658.037 434.505 659.024 431.11 660.52 428.2C661.588 426.125 662.618 424.035 663.873 421.537C666.938 424.975 666.62 428.029 665.272 431.051C664.048 433.806 662.544 436.436 661.161 439.124C662.365 438.852 663.702 438.821 664.743 438.254C669.53 435.643 672.055 431.222 673.031 426.137C674.861 416.576 676.733 406.98 677.755 397.314C680.654 369.878 675.894 344.179 659.086 321.537C658.208 320.356 656.984 319.435 655.924 318.39C656.11 326.04 657.105 333.091 658.08 340.142C660.054 354.466 659.374 368.452 653.449 381.953C649.75 390.383 641.583 396.607 633.614 396.576C620.913 396.529 609.696 392.885 599.594 384.785C584.352 372.567 571.433 358.184 558.814 343.441C554.424 338.312 549.699 333.468 544.901 328.243C543.719 329.707 543.047 330.542 541.94 331.914C540.996 321.281 533.035 316.937 526.061 311.929C522.894 309.653 520.742 310.865 520.536 314.851C520.369 318.114 520.598 321.452 521.091 324.688C522.203 332.015 523.811 339.268 524.798 346.607C526.111 356.358 526.473 366.265 528.233 375.927C530.976 390.993 531.625 405.966 527.413 420.729C524.413 431.234 520.408 441.459 516.713 451.762C515.528 455.061 515.415 458.009 517.105 461.242C523.994 474.435 527.471 488.526 527.145 503.421C526.989 510.519 526.263 517.621 521.037 523.223C516.107 528.51 516.246 535.441 521.426 540.43C524.782 543.666 527.615 543.052 528.99 538.541C531.03 531.867 530.98 525.127 529.383 518.308C528.986 516.611 529.002 513.946 530.024 512.924C537.969 504.983 545.367 496.657 551.164 486.968C551.782 485.935 553.495 485.562 554.696 484.882C554.859 486.16 555.344 487.496 555.119 488.701C554.319 492.951 556.079 495.197 560.17 493.942C564.844 492.508 569.32 490.333 573.757 488.219C576.601 486.863 579.22 485.041 582.798 482.92C582.514 484.956 582.631 486.055 582.207 486.879C579.977 491.211 580.482 495.55 582.965 499.319C585.654 503.409 588.886 507.221 592.336 510.698C593.603 511.972 596.381 512.776 598.122 512.357C604.742 510.756 610.477 507.749 612.493 500.371C612.94 498.736 613.962 497.256 614.716 495.705C615.089 495.838 615.466 495.974 615.839 496.106C615.73 497.877 615.625 499.649 615.516 501.432C623.909 501.055 653.468 472.364 655.069 462.438C653.01 464.012 651.195 464.921 650.041 466.362C645.872 471.564 639.469 472.112 633.902 474.319C631.936 475.096 630.615 474.12 631.201 471.424C631.765 468.841 631.683 466.117 631.932 462.792C637.212 463.192 633.707 468.542 635.833 471.078Z" fill="#F4731C"/>
<path d="M661.401 439.112C661.401 439.112 661.405 439.105 661.408 439.098C661.401 439.102 661.398 439.102 661.391 439.102L661.401 439.112Z" fill="#E78C3B"/>
<path d="M790.468 103.676C788.277 117.401 780.195 127.242 768.8 134.254C762.292 138.264 754.968 140.96 747.959 144.122C746.945 144.581 745.628 144.359 744.454 144.453C744.295 144.029 744.136 143.606 743.976 143.182C745.569 142.331 747.069 141.158 748.767 140.68C768.038 135.249 780.941 123.077 787.57 104.235C788.028 102.937 787.908 101.442 788.222 100.078C788.537 98.7184 789.062 97.4053 789.497 96.0689C789.947 96.1388 790.398 96.2087 790.849 96.2787C790.732 98.7456 790.857 101.251 790.468 103.676ZM803.426 101.772C800.756 95.0432 797.042 88.7301 793.798 82.2266C793.417 82.382 793.036 82.5335 792.655 82.6889C792.527 83.1046 792.383 83.5164 792.271 83.9321C787.379 102.04 776.877 116.073 760.543 125.113C748.51 131.772 736.058 137.813 723.353 143.062C712.043 147.739 700.232 151.31 688.451 154.713C675.338 158.505 664.106 165.544 654.874 175.062C648.6 181.531 644.244 189.915 639.333 197.634C633.676 206.531 631.147 216.69 630.02 226.927C629.045 235.82 629.002 245 630.028 253.881C631.508 266.706 636.753 278.539 642.402 290.086C645.274 295.956 648.351 301.721 651.7 308.244C653.507 305.501 655.003 303.543 656.172 301.41C661.6 291.515 666.577 281.356 672.397 271.702C679.068 260.633 685.642 249.227 696.311 241.41C704.373 235.501 713.193 230.641 721.511 225.074C735.545 215.68 749.633 206.348 763.349 196.508C775.848 187.545 787.636 177.689 796.704 165.004C802.155 157.382 806.262 149.126 807.789 139.868C809.941 126.815 808.282 113.998 803.426 101.772Z" fill="#F4731C"/>
<path d="M614.357 113.323C615.655 115.713 616.949 118.106 618.247 120.495C617.862 120.701 617.481 120.911 617.097 121.117C615.795 118.731 614.493 116.342 613.192 113.957C613.58 113.747 613.969 113.533 614.357 113.323ZM571.044 87.8651C576.328 100.215 581.204 112.725 582.595 126.097C584.095 140.483 584.72 154.978 585.311 169.442C586.072 188.152 585.513 206.964 587.156 225.588C589.934 257.057 603.467 283.529 627.925 303.894C633.322 308.389 639.53 311.917 645.471 315.724C646.543 316.412 648.129 316.303 649.473 316.563C649.434 315.238 649.776 313.747 649.283 312.62C647.433 308.432 645.545 304.228 643.245 300.281C633.691 283.89 628.007 266.322 626.072 247.437C624.226 229.442 627.634 212.562 636.702 197.037C645.079 182.69 651.225 166.486 667.493 158.242C670.388 156.773 671.293 153.393 670.104 150.149C668.208 144.99 666.382 139.765 663.961 134.846C653.556 113.712 638.94 95.8876 621.172 80.4719C603.77 65.3748 583.83 57.4999 560.344 58.2536C560.464 58.9141 560.495 59.6328 560.728 60.2738C564.12 69.489 567.186 78.848 571.044 87.8651Z" fill="#F4731C"/>
<path d="M352.187 241.459C352.665 244.35 354.483 246.226 358.221 245.939C371.482 244.925 384.797 243.336 398.042 243.728C413.396 244.187 428.716 246.347 444.02 248.068C456.823 249.509 468.984 253.577 480.733 258.658C498.407 266.3 514.038 277.198 526.467 291.867C539.65 307.419 551.819 323.829 564.395 339.894C575.655 354.272 588.302 367.178 604.131 377.695C603.878 376.16 603.734 375.084 603.521 374.02C602.277 367.823 600.296 361.669 599.954 355.426C599.554 348.103 596.869 345.201 588.341 344.365C585.687 344.109 582.987 344.327 579.789 344.327C580.216 343.146 580.469 342.318 580.811 341.529C582.206 338.324 583.837 335.205 584.988 331.918C586.526 327.52 584.809 323.351 580.473 321.829C577.337 320.725 573.864 320.418 570.511 320.166C566.94 319.894 563.331 320.104 559.08 320.104C559.873 318.313 560.316 317.034 560.969 315.877C562.297 313.534 563.848 311.308 565.11 308.934C568.316 302.912 566.851 297.442 560.549 295.026C554.037 292.528 547.156 290.939 540.376 289.202C535.862 288.045 531.23 287.334 526.661 286.393C524.45 285.935 524.551 284.944 525.597 283.134C528.099 278.783 530.815 274.451 532.52 269.777C536.106 259.948 533.845 251.44 521.89 247.862C512.34 245.003 502.805 245.756 493.236 247.516C489.91 248.13 486.604 248.853 483.289 249.525C483.122 249.113 482.959 248.701 482.796 248.289C484.404 247.135 486.11 246.094 487.606 244.812C498.139 235.78 497.984 217.264 487.295 206.992C481.149 201.09 473.549 198.142 465.331 196.786C451.861 194.564 438.562 195.554 425.612 199.909C421.097 201.428 420.219 203.398 420.507 208.146C420.557 208.961 419.66 209.839 419.201 210.686C418.754 210.566 418.307 210.449 417.857 210.329C417.185 207.011 416.633 203.662 415.817 200.379C414.014 193.107 412.682 185.636 410.032 178.674C407.258 171.382 401.247 168.165 393.166 168.491C382.881 168.903 374.737 173.596 367.802 180.562C355.905 192.505 348.787 206.541 350.314 223.958C350.827 229.804 351.231 235.679 352.187 241.459Z" fill="#F4731C"/>
<path d="M591.814 515.495C587.793 510.173 583.363 505.064 578.538 500.472C574.746 496.863 571.944 497.422 567.34 499.92C564.52 501.447 561.26 502.166 558.194 503.242C555.443 504.205 552.495 504.804 549.977 506.187C540.318 511.49 537.023 520.81 534.731 530.818C531.933 543.032 529.361 555.344 525.701 567.309C523.223 575.41 519.465 583.211 515.522 590.748C507.767 605.577 497.459 618.65 486.351 631.109C481.751 636.268 482.217 641.641 487.509 646.058C493.352 650.942 499.821 651.563 506.982 649.403C514.422 647.162 519.64 642.006 524.85 636.75C527.92 633.65 531.067 631.948 535.271 634.908C536.557 635.814 538.309 636.066 539.856 636.583C548.213 639.376 556.213 639.403 563.614 633.786C571.024 628.16 574.991 620.316 577.092 611.653C579.062 603.537 579.987 595.169 581.483 586.933C581.638 586.082 582.555 585.367 583.119 584.586C583.565 585.437 584.428 586.303 584.385 587.127C584.214 590.643 584.012 594.19 583.383 597.647C582.283 603.708 580.857 609.714 579.567 615.74C579.952 616 580.333 616.257 580.717 616.513C583.565 613.49 586.534 610.565 589.242 607.418C597.463 597.869 603.019 587.298 601.376 574.128C601.333 573.778 601.251 573.393 601.345 573.071C601.671 571.933 602.067 570.814 602.44 569.687C603.07 570.783 604.111 571.828 604.251 572.978C604.558 575.534 604.674 578.168 604.387 580.717C603.855 585.464 602.98 590.169 602.122 595.689C604.402 593.638 606.442 592.212 607.965 590.359C615.542 581.159 615.635 570.487 613.234 559.637C609.609 543.269 601.846 528.766 591.814 515.495Z" fill="#F4731C"/>
<path d="M300.375 340.35C301.296 339.853 302.124 339.188 303.993 337.93C301.125 337.261 299.47 336.62 297.788 336.531C289.364 336.092 281.975 338.536 276.104 344.822C268.632 352.813 264.732 362.58 262.284 373.019C259.152 386.372 258.216 399.775 261.643 413.256C262.684 417.343 265.031 419.954 269.009 421.562C275.956 424.379 282.853 427.374 289.582 430.672C297.244 434.425 308.997 431.85 313.698 424.752C318.147 418.038 319.344 410.222 321.014 402.254C309.04 408.388 298.988 405.474 296.782 395.354C298.336 395.354 299.855 395.447 301.358 395.334C304.599 395.097 305.726 392.992 304.067 390.257C302.45 387.595 300.092 386.197 296.925 386.9C293.801 387.595 292.578 386.407 292.784 383.318C292.986 380.265 292.877 377.18 293.265 374.153C294.093 367.7 293.638 367.067 286.994 366.834C286.524 366.819 286.054 366.811 285.58 366.795C281.594 366.675 280.926 365.82 282.254 362.056C285.592 352.584 291.431 345.167 300.375 340.35Z" fill="white"/>
<path d="M336.954 300.145C336.002 296.909 335.073 293.669 334.098 290.441C328.596 272.232 332.233 260.417 346.721 248.533C348 247.484 348.963 245.211 348.928 243.529C348.765 235.887 348.085 228.257 347.809 220.615C347.588 214.458 345.027 211.525 338.822 212.395C333.095 213.199 327.291 214.563 321.945 216.73C309.873 221.622 299.857 237.542 300.68 250.503C302.203 274.45 317.294 288.918 336.954 300.145Z" fill="#F4731C"/>
<path d="M719.208 427.904C698.597 427.014 680.336 434.773 662.658 444.283C660.983 445.185 659.433 446.323 657.828 447.352C658.034 447.772 658.244 448.188 658.45 448.603C660.68 448.017 662.976 447.617 665.129 446.816C673.906 443.545 682.986 442.139 692.202 443.533C699.036 444.567 705.707 446.653 712.44 448.308C718.742 449.858 725.04 451.385 731.548 449.54C739.536 447.271 741.331 441.183 736.23 434.59C731.824 428.895 725.413 428.172 719.208 427.904Z" fill="#F4731C"/>
<path d="M703.828 473.064C698.26 469.28 692.265 466.125 686.767 462.256C680.838 458.079 674.132 456.976 667.912 456.051C666.198 456.145 665.076 455.997 664.1 456.308C662.286 456.879 660.557 457.718 658.797 458.444C659.935 459.851 660.969 461.37 662.239 462.648C666.688 467.131 671.712 471.141 675.578 476.071C679.599 481.199 682.256 487.38 686.087 492.683C687.428 494.536 690.754 496.479 692.7 496.078C698.268 494.929 703.07 491.805 706.353 486.902C710.2 481.156 709.543 476.945 703.828 473.064Z" fill="#F4731C"/>
<path d="M720.428 454.46C717.44 453.271 714.185 452.762 711.088 451.826C700.947 448.764 690.779 445.854 680.005 446.744C672.744 447.346 665.773 448.947 659.258 452.82C659.728 453.174 659.891 453.399 660.054 453.403C661.228 453.422 662.413 453.481 663.578 453.368C672.724 452.506 681.435 453.85 689.326 458.764C693.107 461.115 696.689 463.791 700.302 466.398C705.202 469.93 710.132 473.31 716.57 473.154C721.337 473.038 724.904 470.283 725.736 465.975C726.676 461.115 724.558 456.103 720.428 454.46Z" fill="#F4731C"/>
<path d="M323.762 367.01C324.007 362.985 319.278 358.525 314.923 358.533C311.628 358.537 308.982 360.623 308.893 363.288C308.769 367.13 313.796 371.377 318.536 371.439C321.606 371.528 323.568 370.196 323.762 367.01Z" fill="white"/>
<path d="M314.19 380.708C314.61 381.924 316.18 382.748 317.268 383.735C318.165 382.686 319.673 381.691 319.777 380.569C319.863 379.644 318.293 378.56 316.813 376.773C315.507 378.638 313.942 379.982 314.19 380.708Z" fill="white"/>
<path d="M503.328 296.671C504.047 300.117 504.692 303.19 505.333 306.267C507.684 301.586 506.934 298.66 503.328 296.671Z" fill="#F4731C"/>
<path d="M501.289 287.71C504.292 284.773 504.308 282.085 501.289 279.334V287.71Z" fill="#F4731C"/>
<path d="M430.565 421.102C424.861 414.113 423.066 406.036 423.909 397.256C424.492 391.191 424.574 391.199 419.088 388.907C412.02 385.954 411.484 384.388 415.276 377.503C415.898 376.373 416.621 375.289 417.359 374.228C421.912 367.667 427.756 362.741 436.366 360.166C434.839 359.229 434.19 358.758 433.479 358.413C420.716 352.15 404.759 355.271 393.48 366.218C375.529 383.639 370.649 418.556 383.036 440.522C385.421 444.749 389.221 446.288 393.693 446.102C408.197 445.488 422.382 447.115 436.269 451.412C441.125 452.911 445.251 451.242 448.212 447.403C455.423 438.068 456.293 426.808 457.475 415.65C456.255 416.87 455.338 418.207 454.491 419.582C448.15 429.897 438.242 430.511 430.565 421.102Z" fill="white"/>
<path d="M430.336 409.197C431.618 412.484 432.255 415.293 433.759 417.511C434.602 418.758 437.05 419.819 438.468 419.52C439.836 419.228 441.654 417.15 441.774 415.732C442 413.047 441.51 410.153 440.651 407.566C439.762 404.869 437.489 402.542 434.517 403.844C432.729 404.629 431.762 407.27 430.336 409.197Z" fill="white"/>
<path d="M450.944 383.82C447.875 383.843 446.398 385.564 446.383 388.462C446.363 391.71 451.721 396.819 455.078 396.477C456.197 396.36 457.161 394.713 457.619 394.297C457.569 388.058 454.519 383.792 450.944 383.82Z" fill="white"/>
<path d="M450.732 404.323C449.737 405.248 448.098 406.072 447.935 407.128C447.775 408.138 449.147 409.389 450.375 411.402C451.859 409.549 453.444 408.426 453.351 407.466C453.238 406.344 451.668 405.365 450.732 404.323Z" fill="white"/>
</g>
</g>
<defs>
<clipPath id="clip0_1799_2569">
<rect width="1793" height="777" fill="white"/>
</clipPath>
</defs>
</svg>
