<svg width="459" height="626" viewBox="0 0 459 626" fill="none" xmlns="http://www.w3.org/2000/svg">
<path d="M214.108 21.4781C97.8101 21.4781 3.19501 111.825 3.19501 222.88C3.19501 333.936 97.8101 424.285 214.108 424.285C330.406 424.285 425.021 333.936 425.021 222.88C425.021 111.825 330.406 21.4781 214.108 21.4781ZM214.108 426.825C96.3442 426.825 0.535156 335.335 0.535156 222.88C0.535156 110.426 96.3442 18.9382 214.108 18.9382C331.872 18.9382 427.681 110.426 427.681 222.88C427.681 335.335 331.872 426.825 214.108 426.825Z" fill="white"/>
<path d="M242.754 190.512C242.855 190.794 242.959 191.078 243.29 191.993C242.674 191.264 242.511 191.071 242.348 190.878C242.482 190.754 242.62 190.633 242.754 190.512Z" fill="#FEFEFE"/>
<path d="M449.117 70.7055C443.072 78.778 435.214 85.0548 426.883 90.7604C417.737 97.0225 408.349 102.963 398.994 108.943C393.449 112.49 387.567 115.581 382.193 119.343C375.081 124.319 370.702 131.583 366.255 138.626C362.375 144.774 359.058 151.242 355.439 157.541C354.66 158.899 353.663 160.143 352.456 161.889C350.226 157.739 348.175 154.066 346.261 150.332C342.495 142.981 338.999 135.448 338.012 127.284C337.328 121.631 337.357 115.786 338.007 110.125C338.758 103.609 340.441 97.1412 344.215 91.4752C347.488 86.561 350.392 81.2264 354.572 77.1086C360.726 71.0493 368.213 66.5655 376.957 64.1541C384.809 61.9876 392.683 59.7123 400.222 56.7371C408.691 53.3933 416.992 49.5476 425.013 45.3086C435.901 39.556 442.901 30.6229 446.162 19.0955C446.237 18.8284 446.333 18.5687 446.418 18.3041C446.672 18.2052 446.926 18.1062 447.177 18.0073C449.34 22.1474 451.816 26.1688 453.598 30.4523C456.835 38.2353 457.938 46.3943 456.506 54.7041C455.488 60.5952 452.751 65.8532 449.117 70.7055ZM357.55 170.337C368.754 184.748 371.924 201.108 369.992 218.574C369.311 224.729 368.063 230.836 366.843 236.922C366.195 240.159 364.512 242.974 361.321 244.636C360.627 244.997 359.736 245.017 358.933 245.19C359.855 243.481 360.855 241.804 361.673 240.051C362.572 238.127 362.782 236.185 360.738 233.994C359.902 235.584 359.216 236.915 358.503 238.235C357.506 240.088 356.848 242.252 355.414 243.713C352.187 246.995 351.138 251.051 349.9 255.139C348.877 258.51 347.597 261.837 344.52 264.11C343.751 264.676 342.847 265.079 342.05 265.534C340.63 263.917 342.966 260.511 339.449 260.256C339.281 262.373 339.338 264.107 338.962 265.752C338.571 267.468 339.452 268.089 340.76 267.594C344.471 266.19 348.742 265.841 351.518 262.529C352.288 261.612 353.497 261.033 354.872 260.034C353.803 266.353 334.101 284.615 328.504 284.857C328.577 283.719 328.649 282.592 328.722 281.466C328.471 281.38 328.222 281.296 327.973 281.209C327.468 282.198 326.79 283.138 326.492 284.179C325.148 288.876 321.322 290.79 316.909 291.809C315.749 292.079 313.897 291.564 313.055 290.756C310.753 288.54 308.601 286.116 306.806 283.512C305.153 281.11 304.817 278.348 306.301 275.59C306.583 275.066 306.508 274.366 306.695 273.07C304.309 274.42 302.564 275.583 300.668 276.443C297.71 277.789 294.729 279.174 291.611 280.086C288.884 280.885 287.71 279.456 288.244 276.75C288.397 275.983 288.07 275.133 287.964 274.319C287.161 274.752 286.019 274.992 285.607 275.647C281.746 281.815 276.815 287.115 271.518 292.17C270.834 292.821 270.824 294.517 271.091 295.598C272.155 299.938 272.189 304.229 270.829 308.481C269.912 311.35 268.024 311.743 265.784 309.68C262.332 306.505 262.238 302.093 265.528 298.727C269.009 295.16 269.493 290.639 269.596 286.123C269.817 276.639 267.496 267.669 262.904 259.27C261.78 257.212 261.853 255.335 262.642 253.235C265.106 246.676 267.778 240.169 269.778 233.479C272.585 224.081 272.15 214.55 270.322 204.959C269.148 198.808 268.908 192.502 268.035 186.294C267.377 181.622 266.302 177.005 265.561 172.343C265.235 170.28 265.082 168.156 265.194 166.078C265.331 163.541 266.763 162.772 268.874 164.218C273.523 167.409 278.832 170.171 279.461 176.94C280.197 176.07 280.648 175.536 281.435 174.603C284.634 177.93 287.78 181.014 290.707 184.278C299.122 193.664 307.73 202.82 317.891 210.6C324.627 215.754 332.102 218.074 340.568 218.104C345.88 218.124 351.324 214.164 353.79 208.795C357.739 200.201 358.193 191.297 356.877 182.179C356.229 177.69 355.564 173.201 355.439 168.331C356.149 168.997 356.965 169.585 357.55 170.337ZM397.461 238.065C401.594 238.235 405.87 238.695 408.807 242.321C412.208 246.516 411.011 250.393 405.687 251.838C401.348 253.013 397.15 252.041 392.949 251.054C388.461 250 384.012 248.672 379.458 248.014C373.315 247.126 367.26 248.022 361.409 250.104C359.977 250.614 358.446 250.868 356.96 251.242C356.82 250.977 356.683 250.71 356.545 250.445C357.615 249.79 358.648 249.063 359.765 248.489C371.549 242.437 383.721 237.498 397.461 238.065ZM401.812 262.299C401.258 265.044 398.88 266.795 395.7 266.87C391.411 266.969 388.124 264.819 384.858 262.569C382.447 260.909 380.059 259.208 377.539 257.709C372.279 254.581 366.473 253.725 360.376 254.274C359.599 254.346 358.812 254.308 358.029 254.296C357.918 254.294 357.812 254.153 357.498 253.928C361.839 251.459 366.488 250.44 371.326 250.06C378.511 249.493 385.286 251.346 392.045 253.292C394.112 253.888 396.28 254.212 398.272 254.969C401.025 256.015 402.439 259.208 401.812 262.299ZM388.894 275.622C386.705 278.743 383.504 280.732 379.793 281.461C378.495 281.719 376.278 280.482 375.384 279.302C372.831 275.926 371.059 271.992 368.379 268.727C365.802 265.589 362.453 263.036 359.488 260.182C358.641 259.369 357.952 258.402 357.193 257.506C358.366 257.044 359.519 256.51 360.728 256.146C361.378 255.948 362.127 256.042 363.269 255.983C367.415 256.569 371.885 257.274 375.838 259.932C379.502 262.396 383.499 264.404 387.21 266.813C391.02 269.283 391.458 271.964 388.894 275.622ZM326.818 321.925C328.419 328.832 328.359 335.626 323.309 341.483C322.291 342.662 320.931 343.57 319.411 344.876C319.983 341.361 320.569 338.366 320.924 335.344C321.115 333.722 321.035 332.045 320.83 330.418C320.74 329.686 320.046 329.02 319.623 328.323C319.377 329.04 319.113 329.752 318.893 330.477C318.831 330.682 318.885 330.927 318.914 331.15C320.012 339.534 316.306 346.263 310.825 352.342C309.02 354.346 307.044 356.208 305.146 358.132C304.889 357.969 304.633 357.806 304.377 357.64C305.236 353.804 306.187 349.98 306.922 346.122C307.342 343.921 307.477 341.663 307.591 339.425C307.617 338.901 307.042 338.349 306.744 337.808C306.368 338.305 305.757 338.76 305.653 339.301C304.656 344.544 304.042 349.872 302.727 355.038C301.326 360.553 298.684 365.547 293.742 369.128C288.808 372.704 283.476 372.687 277.908 370.908C276.874 370.579 275.706 370.419 274.849 369.842C272.047 367.958 269.951 369.041 267.903 371.015C264.432 374.361 260.951 377.643 255.992 379.07C251.221 380.445 246.906 380.049 243.013 376.94C239.486 374.128 239.173 370.708 242.239 367.424C249.644 359.492 256.517 351.17 261.687 341.73C264.316 336.932 266.82 331.966 268.472 326.809C270.912 319.192 272.624 311.355 274.491 303.579C276.019 297.208 278.213 291.275 284.652 287.897C286.333 287.019 288.298 286.638 290.129 286.024C292.173 285.339 294.348 284.882 296.229 283.91C299.298 282.32 301.162 281.963 303.69 284.261C306.909 287.184 309.859 290.436 312.54 293.825C319.23 302.273 324.402 311.505 326.818 321.925ZM254.893 160.63C254.466 158.671 254.036 156.715 253.557 154.521C255.96 155.787 256.463 157.652 254.893 160.63ZM252.195 148.818V143.486C254.207 145.237 254.197 146.948 252.195 148.818ZM238.507 130.316C230.678 127.084 222.571 124.494 214.037 123.577C203.838 122.481 193.626 121.106 183.391 120.814C174.567 120.565 165.691 121.576 156.852 122.222C154.36 122.402 153.148 121.21 152.83 119.37C152.193 115.69 151.926 111.951 151.584 108.228C150.564 97.1437 155.308 88.2081 163.236 80.6081C167.862 76.1737 173.288 73.1861 180.143 72.924C185.528 72.7162 189.534 74.764 191.383 79.4061C193.15 83.838 194.038 88.5915 195.242 93.2212C195.784 95.3111 196.151 97.4429 196.599 99.555C196.9 99.6317 197.198 99.7059 197.496 99.7825C197.801 99.2434 198.399 98.6845 198.366 98.1651C198.174 95.1429 198.759 93.889 201.769 92.922C210.401 90.1496 219.264 89.5214 228.241 90.9336C233.721 91.7967 238.787 93.6738 242.879 97.4306C250.006 103.967 250.11 115.754 243.089 121.502C242.091 122.321 240.954 122.983 239.882 123.718C239.991 123.98 240.1 124.242 240.211 124.504C242.42 124.074 244.622 123.614 246.839 123.226C253.218 122.103 259.573 121.626 265.937 123.446C273.906 125.724 275.413 131.137 273.023 137.394C271.886 140.37 270.076 143.127 268.408 145.895C267.714 147.05 267.646 147.68 269.12 147.97C272.166 148.571 275.25 149.021 278.26 149.758C282.779 150.866 287.366 151.875 291.707 153.465C295.905 155.003 296.884 158.483 294.747 162.319C293.903 163.83 292.87 165.245 291.986 166.739C291.549 167.473 291.253 168.287 290.728 169.427C293.558 169.427 295.964 169.293 298.345 169.466C300.58 169.627 302.895 169.823 304.985 170.525C307.876 171.494 309.02 174.148 307.995 176.948C307.228 179.04 306.14 181.026 305.21 183.066C304.983 183.568 304.814 184.095 304.529 184.847C306.661 184.847 308.461 184.706 310.23 184.872C315.915 185.401 317.702 187.251 317.971 191.91C318.199 195.885 319.517 199.802 320.346 203.747C320.488 204.422 320.584 205.107 320.753 206.087C310.201 199.392 301.774 191.176 294.271 182.025C285.887 171.801 277.775 161.355 268.99 151.454C260.705 142.116 250.289 135.181 238.507 130.316ZM149.331 123.879C139.673 131.444 137.249 138.962 140.916 150.557C141.566 152.612 142.185 154.674 142.82 156.735C129.715 149.587 119.655 140.377 118.64 125.133C118.091 116.882 124.77 106.745 132.815 103.633C136.379 102.253 140.248 101.385 144.065 100.873C148.202 100.319 149.908 102.184 150.056 106.106C150.24 110.971 150.696 115.828 150.802 120.693C150.825 121.764 150.183 123.211 149.331 123.879ZM350.977 167.186C350.078 167.021 349.024 167.09 348.309 166.652C344.349 164.228 340.208 161.983 336.613 159.121C320.31 146.154 311.289 129.305 309.437 109.272C308.339 97.4157 308.715 85.4407 308.204 73.5274C307.813 64.3198 307.396 55.0949 306.397 45.9368C305.467 37.4217 302.217 29.4605 298.694 21.5983C296.122 15.8581 294.082 9.90025 291.821 4.0339C291.663 3.62583 291.644 3.16832 291.564 2.74788C307.218 2.26809 320.509 7.28118 332.109 16.8919C343.956 26.7054 353.699 38.0523 360.632 51.5063C362.246 54.6374 363.466 57.9613 364.727 61.2457C365.522 63.3108 364.919 65.4649 362.987 66.3973C352.143 71.6478 348.048 81.9634 342.461 91.0968C336.419 100.98 334.145 111.725 335.375 123.181C336.665 135.203 340.457 146.387 346.823 156.821C348.356 159.334 349.615 162.01 350.848 164.676C351.179 165.391 350.949 166.343 350.977 167.186ZM447.2 14.8021C446.799 14.2011 446.167 13.7411 445.237 12.8087C444.813 14.9505 444.494 16.6124 444.157 18.267C441.622 30.7268 433.388 39.1059 422.332 45.1009C407.487 53.1485 391.577 58.7107 374.869 62.0841C369.018 63.2638 367.058 63.9414 365.051 56.9844C364.989 56.7692 364.859 56.5739 364.774 56.3637C358.281 40.2633 347.064 27.5537 333.767 16.1821C321.025 5.28038 305.923 0.93752 289.259 0.381057C286.431 0.287077 286.12 0.868271 287.366 3.16337C289.961 7.94895 292.491 12.7667 295.027 17.5819C303.594 33.8455 306.899 51.1477 306.278 69.2464C306.013 76.8983 305.824 84.5553 305.801 92.2122C305.739 110.988 309.865 128.669 320.851 144.594C327.95 154.887 336.437 163.64 348.62 168.435C351.138 169.427 352.598 170.891 353.303 173.31C355.631 181.296 356.273 189.413 355.193 197.614C354.479 203.032 352.078 207.895 348.188 211.847C346.582 213.476 344.116 215.007 341.876 215.262C336.665 215.858 325.461 212.406 323.096 204.927C321.566 200.087 320.413 195.111 319.504 190.127C318.914 186.887 317.259 184.931 314.086 184.061C312.291 183.568 310.445 183.259 308.394 182.819C308.785 181.182 309.077 179.649 309.518 178.16C310.564 174.628 309.657 171.591 306.428 169.716C304.503 168.601 302.072 167.97 299.805 167.77C293.911 167.248 293.794 167.78 296.42 162.183C298.707 157.311 297.381 153.937 292.183 151.991C289.27 150.9 286.252 150.018 283.222 149.251C279.392 148.281 275.499 147.525 271.443 146.637C272.536 143.921 273.606 141.438 274.543 138.911C277.92 129.802 273.935 123.008 263.953 121.334C260.431 120.743 256.763 120.911 253.161 120.795C251.104 120.725 249.045 120.782 247.116 120.782C248.097 117.555 249.618 114.453 249.9 111.251C250.623 103.087 246.354 97.1956 239.351 92.969C234.576 90.0853 229.173 88.7621 223.628 88.8981C216.265 89.0762 208.912 89.7959 201.567 90.4365C197.695 90.7753 197.431 90.6838 196.418 87.0161C195.74 84.5602 195.087 82.0574 194.017 79.7474C191.199 73.6511 185.385 70.3098 178.581 71.5563C165.72 73.9083 156.342 80.6106 151.978 92.8008C151.198 94.9747 150.776 97.2673 150.317 99.0159C146.733 99.0159 143.33 98.6424 140.051 99.0851C128.984 100.579 118.303 111.589 116.615 123.028C116.384 124.583 115.786 125.323 114.248 125.902C107.149 128.578 100.27 131.689 94.1679 136.165C87.5481 141.02 82.3035 147.042 80.8324 154.927C79.7032 160.979 80.0192 167.307 80.0062 173.515C79.9984 177.937 80.1513 183.504 80.4258 187.926C80.5527 187.916 80.2834 188.614 80.3895 188.688C81.467 189.432 80.475 188.866 81.1898 189.925C81.5058 190.394 82.2543 190.998 82.6195 191.418C84.681 193.8 85.8051 192.855 85.9527 192.949C85.8905 192.838 84.9504 191.161 84.8856 191.055C82.7826 187.577 82.477 183.653 82.3242 179.782C82.0652 173.201 81.283 166.518 82.1222 160.044C83.5596 148.949 89.5294 140.132 99.9305 134.555C103.725 132.52 107.83 130.979 111.891 129.446C114.968 128.281 114.807 128.756 116.167 131.578C118.117 135.614 120.474 139.558 123.235 143.132C128.839 150.384 136.601 155.419 144.179 160.59C144.858 161.055 145.692 161.315 147.233 162.032C146.863 160.521 146.813 159.487 146.37 158.644C143.402 153.025 141.374 147.188 141.447 140.812C141.543 132.248 146.904 126.226 155.759 124.455C163.547 122.894 171.179 123.686 178.877 125.13C192.067 127.603 204.753 131.496 216.84 137.093C230.517 143.427 243.306 151.007 253.104 162.396C260.791 171.334 264.766 181.785 266.085 193.192C266.9 200.238 266.768 207.296 265.543 214.288C264.282 221.502 263.173 228.778 261.275 235.851C259.472 242.581 256.929 249.152 254.316 255.649C253.316 258.134 253.64 259.967 255.142 261.889C259.27 267.166 261.513 273.154 262.845 279.569C265.605 292.878 257.874 308.723 245.686 315.707C237.818 320.216 229.313 322.021 220.442 322.696C199.56 324.282 178.656 323.965 157.865 321.712C140.616 319.845 124.126 315.277 109.65 305.622C92.6839 294.305 81.7622 278.912 76.4037 259.878C75.5723 256.918 74.9637 253.898 74.311 250.893C73.4719 247.015 74.2048 243.221 76.5668 240.14C80.8531 234.55 81.8684 228.095 82.9277 221.588C83.6528 217.147 84.2718 212.69 85.01 208.251C85.1032 207.684 86.3023 206.289 86.5613 205.748C84.6603 204.311 84.7458 196.753 82.06 197.868C81.959 204.449 81.8684 214.001 80.9878 220.503C80.071 227.245 79.3354 234.266 73.995 239.68C73.1688 240.518 72.7907 241.903 72.555 243.098C70.7939 252.016 73.5444 260.296 76.6316 268.519C79.8845 274.136 82.9199 279.881 86.4629 285.324C88.8482 288.99 91.9043 292.264 94.7532 295.645C96.0016 297.126 95.8695 298.121 94.098 298.991C88.3924 301.786 82.5547 304.13 75.953 303.759C74.7824 303.693 73.6298 303.344 72.5084 302.553C77.406 301.207 82.3061 299.859 87.2036 298.511C87.1363 298.138 87.0715 297.762 87.0068 297.389C85.7455 297.515 84.4635 297.549 83.2229 297.787C79.1645 298.563 75.1268 299.439 71.0684 300.22C69.3927 300.542 67.6445 301.064 66.0025 300.886C62.8014 300.534 59.6261 299.844 56.5027 299.07C55.8707 298.914 55.5107 297.762 54.8788 296.857C58.067 295.791 60.8408 294.863 63.6146 293.938C63.5473 293.637 63.4799 293.335 63.4126 293.033C62.5786 293.033 61.7317 292.954 60.9081 293.046C52.5453 293.99 45.1717 291.757 38.5778 286.85C35.8998 284.859 34.351 282.329 34.8612 279.107C35.5553 274.722 33.8874 271.299 30.9764 268.094C28.2129 265.052 27.5214 261.399 28.7646 257.578C30.2227 253.094 33.4912 251.548 37.806 253.799C42.4394 256.215 46.7205 259.26 51.1001 262.104C55.1248 264.718 59.2221 267.159 64.1067 267.993C64.7438 268.101 65.4638 267.775 66.145 267.651C65.9067 267.481 65.6891 267.213 65.4224 267.154C64.6324 266.981 63.6819 267.11 63.0448 266.734C58.9372 264.288 54.9047 261.723 50.8255 259.233C46.5444 256.613 42.4212 253.673 37.8863 251.543C33.7553 249.607 29.1505 251.707 27.0501 255.661C25.5324 258.515 25.2967 261.594 26.7289 264.364C28.4097 267.614 30.8236 270.513 32.7168 273.673C33.328 274.695 33.6466 276.109 33.486 277.269C33.0147 280.697 33.2581 283.957 35.7807 286.568C37.4616 288.31 39.3548 290.066 41.5225 291.131C46.9251 293.788 52.4235 296.058 56.8989 300.324C58.6704 302.011 62.229 301.924 64.9147 302.81C74.8186 306.074 84.378 305.523 93.5774 300.618C96.0456 299.303 98.1953 299.449 100.516 301.175C109.72 308.023 119.44 314.04 130.543 317.809C143.788 322.303 157.543 324.126 171.462 324.821C192.435 325.867 213.387 326.124 234.239 322.756C243.834 321.203 253.557 320.344 263.225 319.194C266.89 318.759 267.706 319.494 267.017 323.011C266.486 325.724 265.927 328.513 264.79 331.024C259.586 342.511 253.135 353.252 243.91 362.341C241.656 364.565 239.794 367.238 238.175 369.934C236.847 372.152 237.505 374.569 239.388 376.359C245.86 382.517 255.297 384.605 262.606 378.355C264.595 376.654 266.602 374.967 268.516 373.191C270.992 370.894 272 370.765 275.219 372.036C277.307 372.86 279.482 373.634 281.694 373.98C287.283 374.86 292.149 373.077 296.148 369.412C305.558 360.788 314.827 352.028 324.2 343.37C327.22 340.58 329.113 337.192 329.385 333.294C329.636 329.671 329.54 325.921 328.849 322.358C327.362 314.676 323.633 307.781 319.603 301.054C318.953 299.971 318.194 298.971 319.978 298.126C330.545 293.11 339.128 285.616 347.481 277.863C351.751 273.901 355.9 269.813 360.057 265.742C361.676 264.157 362.927 264.624 364.03 266.217C366.366 269.593 368.648 273.003 370.987 276.377C372.064 277.935 373.028 279.624 374.385 280.932C378.05 284.459 381.831 284.558 385.84 281.489C388.938 279.114 391.165 276.189 392.027 272.434C392.566 270.085 393.654 268.781 396.529 268.48C401.856 267.921 403.483 265.781 403.418 260.655C403.41 259.979 403.397 259.302 403.309 258.634C403.128 257.224 402.216 255.28 402.853 254.556C403.672 253.623 405.72 253.693 407.23 253.302C413.026 251.801 414.684 247.304 411.263 242.521C408.261 238.322 403.866 236.648 398.813 236.197C390.574 235.463 382.75 237.474 374.947 239.588C373.797 239.9 372.624 240.145 371.259 240.469C372.142 235.218 373.064 230.356 373.763 225.466C375.416 213.936 374.613 202.498 371.085 191.396C368.806 184.229 365.457 177.428 360.661 171.339C356.286 165.781 355.253 159.806 359.102 153.482C360.915 150.5 362.513 147.401 364.305 144.406C370.49 134.066 377.99 124.907 388.658 118.292C398.471 112.208 408.049 105.77 417.624 99.3473C427.136 92.969 436.799 86.749 444.794 78.5529C453.567 69.5605 459.262 59.2968 458.894 46.6664C458.552 34.8891 453.73 24.5414 447.2 14.8021Z" fill="black"/>
<path d="M92.8935 203.125C94.5252 196.479 97.128 190.262 102.106 185.175C106.019 181.173 110.945 179.617 116.56 179.897C117.684 179.954 118.785 180.362 120.699 180.787C119.451 181.588 118.899 182.014 118.285 182.328C112.326 185.395 108.433 190.116 106.206 196.146C105.32 198.542 105.768 199.086 108.425 199.163C108.739 199.173 109.055 199.178 109.368 199.188C113.794 199.336 114.097 199.739 113.546 203.847C113.289 205.774 113.362 207.737 113.227 209.681C113.09 211.647 113.906 212.404 115.985 211.961C118.099 211.514 119.668 212.404 120.746 214.098C121.851 215.839 121.1 217.18 118.943 217.333C117.941 217.402 116.928 217.343 115.892 217.343C117.361 223.788 124.061 225.641 132.043 221.738C130.929 226.808 130.134 231.784 127.169 236.057C124.032 240.576 116.198 242.216 111.093 239.827C106.605 237.727 102.01 235.82 97.3767 234.03C94.7272 233.003 93.1603 231.344 92.4662 228.739C90.1819 220.158 90.806 211.625 92.8935 203.125ZM131.219 207.933C131.149 208.647 130.144 209.278 129.546 209.948C128.821 209.318 127.775 208.796 127.495 208.019C127.329 207.559 128.373 206.701 129.243 205.514C130.23 206.654 131.276 207.342 131.219 207.933ZM127.984 193.902C130.888 193.9 134.04 196.737 133.876 199.299C133.747 201.329 132.439 202.175 130.393 202.118C127.233 202.081 123.882 199.375 123.965 196.93C124.024 195.235 125.788 193.905 127.984 193.902ZM86.0302 192.938C86.0095 192.94 85.9888 192.95 85.9681 192.948C85.2377 192.888 84.5954 192.616 84.0282 192.176C83.5128 191.773 83.1994 191.234 82.855 190.7C82.2023 189.683 81.4642 188.637 80.4412 187.927C80.3997 187.898 80.3686 187.86 80.3324 187.826C78.3615 189.483 79.7004 191.234 80.2417 192.933C80.7701 194.59 81.7802 196.232 82.0754 197.869C82.2101 197.916 82.3292 197.993 82.3888 198.119C83.6164 200.666 84.1473 203.924 86.5767 205.749C86.6414 205.796 86.6855 205.86 86.7166 205.929C86.8486 205.934 86.9807 205.939 87.1128 205.944C87.9183 210.26 88.8144 214.561 89.4929 218.894C89.9773 221.995 90.143 225.141 90.503 228.26C90.775 230.609 90.547 232.751 87.5324 234.467C89.019 234.744 89.8452 235.001 90.6791 235.039C98.1588 235.358 104.991 237.566 111.243 241.447C113.437 242.809 113.432 243.494 111.52 245.223C110.927 245.76 110.518 246.484 110.026 247.125C110.223 247.303 110.417 247.484 110.611 247.664C111.764 246.858 112.929 246.069 114.066 245.243C123.206 238.61 132.799 238.555 142.488 243.841C146.132 245.829 149.333 248.564 152.739 250.953C153.518 251.5 154.306 252.029 155.091 252.568C155.264 252.417 155.44 252.269 155.614 252.121C155.313 251.619 155.111 251.018 154.692 250.632C148.554 244.966 141.618 240.608 133.128 238.865C129.489 238.115 129.445 237.88 130.543 234.339C132.281 228.739 134.213 223.16 135.392 217.447C137.326 208.039 136.472 198.812 132.069 189.997C126.671 179.19 118.56 175.866 106.716 179.991C102.45 181.477 98.3246 183.335 94.1626 185.083C91.2101 186.322 88.6875 185.944 86.4964 183.614C86.139 183.238 85.4993 183.107 84.9891 182.862C84.8 183.389 84.4322 183.923 84.453 184.443C84.585 187.987 86.3099 190.92 88.5683 193.756C87.2837 194.001 86.556 193.576 86.0302 192.938Z" fill="black"/>
<path d="M221.402 218.058C219.165 218.276 215.593 215.026 215.604 212.956C215.616 211.111 216.601 210.016 218.647 210.001C221.029 209.984 223.063 212.699 223.094 216.671C222.791 216.938 222.148 217.987 221.402 218.058ZM216.637 224.84C216.746 224.167 217.839 223.643 218.502 223.054C219.126 223.717 220.172 224.34 220.247 225.055C220.309 225.666 219.253 226.381 218.263 227.56C217.445 226.279 216.531 225.483 216.637 224.84ZM216.826 250.479C214.852 252.92 212.102 253.986 208.865 253.029C199.608 250.296 190.152 249.26 180.482 249.648C177.503 249.767 174.97 248.788 173.38 246.097C165.121 232.113 168.376 209.887 180.342 198.795C187.86 191.826 198.497 189.84 207.005 193.826C207.479 194.049 207.909 194.348 208.927 194.942C203.187 196.581 199.295 199.717 196.259 203.897C195.767 204.572 195.286 205.26 194.871 205.98C192.343 210.362 192.698 211.361 197.412 213.241C201.069 214.7 201.012 214.692 200.626 218.556C200.064 224.142 201.261 229.284 205.063 233.733C210.18 239.726 216.785 239.333 221.011 232.769C221.576 231.891 222.185 231.043 223 230.264C222.213 237.369 221.633 244.534 216.826 250.479ZM211.786 225.117C212.356 226.764 212.682 228.607 212.532 230.318C212.452 231.221 211.24 232.541 210.33 232.727C209.383 232.917 207.753 232.242 207.189 231.451C206.187 230.036 205.762 228.25 204.907 226.156C205.858 224.929 206.505 223.247 207.694 222.748C209.675 221.919 211.19 223.4 211.786 225.117ZM234.251 219.288C235.603 217.351 237.051 216.243 238.34 214.987C239.335 214.015 239.534 213.179 238.004 212.115C234.984 210.016 232.083 207.711 229.374 205.25C225.461 201.691 222.029 197.615 217.916 194.299C206.73 185.277 191.507 182.714 180.689 194.83C171.867 204.711 166.411 215.761 167.024 229.017C167.335 235.771 169.5 242.088 172.634 248.32C170.686 249.27 168.819 250.18 166.949 251.09C167.011 251.308 167.074 251.523 167.136 251.741C168.563 251.741 170.021 251.928 171.412 251.711C188.925 248.976 205.2 252.787 220.843 260.09C221.449 260.374 222.19 260.397 222.866 260.54C223 260.293 223.132 260.043 223.265 259.796C221.954 258.868 220.669 257.904 219.328 257.023C215.997 254.839 216.033 254.75 218.253 251.669C220.605 248.402 223.316 245.236 224.912 241.638C227.035 236.855 229.84 233.904 235.629 234.601C236.079 234.656 236.618 234.599 237.017 234.406C239.364 233.266 241.702 232.104 243.987 230.852C244.31 230.674 244.458 229.969 244.416 229.531C244.398 229.356 243.655 229.17 243.228 229.123C242.228 229.015 241.218 228.985 239.519 228.884C243.914 226.287 247.221 223.729 249.063 219.485C246.255 219.839 243.844 220.41 241.446 220.368C239.042 220.326 236.649 219.673 234.251 219.288Z" fill="black"/>
<path d="M183.171 160.054C187.333 157.989 191.827 157.333 196.411 157.521C207.615 157.979 217.415 162.386 226.892 167.669C228.07 168.327 229.51 168.552 230.829 168.979C230.179 167.681 229.876 165.984 228.824 165.146C215.983 154.905 201.436 152.488 185.557 157.061C183.658 157.61 182.016 158.976 180.258 159.962C180.468 160.289 180.677 160.618 180.887 160.944C181.651 160.652 182.444 160.415 183.171 160.054Z" fill="black"/>
<path d="M164.006 272.195C165.021 274.502 163.713 275.976 161.988 277.161C160.603 278.115 159.072 278.932 157.503 279.58C149.598 282.839 141.458 282.592 133.763 279.53C127.861 277.183 121.127 274.789 121.231 266.727C121.231 266.64 121.011 266.551 120.894 266.459C118.832 268.069 116.768 269.679 114.645 271.334C114.725 271.391 115.116 271.863 115.574 271.937C119.55 272.563 122.476 274.999 125.613 277.097C136.636 284.471 148.14 286.391 160.421 279.928C161.745 279.233 163.299 278.949 164.734 278.442C166.671 277.757 168.598 277.042 170.654 276.295C168.295 274.369 166.282 272.721 164.159 270.985C164.112 271.299 163.845 271.831 164.006 272.195Z" fill="black"/>
<path d="M100.076 149.211C95.6341 150.385 92.1015 152.975 88.9858 156.084C88.4574 156.61 88.5118 157.666 88.2969 158.478C89.1257 158.391 90.0114 158.448 90.7677 158.178C91.5524 157.899 92.2232 157.313 92.9277 156.84C101.845 150.87 111.407 149.542 121.66 153.192C123.833 153.966 126.006 154.743 128.179 155.517C128.353 155.307 128.524 155.094 128.697 154.884C127.286 153.675 126.045 152.168 124.431 151.303C116.677 147.148 108.465 146.99 100.076 149.211Z" fill="black"/>
<path d="M193.463 180.817C190.337 180.978 187.392 181.708 184.566 183.671C188.488 183.073 192.031 182.133 195.592 182.061C207.723 181.824 217.311 188.15 227.204 193.658C229.357 194.855 231.763 195.632 234.049 196.604C234.156 196.307 234.262 196.01 234.368 195.713C232.092 194.365 229.748 193.109 227.546 191.657C217.277 184.886 206.311 180.154 193.463 180.817Z" fill="black"/>
<path d="M105.906 172.956C104.119 173.619 102.689 175.155 101.094 176.29C101.329 176.71 101.568 177.133 101.803 177.554C108.651 171.895 116.351 171.564 124.494 173.884C118.356 171.19 112.127 170.646 105.906 172.956Z" fill="black"/>
<path d="M272.954 239.514C274.205 235.465 275.463 231.389 276.725 227.316C276.476 227.259 276.227 227.205 275.981 227.15C274.086 231.142 270.493 234.812 272.954 239.514Z" fill="#F7F4F2"/>
<path d="M283.602 259.351C284.707 261.732 285.813 264.114 286.919 266.498C287.72 263.416 286.241 261.158 284.617 258.955C284.278 259.086 283.941 259.22 283.602 259.351Z" fill="#F7F4F2"/>
<path d="M367.255 212.338C368.991 209.266 368.584 208.668 363.28 205.514C362.347 208.982 366.823 209.209 367.255 212.338Z" fill="#F7F4F2"/>
<path d="M363.312 194.382C364.538 196.039 365.395 197.196 366.252 198.354C367.423 195.851 366.182 194.945 363.312 194.382Z" fill="#F7F4F2"/>
<path d="M443.481 29.3726C443.271 30.2407 443.352 31.1928 443.046 32.0189C438.625 44.0137 430.026 51.7622 417.18 55.2197C416.049 55.5238 415.046 56.2707 413.984 56.8124C414.091 57.0819 414.197 57.3515 414.303 57.6211C415.088 57.5617 415.966 57.7027 416.639 57.4109C421.314 55.3977 426.196 53.6813 430.534 51.129C438.13 46.665 443.517 40.4004 444.978 31.6627C445.234 30.1195 445.154 28.5243 445.229 26.9538C444.929 26.9093 444.628 26.8648 444.328 26.8203C444.04 27.6686 443.691 28.5045 443.481 29.3726Z" fill="#F7F4F2"/>
<path d="M86.6284 285.309C83.0854 279.865 80.05 274.12 76.797 268.501C73.3032 268.214 69.8068 267.925 66.3104 267.635C65.6293 267.759 64.9093 268.085 64.2721 267.977C59.3875 267.143 55.2903 264.7 51.2681 262.088C46.886 259.244 42.6074 256.199 37.9741 253.783C33.6567 251.532 30.3882 253.078 28.93 257.56C27.6869 261.383 28.381 265.033 31.1418 268.075C34.0529 271.283 35.7208 274.704 35.0267 279.091C34.5191 282.314 36.0679 284.844 38.7433 286.834C45.3372 291.741 52.7107 293.972 61.0736 293.03C61.8998 292.938 62.7441 293.017 63.5806 293.017C63.648 293.319 63.7127 293.621 63.7801 293.923C61.0062 294.848 58.2324 295.775 55.0442 296.838C55.6788 297.746 56.0388 298.896 56.6681 299.052C59.7916 299.826 62.9668 300.516 66.168 300.867C67.81 301.048 69.5608 300.526 71.2364 300.202C75.2949 299.423 79.3326 298.545 83.391 297.771C84.6289 297.533 85.911 297.499 87.1722 297.373C87.2396 297.746 87.3043 298.12 87.3691 298.495C82.4715 299.843 77.574 301.189 72.6764 302.537C73.7979 303.328 74.9478 303.677 76.1185 303.741C82.7202 304.114 88.5579 301.77 94.2635 298.973C96.0376 298.105 96.1696 297.11 94.9187 295.627C92.0724 292.248 89.0137 288.974 86.6284 285.309Z" fill="#F4731C"/>
<path d="M243.39 229.106C243.82 229.153 244.564 229.341 244.579 229.514C244.623 229.951 244.476 230.659 244.149 230.837C241.865 232.086 239.526 233.248 237.18 234.388C236.781 234.581 236.242 234.641 235.792 234.586C230.006 233.886 227.198 236.837 225.077 241.62C223.482 245.218 220.77 248.384 218.416 251.651C216.199 254.733 216.16 254.822 219.491 257.005C220.835 257.886 222.117 258.85 223.43 259.778C223.295 260.028 223.163 260.275 223.031 260.522C222.352 260.379 221.612 260.357 221.006 260.072C205.365 252.769 189.09 248.96 171.574 251.693C170.186 251.911 168.725 251.723 167.298 251.723C167.236 251.505 167.177 251.29 167.115 251.072C168.982 250.162 170.849 249.252 172.797 248.305C169.663 242.07 167.5 235.754 167.187 229.002C166.576 215.743 172.03 204.695 180.852 194.815C191.67 182.699 206.893 185.259 218.079 194.281C222.192 197.6 225.624 201.676 229.54 205.232C232.249 207.693 235.147 209.998 238.169 212.1C239.697 213.164 239.5 213.997 238.503 214.969C237.216 216.225 235.768 217.336 234.414 219.27C236.812 219.656 239.205 220.311 241.611 220.351C244.009 220.393 246.418 219.821 249.226 219.468C247.384 223.714 244.079 226.269 239.684 228.866C241.383 228.97 242.391 228.997 243.39 229.106ZM164.9 278.426C163.465 278.933 161.911 279.217 160.591 279.912C148.307 286.374 136.805 284.455 125.779 277.08C122.643 274.983 119.716 272.547 115.741 271.921C115.282 271.847 114.894 271.375 114.814 271.318C116.935 269.663 118.999 268.051 121.063 266.441C121.177 266.535 121.4 266.624 121.397 266.71C121.294 274.773 128.03 277.167 133.93 279.514C141.627 282.576 149.765 282.823 157.669 279.563C159.241 278.915 160.769 278.099 162.157 277.144C163.88 275.96 165.188 274.486 164.172 272.178C164.014 271.815 164.279 271.283 164.328 270.969C166.449 272.705 168.464 274.352 170.821 276.279C168.767 277.026 166.84 277.74 164.9 278.426ZM234.53 195.696C234.424 195.992 234.321 196.289 234.214 196.586C231.925 195.616 229.519 194.84 227.369 193.643C217.476 188.135 207.888 181.806 195.757 182.046C192.195 182.115 188.652 183.058 184.729 183.656C187.554 181.693 190.502 180.963 193.625 180.802C206.474 180.137 217.442 184.868 227.711 191.642C229.912 193.094 232.254 194.35 234.53 195.696ZM185.71 157.047C201.589 152.472 216.139 154.888 228.977 165.132C230.029 165.971 230.332 167.665 230.985 168.963C229.664 168.538 228.224 168.31 227.045 167.655C217.569 162.372 207.771 157.963 196.567 157.505C191.983 157.317 187.487 157.975 183.325 160.038C182.6 160.399 181.805 160.636 181.043 160.93C180.831 160.601 180.621 160.275 180.411 159.946C182.172 158.959 183.812 157.594 185.71 157.047ZM128.346 155.502C126.173 154.725 124 153.949 121.827 153.177C111.574 149.527 102.012 150.852 93.0945 156.822C92.3901 157.295 91.7193 157.881 90.9345 158.163C90.1783 158.432 89.2925 158.376 88.4638 158.462C88.6787 157.651 88.6243 156.595 89.1527 156.068C92.2684 152.957 95.801 150.37 100.243 149.195C108.629 146.974 116.844 147.133 124.598 151.287C126.212 152.153 127.45 153.657 128.864 154.869C128.69 155.079 128.52 155.289 128.346 155.502ZM101.973 177.54C101.735 177.117 101.499 176.697 101.263 176.274C102.856 175.139 104.288 173.605 106.075 172.94C112.296 170.63 118.522 171.177 124.663 173.87C116.52 171.55 108.818 171.882 101.973 177.54ZM263.014 279.553C261.686 273.14 259.44 267.15 255.314 261.873C253.812 259.951 253.486 258.118 254.486 255.633C257.099 249.136 259.642 242.565 261.447 235.835C263.343 228.762 264.452 221.488 265.716 214.272C266.938 207.28 267.07 200.222 266.257 193.175C264.936 181.769 260.96 171.318 253.274 162.38C243.476 150.991 230.689 143.41 217.009 137.077C204.922 131.48 192.239 127.587 179.046 125.114C171.352 123.67 163.719 122.878 155.929 124.439C147.074 126.21 141.713 132.232 141.617 140.796C141.547 147.172 143.575 153.009 146.54 158.628C146.986 159.471 147.035 160.505 147.405 162.016C145.862 161.299 145.03 161.039 144.349 160.574C136.774 155.403 129.012 150.367 123.407 143.116C120.644 139.542 118.287 135.598 116.339 131.561C114.977 128.74 115.14 128.265 112.061 129.43C108.002 130.963 103.895 132.504 100.1 134.539C89.6991 140.116 83.7294 148.933 82.292 160.028C81.4528 166.502 82.235 173.185 82.4966 179.766C82.6494 183.636 82.9524 187.561 85.058 191.039C85.835 192.327 86.3141 194.199 88.7253 193.739C86.4669 190.903 84.7394 187.969 84.6074 184.428C84.5892 183.906 84.957 183.374 85.1461 182.845C85.6537 183.09 86.296 183.223 86.6508 183.599C88.8445 185.927 91.3671 186.307 94.317 185.066C98.479 183.317 102.605 181.46 106.87 179.974C118.717 175.848 126.826 179.175 132.226 189.98C136.629 198.795 137.483 208.022 135.546 217.43C134.37 223.145 132.435 228.725 130.7 234.324C129.602 237.863 129.644 238.101 133.285 238.847C141.775 240.591 148.708 244.951 154.849 250.615C155.266 251.003 155.468 251.604 155.771 252.104C155.595 252.254 155.421 252.403 155.248 252.551C154.463 252.015 153.673 251.483 152.896 250.939C149.49 248.547 146.289 245.812 142.642 243.823C132.956 238.538 123.363 238.593 114.223 245.226C113.086 246.052 111.921 246.843 110.768 247.649C110.571 247.469 110.377 247.288 110.183 247.108C110.675 246.47 111.082 245.743 111.677 245.206C113.586 243.48 113.594 242.795 111.398 241.432C105.145 237.549 98.3158 235.343 90.8361 235.021C89.9996 234.987 89.176 234.73 87.6894 234.453C90.7015 232.736 90.9294 230.592 90.66 228.245C90.3 225.124 90.1343 221.978 89.6474 218.879C88.9688 214.546 88.0727 210.243 87.2698 205.927C86.8865 205.915 86.5032 205.902 86.1199 205.888C85.7961 206.669 85.3144 207.426 85.1823 208.235C84.4442 212.674 83.8226 217.131 83.1 221.572C82.0407 228.079 81.0229 234.534 76.7366 240.124C74.3772 243.205 73.6442 246.999 74.4833 250.877C75.1334 253.882 75.7421 256.902 76.576 259.862C81.932 278.895 92.8563 294.288 109.823 305.606C124.295 315.261 140.785 319.829 158.037 321.696C178.826 323.949 199.729 324.266 220.612 322.68C229.483 322.005 237.99 320.2 245.856 315.691C258.047 308.707 265.775 292.861 263.014 279.553Z" fill="#F4731C"/>
<path d="M286.933 266.497C285.827 264.115 284.721 261.734 283.615 259.35C283.954 259.218 284.291 259.087 284.63 258.954C286.254 261.157 287.733 263.415 286.933 266.497ZM272.957 239.512C270.5 234.811 274.092 231.141 275.985 227.149C276.234 227.203 276.48 227.26 276.728 227.315C275.47 231.39 274.211 235.464 272.957 239.512ZM363.289 205.514C368.593 208.667 369.002 209.268 367.264 212.337C366.832 209.209 362.356 208.981 363.289 205.514ZM366.254 198.354C365.397 197.196 364.54 196.039 363.315 194.382C366.184 194.946 367.422 195.851 366.254 198.354ZM342.057 265.532C342.857 265.08 343.761 264.677 344.527 264.11C347.604 261.838 348.886 258.511 349.907 255.14C351.147 251.052 352.196 246.996 355.421 243.714C356.858 242.25 357.516 240.089 358.513 238.236C359.225 236.915 359.912 235.585 360.748 233.995C362.792 236.183 362.579 238.127 361.68 240.051C360.865 241.805 359.862 243.479 358.94 245.191C359.743 245.018 360.634 244.998 361.328 244.637C364.519 242.975 366.202 240.16 366.853 236.923C368.072 230.836 369.321 224.728 370.002 218.574C371.934 201.109 368.761 184.749 357.557 170.335C356.972 169.584 356.156 168.997 355.449 168.332C355.573 173.202 356.236 177.691 356.887 182.179C358.202 191.298 357.749 200.201 353.799 208.796C351.334 214.162 345.89 218.124 340.578 218.105C332.111 218.075 324.634 215.755 317.9 210.599C307.74 202.82 299.129 193.665 290.717 184.279C287.79 181.014 284.641 177.93 281.442 174.604C280.655 175.536 280.207 176.068 279.469 176.941C278.839 170.172 273.532 167.407 268.883 164.219C266.773 162.77 265.338 163.542 265.201 166.079C265.089 168.157 265.242 170.281 265.571 172.341C266.312 177.005 267.384 181.623 268.042 186.295C268.917 192.502 269.158 198.809 270.331 204.96C272.16 214.551 272.592 224.082 269.785 233.48C267.785 240.168 265.115 246.677 262.652 253.236C261.862 255.336 261.787 257.213 262.914 259.27C267.506 267.669 269.824 276.639 269.606 286.122C269.502 290.64 269.018 295.161 265.535 298.727C262.248 302.093 262.341 306.505 265.794 309.681C268.031 311.741 269.919 311.35 270.836 308.479C272.196 304.23 272.162 299.939 271.098 295.599C270.834 294.518 270.844 292.821 271.525 292.171C276.822 287.116 281.753 281.816 285.617 275.648C286.029 274.99 287.171 274.752 287.971 274.32C288.08 275.133 288.404 275.984 288.254 276.751C287.72 279.456 288.893 280.886 291.62 280.087C294.736 279.174 297.72 277.789 300.677 276.444C302.573 275.581 304.319 274.421 306.704 273.071C306.515 274.367 306.593 275.067 306.31 275.591C304.824 278.348 305.161 281.111 306.816 283.51C308.608 286.114 310.763 288.54 313.062 290.754C313.907 291.565 315.759 292.077 316.919 291.81C321.332 290.791 325.155 288.877 326.499 284.18C326.797 283.139 327.478 282.197 327.98 281.21C328.229 281.294 328.48 281.381 328.729 281.465C328.656 282.592 328.586 283.72 328.514 284.855C334.108 284.615 353.812 266.351 354.879 260.032C353.507 261.034 352.297 261.613 351.528 262.53C348.749 265.842 344.481 266.19 340.769 267.595C339.459 268.09 338.578 267.469 338.969 265.753C339.345 264.108 339.291 262.374 339.456 260.257C342.976 260.512 340.64 263.917 342.057 265.532Z" fill="#F4731C"/>
<path d="M359.093 245.184C359.093 245.184 359.096 245.179 359.098 245.174C359.093 245.176 359.091 245.176 359.086 245.176L359.093 245.184Z" fill="#E78C3B"/>
<path d="M445.143 31.646C443.682 40.3837 438.295 46.6482 430.699 51.1123C426.36 53.6646 421.478 55.381 416.806 57.3941C416.13 57.686 415.252 57.545 414.47 57.6044C414.364 57.3348 414.258 57.0652 414.152 56.7956C415.213 56.254 416.213 55.5071 417.345 55.2029C430.191 51.7454 438.792 43.997 443.21 32.0021C443.516 31.1761 443.436 30.2239 443.646 29.3559C443.855 28.4903 444.205 27.6543 444.495 26.8036C444.796 26.8481 445.096 26.8926 445.396 26.9371C445.319 28.5076 445.402 30.1028 445.143 31.646ZM453.78 30.4342C452.001 26.1506 449.525 22.1317 447.362 17.9917C447.108 18.0906 446.854 18.187 446.601 18.286C446.515 18.5506 446.419 18.8127 446.344 19.0774C443.084 30.6048 436.083 39.5379 425.195 45.2929C417.174 49.532 408.873 53.3777 400.404 56.719C392.865 59.6967 384.992 61.9695 377.139 64.136C368.398 66.5498 360.91 71.0312 354.757 77.0904C350.574 81.2083 347.671 86.5454 344.397 91.4595C340.626 97.1231 338.94 103.59 338.189 110.107C337.539 115.768 337.51 121.612 338.194 127.266C339.181 135.43 342.677 142.963 346.443 150.313C348.357 154.05 350.408 157.721 352.641 161.873C353.845 160.127 354.842 158.881 355.622 157.523C359.24 151.224 362.558 144.756 366.437 138.61C370.884 131.564 375.266 124.303 382.378 119.327C387.752 115.565 393.632 112.472 399.177 108.928C408.531 102.947 417.922 97.0068 427.065 90.7423C435.397 85.0367 443.254 78.7623 449.299 70.6874C452.933 65.8351 455.671 60.5796 456.688 54.686C458.123 46.3762 457.017 38.2172 453.78 30.4342Z" fill="#F4731C"/>
<path d="M327.739 37.7877C328.605 39.3087 329.467 40.8322 330.332 42.3532C330.076 42.4843 329.822 42.6178 329.565 42.7489C328.698 41.2304 327.83 39.7094 326.963 38.1909C327.222 38.0573 327.481 37.9213 327.739 37.7877ZM298.867 21.5811C302.389 29.4433 305.64 37.4069 306.567 45.9195C307.567 55.0776 307.984 64.305 308.377 73.5126C308.885 85.4234 308.512 97.3985 309.607 109.255C311.459 129.287 320.48 146.14 336.784 159.104C340.381 161.965 344.52 164.211 348.48 166.635C349.194 167.072 350.251 167.003 351.147 167.169C351.121 166.326 351.349 165.376 351.02 164.659C349.788 161.993 348.529 159.317 346.996 156.804C340.627 146.37 336.838 135.186 335.548 123.164C334.318 111.708 336.589 100.962 342.634 91.0795C348.218 81.9461 352.315 71.6305 363.159 66.3825C365.089 65.4476 365.692 63.296 364.9 61.2309C363.636 57.9465 362.419 54.6201 360.805 51.4891C353.869 38.035 344.126 26.6882 332.282 16.8746C320.682 7.26391 307.39 2.25081 291.734 2.7306C291.815 3.15104 291.835 3.60857 291.991 4.01664C294.252 9.88299 296.295 15.8408 298.867 21.5811Z" fill="#F4731C"/>
<path d="M152.987 119.359C153.305 121.199 154.517 122.394 157.009 122.211C165.848 121.565 174.724 120.554 183.553 120.804C193.788 121.096 204 122.471 214.202 123.566C222.736 124.484 230.842 127.073 238.674 130.308C250.456 135.173 260.875 142.11 269.16 151.449C277.948 161.349 286.059 171.795 294.443 182.022C301.949 191.175 310.379 199.391 320.93 206.086C320.762 205.109 320.666 204.424 320.524 203.746C319.695 199.802 318.374 195.884 318.146 191.91C317.879 187.248 316.09 185.4 310.405 184.869C308.636 184.705 306.836 184.844 304.704 184.844C304.989 184.092 305.158 183.565 305.385 183.063C306.315 181.023 307.403 179.037 308.17 176.945C309.195 174.145 308.05 171.491 305.16 170.522C303.07 169.819 300.755 169.624 298.52 169.463C296.139 169.29 293.733 169.424 290.9 169.424C291.428 168.284 291.724 167.47 292.159 166.733C293.044 165.242 294.078 163.824 294.92 162.313C297.056 158.48 296.08 154.998 291.879 153.459C287.538 151.869 282.952 150.858 278.432 149.752C275.423 149.015 272.335 148.563 269.29 147.964C267.816 147.672 267.883 147.042 268.58 145.889C270.248 143.119 272.058 140.362 273.195 137.386C275.586 131.129 274.078 125.713 266.109 123.435C259.743 121.615 253.388 122.095 247.009 123.215C244.792 123.606 242.588 124.066 240.378 124.494C240.267 124.232 240.158 123.969 240.049 123.707C241.122 122.973 242.259 122.31 243.256 121.494C250.277 115.744 250.173 103.957 243.049 97.4174C238.951 93.6607 233.885 91.7836 228.408 90.9204C219.428 89.5058 210.563 90.1364 201.931 92.9089C198.921 93.8759 198.336 95.1298 198.528 98.152C198.561 98.6713 197.963 99.2303 197.658 99.7694C197.36 99.6928 197.062 99.6186 196.761 99.5419C196.313 97.4298 195.946 95.2979 195.402 93.2081C194.2 88.5784 193.312 83.8225 191.545 79.3905C189.696 74.7484 185.69 72.7006 180.302 72.9084C173.447 73.1705 168.018 76.1581 163.395 80.5925C155.465 88.195 150.72 97.1306 151.738 108.218C152.08 111.94 152.349 115.679 152.987 119.359Z" fill="#F4731C"/>
<path d="M312.717 293.809C310.036 290.42 307.084 287.168 303.867 284.245C301.339 281.947 299.472 282.304 296.403 283.894C294.523 284.866 292.35 285.323 290.306 286.008C288.473 286.622 286.507 287.003 284.829 287.883C278.39 291.259 276.194 297.192 274.666 303.563C272.801 311.339 271.086 319.176 268.647 326.793C266.994 331.95 264.49 336.916 261.861 341.714C256.692 351.154 249.821 359.476 242.416 367.408C239.35 370.692 239.66 374.112 243.188 376.924C247.083 380.033 251.395 380.429 256.168 379.054C261.128 377.627 264.606 374.345 268.08 370.999C270.126 369.025 272.223 367.942 275.026 369.826C275.883 370.403 277.051 370.563 278.082 370.892C283.653 372.671 288.985 372.688 293.919 369.112C298.858 365.531 301.503 360.537 302.904 355.022C304.217 349.856 304.833 344.528 305.83 339.285C305.934 338.744 306.545 338.289 306.921 337.792C307.218 338.333 307.793 338.885 307.765 339.409C307.651 341.647 307.516 343.905 307.097 346.106C306.364 349.964 305.413 353.788 304.553 357.624C304.81 357.79 305.064 357.953 305.32 358.116C307.218 356.192 309.197 354.33 311.002 352.326C316.483 346.247 320.186 339.518 319.091 331.134C319.062 330.911 319.008 330.666 319.07 330.461C319.288 329.736 319.552 329.024 319.8 328.307C320.22 329.004 320.914 329.67 321.007 330.402C321.212 332.029 321.29 333.706 321.098 335.328C320.743 338.35 320.16 341.345 319.588 344.86C321.108 343.554 322.468 342.646 323.483 341.467C328.534 335.61 328.596 328.816 326.995 321.909C324.579 311.489 319.404 302.257 312.717 293.809Z" fill="#F4731C"/>
<path d="M118.448 182.312C119.062 181.995 119.613 181.573 120.859 180.771C118.948 180.346 117.844 179.938 116.723 179.881C111.108 179.601 106.182 181.157 102.269 185.159C97.2881 190.246 94.6878 196.463 93.0562 203.109C90.9687 211.609 90.3445 220.142 92.6288 228.723C93.3229 231.325 94.8873 232.987 97.5393 234.011C102.17 235.804 106.767 237.711 111.253 239.811C116.36 242.2 124.195 240.56 127.329 236.042C130.294 231.768 131.092 226.792 132.205 221.719C124.223 225.625 117.523 223.77 116.052 217.327C117.088 217.327 118.101 217.386 119.103 217.315C121.263 217.164 122.014 215.823 120.908 214.082C119.831 212.388 118.259 211.498 116.148 211.946C114.066 212.388 113.25 211.631 113.387 209.665C113.522 207.721 113.449 205.758 113.708 203.831C114.26 199.723 113.957 199.32 109.528 199.172C109.215 199.162 108.901 199.157 108.585 199.147C105.928 199.07 105.483 198.526 106.368 196.13C108.593 190.1 112.486 185.379 118.448 182.312Z" fill="white"/>
<path d="M142.828 156.718C142.194 154.658 141.575 152.595 140.925 150.54C137.257 138.948 139.682 131.427 149.339 123.862C150.191 123.194 150.834 121.747 150.81 120.676C150.702 115.812 150.248 110.954 150.065 106.09C149.917 102.17 148.21 100.302 144.074 100.856C140.257 101.368 136.387 102.236 132.823 103.616C124.777 106.73 118.1 116.865 118.649 125.116C119.664 140.36 129.723 149.57 142.828 156.718Z" fill="#F4731C"/>
<path d="M397.638 238.048C383.899 237.482 371.726 242.421 359.942 248.475C358.826 249.049 357.792 249.773 356.723 250.429C356.86 250.696 357 250.96 357.137 251.225C358.624 250.852 360.154 250.597 361.589 250.087C367.44 248.005 373.492 247.11 379.636 247.998C384.191 248.655 388.638 249.983 393.127 251.037C397.327 252.024 401.526 252.996 405.864 251.821C411.189 250.377 412.385 246.501 408.985 242.304C406.048 238.679 401.774 238.219 397.638 238.048Z" fill="#F4731C"/>
<path d="M387.384 266.797C383.673 264.388 379.677 262.38 376.012 259.916C372.06 257.258 367.59 256.555 363.443 255.967C362.301 256.026 361.553 255.932 360.902 256.13C359.693 256.494 358.54 257.028 357.367 257.49C358.126 258.385 358.815 259.353 359.662 260.166C362.627 263.02 365.976 265.573 368.553 268.711C371.234 271.976 373.005 275.91 375.559 279.286C376.452 280.466 378.669 281.703 379.967 281.448C383.678 280.716 386.879 278.727 389.068 275.606C391.632 271.948 391.194 269.267 387.384 266.797Z" fill="#F4731C"/>
<path d="M398.448 254.953C396.456 254.196 394.286 253.872 392.221 253.276C385.462 251.328 378.684 249.475 371.502 250.042C366.662 250.425 362.015 251.444 357.672 253.91C357.985 254.135 358.094 254.278 358.203 254.281C358.985 254.293 359.775 254.33 360.552 254.258C366.649 253.709 372.455 254.565 377.715 257.694C380.235 259.19 382.623 260.894 385.032 262.553C388.298 264.801 391.584 266.953 395.876 266.854C399.054 266.78 401.431 265.026 401.985 262.284C402.612 259.19 401.201 255.999 398.448 254.953Z" fill="#F4731C"/>
<path d="M134.042 199.283C134.205 196.721 131.053 193.882 128.15 193.887C125.954 193.889 124.19 195.218 124.13 196.914C124.048 199.36 127.399 202.063 130.559 202.103C132.605 202.16 133.913 201.311 134.042 199.283Z" fill="white"/>
<path d="M127.658 208.005C127.938 208.779 128.984 209.303 129.709 209.932C130.308 209.264 131.313 208.631 131.382 207.916C131.439 207.327 130.393 206.637 129.406 205.5C128.536 206.687 127.492 207.543 127.658 208.005Z" fill="white"/>
<path d="M253.723 154.505C254.202 156.698 254.632 158.655 255.059 160.613C256.626 157.633 256.126 155.771 253.723 154.505Z" fill="#F4731C"/>
<path d="M252.367 148.802C254.369 146.932 254.38 145.221 252.367 143.47V148.802Z" fill="#F4731C"/>
<path d="M205.232 233.718C201.43 229.269 200.233 224.127 200.795 218.538C201.184 214.677 201.238 214.682 197.581 213.223C192.87 211.343 192.513 210.347 195.041 205.964C195.455 205.244 195.937 204.554 196.429 203.879C199.464 199.702 203.359 196.566 209.099 194.926C208.081 194.33 207.648 194.031 207.174 193.811C198.667 189.824 188.03 191.81 180.511 198.78C168.546 209.869 165.293 232.098 173.549 246.081C175.14 248.772 177.673 249.752 180.654 249.633C190.322 249.242 199.778 250.278 209.034 253.014C212.271 253.968 215.022 252.905 216.995 250.461C221.802 244.518 222.382 237.351 223.17 230.248C222.357 231.025 221.745 231.876 221.181 232.751C216.954 239.317 210.35 239.708 205.232 233.718Z" fill="white"/>
<path d="M205.078 226.138C205.933 228.231 206.358 230.019 207.36 231.431C207.922 232.225 209.554 232.9 210.499 232.71C211.41 232.524 212.623 231.201 212.703 230.298C212.853 228.589 212.527 226.747 211.954 225.1C211.361 223.383 209.846 221.902 207.865 222.73C206.674 223.23 206.029 224.912 205.078 226.138Z" fill="white"/>
<path d="M218.814 209.985C216.768 210 215.784 211.095 215.773 212.94C215.761 215.008 219.332 218.26 221.57 218.042C222.316 217.968 222.958 216.92 223.264 216.655C223.23 212.683 221.197 209.967 218.814 209.985Z" fill="white"/>
<path d="M218.67 223.038C218.007 223.626 216.914 224.151 216.805 224.823C216.699 225.466 217.613 226.263 218.432 227.544C219.421 226.364 220.478 225.649 220.416 225.039C220.341 224.324 219.294 223.701 218.67 223.038Z" fill="white"/>
<path d="M73.5822 565.076C66.5666 553.412 58.9786 541.896 50.8138 530.522C42.6468 519.151 33.9576 508.418 24.7462 498.321V565.076H0.566406V463.178H20.5098C23.9641 466.412 27.781 470.383 31.9716 475.089C36.1556 479.795 40.4226 484.818 44.7683 490.16C49.1118 495.504 53.4291 501.04 57.7223 506.775C62.0134 512.51 66.0445 518.023 69.8133 523.316V463.178H94.1505V565.076H73.5822Z" fill="white"/>
<path d="M119.277 565.076V463.178H192.765V482.44H143.774V502.437H187.268V521.258H143.774V545.814H196.377V565.076H119.277Z" fill="white"/>
<path d="M243.321 463.178C245.211 466.412 247.387 470.408 249.856 475.161C252.321 479.918 254.892 485.063 257.569 490.602C260.247 496.14 262.895 501.801 265.519 507.583C268.143 513.369 270.61 518.809 272.92 523.903C275.229 518.809 277.696 513.369 280.32 507.583C282.944 501.801 285.592 496.14 288.27 490.602C290.947 485.063 293.518 479.918 295.985 475.161C298.452 470.408 300.63 466.412 302.52 463.178H324.817C325.861 469.942 326.831 477.514 327.72 485.896C328.609 494.276 329.396 503.002 330.078 512.068C330.757 521.135 331.384 530.227 331.961 539.344C332.533 548.459 333.034 557.04 333.453 565.076H309.584C309.271 555.176 308.852 544.394 308.33 532.728C307.803 521.062 307.019 509.299 305.974 497.437C304.08 501.556 301.98 506.112 299.673 511.112C297.362 516.112 295.078 521.111 292.821 526.111C290.562 531.109 288.384 535.889 286.284 540.447C284.185 545.005 282.398 548.901 280.929 552.136H263.813C262.34 548.901 260.558 545.005 258.458 540.447C256.358 535.889 254.176 531.109 251.919 526.111C249.662 521.111 247.376 516.112 245.067 511.112C242.758 506.112 240.658 501.556 238.768 497.437C237.719 509.299 236.937 521.062 236.413 532.728C235.888 544.394 235.471 555.176 235.156 565.076H211.289C211.706 557.04 212.205 548.459 212.781 539.344C213.356 530.227 213.983 521.135 214.665 512.068C215.344 503.002 216.131 494.276 217.02 485.896C217.909 477.514 218.877 469.942 219.926 463.178H243.321Z" fill="white"/>
<path d="M375.846 514.054C375.846 519.052 376.497 523.563 377.808 527.581C379.114 531.602 381 535.057 383.46 537.946C385.92 540.839 388.929 543.071 392.49 544.639C396.047 546.206 400.128 546.989 404.738 546.989C409.237 546.989 413.296 546.206 416.906 544.639C420.517 543.071 423.552 540.839 426.014 537.946C428.472 535.057 430.356 531.602 431.667 527.581C432.973 523.563 433.631 519.052 433.631 514.054C433.631 509.053 432.973 504.522 431.667 500.452C430.356 496.385 428.472 492.905 426.014 490.014C423.552 487.123 420.517 484.891 416.906 483.321C413.296 481.754 409.237 480.969 404.738 480.969C400.128 480.969 396.047 481.779 392.49 483.395C388.929 485.013 385.92 487.27 383.46 490.159C381 493.052 379.114 496.532 377.808 500.599C376.497 504.669 375.846 509.152 375.846 514.054ZM458.91 514.054C458.91 522.78 457.522 530.448 454.75 537.064C451.973 543.681 448.178 549.221 443.364 553.68C438.547 558.142 432.816 561.499 426.17 563.752C419.523 566.006 412.377 567.134 404.738 567.134C397.303 567.134 390.292 566.006 383.696 563.752C377.1 561.499 371.343 558.142 366.425 553.68C361.502 549.221 357.631 543.681 354.803 537.064C351.978 530.448 350.562 522.78 350.562 514.054C350.562 505.33 352.029 497.657 354.961 491.043C357.891 484.424 361.843 478.863 366.816 474.354C371.786 469.845 377.546 466.463 384.087 464.206C390.631 461.954 397.513 460.826 404.738 460.826C412.169 460.826 419.185 461.954 425.778 464.206C432.375 466.463 438.127 469.845 443.05 474.354C447.97 478.863 451.844 484.424 454.669 491.043C457.496 497.657 458.91 505.33 458.91 514.054Z" fill="white"/>
<path d="M9.60888 622.548C13.9065 622.548 16.0542 621.171 16.0542 618.419C16.0542 617.572 15.8619 616.85 15.4818 616.255C15.0994 615.659 14.5838 615.144 13.9349 614.706C13.2838 614.27 12.541 613.891 11.7085 613.574C10.8739 613.257 9.99123 612.94 9.05829 612.623C7.98334 612.277 6.9652 611.886 6.00386 611.451C5.04471 611.013 4.21009 610.497 3.50438 609.902C2.79867 609.307 2.23935 608.599 1.83078 607.778C1.42002 606.958 1.21465 605.965 1.21465 604.801C1.21465 602.391 2.09078 600.511 3.84303 599.163C5.59529 597.812 8.01175 597.137 11.0924 597.137C12.8752 597.137 14.492 597.315 15.9472 597.673C17.4045 598.031 18.4707 598.422 19.1502 598.846L17.8349 601.982C17.2406 601.636 16.3579 601.301 15.1846 600.969C14.0114 600.638 12.648 600.472 11.0924 600.472C10.3015 600.472 9.56737 600.552 8.88787 600.711C8.21057 600.869 7.61629 601.106 7.10721 601.426C6.59814 601.743 6.19613 602.148 5.89899 602.637C5.60185 603.126 5.45546 603.703 5.45546 604.364C5.45546 605.104 5.61059 605.726 5.92084 606.229C6.23109 606.733 6.66806 607.177 7.23394 607.559C7.79981 607.944 8.45746 608.294 9.20686 608.611C9.95627 608.928 10.7821 609.247 11.6867 609.564C12.9583 610.041 14.125 610.518 15.1846 610.994C16.2443 611.471 17.1641 612.04 17.9397 612.701C18.7176 613.364 19.3184 614.151 19.7423 615.064C20.1683 615.976 20.3802 617.081 20.3802 618.378C20.3802 620.788 19.4386 622.64 17.5596 623.937C15.6784 625.234 13.0282 625.883 9.60888 625.883C8.44872 625.883 7.38251 625.809 6.40806 625.664C5.43361 625.519 4.56404 625.347 3.79934 625.148C3.03682 624.95 2.37918 624.737 1.83078 624.514C1.27801 624.289 0.845406 624.095 0.535156 623.937L1.76523 620.762C2.41414 621.106 3.40606 621.488 4.73446 621.912C6.06285 622.337 7.6862 622.548 9.60888 622.548Z" fill="white"/>
<path d="M33.4784 600.871C31.7262 600.871 30.3825 600.91 29.4496 600.989V611.788H32.5455C33.9591 611.788 35.2307 611.702 36.3603 611.53C37.492 611.358 38.4446 611.068 39.2224 610.657C40.0024 610.247 40.6011 609.685 41.0271 608.971C41.4488 608.255 41.6607 607.342 41.6607 606.231C41.6607 605.171 41.4423 604.298 41.0031 603.61C40.5661 602.921 39.9718 602.372 39.2224 601.961C38.4752 601.552 37.6056 601.268 36.6159 601.108C35.6262 600.951 34.5818 600.871 33.4784 600.871ZM33.1398 597.495C37.2648 597.495 40.4372 598.229 42.6592 599.7C44.8769 601.167 45.9868 603.359 45.9868 606.27C45.9868 607.858 45.6831 609.214 45.0757 610.339C44.4661 611.465 43.5922 612.379 42.4451 613.079C41.3002 613.781 39.9085 614.29 38.2698 614.607C36.6312 614.924 34.7784 615.084 32.7159 615.084H29.4496V625.287H25.3398V598.17C26.4956 597.906 27.7913 597.728 29.218 597.634C30.6447 597.542 31.9512 597.495 33.1398 597.495Z" fill="white"/>
<path d="M54.2557 611.509C54.2557 613.176 54.4807 614.693 54.933 616.055C55.3853 617.418 56.0298 618.576 56.8644 619.529C57.6969 620.483 58.7128 621.217 59.9167 621.733C61.1162 622.248 62.4664 622.506 63.9652 622.506C65.4619 622.506 66.8077 622.248 67.9941 621.733C69.1805 621.217 70.1921 620.483 71.0245 619.529C71.8591 618.576 72.5015 617.418 72.9537 616.055C73.406 614.693 73.631 613.176 73.631 611.509C73.631 609.842 73.406 608.326 72.9537 606.963C72.5015 605.6 71.8591 604.442 71.0245 603.489C70.1921 602.535 69.1805 601.803 67.9941 601.285C66.8077 600.77 65.4619 600.512 63.9652 600.512C62.4664 600.512 61.1162 600.77 59.9167 601.285C58.7128 601.803 57.6969 602.535 56.8644 603.489C56.0298 604.442 55.3853 605.6 54.933 606.963C54.4807 608.326 54.2557 609.842 54.2557 611.509ZM49.9297 611.509C49.9297 609.154 50.3055 607.075 51.0549 605.275C51.8043 603.477 52.8203 601.975 54.1071 600.77C55.3918 599.565 56.8928 598.658 58.6014 598.051C60.3121 597.441 62.1278 597.136 64.0504 597.136C65.9447 597.136 67.7319 597.441 69.4143 598.051C71.0966 598.658 72.5714 599.565 73.843 600.77C75.1167 601.975 76.1262 603.477 76.8756 605.275C77.625 607.075 78.0008 609.154 78.0008 611.509C78.0008 613.866 77.625 615.943 76.8756 617.743C76.1262 619.543 75.1167 621.045 73.843 622.248C72.5714 623.453 71.0966 624.36 69.4143 624.969C67.7319 625.577 65.9447 625.882 64.0504 625.882C62.1278 625.882 60.3121 625.577 58.6014 624.969C56.8928 624.36 55.3918 623.453 54.1071 622.248C52.8203 621.045 51.8043 619.543 51.0549 617.743C50.3055 615.943 49.9297 613.866 49.9297 611.509Z" fill="white"/>
<path d="M92.2441 600.871C90.4918 600.871 89.1481 600.91 88.2152 600.989V611.352H91.1407C92.5543 611.352 93.8281 611.287 94.9577 611.154C96.0872 611.021 97.042 610.769 97.8198 610.399C98.5955 610.028 99.1985 609.507 99.6202 608.832C100.046 608.156 100.258 607.262 100.258 606.151C100.258 605.118 100.046 604.259 99.6202 603.569C99.1985 602.882 98.626 602.34 97.905 601.943C97.184 601.546 96.3363 601.268 95.3597 601.108C94.3852 600.951 93.3474 600.871 92.2441 600.871ZM98.4775 613.775C98.9297 614.304 99.5 614.998 100.195 615.857C100.885 616.719 101.6 617.672 102.336 618.718C103.07 619.763 103.798 620.856 104.519 621.993C105.24 623.131 105.854 624.229 106.363 625.287H101.868C101.302 624.283 100.689 623.264 100.024 622.23C99.3602 621.199 98.6894 620.213 98.0099 619.272C97.3326 618.333 96.6597 617.453 95.9955 616.633C95.3313 615.812 94.7326 615.098 94.1951 614.489C93.8281 614.515 93.4545 614.53 93.0699 614.53H91.9054H88.2152V625.287H84.1055V598.17C85.2613 597.906 86.5569 597.728 87.9836 597.634C89.4103 597.542 90.7169 597.495 91.9054 597.495C96.0304 597.495 99.1766 598.223 101.34 599.68C103.5 601.135 104.582 603.305 104.582 606.19C104.582 608.017 104.066 609.58 103.035 610.875C102.002 612.173 100.483 613.138 98.4775 613.775Z" fill="white"/>
<path d="M130.403 597.772V601.107H121.161V625.286H117.047V601.107H107.805V597.772H130.403Z" fill="white"/>
<path d="M136.721 611.509C136.721 613.176 136.946 614.693 137.398 616.055C137.85 617.418 138.495 618.576 139.329 619.529C140.162 620.483 141.178 621.217 142.382 621.733C143.581 622.248 144.931 622.506 146.43 622.506C147.927 622.506 149.273 622.248 150.459 621.733C151.645 621.217 152.657 620.483 153.489 619.529C154.324 618.576 154.966 617.418 155.419 616.055C155.871 614.693 156.096 613.176 156.096 611.509C156.096 609.842 155.871 608.326 155.419 606.963C154.966 605.6 154.324 604.442 153.489 603.489C152.657 602.535 151.645 601.803 150.459 601.285C149.273 600.77 147.927 600.512 146.43 600.512C144.931 600.512 143.581 600.77 142.382 601.285C141.178 601.803 140.162 602.535 139.329 603.489C138.495 604.442 137.85 605.6 137.398 606.963C136.946 608.326 136.721 609.842 136.721 611.509ZM132.395 611.509C132.395 609.154 132.77 607.075 133.52 605.275C134.269 603.477 135.285 601.975 136.572 600.77C137.857 599.565 139.358 598.658 141.066 598.051C142.777 597.441 144.593 597.136 146.515 597.136C148.41 597.136 150.197 597.441 151.879 598.051C153.561 598.658 155.036 599.565 156.308 600.77C157.582 601.975 158.591 603.477 159.34 605.275C160.09 607.075 160.466 609.154 160.466 611.509C160.466 613.866 160.09 615.943 159.34 617.743C158.591 619.543 157.582 621.045 156.308 622.248C155.036 623.453 153.561 624.36 151.879 624.969C150.197 625.577 148.41 625.882 146.515 625.882C144.593 625.882 142.777 625.577 141.066 624.969C139.358 624.36 137.857 623.453 136.572 622.248C135.285 621.045 134.269 619.543 133.52 617.743C132.77 615.943 132.395 613.866 132.395 611.509Z" fill="white"/>
<path d="M181.959 606.626C180.773 610.174 179.569 613.455 178.354 616.471C177.14 619.489 175.925 622.427 174.708 625.287H170.596C169.097 621.236 167.775 616.962 166.633 612.463C165.488 607.962 164.419 603.066 163.43 597.771H167.756C168.151 599.838 168.562 601.9 168.986 603.964C169.407 606.031 169.847 608.036 170.299 609.981C170.751 611.925 171.203 613.787 171.656 615.559C172.108 617.332 172.573 618.973 173.056 620.483C174.186 617.703 175.387 614.652 176.659 611.33C177.931 608.009 179.117 604.576 180.22 601.028H183.784C184.885 604.576 186.087 608.009 187.387 611.33C188.687 614.652 189.901 617.703 191.033 620.483C191.485 619 191.936 617.373 192.39 615.6C192.84 613.826 193.286 611.966 193.725 610.02C194.164 608.075 194.592 606.063 195.018 603.985C195.442 601.908 195.851 599.838 196.248 597.771H200.446C199.427 603.066 198.346 607.962 197.201 612.463C196.056 616.962 194.75 621.236 193.281 625.287H189.167C187.924 622.427 186.707 619.489 185.521 616.471C184.334 613.455 183.146 610.174 181.959 606.626Z" fill="white"/>
<path d="M220.291 615.083C219.385 612.779 218.489 610.551 217.597 608.393C216.708 606.236 215.782 604.164 214.823 602.179C213.833 604.164 212.891 606.236 212.002 608.393C211.111 610.551 210.228 612.779 209.352 615.083H220.291ZM224.15 625.286C223.667 624.095 223.217 622.923 222.793 621.773C222.369 620.621 221.93 619.451 221.478 618.258H208.165L205.493 625.286H201.211C202.343 622.375 203.402 619.682 204.392 617.207C205.38 614.733 206.348 612.384 207.296 610.16C208.242 607.936 209.183 605.813 210.116 603.787C211.047 601.762 212.022 599.757 213.04 597.772H216.815C217.831 599.757 218.808 601.762 219.739 603.787C220.671 605.813 221.613 607.936 222.559 610.16C223.505 612.384 224.473 614.733 225.463 617.207C226.453 619.682 227.512 622.375 228.644 625.286H224.15Z" fill="white"/>
<path d="M250.56 600.871C248.808 600.871 247.465 600.91 246.532 600.989V611.788H249.628C251.041 611.788 252.313 611.702 253.442 611.53C254.574 611.358 255.527 611.068 256.304 610.657C257.084 610.247 257.683 609.685 258.109 608.971C258.531 608.255 258.743 607.342 258.743 606.231C258.743 605.171 258.524 604.298 258.085 603.61C257.648 602.921 257.054 602.372 256.304 601.961C255.557 601.552 254.688 601.268 253.698 601.108C252.708 600.951 251.664 600.871 250.56 600.871ZM250.222 597.495C254.347 597.495 257.519 598.229 259.741 599.7C261.959 601.167 263.069 603.359 263.069 606.27C263.069 607.858 262.765 609.214 262.158 610.339C261.548 611.465 260.674 612.379 259.527 613.079C258.382 613.781 256.991 614.29 255.352 614.607C253.713 614.924 251.86 615.084 249.798 615.084H246.532V625.287H242.422V598.17C243.578 597.906 244.873 597.728 246.3 597.634C247.727 597.542 249.033 597.495 250.222 597.495Z" fill="white"/>
<path d="M276.338 600.871C274.586 600.871 273.242 600.91 272.309 600.989V611.352H275.234C276.648 611.352 277.922 611.287 279.051 611.154C280.181 611.021 281.136 610.769 281.914 610.399C282.689 610.028 283.292 609.507 283.714 608.832C284.14 608.156 284.352 607.262 284.352 606.151C284.352 605.118 284.14 604.259 283.714 603.569C283.292 602.882 282.72 602.34 281.999 601.943C281.278 601.546 280.43 601.268 279.453 601.108C278.479 600.951 277.441 600.871 276.338 600.871ZM282.571 613.775C283.023 614.304 283.594 614.998 284.289 615.857C284.979 616.719 285.693 617.672 286.43 618.718C287.164 619.763 287.891 620.856 288.612 621.993C289.333 623.131 289.947 624.229 290.456 625.287H285.962C285.396 624.283 284.782 623.264 284.118 622.23C283.454 621.199 282.783 620.213 282.104 619.272C281.426 618.333 280.753 617.453 280.089 616.633C279.425 615.812 278.826 615.098 278.289 614.489C277.922 614.515 277.548 614.53 277.164 614.53H275.999H272.309V625.287H268.199V598.17C269.355 597.906 270.651 597.728 272.077 597.634C273.504 597.542 274.811 597.495 275.999 597.495C280.124 597.495 283.27 598.223 285.433 599.68C287.594 601.135 288.676 603.305 288.676 606.19C288.676 608.017 288.16 609.58 287.129 610.875C286.095 612.173 284.577 613.138 282.571 613.775Z" fill="white"/>
<path d="M314.117 600.829C313.466 601.518 312.71 602.345 311.85 603.311C310.986 604.276 310.075 605.348 309.114 606.527C308.153 607.705 307.165 608.949 306.147 610.259C305.129 611.568 304.133 612.894 303.156 614.23C302.182 615.566 301.255 616.896 300.379 618.219C299.503 619.543 298.712 620.799 298.006 621.99H314.541V625.286H293.215V622.706C293.807 621.648 294.508 620.482 295.314 619.212C296.119 617.941 296.982 616.644 297.901 615.32C298.819 613.999 299.772 612.661 300.764 611.31C301.751 609.96 302.732 608.665 303.709 607.421C304.683 606.177 305.631 605.011 306.549 603.926C307.467 602.84 308.308 601.889 309.07 601.066H293.977V597.772H314.117V600.829Z" fill="white"/>
<path d="M327.264 625.286V614.248C325.313 611.417 323.475 608.624 321.752 605.872C320.026 603.118 318.402 600.42 316.875 597.772H321.708C322.783 599.943 323.985 602.146 325.313 604.383C326.641 606.619 328.011 608.769 329.425 610.834C330.81 608.769 332.167 606.619 333.495 604.383C334.824 602.146 336.041 599.943 337.142 597.772H341.721C340.194 600.42 338.568 603.112 336.847 605.852C335.121 608.591 333.296 611.363 331.376 614.168V625.286H327.264Z" fill="white"/>
<path d="M361.817 611.748H365.929V624.611C365.59 624.72 365.103 624.838 364.467 624.969C363.832 625.102 363.095 625.235 362.263 625.366C361.428 625.499 360.517 625.612 359.527 625.704C358.538 625.798 357.535 625.843 356.517 625.843C354.454 625.843 352.575 625.526 350.88 624.889C349.184 624.255 347.727 623.328 346.51 622.111C345.297 620.894 344.356 619.398 343.692 617.624C343.027 615.852 342.695 613.813 342.695 611.511C342.695 609.207 343.069 607.163 343.821 605.375C344.568 603.589 345.579 602.087 346.851 600.87C348.123 599.653 349.613 598.726 351.323 598.089C353.034 597.455 354.865 597.138 356.814 597.138C358.142 597.138 359.322 597.218 360.353 597.375C361.387 597.535 362.269 597.719 363.004 597.932C363.74 598.145 364.339 598.355 364.806 598.566C365.274 598.779 365.59 598.939 365.761 599.043L364.446 602.259C363.626 601.758 362.538 601.34 361.181 601.009C359.825 600.678 358.439 600.512 357.026 600.512C355.527 600.512 354.164 600.764 352.936 601.267C351.706 601.77 350.659 602.498 349.798 603.45C348.935 604.403 348.265 605.561 347.784 606.924C347.303 608.289 347.063 609.817 347.063 611.511C347.063 613.152 347.266 614.647 347.677 615.996C348.085 617.346 348.708 618.504 349.543 619.47C350.377 620.437 351.409 621.184 352.636 621.714C353.866 622.244 355.317 622.508 356.984 622.508C358.173 622.508 359.18 622.449 360.017 622.33C360.849 622.211 361.45 622.099 361.817 621.992V611.748Z" fill="white"/>
<path d="M375.514 611.509C375.514 613.176 375.739 614.693 376.191 616.055C376.643 617.418 377.288 618.576 378.122 619.529C378.955 620.483 379.971 621.217 381.174 621.733C382.374 622.248 383.724 622.506 385.223 622.506C386.72 622.506 388.066 622.248 389.252 621.733C390.438 621.217 391.45 620.483 392.282 619.529C393.117 618.576 393.759 617.418 394.212 616.055C394.664 614.693 394.889 613.176 394.889 611.509C394.889 609.842 394.664 608.326 394.212 606.963C393.759 605.6 393.117 604.442 392.282 603.489C391.45 602.535 390.438 601.803 389.252 601.285C388.066 600.77 386.72 600.512 385.223 600.512C383.724 600.512 382.374 600.77 381.174 601.285C379.971 601.803 378.955 602.535 378.122 603.489C377.288 604.442 376.643 605.6 376.191 606.963C375.739 608.326 375.514 609.842 375.514 611.509ZM371.188 611.509C371.188 609.154 371.563 607.075 372.313 605.275C373.062 603.477 374.078 601.975 375.365 600.77C376.65 599.565 378.151 598.658 379.859 598.051C381.57 597.441 383.386 597.136 385.308 597.136C387.203 597.136 388.99 597.441 390.672 598.051C392.354 598.658 393.829 599.565 395.101 600.77C396.375 601.975 397.384 603.477 398.133 605.275C398.883 607.075 399.259 609.154 399.259 611.509C399.259 613.866 398.883 615.943 398.133 617.743C397.384 619.543 396.375 621.045 395.101 622.248C393.829 623.453 392.354 624.36 390.672 624.969C388.99 625.577 387.203 625.882 385.308 625.882C383.386 625.882 381.57 625.577 379.859 624.969C378.151 624.36 376.65 623.453 375.365 622.248C374.078 621.045 373.062 619.543 372.313 617.743C371.563 615.943 371.188 613.866 371.188 611.509Z" fill="white"/>
<path d="M413.502 622.151C417.402 622.151 420.312 621.218 422.237 619.352C424.16 617.486 425.119 614.871 425.119 611.51C425.119 608.148 424.16 605.535 422.237 603.669C420.312 601.804 417.402 600.871 413.502 600.871C412.342 600.871 411.446 600.883 410.81 600.909C410.174 600.936 409.729 600.963 409.473 600.989V622.032C409.729 622.058 410.174 622.085 410.81 622.112C411.446 622.138 412.342 622.151 413.502 622.151ZM429.486 611.51C429.486 613.891 429.091 615.964 428.3 617.723C427.507 619.485 426.39 620.939 424.951 622.091C423.509 623.243 421.785 624.102 419.777 624.671C417.771 625.242 415.564 625.526 413.163 625.526C411.975 625.526 410.668 625.479 409.241 625.387C407.815 625.293 406.519 625.115 405.363 624.849V598.17C406.519 597.906 407.815 597.726 409.241 597.634C410.668 597.542 411.975 597.495 413.163 597.495C415.564 597.495 417.771 597.779 419.777 598.348C421.785 598.917 423.509 599.778 424.951 600.928C426.39 602.08 427.507 603.536 428.3 605.296C429.091 607.058 429.486 609.128 429.486 611.51Z" fill="white"/>
<path d="M450.559 615.083C449.652 612.779 448.756 610.551 447.865 608.393C446.975 606.236 446.049 604.164 445.09 602.179C444.1 604.164 443.159 606.236 442.269 608.393C441.378 610.551 440.495 612.779 439.619 615.083H450.559ZM454.417 625.286C453.934 624.095 453.484 622.923 453.06 621.773C452.636 620.621 452.197 619.451 451.745 618.258H438.433L435.761 625.286H431.48C432.61 622.375 433.67 619.682 434.659 617.207C435.647 614.733 436.615 612.384 437.563 610.16C438.509 607.936 439.451 605.813 440.384 603.787C441.315 601.762 442.289 599.757 443.307 597.772H447.083C448.099 599.757 449.075 601.762 450.006 603.787C450.939 605.813 451.881 607.936 452.827 610.16C453.773 612.384 454.74 614.733 455.73 617.207C456.72 619.682 457.78 622.375 458.911 625.286H454.417Z" fill="white"/>
</svg>
