<svg width="591" height="186" viewBox="0 0 591 186" fill="none" xmlns="http://www.w3.org/2000/svg">
<path d="M29.0278 157.786C26.8429 157.838 26.4122 157.135 26.2783 155.096L199.729 8.12428C201.464 7.67906 202.285 7.86198 202.917 10.0435L29.0278 157.786Z" fill="#A3541F"/>
<path d="M170.375 44.2661L173.834 31.4675C171.968 29.8179 170.592 28.7141 170.717 28.149C172.136 26.6303 172.892 25.764 173.246 23.4698C173.686 23.0989 173.961 23.0599 174.516 23.0886C175.941 23.3332 176.492 23.3788 178.117 23.009C178.087 19.9507 178.138 19.2194 178.467 19.1505C180.056 17.8966 180.938 17.2028 183.202 16.7286C184.33 17.3753 184.759 17.4344 185.056 17.1731C185.037 16.5435 184.91 16.2608 184.656 15.7915L181.739 15.2492C180.963 14.8557 180.97 14.5894 181.406 14.098C183.258 12.7447 184.405 12.485 186.566 12.5495C187.116 12.1221 187.467 11.7805 188.058 10.8504C189.368 10.5427 189.921 10.3636 190.678 10.0642C190.881 9.14362 191.201 8.81964 192.114 8.46556C193.475 7.45966 195.357 7.12794 195.844 7.34582C196.332 7.56371 196.444 7.86854 197.187 8.11059L201.689 8.76126C203.13 9.23175 203.782 9.55602 203.999 10.4867C203.984 10.9859 203.845 11.2615 203.234 11.7174C202.487 12.1595 202.022 12.2497 201.17 12.3368C200.056 12.6367 199.823 12.8919 200.62 13.4193C211.093 22.1015 216.997 26.8606 227.092 37.8365C228.269 38.9714 228.982 39.5484 228.468 42.5948C225.622 46.7551 226.733 48.1456 216.805 54.7695C212.1 56.8755 209.309 57.6529 204.263 58.5337C200.132 58.6169 197.93 58.5257 192.846 59.6249L187.687 61.1735C185.155 64.8465 183.733 66.7651 181.171 64.2968C180.454 63.5194 180.086 62.8966 179.435 60.9809C178.688 59.6153 178.126 59.0168 177.109 58.009L175.659 56.2757C174.819 55.1723 174.589 54.4127 174.264 52.9412L174.192 52.8618C172.732 51.2387 171.887 50.3003 171.418 47.8732C170.501 46.4918 170.371 45.6966 170.375 44.2661Z" fill="#FF0000" stroke="black"/>
<path d="M189.355 51.8783C188.804 55.2203 186.772 57.6164 183.907 59.3239C182.271 60.3001 180.43 60.9566 178.667 61.7266C178.412 61.8382 178.081 61.7843 177.786 61.807C177.746 61.7039 177.706 61.6008 177.666 61.4977C178.067 61.2905 178.444 61.0048 178.871 60.8885C183.716 59.566 186.96 56.6024 188.626 52.0145C188.741 51.6986 188.711 51.3344 188.79 51.0023C188.869 50.6713 189.001 50.3515 189.111 50.0261C189.224 50.0431 189.337 50.0602 189.451 50.0772C189.421 50.6779 189.453 51.288 189.355 51.8783ZM192.613 51.4148C191.941 49.7764 191.008 48.2392 190.192 46.6557C190.096 46.6935 190.001 46.7304 189.905 46.7683C189.873 46.8695 189.836 46.9697 189.808 47.071C188.578 51.48 185.938 54.8968 181.831 57.0981C178.806 58.7194 175.675 60.1904 172.481 61.4684C169.638 62.6073 166.668 63.4766 163.706 64.3053C160.41 65.2285 157.586 66.9426 155.265 69.2602C153.687 70.8352 152.592 72.8765 151.357 74.7561C149.935 76.9224 149.299 79.396 149.016 81.8886C148.771 84.0539 148.76 86.2892 149.018 88.4516C149.39 91.5742 150.709 94.4556 152.129 97.267C152.851 98.6963 153.624 100.1 154.467 101.688C154.921 101.02 155.297 100.544 155.591 100.024C156.955 97.6151 158.207 95.1414 159.67 92.7907C161.347 90.0957 163 87.3184 165.682 85.4151C167.709 83.9763 169.927 82.7929 172.018 81.4374C175.546 79.1501 179.088 76.8779 182.537 74.4818C185.679 72.2995 188.643 69.8996 190.923 66.8111C192.293 64.9551 193.326 62.945 193.71 60.6908C194.251 57.5124 193.834 54.3917 192.613 51.4148Z" fill="#F4731C"/>
<path d="M145.111 54.2275C145.437 54.8093 145.763 55.392 146.089 55.9737C145.992 56.0239 145.896 56.0749 145.8 56.1251C145.473 55.5443 145.145 54.9625 144.818 54.3817C144.916 54.3306 145.013 54.2786 145.111 54.2275ZM134.221 48.0287C135.55 51.0359 136.776 54.0818 137.126 57.3378C137.503 60.8407 137.66 64.37 137.808 67.8918C138 72.4475 137.859 77.0278 138.272 81.5627C138.971 89.2249 142.373 95.6706 148.522 100.629C149.879 101.724 151.44 102.583 152.934 103.51C153.203 103.677 153.602 103.651 153.94 103.714C153.93 103.391 154.016 103.028 153.892 102.754C153.427 101.734 152.952 100.711 152.374 99.7496C149.972 95.7586 148.543 91.481 148.056 86.8827C147.592 82.5011 148.449 78.3909 150.729 74.6109C152.835 71.1175 154.38 67.1719 158.47 65.1646C159.198 64.807 159.426 63.9841 159.127 63.1942C158.65 61.938 158.191 60.6657 157.582 59.4681C154.966 54.3221 151.291 49.9821 146.824 46.2285C142.449 42.5526 137.436 40.6351 131.531 40.8186C131.562 40.9794 131.569 41.1544 131.628 41.3105C132.481 43.5543 133.251 45.8331 134.221 48.0287Z" fill="#F4731C"/>
<path d="M113.044 112.641C113.082 112.749 113.121 112.858 113.247 113.209C113.014 112.929 112.952 112.856 112.891 112.782C112.941 112.734 112.993 112.688 113.044 112.641Z" fill="#FEFEFE"/>
<path d="M190.873 66.818C188.593 69.9056 185.63 72.3064 182.487 74.4887C179.038 76.8839 175.497 79.156 171.969 81.4433C169.877 82.7998 167.659 83.9823 165.632 85.4211C162.95 87.3243 161.298 90.1026 159.621 92.7967C158.157 95.1483 156.906 97.622 155.541 100.031C155.247 100.551 154.871 101.026 154.416 101.694C153.575 100.107 152.801 98.7022 152.079 97.2738C150.659 94.4625 149.34 91.5811 148.968 88.4585C148.71 86.2961 148.721 84.0608 148.966 81.8955C149.25 79.4029 149.884 76.9293 151.308 74.7621C152.542 72.8825 153.637 70.8421 155.214 69.267C157.535 66.9495 160.359 65.2345 163.657 64.3121C166.619 63.4835 169.588 62.6132 172.432 61.4752C175.626 60.1963 178.757 58.7254 181.782 57.104C185.888 54.9037 188.529 51.4869 189.759 47.0779C189.787 46.9757 189.823 46.8764 189.855 46.7751C189.951 46.7373 190.047 46.6995 190.141 46.6616C190.957 48.2452 191.891 49.7833 192.563 51.4217C193.784 54.3986 194.2 57.5193 193.66 60.6977C193.276 62.9509 192.244 64.962 190.873 66.818ZM156.337 104.926C160.563 110.438 161.759 116.695 161.03 123.376C160.773 125.73 160.302 128.066 159.842 130.394C159.598 131.632 158.963 132.708 157.76 133.344C157.498 133.482 157.162 133.49 156.859 133.556C157.207 132.902 157.584 132.261 157.893 131.59C158.231 130.854 158.311 130.112 157.54 129.274C157.224 129.882 156.966 130.391 156.697 130.896C156.321 131.604 156.073 132.432 155.532 132.991C154.314 134.246 153.919 135.798 153.452 137.361C153.066 138.651 152.583 139.923 151.423 140.792C151.133 141.009 150.792 141.163 150.491 141.337C149.956 140.719 150.837 139.416 149.51 139.319C149.447 140.128 149.468 140.791 149.327 141.42C149.179 142.077 149.511 142.314 150.005 142.125C151.404 141.588 153.015 141.455 154.062 140.188C154.353 139.837 154.809 139.616 155.327 139.233C154.924 141.65 147.493 148.635 145.382 148.728C145.41 148.293 145.437 147.861 145.464 147.431C145.37 147.398 145.276 147.366 145.182 147.333C144.992 147.711 144.736 148.071 144.623 148.469C144.116 150.265 142.674 150.997 141.009 151.387C140.571 151.49 139.873 151.293 139.556 150.984C138.687 150.136 137.875 149.209 137.198 148.213C136.575 147.295 136.448 146.238 137.008 145.183C137.114 144.983 137.086 144.715 137.156 144.22C136.257 144.736 135.598 145.181 134.883 145.51C133.768 146.024 132.644 146.554 131.467 146.903C130.439 147.209 129.996 146.662 130.198 145.627C130.255 145.334 130.132 145.008 130.092 144.697C129.789 144.863 129.358 144.955 129.203 145.205C127.747 147.564 125.887 149.592 123.889 151.525C123.631 151.774 123.627 152.423 123.728 152.836C124.13 154.496 124.142 156.138 123.629 157.764C123.284 158.861 122.571 159.011 121.727 158.222C120.424 157.008 120.389 155.32 121.63 154.033C122.943 152.669 123.125 150.94 123.164 149.212C123.247 145.585 122.372 142.154 120.64 138.941C120.216 138.154 120.244 137.436 120.542 136.633C121.471 134.124 122.479 131.636 123.233 129.077C124.292 125.482 124.128 121.836 123.438 118.168C122.995 115.815 122.905 113.403 122.575 111.029C122.327 109.242 121.922 107.476 121.643 105.693C121.519 104.904 121.462 104.091 121.504 103.297C121.556 102.326 122.096 102.032 122.892 102.585C124.645 103.806 126.648 104.862 126.885 107.451C127.163 107.118 127.333 106.914 127.629 106.557C128.836 107.83 130.023 109.009 131.127 110.258C134.3 113.848 137.547 117.35 141.379 120.326C143.92 122.297 146.739 123.184 149.932 123.196C151.936 123.203 153.989 121.689 154.919 119.635C156.409 116.348 156.58 112.943 156.083 109.455C155.839 107.738 155.588 106.021 155.541 104.158C155.809 104.413 156.117 104.638 156.337 104.926ZM171.39 130.831C172.949 130.896 174.562 131.072 175.67 132.459C176.952 134.063 176.501 135.546 174.493 136.099C172.857 136.548 171.273 136.176 169.689 135.799C167.996 135.396 166.318 134.888 164.6 134.636C162.283 134.297 160 134.639 157.793 135.435C157.253 135.63 156.675 135.728 156.115 135.871C156.062 135.769 156.01 135.667 155.958 135.566C156.362 135.315 156.752 135.037 157.173 134.818C161.617 132.503 166.208 130.614 171.39 130.831ZM173.031 140.1C172.822 141.15 171.926 141.82 170.726 141.848C169.108 141.886 167.869 141.064 166.637 140.203C165.728 139.568 164.827 138.917 163.877 138.344C161.893 137.148 159.703 136.82 157.403 137.03C157.11 137.058 156.813 137.044 156.518 137.039C156.476 137.038 156.436 136.984 156.318 136.898C157.955 135.954 159.708 135.564 161.533 135.418C164.243 135.202 166.798 135.91 169.348 136.655C170.127 136.883 170.945 137.007 171.696 137.296C172.734 137.696 173.268 138.917 173.031 140.1ZM168.159 145.196C167.334 146.39 166.126 147.15 164.726 147.429C164.237 147.528 163.401 147.055 163.064 146.603C162.101 145.312 161.433 143.807 160.422 142.558C159.45 141.358 158.187 140.382 157.068 139.29C156.749 138.979 156.489 138.609 156.203 138.267C156.645 138.09 157.08 137.885 157.536 137.746C157.781 137.671 158.063 137.707 158.494 137.684C160.058 137.908 161.744 138.178 163.235 139.195C164.617 140.137 166.124 140.905 167.524 141.826C168.961 142.771 169.126 143.797 168.159 145.196ZM144.746 162.906C145.35 165.548 145.328 168.146 143.423 170.386C143.039 170.838 142.526 171.185 141.953 171.684C142.169 170.34 142.389 169.195 142.523 168.039C142.595 167.418 142.565 166.777 142.488 166.154C142.454 165.874 142.192 165.62 142.033 165.353C141.94 165.627 141.84 165.9 141.757 166.177C141.734 166.256 141.754 166.349 141.765 166.434C142.179 169.641 140.781 172.215 138.714 174.54C138.034 175.306 137.288 176.019 136.572 176.755C136.476 176.692 136.379 176.63 136.282 176.566C136.606 175.099 136.965 173.637 137.242 172.161C137.401 171.319 137.451 170.456 137.494 169.599C137.504 169.399 137.287 169.188 137.175 168.981C137.033 169.171 136.803 169.345 136.764 169.552C136.388 171.558 136.156 173.595 135.66 175.571C135.131 177.681 134.135 179.591 132.271 180.96C130.41 182.328 128.399 182.322 126.299 181.641C125.909 181.516 125.469 181.454 125.145 181.234C124.088 180.513 123.298 180.927 122.526 181.682C121.217 182.962 119.904 184.217 118.033 184.763C116.234 185.289 114.606 185.138 113.138 183.949C111.808 182.873 111.69 181.565 112.846 180.309C115.639 177.275 118.231 174.092 120.181 170.481C121.173 168.646 122.117 166.746 122.74 164.774C123.661 161.861 124.306 158.863 125.011 155.889C125.587 153.452 126.414 151.183 128.843 149.891C129.477 149.555 130.218 149.409 130.909 149.174C131.679 148.912 132.5 148.737 133.209 148.366C134.367 147.757 135.07 147.621 136.023 148.5C137.238 149.618 138.35 150.862 139.361 152.158C141.884 155.389 143.835 158.921 144.746 162.906ZM117.619 101.213C117.458 100.464 117.296 99.7154 117.115 98.8763C118.021 99.3606 118.211 100.074 117.619 101.213ZM116.601 96.6949V94.6554C117.36 95.3252 117.356 95.9798 116.601 96.6949ZM111.439 89.6183C108.486 88.3819 105.428 87.3915 102.21 87.0405C98.3628 86.6215 94.5112 86.0955 90.6507 85.9839C87.3227 85.8884 83.9751 86.2753 80.6412 86.5222C79.7015 86.5912 79.2443 86.1353 79.1242 85.4315C78.8839 84.0239 78.7833 82.5936 78.6543 81.17C78.2695 76.9302 80.059 73.5125 83.0491 70.6056C84.7937 68.9095 86.8401 67.7668 89.4258 67.6665C91.4566 67.587 92.9678 68.3703 93.6652 70.1458C94.3314 71.841 94.6665 73.6591 95.1207 75.4299C95.3248 76.2293 95.4636 77.0447 95.6325 77.8525C95.7459 77.8818 95.8582 77.9102 95.9705 77.9395C96.0858 77.7333 96.3114 77.5195 96.2987 77.3209C96.2265 76.1649 96.4472 75.6853 97.5823 75.3155C100.838 74.2551 104.181 74.0148 107.566 74.5549C109.633 74.8851 111.544 75.603 113.087 77.0399C115.776 79.5401 115.815 84.0485 113.167 86.2469C112.79 86.56 112.362 86.8135 111.957 87.0945C111.998 87.1947 112.039 87.295 112.081 87.3953C112.915 87.2307 113.745 87.0547 114.581 86.9062C116.987 86.4768 119.384 86.2942 121.784 86.9904C124.79 87.8616 125.358 89.9323 124.457 92.3256C124.028 93.4636 123.345 94.5183 122.716 95.5768C122.454 96.0186 122.429 96.2598 122.985 96.3705C124.133 96.6003 125.297 96.7725 126.432 97.0544C128.136 97.4782 129.866 97.8641 131.504 98.4724C133.087 99.0608 133.456 100.392 132.65 101.859C132.332 102.437 131.942 102.978 131.609 103.549C131.444 103.83 131.333 104.141 131.134 104.578C132.202 104.578 133.109 104.526 134.007 104.593C134.85 104.654 135.723 104.729 136.512 104.998C137.602 105.368 138.034 106.383 137.647 107.454C137.358 108.254 136.947 109.014 136.597 109.794C136.511 109.986 136.447 110.188 136.34 110.476C137.144 110.476 137.823 110.422 138.49 110.485C140.634 110.687 141.308 111.395 141.41 113.177C141.496 114.697 141.993 116.196 142.305 117.705C142.359 117.963 142.395 118.225 142.459 118.599C138.479 116.039 135.3 112.896 132.471 109.396C129.309 105.486 126.249 101.49 122.936 97.7033C119.811 94.1314 115.882 91.4789 111.439 89.6183ZM77.8045 87.1559C74.1619 90.0496 73.2476 92.9253 74.6308 97.3599C74.876 98.146 75.1094 98.9349 75.3488 99.7229C70.406 96.9891 66.612 93.4664 66.2291 87.6355C66.022 84.4798 68.5413 80.6024 71.5753 79.4124C72.9194 78.8845 74.3788 78.5525 75.8186 78.3567C77.3786 78.1448 78.0223 78.8581 78.078 80.3583C78.1474 82.219 78.3193 84.0769 78.3593 85.9376C78.3681 86.3472 78.1259 86.9005 77.8045 87.1559ZM153.858 103.721C153.519 103.657 153.122 103.684 152.852 103.516C151.359 102.589 149.797 101.73 148.441 100.636C142.292 95.6761 138.889 89.2314 138.191 81.5692C137.777 77.0343 137.918 72.454 137.726 67.8973C137.578 64.3755 137.421 60.8471 137.044 57.3443C136.693 54.0874 135.468 51.0423 134.139 48.0352C133.169 45.8396 132.399 43.5608 131.547 41.317C131.487 41.1609 131.48 40.9859 131.45 40.8251C137.354 40.6416 142.367 42.559 146.742 46.235C151.21 49.9885 154.885 54.3286 157.5 59.4746C158.108 60.6721 158.568 61.9435 159.044 63.1997C159.344 63.9896 159.116 64.8135 158.388 65.1701C154.298 67.1784 152.753 71.1239 150.646 74.6173C148.367 78.3974 147.51 82.5075 147.974 86.8892C148.46 91.4875 149.89 95.7651 152.291 99.756C152.87 100.717 153.344 101.741 153.809 102.76C153.934 103.034 153.847 103.398 153.858 103.721ZM190.15 45.4357C189.999 45.2058 189.76 45.0299 189.41 44.6732C189.25 45.4924 189.129 46.1281 189.002 46.761C188.046 51.5267 184.941 54.7316 180.771 57.0245C175.172 60.1027 169.171 62.2301 162.869 63.5204C160.663 63.9716 159.923 64.2308 159.166 61.5698C159.143 61.4875 159.094 61.4128 159.062 61.3324C156.613 55.1743 152.382 50.313 147.367 45.9635C142.561 41.7938 136.865 40.1327 130.58 39.9198C129.514 39.8839 129.397 40.1062 129.866 40.984C130.845 42.8145 131.8 44.6572 132.756 46.4989C135.987 52.7195 137.234 59.3374 136.999 66.2599C136.9 69.1866 136.828 72.1153 136.819 75.044C136.796 82.2256 138.352 88.9883 142.496 95.0792C145.173 99.0163 148.374 102.364 152.969 104.198C153.919 104.578 154.47 105.138 154.735 106.063C155.614 109.117 155.856 112.222 155.449 115.359C155.179 117.431 154.273 119.291 152.806 120.803C152.201 121.426 151.271 122.011 150.426 122.109C148.46 122.337 144.235 121.016 143.343 118.156C142.765 116.305 142.331 114.401 141.988 112.495C141.765 111.256 141.141 110.508 139.944 110.175C139.267 109.986 138.571 109.868 137.797 109.7C137.945 109.074 138.055 108.487 138.221 107.918C138.616 106.567 138.274 105.405 137.056 104.688C136.33 104.262 135.413 104.02 134.558 103.944C132.335 103.744 132.291 103.948 133.281 101.807C134.144 99.9433 133.644 98.653 131.683 97.9086C130.584 97.4914 129.446 97.1537 128.303 96.8605C126.859 96.4897 125.391 96.2002 123.861 95.8606C124.273 94.8219 124.677 93.8722 125.03 92.9054C126.304 89.4215 124.801 86.823 121.036 86.1826C119.707 85.9565 118.324 86.0208 116.965 85.9763C116.19 85.9499 115.413 85.9716 114.686 85.9716C115.056 84.7371 115.629 83.5509 115.736 82.3259C116.008 79.2033 114.398 76.9501 111.757 75.3334C109.956 74.2305 107.918 73.7244 105.827 73.7764C103.05 73.8445 100.276 74.1198 97.5061 74.3648C96.0457 74.4944 95.9461 74.4594 95.5642 73.0565C95.3082 72.1172 95.0621 71.1599 94.6587 70.2764C93.5959 67.9446 91.4029 66.6666 88.8368 67.1434C83.9858 68.043 80.4488 70.6065 78.8028 75.2691C78.5088 76.1006 78.3496 76.9775 78.1767 77.6463C76.8247 77.6463 75.5412 77.5035 74.3045 77.6728C70.1305 78.2441 66.1021 82.4555 65.4652 86.8305C65.3783 87.4255 65.1526 87.7084 64.5724 87.9297C61.8949 88.9533 59.3005 90.1433 56.9991 91.8554C54.5023 93.7123 52.5242 96.0157 51.9694 99.0314C51.5435 101.346 51.6627 103.767 51.6578 106.141C51.6548 107.833 51.7125 109.962 51.816 111.653C51.8639 111.649 51.7623 111.916 51.8024 111.945C52.2087 112.229 51.8346 112.013 52.1042 112.418C52.2234 112.597 52.5057 112.828 52.6434 112.989C53.421 113.9 53.8449 113.539 53.9006 113.574C53.8771 113.532 53.5225 112.891 53.4981 112.85C52.7049 111.52 52.5897 110.019 52.532 108.538C52.4344 106.021 52.1394 103.465 52.4558 100.989C52.998 96.7451 55.2496 93.3727 59.1725 91.2396C60.6036 90.4611 62.1518 89.8718 63.6835 89.2853C64.844 88.8397 64.7834 89.0214 65.2962 90.1007C66.0318 91.6445 66.9207 93.1533 67.962 94.5202C70.0758 97.2937 73.0034 99.2197 75.8616 101.198C76.1175 101.376 76.4321 101.475 77.0133 101.749C76.8736 101.171 76.855 100.776 76.688 100.453C75.5685 98.304 74.8037 96.0715 74.831 93.6329C74.8672 90.357 76.8892 88.0536 80.229 87.3764C83.1663 86.7795 86.045 87.0822 88.9481 87.6346C93.9231 88.5806 98.7076 90.0695 103.266 92.2102C108.425 94.6328 113.249 97.5321 116.944 101.888C119.843 105.307 121.343 109.304 121.84 113.667C122.148 116.362 122.098 119.062 121.636 121.736C121.16 124.496 120.742 127.278 120.026 129.984C119.346 132.558 118.387 135.071 117.401 137.556C117.024 138.507 117.146 139.208 117.713 139.943C119.27 141.962 120.116 144.252 120.618 146.706C121.659 151.796 118.743 157.856 114.146 160.528C111.179 162.252 107.971 162.943 104.625 163.201C96.7491 163.807 88.8651 163.686 81.0231 162.825C74.5175 162.11 68.298 160.363 62.8385 156.67C56.4393 152.341 52.3201 146.454 50.299 139.174C49.9855 138.042 49.7559 136.887 49.5097 135.737C49.1933 134.254 49.4697 132.803 50.3606 131.624C51.9772 129.486 52.3601 127.017 52.7596 124.529C53.0332 122.83 53.2666 121.125 53.545 119.427C53.5802 119.21 54.0324 118.677 54.1301 118.47C53.4131 117.92 53.4454 115.029 52.4324 115.456C52.3943 117.973 52.3601 121.626 52.028 124.113C51.6822 126.692 51.4048 129.378 49.3906 131.448C49.079 131.769 48.9363 132.299 48.8475 132.756C48.1832 136.167 49.2206 139.334 50.385 142.479C51.6119 144.627 52.7567 146.825 54.093 148.907C54.9927 150.309 56.1453 151.561 57.2198 152.854C57.6907 153.421 57.6408 153.801 56.9727 154.134C54.8208 155.203 52.619 156.1 50.1291 155.958C49.6875 155.932 49.2528 155.799 48.8299 155.496C50.6771 154.982 52.5252 154.466 54.3724 153.951C54.347 153.808 54.3226 153.664 54.2981 153.521C53.8224 153.569 53.3389 153.583 52.871 153.673C51.3403 153.97 49.8174 154.305 48.2868 154.604C47.6548 154.727 46.9954 154.927 46.3761 154.859C45.1687 154.724 43.9711 154.46 42.7931 154.164C42.5547 154.105 42.419 153.664 42.1806 153.318C43.3831 152.91 44.4293 152.555 45.4755 152.201C45.4501 152.086 45.4247 151.971 45.3993 151.855C45.0847 151.855 44.7653 151.825 44.4547 151.86C41.3005 152.221 38.5195 151.367 36.0325 149.49C35.0224 148.729 34.4383 147.761 34.6307 146.529C34.8925 144.851 34.2634 143.542 33.1655 142.316C32.1232 141.153 31.8624 139.756 32.3313 138.294C32.8812 136.579 34.114 135.988 35.7414 136.849C37.4889 137.773 39.1036 138.937 40.7554 140.025C42.2734 141.025 43.8188 141.959 45.661 142.278C45.9013 142.319 46.1729 142.194 46.4298 142.147C46.3399 142.082 46.2579 141.98 46.1573 141.957C45.8593 141.891 45.5008 141.94 45.2605 141.796C43.7113 140.86 42.1904 139.88 40.6519 138.927C39.0372 137.925 37.4821 136.8 35.7717 135.986C34.2136 135.245 32.4768 136.048 31.6846 137.561C31.1122 138.653 31.0233 139.83 31.5635 140.89C32.1974 142.133 33.1079 143.241 33.8219 144.45C34.0525 144.841 34.1726 145.382 34.112 145.826C33.9343 147.137 34.0261 148.384 34.9775 149.383C35.6115 150.049 36.3255 150.72 37.1431 151.128C39.1808 152.144 41.2546 153.012 42.9425 154.644C43.6107 155.289 44.9528 155.256 45.9658 155.595C49.7012 156.843 53.3067 156.632 56.7764 154.757C57.7073 154.253 58.518 154.309 59.3933 154.969C62.8649 157.589 66.5309 159.89 70.7186 161.332C75.7141 163.051 80.902 163.748 86.1515 164.014C94.0618 164.414 101.964 164.512 109.829 163.224C113.448 162.63 117.115 162.301 120.761 161.862C122.144 161.695 122.451 161.976 122.191 163.321C121.991 164.359 121.78 165.426 121.351 166.386C119.389 170.78 116.956 174.888 113.476 178.365C112.626 179.215 111.924 180.238 111.314 181.269C110.812 182.117 111.061 183.041 111.771 183.726C114.212 186.082 117.771 186.88 120.528 184.49C121.278 183.839 122.035 183.194 122.757 182.515C123.691 181.636 124.071 181.587 125.285 182.073C126.072 182.388 126.893 182.684 127.727 182.816C129.835 183.153 131.671 182.471 133.179 181.069C136.728 177.771 140.224 174.42 143.759 171.108C144.898 170.041 145.612 168.745 145.714 167.254C145.809 165.869 145.773 164.435 145.512 163.071C144.952 160.133 143.545 157.496 142.025 154.923C141.78 154.509 141.494 154.127 142.167 153.803C146.152 151.885 149.389 149.018 152.54 146.053C154.15 144.537 155.715 142.974 157.283 141.417C157.893 140.81 158.365 140.989 158.781 141.598C159.663 142.89 160.523 144.194 161.405 145.484C161.812 146.08 162.175 146.726 162.687 147.227C164.069 148.576 165.495 148.613 167.007 147.44C168.176 146.531 169.016 145.412 169.341 143.976C169.544 143.078 169.954 142.579 171.039 142.464C173.048 142.25 173.661 141.432 173.637 139.471C173.634 139.213 173.629 138.953 173.596 138.698C173.528 138.159 173.184 137.415 173.424 137.138C173.733 136.782 174.505 136.808 175.075 136.659C177.261 136.084 177.886 134.365 176.596 132.535C175.464 130.929 173.806 130.289 171.9 130.116C168.793 129.835 165.842 130.604 162.899 131.413C162.465 131.532 162.023 131.626 161.508 131.75C161.841 129.742 162.189 127.882 162.452 126.012C163.076 121.602 162.773 117.227 161.442 112.98C160.583 110.239 159.32 107.638 157.511 105.309C155.861 103.183 155.471 100.898 156.923 98.479C157.606 97.3382 158.209 96.1529 158.885 95.0073C161.218 91.0523 164.047 87.5495 168.07 85.019C171.771 82.692 175.384 80.2297 178.995 77.773C182.583 75.3334 186.227 72.9544 189.243 69.8195C192.551 66.38 194.699 62.4543 194.561 57.6233C194.432 53.1187 192.613 49.1608 190.15 45.4357Z" fill="black"/>
<path d="M56.5203 117.467C57.1357 114.925 58.1174 112.547 59.9948 110.601C61.4708 109.07 63.3287 108.475 65.4465 108.582C65.8704 108.604 66.2856 108.76 67.0075 108.923C66.5366 109.229 66.3286 109.392 66.0971 109.512C63.8494 110.685 62.3812 112.491 61.5412 114.797C61.2071 115.714 61.3761 115.922 62.3783 115.951C62.4965 115.955 62.6157 115.957 62.7339 115.961C64.4033 116.017 64.5175 116.171 64.3095 117.743C64.2128 118.48 64.2401 119.231 64.1893 119.974C64.1376 120.726 64.4453 121.016 65.2296 120.846C66.0267 120.675 66.6187 121.016 67.0251 121.664C67.4422 122.33 67.1589 122.842 66.3452 122.901C65.9672 122.927 65.5852 122.905 65.1945 122.905C65.7483 125.37 68.2754 126.078 71.286 124.586C70.8659 126.525 70.566 128.428 69.4476 130.063C68.2646 131.791 65.3097 132.418 63.3844 131.504C61.6916 130.701 59.9587 129.972 58.2112 129.287C57.2119 128.895 56.6209 128.26 56.3591 127.264C55.4975 123.981 55.7329 120.718 56.5203 117.467ZM70.9753 119.305C70.949 119.579 70.57 119.82 70.3443 120.076C70.0708 119.835 69.6762 119.636 69.5707 119.339C69.5081 119.163 69.9018 118.834 70.23 118.38C70.6022 118.816 70.9968 119.079 70.9753 119.305ZM69.7553 113.939C70.8503 113.938 72.0391 115.023 71.9776 116.003C71.9287 116.78 71.4354 117.103 70.6637 117.082C69.472 117.067 68.208 116.032 68.2392 115.097C68.2617 114.449 68.9269 113.94 69.7553 113.939ZM53.9317 113.57C53.9239 113.571 53.916 113.575 53.9082 113.574C53.6328 113.551 53.3905 113.447 53.1766 113.279C52.9822 113.125 52.864 112.918 52.7341 112.714C52.4879 112.325 52.2095 111.925 51.8237 111.654C51.8081 111.642 51.7963 111.628 51.7827 111.615C51.0393 112.249 51.5443 112.918 51.7485 113.568C51.9477 114.202 52.3287 114.83 52.4401 115.456C52.4909 115.474 52.5358 115.504 52.5583 115.552C53.0213 116.526 53.2215 117.772 54.1378 118.47C54.1622 118.488 54.1788 118.513 54.1905 118.539C54.2404 118.541 54.2902 118.543 54.34 118.545C54.6438 120.196 54.9818 121.841 55.2377 123.498C55.4204 124.684 55.4829 125.887 55.6187 127.08C55.7212 127.979 55.6353 128.798 54.4982 129.455C55.0589 129.561 55.3705 129.659 55.6851 129.673C58.5062 129.795 61.083 130.64 63.4411 132.124C64.2684 132.645 64.2665 132.907 63.5456 133.568C63.3219 133.774 63.1676 134.051 62.982 134.296C63.0562 134.364 63.1295 134.433 63.2027 134.502C63.6374 134.194 64.077 133.892 64.5058 133.576C67.953 131.039 71.5712 131.018 75.2255 133.04C76.5999 133.8 77.8073 134.846 79.0918 135.76C79.3858 135.969 79.6828 136.172 79.9787 136.378C80.0442 136.32 80.1106 136.264 80.1761 136.207C80.0628 136.015 79.9866 135.785 79.8283 135.637C77.5132 133.47 74.8973 131.803 71.6953 131.136C70.3228 130.85 70.3062 130.76 70.7204 129.405C71.3758 127.264 72.1046 125.13 72.549 122.945C73.2787 119.346 72.9563 115.817 71.2957 112.445C69.26 108.312 66.2006 107.04 61.7336 108.618C60.1248 109.187 58.5687 109.897 56.9989 110.566C55.8853 111.04 54.9339 110.895 54.1075 110.004C53.9727 109.86 53.7314 109.81 53.539 109.716C53.4677 109.918 53.329 110.122 53.3368 110.321C53.3866 111.676 54.0372 112.798 54.889 113.883C54.4045 113.977 54.13 113.814 53.9317 113.57Z" fill="black"/>
<path d="M104.983 123.178C104.139 123.261 102.792 122.018 102.796 121.227C102.801 120.521 103.172 120.102 103.944 120.096C104.842 120.09 105.609 121.128 105.621 122.648C105.507 122.75 105.264 123.151 104.983 123.178ZM103.186 125.772C103.227 125.515 103.639 125.314 103.889 125.089C104.124 125.343 104.519 125.581 104.547 125.854C104.571 126.088 104.172 126.361 103.799 126.813C103.49 126.323 103.146 126.018 103.186 125.772ZM103.257 135.579C102.513 136.512 101.475 136.92 100.254 136.554C96.7631 135.509 93.1967 135.112 89.5492 135.261C88.4259 135.306 87.4705 134.932 86.8708 133.902C83.7557 128.554 84.9835 120.053 89.4965 115.81C92.3322 113.144 96.344 112.385 99.5529 113.91C99.7317 113.995 99.8938 114.109 100.278 114.336C98.1131 114.964 96.6449 116.163 95.5001 117.762C95.3145 118.02 95.1328 118.283 94.9765 118.558C94.0231 120.234 94.1569 120.617 95.9347 121.335C97.314 121.894 97.2925 121.891 97.147 123.368C96.935 125.505 97.3863 127.472 98.8203 129.174C100.75 131.466 103.241 131.315 104.836 128.805C105.049 128.469 105.278 128.144 105.586 127.846C105.289 130.564 105.07 133.305 103.257 135.579ZM101.356 125.878C101.571 126.508 101.694 127.213 101.637 127.867C101.607 128.213 101.15 128.718 100.807 128.789C100.45 128.861 99.8352 128.603 99.6223 128.301C99.2442 127.759 99.084 127.076 98.7617 126.275C99.1202 125.806 99.3644 125.163 99.8127 124.972C100.56 124.655 101.131 125.221 101.356 125.878ZM109.829 123.648C110.339 122.908 110.885 122.484 111.372 122.003C111.747 121.632 111.822 121.312 111.245 120.905C110.106 120.102 109.012 119.22 107.99 118.279C106.514 116.918 105.219 115.359 103.668 114.09C99.4494 110.64 93.7076 109.66 89.6274 114.294C86.3003 118.073 84.2421 122.299 84.4736 127.37C84.5909 129.953 85.4075 132.369 86.5894 134.753C85.8549 135.116 85.1506 135.464 84.4453 135.812C84.4688 135.896 84.4922 135.978 84.5156 136.061C85.0539 136.061 85.6038 136.133 86.1284 136.05C92.7337 135.004 98.8721 136.461 104.772 139.255C105.001 139.363 105.28 139.372 105.535 139.427C105.586 139.332 105.636 139.237 105.685 139.142C105.191 138.787 104.707 138.418 104.201 138.082C102.944 137.246 102.958 137.212 103.795 136.034C104.682 134.784 105.705 133.573 106.307 132.197C107.108 130.367 108.166 129.239 110.349 129.506C110.519 129.526 110.722 129.505 110.872 129.431C111.757 128.995 112.639 128.55 113.501 128.072C113.623 128.003 113.679 127.734 113.663 127.566C113.656 127.499 113.376 127.428 113.215 127.41C112.838 127.369 112.457 127.357 111.816 127.319C113.474 126.325 114.721 125.347 115.416 123.724C114.357 123.859 113.447 124.078 112.543 124.062C111.636 124.046 110.734 123.796 109.829 123.648Z" fill="black"/>
<path d="M90.5755 100.993C92.1453 100.203 93.84 99.9522 95.569 100.024C99.7948 100.199 103.491 101.885 107.065 103.905C107.51 104.157 108.053 104.243 108.55 104.407C108.305 103.91 108.191 103.261 107.794 102.94C102.951 99.0232 97.4641 98.0991 91.4751 99.8481C90.7591 100.058 90.1398 100.58 89.4766 100.958C89.5557 101.083 89.6348 101.208 89.7139 101.333C90.0021 101.222 90.301 101.131 90.5755 100.993Z" fill="black"/>
<path d="M83.3283 143.885C83.7112 144.767 83.2179 145.331 82.5673 145.784C82.0447 146.149 81.4674 146.461 80.8755 146.709C77.8942 147.956 74.824 147.861 71.9219 146.69C69.6957 145.793 67.1559 144.877 67.195 141.793C67.195 141.76 67.112 141.726 67.068 141.691C66.2905 142.307 65.5119 142.923 64.7109 143.555C64.7412 143.577 64.8887 143.758 65.0616 143.786C66.561 144.026 67.6649 144.957 68.8478 145.759C73.0052 148.58 77.3442 149.314 81.9763 146.843C82.4755 146.577 83.0616 146.468 83.6028 146.274C84.3334 146.012 85.0602 145.739 85.8358 145.453C84.9459 144.716 84.1869 144.086 83.3859 143.422C83.3683 143.542 83.2677 143.746 83.3283 143.885Z" fill="black"/>
<path d="M59.2239 96.8453C57.5486 97.2946 56.2162 98.285 55.0411 99.4741C54.8418 99.6756 54.8623 100.079 54.7812 100.39C55.0938 100.357 55.4279 100.378 55.7131 100.275C56.0091 100.168 56.2621 99.9442 56.5278 99.7635C59.891 97.48 63.4975 96.972 67.3647 98.3683C68.1843 98.6643 69.0038 98.9614 69.8234 99.2575C69.8888 99.177 69.9533 99.0957 70.0188 99.0153C69.4864 98.5527 69.0185 97.9766 68.4099 97.6455C65.4853 96.0563 62.3878 95.9958 59.2239 96.8453Z" fill="black"/>
<path d="M94.457 108.934C93.2779 108.996 92.1673 109.275 91.1016 110.026C92.5805 109.797 93.9168 109.437 95.2599 109.41C99.8354 109.319 103.452 111.739 107.183 113.846C107.995 114.303 108.902 114.6 109.765 114.972C109.805 114.859 109.845 114.745 109.885 114.632C109.026 114.116 108.142 113.636 107.312 113.08C103.439 110.49 99.303 108.681 94.457 108.934Z" fill="black"/>
<path d="M61.4243 105.928C60.7503 106.181 60.2111 106.769 59.6094 107.203C59.6983 107.364 59.7881 107.526 59.877 107.686C62.4598 105.522 65.3639 105.395 68.435 106.283C66.1199 105.253 63.7707 105.044 61.4243 105.928Z" fill="black"/>
<path d="M124.439 131.385C124.911 129.836 125.386 128.277 125.861 126.719C125.768 126.697 125.674 126.677 125.581 126.656C124.866 128.183 123.511 129.586 124.439 131.385Z" fill="#F7F4F2"/>
<path d="M128.445 138.972C128.862 139.883 129.28 140.794 129.697 141.706C129.998 140.527 129.441 139.664 128.828 138.821C128.7 138.871 128.573 138.922 128.445 138.972Z" fill="#F7F4F2"/>
<path d="M159.993 120.99C160.647 119.815 160.494 119.586 158.493 118.38C158.142 119.706 159.83 119.793 159.993 120.99Z" fill="#F7F4F2"/>
<path d="M158.516 114.123C158.978 114.756 159.301 115.199 159.624 115.642C160.066 114.685 159.598 114.338 158.516 114.123Z" fill="#F7F4F2"/>
<path d="M188.75 51.0089C188.671 51.341 188.701 51.7052 188.586 52.0211C186.919 56.609 183.675 59.5726 178.83 60.8951C178.404 61.0114 178.025 61.2971 177.625 61.5043C177.665 61.6074 177.705 61.7105 177.745 61.8136C178.041 61.7909 178.372 61.8448 178.626 61.7332C180.389 60.9632 182.231 60.3067 183.867 59.3305C186.732 57.623 188.764 55.2269 189.315 51.8849C189.411 51.2946 189.381 50.6845 189.409 50.0838C189.296 50.0668 189.183 50.0497 189.069 50.0327C188.961 50.3572 188.829 50.6769 188.75 51.0089Z" fill="#F7F4F2"/>
<path d="M54.1577 148.9C52.8214 146.818 51.6765 144.621 50.4497 142.472C49.1319 142.362 47.8132 142.251 46.4945 142.141C46.2376 142.188 45.966 142.313 45.7257 142.271C43.8834 141.952 42.3381 141.018 40.8211 140.019C39.1683 138.931 37.5546 137.767 35.807 136.842C34.1787 135.982 32.9459 136.573 32.3959 138.287C31.9271 139.749 32.1889 141.146 33.2302 142.309C34.3281 143.536 34.9572 144.844 34.6954 146.522C34.5039 147.755 35.0881 148.723 36.0971 149.484C38.5841 151.361 41.3652 152.214 44.5193 151.854C44.8309 151.819 45.1494 151.849 45.4649 151.849C45.4903 151.964 45.5147 152.08 45.5401 152.195C44.4939 152.549 43.4478 152.904 42.2453 153.31C42.4846 153.658 42.6204 154.097 42.8578 154.157C44.0358 154.453 45.2334 154.717 46.4408 154.851C47.0601 154.92 47.7204 154.721 48.3524 154.597C49.8831 154.299 51.406 153.963 52.9367 153.667C53.4036 153.576 53.8871 153.563 54.3628 153.515C54.3882 153.658 54.4126 153.8 54.4371 153.944C52.5899 154.46 50.7427 154.974 48.8955 155.49C49.3185 155.793 49.7522 155.926 50.1937 155.951C52.6837 156.093 54.8854 155.197 57.0374 154.127C57.7065 153.795 57.7563 153.415 57.2845 152.847C56.211 151.555 55.0573 150.302 54.1577 148.9Z" fill="#F4731C"/>
<path d="M113.293 127.404C113.455 127.421 113.735 127.493 113.741 127.56C113.758 127.727 113.702 127.998 113.579 128.066C112.718 128.543 111.836 128.988 110.951 129.424C110.8 129.498 110.597 129.521 110.427 129.5C108.245 129.232 107.186 130.361 106.386 132.19C105.784 133.566 104.761 134.777 103.873 136.027C103.037 137.205 103.023 137.24 104.279 138.075C104.786 138.412 105.269 138.78 105.765 139.135C105.714 139.231 105.664 139.325 105.614 139.42C105.358 139.365 105.079 139.357 104.85 139.248C98.9512 136.454 92.8128 134.998 86.2065 136.043C85.6829 136.126 85.132 136.054 84.5938 136.054C84.5703 135.971 84.5479 135.889 84.5244 135.805C85.2287 135.457 85.933 135.109 86.6676 134.747C85.4856 132.362 84.67 129.946 84.5518 127.364C84.3212 122.293 86.3784 118.067 89.7055 114.288C93.7857 109.654 99.5275 110.633 103.746 114.084C105.298 115.353 106.592 116.912 108.069 118.272C109.091 119.213 110.184 120.095 111.324 120.899C111.9 121.306 111.826 121.625 111.45 121.996C110.964 122.477 110.418 122.902 109.907 123.641C110.812 123.789 111.714 124.04 112.622 124.055C113.526 124.071 114.435 123.852 115.494 123.717C114.799 125.341 113.553 126.319 111.895 127.312C112.536 127.351 112.916 127.362 113.293 127.404ZM83.6892 146.268C83.1481 146.462 82.562 146.57 82.0638 146.836C77.4307 149.308 73.0926 148.574 68.9343 145.753C67.7513 144.951 66.6475 144.019 65.1481 143.78C64.9752 143.751 64.8287 143.571 64.7984 143.549C65.5984 142.916 66.3769 142.299 67.1555 141.684C67.1985 141.72 67.2825 141.754 67.2815 141.787C67.2424 144.871 69.7831 145.786 72.0083 146.684C74.9115 147.855 77.9807 147.95 80.9619 146.703C81.5549 146.455 82.1312 146.143 82.6548 145.778C83.3044 145.325 83.7977 144.761 83.4147 143.878C83.3552 143.739 83.4548 143.536 83.4734 143.416C84.2734 144.08 85.0334 144.71 85.9223 145.447C85.1476 145.732 84.4209 146.006 83.6892 146.268ZM109.951 114.625C109.911 114.738 109.872 114.852 109.832 114.965C108.969 114.594 108.061 114.297 107.25 113.84C103.519 111.733 99.9026 109.312 95.3271 109.404C93.984 109.43 92.6477 109.791 91.1678 110.02C92.2335 109.269 93.3452 108.99 94.5232 108.928C99.3693 108.674 103.506 110.483 107.379 113.074C108.21 113.63 109.093 114.11 109.951 114.625ZM91.538 99.8423C97.527 98.0923 103.015 99.0164 107.857 102.935C108.253 103.255 108.368 103.903 108.614 104.4C108.116 104.237 107.573 104.15 107.128 103.899C103.554 101.879 99.8586 100.192 95.6329 100.017C93.9039 99.9454 92.2081 100.197 90.6384 100.986C90.3649 101.124 90.065 101.215 89.7778 101.327C89.6977 101.202 89.6186 101.077 89.5394 100.951C90.2037 100.573 90.822 100.051 91.538 99.8423ZM69.9023 99.2511C69.0828 98.954 68.2632 98.657 67.4436 98.3619C63.5764 96.9656 59.9699 97.4727 56.6067 99.7562C56.341 99.9369 56.088 100.161 55.7921 100.269C55.5068 100.372 55.1727 100.35 54.8602 100.383C54.9412 100.073 54.9207 99.6692 55.12 99.4677C56.2951 98.2777 57.6275 97.2882 59.3028 96.8389C62.4657 95.9894 65.5642 96.0499 68.4888 97.6391C69.0974 97.9702 69.5643 98.5454 70.0977 99.0089C70.0322 99.0893 69.9678 99.1697 69.9023 99.2511ZM59.9553 107.68C59.8654 107.519 59.7765 107.358 59.6876 107.196C60.2884 106.762 60.8286 106.175 61.5026 105.921C63.8489 105.037 66.1972 105.246 68.5133 106.277C65.4421 105.389 62.537 105.516 59.9553 107.68ZM120.694 146.699C120.193 144.246 119.346 141.955 117.79 139.936C117.224 139.201 117.101 138.5 117.478 137.55C118.463 135.065 119.423 132.551 120.103 129.977C120.818 127.272 121.236 124.49 121.713 121.73C122.174 119.056 122.224 116.356 121.917 113.661C121.419 109.298 119.92 105.3 117.021 101.882C113.325 97.5256 108.503 94.6263 103.343 92.2037C98.7841 90.063 94.0006 88.5741 89.0247 87.6281C86.1225 87.0757 83.2438 86.773 80.3055 87.3699C76.9657 88.0472 74.9437 90.3506 74.9076 93.6264C74.8812 96.0651 75.646 98.2975 76.7645 100.447C76.9325 100.769 76.9511 101.165 77.0908 101.743C76.5086 101.468 76.195 101.369 75.9381 101.191C73.0809 99.2132 70.1534 97.2872 68.0395 94.5137C66.9972 93.1468 66.1083 91.638 65.3737 90.0942C64.8599 89.0149 64.9215 88.8333 63.76 89.2788C62.2293 89.8653 60.6801 90.4546 59.249 91.2332C55.3261 93.3663 53.0745 96.7386 52.5324 100.982C52.2159 103.459 52.5109 106.015 52.6096 108.532C52.6672 110.012 52.7815 111.513 53.5756 112.843C53.8687 113.336 54.0494 114.052 54.9588 113.876C54.107 112.791 53.4555 111.67 53.4057 110.315C53.3988 110.115 53.5375 109.912 53.6088 109.709C53.8003 109.803 54.0426 109.854 54.1764 109.998C55.0038 110.888 55.9552 111.034 57.0678 110.559C58.6376 109.89 60.1936 109.18 61.8025 108.611C66.2705 107.033 69.3289 108.306 71.3656 112.439C73.0262 115.81 73.3486 119.339 72.6179 122.938C72.1744 125.124 71.4447 127.258 70.7902 129.399C70.3761 130.753 70.3917 130.844 71.7651 131.13C74.9672 131.797 77.5821 133.464 79.8982 135.63C80.0554 135.779 80.1316 136.009 80.2459 136.2C80.1795 136.258 80.1141 136.314 80.0486 136.371C79.7526 136.166 79.4547 135.962 79.1616 135.754C77.8771 134.84 76.6698 133.793 75.2944 133.033C71.6411 131.011 68.0229 131.032 64.5757 133.569C64.1468 133.885 63.7073 134.188 63.2726 134.496C63.1984 134.427 63.1251 134.358 63.0518 134.289C63.2374 134.045 63.3908 133.767 63.6155 133.562C64.3354 132.901 64.3383 132.639 63.51 132.118C61.1519 130.633 58.576 129.789 55.7549 129.666C55.4394 129.653 55.1288 129.555 54.5681 129.449C55.7041 128.792 55.7901 127.972 55.6885 127.074C55.5527 125.881 55.4902 124.677 55.3066 123.492C55.0506 121.835 54.7127 120.189 54.4098 118.538C54.2653 118.533 54.1207 118.529 53.9761 118.523C53.854 118.822 53.6723 119.111 53.6225 119.421C53.3441 121.119 53.1097 122.823 52.8372 124.522C52.4376 127.011 52.0537 129.48 50.4371 131.618C49.5472 132.796 49.2708 134.247 49.5873 135.731C49.8324 136.88 50.062 138.035 50.3765 139.167C52.3966 146.447 56.5169 152.335 62.916 156.664C68.3746 160.357 74.594 162.104 81.1006 162.818C88.9416 163.68 96.8256 163.801 104.702 163.195C108.047 162.936 111.256 162.246 114.223 160.521C118.821 157.85 121.736 151.789 120.694 146.699Z" fill="#F4731C"/>
<path d="M129.708 141.705C129.291 140.795 128.874 139.884 128.457 138.972C128.585 138.922 128.712 138.871 128.84 138.82C129.452 139.663 130.01 140.527 129.708 141.705ZM124.437 131.384C123.51 129.586 124.865 128.182 125.579 126.655C125.673 126.676 125.766 126.698 125.86 126.719C125.385 128.278 124.91 129.836 124.437 131.384ZM158.507 118.38C160.508 119.586 160.662 119.816 160.006 120.99C159.843 119.793 158.155 119.706 158.507 118.38ZM159.626 115.642C159.302 115.199 158.979 114.756 158.517 114.122C159.599 114.338 160.066 114.684 159.626 115.642ZM150.499 141.337C150.801 141.163 151.142 141.009 151.431 140.793C152.591 139.923 153.075 138.651 153.46 137.362C153.928 135.798 154.323 134.247 155.539 132.991C156.082 132.431 156.33 131.605 156.706 130.896C156.974 130.391 157.233 129.882 157.549 129.274C158.319 130.111 158.239 130.854 157.9 131.59C157.593 132.261 157.215 132.902 156.867 133.556C157.17 133.49 157.506 133.482 157.768 133.344C158.971 132.709 159.606 131.632 159.851 130.394C160.311 128.066 160.782 125.729 161.039 123.376C161.768 116.695 160.571 110.438 156.345 104.925C156.125 104.637 155.817 104.413 155.55 104.159C155.597 106.021 155.847 107.738 156.092 109.455C156.589 112.943 156.418 116.348 154.928 119.635C153.998 121.688 151.945 123.204 149.941 123.196C146.748 123.185 143.928 122.297 141.388 120.325C137.556 117.35 134.308 113.848 131.135 110.258C130.032 109.01 128.844 107.83 127.637 106.558C127.34 106.914 127.171 107.118 126.893 107.452C126.656 104.863 124.654 103.805 122.901 102.586C122.105 102.031 121.563 102.326 121.512 103.297C121.47 104.092 121.527 104.904 121.651 105.692C121.931 107.476 122.335 109.242 122.583 111.029C122.913 113.404 123.004 115.816 123.447 118.168C124.136 121.837 124.3 125.482 123.241 129.077C122.487 131.635 121.479 134.125 120.551 136.633C120.253 137.436 120.224 138.154 120.649 138.941C122.381 142.154 123.255 145.585 123.173 149.212C123.134 150.94 122.952 152.669 121.638 154.033C120.398 155.321 120.433 157.008 121.735 158.223C122.579 159.011 123.291 158.861 123.637 157.763C124.15 156.138 124.137 154.497 123.736 152.837C123.636 152.423 123.64 151.774 123.897 151.525C125.895 149.592 127.755 147.565 129.212 145.206C129.367 144.954 129.798 144.863 130.1 144.698C130.141 145.009 130.263 145.334 130.206 145.627C130.005 146.662 130.448 147.209 131.476 146.903C132.651 146.554 133.777 146.025 134.892 145.51C135.607 145.18 136.266 144.736 137.165 144.22C137.094 144.716 137.123 144.983 137.017 145.184C136.456 146.238 136.583 147.295 137.207 148.213C137.883 149.209 138.696 150.137 139.563 150.983C139.882 151.294 140.58 151.489 141.018 151.387C142.682 150.998 144.124 150.265 144.631 148.469C144.744 148.071 145 147.71 145.19 147.333C145.284 147.365 145.379 147.398 145.472 147.43C145.445 147.862 145.419 148.293 145.391 148.727C147.501 148.636 154.933 141.65 155.335 139.233C154.818 139.616 154.361 139.837 154.071 140.188C153.023 141.455 151.413 141.588 150.014 142.125C149.519 142.315 149.187 142.077 149.335 141.421C149.476 140.792 149.456 140.129 149.518 139.319C150.846 139.416 149.965 140.719 150.499 141.337Z" fill="#F4731C"/>
<path d="M156.933 133.553C156.933 133.553 156.933 133.551 156.934 133.549C156.933 133.55 156.932 133.55 156.93 133.55L156.933 133.553Z" fill="#E78C3B"/>
<path d="M79.1864 85.4272C79.3066 86.131 79.7637 86.5878 80.7034 86.5178C84.0374 86.271 87.3849 85.8841 90.7149 85.9796C94.5754 86.0912 98.427 86.6172 102.275 87.0362C105.493 87.3872 108.551 88.3776 111.505 89.6149C115.948 91.4756 119.878 94.129 123.003 97.7009C126.317 101.488 129.377 105.483 132.539 109.395C135.37 112.896 138.549 116.038 142.529 118.599C142.465 118.225 142.429 117.963 142.375 117.704C142.063 116.195 141.565 114.697 141.479 113.177C141.378 111.394 140.703 110.687 138.559 110.484C137.892 110.421 137.213 110.474 136.409 110.474C136.516 110.187 136.58 109.985 136.666 109.793C137.017 109.013 137.427 108.253 137.716 107.453C138.103 106.382 137.671 105.367 136.581 104.996C135.793 104.727 134.919 104.653 134.076 104.591C133.179 104.525 132.271 104.576 131.202 104.576C131.402 104.14 131.513 103.829 131.677 103.547C132.011 102.976 132.401 102.434 132.718 101.856C133.524 100.39 133.156 99.0583 131.572 98.4699C129.935 97.8617 128.205 97.4748 126.5 97.052C125.365 96.7701 124.201 96.597 123.052 96.368C122.496 96.2564 122.521 96.0152 122.784 95.5744C123.413 94.5149 124.096 93.4602 124.525 92.3222C125.426 89.9289 124.858 87.8573 121.852 86.9861C119.451 86.2899 117.054 86.4734 114.648 86.9019C113.812 87.0514 112.981 87.2273 112.147 87.391C112.105 87.2907 112.064 87.1904 112.023 87.0901C112.428 86.8092 112.857 86.5557 113.233 86.2435C115.881 84.0442 115.842 79.5358 113.155 77.0347C111.609 75.5978 109.699 74.8798 107.633 74.5497C104.246 74.0086 100.902 74.2498 97.6465 75.3102C96.5114 75.6801 96.2907 76.1597 96.363 77.3156C96.3757 77.5143 96.15 77.7281 96.0347 77.9343C95.9224 77.905 95.8101 77.8766 95.6968 77.8473C95.5278 77.0394 95.3891 76.224 95.1839 75.4247C94.7307 73.6538 94.3956 71.8348 93.7294 70.1396C93.032 68.3641 91.5208 67.5808 89.489 67.6603C86.9034 67.7606 84.8559 68.9033 83.1123 70.5994C80.1213 73.5072 78.3317 76.9249 78.7156 81.1656C78.8445 82.5893 78.9461 84.0196 79.1864 85.4272Z" fill="#F4731C"/>
<path d="M139.433 152.152C138.422 150.856 137.309 149.612 136.096 148.494C135.142 147.615 134.438 147.751 133.28 148.359C132.571 148.731 131.752 148.906 130.981 149.168C130.289 149.403 129.548 149.548 128.915 149.885C126.486 151.176 125.658 153.446 125.082 155.882C124.378 158.856 123.732 161.854 122.812 164.768C122.188 166.74 121.244 168.64 120.252 170.475C118.303 174.085 115.711 177.269 112.918 180.302C111.762 181.558 111.879 182.867 113.209 183.942C114.679 185.131 116.305 185.283 118.105 184.757C119.976 184.211 121.288 182.956 122.598 181.676C123.369 180.921 124.161 180.506 125.218 181.227C125.541 181.448 125.981 181.509 126.37 181.635C128.471 182.315 130.483 182.322 132.344 180.954C134.206 179.584 135.204 177.674 135.732 175.565C136.227 173.589 136.46 171.551 136.836 169.546C136.875 169.339 137.106 169.165 137.247 168.974C137.36 169.182 137.576 169.393 137.566 169.593C137.523 170.449 137.472 171.313 137.314 172.155C137.037 173.63 136.679 175.093 136.354 176.56C136.451 176.623 136.547 176.686 136.644 176.748C137.36 176.012 138.106 175.3 138.787 174.534C140.854 172.209 142.251 169.635 141.837 166.428C141.827 166.343 141.806 166.249 141.829 166.171C141.912 165.893 142.011 165.621 142.105 165.347C142.263 165.613 142.525 165.868 142.56 166.148C142.637 166.77 142.667 167.412 142.594 168.032C142.461 169.188 142.241 170.334 142.025 171.678C142.598 171.178 143.111 170.831 143.494 170.38C145.399 168.14 145.422 165.542 144.819 162.899C143.907 158.914 141.955 155.383 139.433 152.152Z" fill="#F4731C"/>
<path d="M66.1439 109.506C66.3754 109.385 66.5835 109.223 67.0534 108.917C66.3325 108.754 65.9163 108.598 65.4934 108.576C63.3756 108.469 61.5177 109.064 60.0417 110.595C58.1633 112.541 57.1825 114.919 56.5671 117.46C55.7798 120.712 55.5444 123.975 56.4059 127.258C56.6677 128.253 57.2577 128.888 58.258 129.28C60.0046 129.966 61.7384 130.695 63.4303 131.498C65.3566 132.412 68.3115 131.785 69.4935 130.057C70.6119 128.422 70.9128 126.519 71.3328 124.579C68.3222 126.072 65.7952 125.363 65.2404 122.899C65.6311 122.899 66.013 122.921 66.3911 122.894C67.2057 122.836 67.489 122.324 67.0719 121.658C66.6656 121.01 66.0726 120.669 65.2765 120.84C64.4911 121.01 64.1834 120.72 64.2352 119.968C64.286 119.225 64.2587 118.474 64.3563 117.737C64.5644 116.165 64.4501 116.011 62.7797 115.954C62.6615 115.951 62.5433 115.949 62.4242 115.945C61.4219 115.916 61.2539 115.708 61.588 114.791C62.4271 112.485 63.8953 110.679 66.1439 109.506Z" fill="white"/>
<path d="M75.3503 99.7164C75.111 98.9284 74.8775 98.1395 74.6324 97.3534C73.2492 92.9197 74.1635 90.043 77.8061 87.1494C78.1274 86.894 78.3697 86.3406 78.3609 85.931C78.3199 84.0703 78.1489 82.2125 78.0796 80.3518C78.0239 78.8524 77.3802 78.1382 75.8202 78.3501C74.3803 78.5459 72.921 78.878 71.5768 79.4058C68.5418 80.5968 66.0236 84.4733 66.2307 87.629C66.6136 93.4598 70.4076 96.9826 75.3503 99.7164Z" fill="#F4731C"/>
<path d="M171.448 130.824C166.265 130.607 161.674 132.496 157.23 134.812C156.809 135.032 156.419 135.309 156.016 135.559C156.067 135.662 156.12 135.763 156.172 135.864C156.733 135.721 157.31 135.624 157.851 135.429C160.058 134.632 162.341 134.29 164.658 134.63C166.376 134.881 168.053 135.389 169.746 135.792C171.33 136.17 172.914 136.541 174.55 136.092C176.558 135.54 177.01 134.057 175.727 132.452C174.619 131.065 173.008 130.889 171.448 130.824Z" fill="#F4731C"/>
<path d="M167.587 141.82C166.187 140.898 164.68 140.13 163.298 139.188C161.807 138.171 160.121 137.903 158.557 137.677C158.126 137.7 157.844 137.664 157.599 137.74C157.143 137.879 156.708 138.083 156.266 138.26C156.552 138.603 156.812 138.972 157.131 139.284C158.25 140.375 159.513 141.352 160.485 142.552C161.496 143.801 162.164 145.306 163.127 146.597C163.464 147.048 164.3 147.521 164.789 147.424C166.189 147.144 167.397 146.383 168.222 145.189C169.189 143.79 169.024 142.765 167.587 141.82Z" fill="#F4731C"/>
<path d="M171.754 137.29C171.003 137.001 170.184 136.877 169.406 136.649C166.856 135.903 164.3 135.195 161.591 135.411C159.766 135.558 158.013 135.948 156.375 136.891C156.493 136.977 156.534 137.032 156.575 137.033C156.87 137.037 157.168 137.052 157.461 137.024C159.761 136.814 161.951 137.141 163.935 138.338C164.885 138.91 165.786 139.562 166.694 140.197C167.926 141.057 169.166 141.88 170.784 141.842C171.983 141.814 172.879 141.143 173.088 140.094C173.325 138.91 172.793 137.69 171.754 137.29Z" fill="#F4731C"/>
<path d="M72.0436 115.997C72.1051 115.017 70.9163 113.931 69.8213 113.933C68.9929 113.934 68.3277 114.442 68.3053 115.091C68.274 116.027 69.538 117.061 70.7297 117.076C71.5014 117.098 71.9947 116.773 72.0436 115.997Z" fill="white"/>
<path d="M69.6238 119.333C69.7293 119.629 70.1239 119.829 70.3974 120.069C70.6231 119.814 71.0021 119.572 71.0285 119.298C71.05 119.073 70.6553 118.809 70.2831 118.374C69.9549 118.828 69.5613 119.156 69.6238 119.333Z" fill="white"/>
<path d="M117.18 98.8701C117.36 99.7091 117.523 100.457 117.684 101.207C118.275 100.067 118.086 99.3544 117.18 98.8701Z" fill="#F4731C"/>
<path d="M116.656 96.6886C117.411 95.9734 117.415 95.3188 116.656 94.6491V96.6886Z" fill="#F4731C"/>
<path d="M98.8803 129.168C97.4463 127.466 96.995 125.499 97.207 123.361C97.3535 121.885 97.374 121.887 95.9948 121.329C94.2179 120.61 94.0831 120.228 95.0365 118.552C95.1928 118.277 95.3745 118.013 95.5601 117.755C96.7049 116.157 98.1741 114.958 100.339 114.33C99.9548 114.102 99.7917 113.988 99.6129 113.904C96.404 112.379 92.3922 113.139 89.5565 115.804C85.0436 120.046 83.8167 128.548 86.9308 133.897C87.5306 134.926 88.4859 135.3 89.6102 135.255C93.2567 135.105 96.8231 135.502 100.314 136.548C101.535 136.913 102.573 136.506 103.317 135.572C105.13 133.299 105.349 130.557 105.646 127.841C105.339 128.138 105.109 128.463 104.896 128.798C103.301 131.309 100.811 131.459 98.8803 129.168Z" fill="white"/>
<path d="M98.8281 126.269C99.1505 127.069 99.3107 127.753 99.6887 128.293C99.9007 128.597 100.516 128.855 100.873 128.782C101.216 128.711 101.674 128.205 101.704 127.86C101.761 127.206 101.637 126.502 101.422 125.872C101.198 125.215 100.626 124.649 99.8792 124.966C99.4298 125.157 99.1866 125.8 98.8281 126.269Z" fill="white"/>
<path d="M104.014 120.09C103.242 120.096 102.871 120.515 102.867 121.221C102.862 122.011 104.209 123.255 105.053 123.172C105.335 123.144 105.577 122.743 105.692 122.641C105.679 121.122 104.913 120.084 104.014 120.09Z" fill="white"/>
<path d="M103.964 125.083C103.714 125.308 103.302 125.508 103.261 125.766C103.221 126.011 103.566 126.316 103.874 126.806C104.248 126.355 104.646 126.081 104.623 125.848C104.594 125.574 104.2 125.336 103.964 125.083Z" fill="white"/>
<path d="M91.1541 120.511C97.462 115.841 100.672 112.983 106.311 107.836C100.834 107.251 96.3171 106.401 82.1453 102.715C64.9376 97.4729 58.2574 96.938 50.1149 99.0017L35.5297 111.42C33.632 113.142 32.4784 114.015 32.3828 116.03H33.3837C35.0952 112.029 38.0071 110.374 42.4966 110.594C48.8766 110.906 58.4429 115.004 72.2782 121.535C80.2651 124.592 84.3983 124.569 91.1541 120.511Z" fill="#FF0000"/>
<path d="M33.3837 116.03H32.3828C32.5875 116.467 32.7319 116.658 33.1397 116.721C37.6606 115.062 39.3075 113.387 42.4966 110.594C38.0071 110.374 35.0952 112.029 33.3837 116.03Z" fill="#FF0000"/>
<path d="M50.1149 99.0017C58.2574 96.938 64.9376 97.4729 82.1453 102.715C96.3171 106.401 100.834 107.251 106.311 107.836C111.451 107.515 114.447 107.674 119.974 108.369C122.386 109.791 122.918 110.082 123.436 109.91C123.211 108.237 123.239 107.462 123.436 106.237C124.018 102.556 124.331 100.693 124.88 97.4245L124.9 97.3053C125.055 91.8384 124.437 88.3893 122.063 81.6539C117.406 71.7334 111.311 68.3229 96.071 64.9373C94.0141 64.635 92.2605 64.4905 90.4907 64.4643C88.0273 64.428 85.5327 64.6211 82.1453 64.9373C77.1604 65.5761 74.4672 66.1874 69.7127 67.8873C58.747 71.6796 56.7123 75.0626 54.8861 81.6539C54.6443 82.7418 54.1309 84.2524 53.7878 88.6192C52.8464 93.6179 51.9379 95.7058 50.1149 99.0017Z" fill="#FF0000"/>
<path d="M96.071 64.9373C96.2113 63.0771 95.8327 62.5478 93.6061 62.5479C91.3794 62.5479 90.5726 62.8878 90.4907 64.4643C92.2605 64.4905 94.0141 64.635 96.071 64.9373Z" fill="#FF0000"/>
<path d="M106.311 107.836C100.672 112.983 97.462 115.841 91.1541 120.511C84.3983 124.569 80.2651 124.592 72.2782 121.535C58.4429 115.004 48.8766 110.906 42.4966 110.594M106.311 107.836C100.834 107.251 96.3171 106.401 82.1453 102.715C64.9376 97.4729 58.2574 96.938 50.1149 99.0017M106.311 107.836C111.451 107.515 114.447 107.674 119.974 108.369C122.386 109.791 122.918 110.082 123.436 109.91C123.211 108.238 123.239 107.462 123.436 106.237C124.018 102.556 124.331 100.693 124.88 97.4245M32.3828 116.03H33.3837C35.0952 112.029 38.0071 110.374 42.4966 110.594M32.3828 116.03C32.4784 114.015 33.632 113.142 35.5297 111.42L50.1149 99.0017M32.3828 116.03C32.5875 116.467 32.7319 116.658 33.1397 116.721C37.6606 115.062 39.3075 113.387 42.4966 110.594M50.1149 99.0017C51.9379 95.7058 52.8464 93.6179 53.7878 88.6192C54.1309 84.2524 54.6443 82.7418 54.8861 81.6539C56.7123 75.0626 58.747 71.6796 69.7127 67.8873C74.4672 66.1874 77.1604 65.5761 82.1453 64.9373C85.5327 64.6211 88.0273 64.428 90.4907 64.4643M96.071 64.9373C111.311 68.3229 117.406 71.7334 122.063 81.6539C124.437 88.3893 125.055 91.8384 124.901 97.3053M96.071 64.9373C96.2113 63.0771 95.8327 62.5478 93.6061 62.5479C91.3794 62.5479 90.5726 62.8878 90.4907 64.4643M96.071 64.9373C94.0141 64.635 92.2605 64.4905 90.4907 64.4643M124.901 97.3053L124.88 97.4245M124.901 97.3053C124.894 97.3452 124.887 97.385 124.88 97.4245" stroke="black"/>
<path d="M73.0164 88.2468C72.7077 87.3123 72.3576 86.3822 71.9658 85.4563C71.5738 84.5304 71.1366 83.6457 70.6541 82.8019L69.6664 87.7049L68.0078 87.4366L69.5155 79.9524L70.8835 80.1737C71.0726 80.4496 71.2757 80.7836 71.4935 81.1758C71.7109 81.5678 71.9293 81.9841 72.1483 82.4246C72.3672 82.8653 72.5814 83.3199 72.7911 83.7887C73.0006 84.2576 73.1955 84.7073 73.3757 85.1378L74.2655 80.7208L75.9349 80.9908L74.4272 88.4751L73.0164 88.2468Z" fill="white"/>
<path d="M76.3359 88.871L77.8371 81.4043L82.8619 82.2185L82.5781 83.63L79.2283 83.0872L78.9337 84.5525L81.9076 85.0344L81.6303 86.4135L78.6564 85.9316L78.2947 87.7309L81.8914 88.3137L81.6076 89.7252L76.3359 88.871Z" fill="white"/>
<path d="M86.4939 82.8855C86.576 83.145 86.6665 83.4638 86.7659 83.8417C86.8649 84.2198 86.9656 84.6278 87.0676 85.0659C87.1698 85.5041 87.268 85.9509 87.3628 86.4064C87.4576 86.8621 87.5466 87.2907 87.63 87.692C87.8647 87.3421 88.1155 86.9685 88.3822 86.5712C88.6488 86.1741 88.9153 85.7863 89.1821 85.4078C89.4487 85.0293 89.7023 84.6786 89.9429 84.3553C90.1834 84.0324 90.3928 83.7621 90.5711 83.5447L92.1067 83.7929C92.0781 84.3032 92.0324 84.8723 91.969 85.5001C91.9058 86.1278 91.8302 86.7799 91.7425 87.4558C91.6545 88.1319 91.5626 88.8092 91.4668 89.4877C91.3708 90.166 91.2777 90.8042 91.1872 91.4013L89.5432 91.1355C89.6689 90.4022 89.8002 89.6026 89.9376 88.7368C90.0747 87.8709 90.1955 86.995 90.2998 86.1088C90.1082 86.3914 89.8958 86.7039 89.6626 87.0468C89.4291 87.3897 89.1976 87.7328 88.9678 88.0763C88.738 88.4196 88.5169 88.7477 88.3046 89.0604C88.0922 89.3731 87.9112 89.6404 87.762 89.8625L86.5832 89.6719C86.5299 89.417 86.465 89.11 86.3881 88.7506C86.3112 88.3911 86.2319 88.0145 86.1508 87.6209C86.0696 87.2271 85.9865 86.8332 85.9018 86.4388C85.817 86.0445 85.7401 85.6852 85.6712 85.3605C85.4227 86.2234 85.194 87.0818 84.9845 87.936C84.775 88.7902 84.586 89.5805 84.4172 90.3068L82.7734 90.0411C82.9216 89.4533 83.0834 88.8262 83.2586 88.1607C83.4337 87.495 83.612 86.8316 83.7937 86.1707C83.9752 85.51 84.159 84.8754 84.3448 84.2675C84.5306 83.6595 84.7098 83.112 84.8826 82.625L86.4939 82.8855Z" fill="white"/>
<path d="M95.0084 88.2576C94.9343 88.6252 94.9122 88.9643 94.9427 89.2744C94.9728 89.5846 95.0512 89.8597 95.1774 90.0995C95.3035 90.3396 95.4771 90.5372 95.6986 90.692C95.9198 90.8468 96.1886 90.9498 96.5053 91.001C96.8144 91.051 97.1049 91.0384 97.3761 90.9633C97.6475 90.8881 97.8891 90.7577 98.1012 90.5722C98.3129 90.3871 98.4935 90.1538 98.6432 89.8727C98.7925 89.5917 98.9046 89.2672 98.9787 88.8995C99.0528 88.5318 99.0748 88.1912 99.0454 87.8773C99.0156 87.5636 98.9378 87.2867 98.8118 87.0468C98.6854 86.8068 98.51 86.6089 98.2851 86.4534C98.0604 86.298 97.7931 86.1951 97.484 86.1452C97.1673 86.094 96.8749 86.1082 96.6065 86.1876C96.3378 86.267 96.0977 86.3996 95.8858 86.5847C95.6739 86.7702 95.4927 87.0052 95.3427 87.2899C95.1923 87.5746 95.0811 87.8971 95.0084 88.2576ZM100.716 89.1804C100.586 89.8222 100.377 90.3708 100.089 90.8266C99.7997 91.2824 99.4568 91.6477 99.06 91.9222C98.6629 92.1969 98.2193 92.3801 97.7293 92.472C97.2392 92.564 96.7315 92.5675 96.2067 92.4826C95.6958 92.4 95.2308 92.2392 94.811 92.0001C94.3912 91.7612 94.0454 91.4503 93.7737 91.0675C93.5016 90.6849 93.3177 90.2344 93.2215 89.7163C93.1255 89.1983 93.1419 88.6185 93.2713 87.9767C93.4006 87.3351 93.6151 86.7871 93.9146 86.3332C94.214 85.8789 94.568 85.5138 94.9765 85.2374C95.3849 84.9609 95.8307 84.7762 96.3136 84.6829C96.7966 84.5899 97.2862 84.5834 97.7826 84.6637C98.2932 84.7462 98.7585 84.9071 99.1781 85.146C99.5979 85.3853 99.943 85.6979 100.214 86.0843C100.486 86.4706 100.669 86.9226 100.765 87.4408C100.861 87.9587 100.845 88.5387 100.716 89.1804Z" fill="white"/>
<path d="M67.8637 91.6119C68.1571 91.6594 68.3239 91.5824 68.3643 91.3809C68.3768 91.3189 68.3743 91.2639 68.357 91.2162C68.3397 91.1683 68.3121 91.1249 68.2742 91.0857C68.2361 91.0466 68.191 91.0106 68.1388 90.9782C68.0865 90.9458 68.0309 90.9128 67.9718 90.8792C67.9035 90.842 67.8398 90.8022 67.7805 90.7596C67.7215 90.717 67.6721 90.67 67.6326 90.6186C67.5932 90.5672 67.5654 90.5092 67.5496 90.4446C67.5336 90.38 67.5341 90.3051 67.5512 90.2199C67.5866 90.0434 67.674 89.9155 67.8134 89.8362C67.9529 89.7567 68.1277 89.734 68.338 89.7681C68.4598 89.7878 68.5675 89.8188 68.6616 89.8611C68.7558 89.9034 68.8229 89.9438 68.8631 89.9823L68.7272 90.1974C68.6917 90.1655 68.6364 90.1312 68.5612 90.0939C68.4859 90.0567 68.3953 90.0295 68.2891 90.0122C68.2351 90.0035 68.1838 90.0012 68.1351 90.0054C68.0865 90.0094 68.0425 90.0202 68.003 90.038C67.9636 90.0555 67.9302 90.0807 67.9028 90.1132C67.8753 90.1458 67.8568 90.1864 67.8471 90.2347C67.8363 90.289 67.8377 90.3362 67.8515 90.3765C67.8653 90.4168 67.8886 90.4541 67.9216 90.4884C67.9546 90.5228 67.9944 90.5557 68.0409 90.5872C68.0874 90.6187 68.1391 90.6512 68.1962 90.6844C68.276 90.7334 68.3486 90.7812 68.414 90.8278C68.4793 90.8744 68.5338 90.9262 68.577 90.9832C68.6204 91.0403 68.6498 91.1046 68.6654 91.1761C68.6811 91.2476 68.6793 91.3309 68.6603 91.4258C68.6249 91.6022 68.5334 91.7274 68.3861 91.8015C68.2386 91.8757 68.0482 91.8938 67.8148 91.856C67.7356 91.8432 67.6639 91.826 67.5995 91.8046C67.5351 91.7832 67.4782 91.7609 67.4289 91.738C67.3798 91.715 67.338 91.6921 67.3039 91.6698C67.2694 91.6472 67.2427 91.6281 67.2239 91.6132L67.3545 91.3943C67.3937 91.4267 67.4558 91.4657 67.5403 91.5114C67.6247 91.5572 67.7325 91.5906 67.8637 91.6119Z" fill="white"/>
<path d="M69.8612 90.3181C69.7414 90.2987 69.649 90.2867 69.584 90.2822L69.425 91.0733L69.6366 91.1076C69.7333 91.1233 69.8214 91.1311 69.9012 91.131C69.9811 91.1309 70.0505 91.1202 70.1097 91.0987C70.169 91.0773 70.2182 91.0428 70.2579 90.9952C70.2972 90.9474 70.3252 90.8829 70.3415 90.8015C70.3571 90.7238 70.355 90.6574 70.3352 90.6022C70.3154 90.5468 70.2829 90.5001 70.2377 90.4617C70.1927 90.4234 70.1374 90.3929 70.0721 90.3703C70.0068 90.3478 69.9366 90.3304 69.8612 90.3181ZM69.8877 90.0671C70.1697 90.1128 70.3757 90.2017 70.5059 90.3341C70.6359 90.4661 70.6795 90.639 70.6366 90.8523C70.6133 90.9686 70.5725 91.0646 70.5144 91.1403C70.4562 91.216 70.383 91.2733 70.2943 91.3118C70.2057 91.3506 70.1031 91.3725 69.9864 91.3776C69.8697 91.3826 69.7407 91.3738 69.5997 91.351L69.3765 91.3148L69.2262 92.0623L68.9453 92.0167L69.3446 90.0301C69.4275 90.0236 69.5187 90.0249 69.6176 90.0338C69.7165 90.0429 69.8065 90.0539 69.8877 90.0671Z" fill="white"/>
<path d="M71.1504 91.3602C71.1257 91.4827 71.1187 91.5966 71.1296 91.7018C71.1405 91.8069 71.1676 91.8992 71.2107 91.9785C71.2538 92.0578 71.3126 92.1231 71.3876 92.1743C71.4623 92.2255 71.5512 92.2594 71.6541 92.2761C71.7568 92.2927 71.853 92.2887 71.9421 92.264C72.0312 92.2393 72.1115 92.1965 72.1828 92.1357C72.2542 92.0749 72.3154 91.9969 72.3666 91.9018C72.4179 91.8067 72.4558 91.6978 72.4805 91.5753C72.5051 91.4527 72.5121 91.3388 72.5013 91.2337C72.4904 91.1285 72.4635 91.0363 72.4203 90.957C72.3773 90.8777 72.3187 90.8126 72.2449 90.7614C72.1711 90.7104 72.0825 90.6765 71.9798 90.6599C71.8769 90.6432 71.7804 90.6472 71.6904 90.6718C71.6001 90.6964 71.5195 90.739 71.4483 90.7998C71.3769 90.8606 71.3155 90.9385 71.2642 91.0337C71.213 91.1288 71.1751 91.2377 71.1504 91.3602ZM70.8535 91.3122C70.8883 91.1391 70.9449 90.9906 71.023 90.8666C71.1011 90.7427 71.1931 90.6437 71.2993 90.5694C71.4053 90.4951 71.5218 90.4452 71.648 90.4195C71.7745 90.3937 71.9036 90.3914 72.0356 90.4128C72.1657 90.4338 72.2838 90.476 72.3903 90.5395C72.4968 90.6028 72.5846 90.6858 72.654 90.7885C72.7236 90.8912 72.7707 91.0127 72.7955 91.1532C72.8203 91.2938 72.8153 91.4507 72.7804 91.6238C72.7455 91.797 72.689 91.9454 72.6109 92.0694C72.5328 92.1934 72.4412 92.2925 72.336 92.3668C72.2308 92.4412 72.1162 92.4915 71.9917 92.5176C71.8672 92.5436 71.74 92.5461 71.6099 92.5251C71.478 92.5038 71.3578 92.4612 71.2494 92.3976C71.1412 92.3338 71.0515 92.2505 70.9812 92.1477C70.9107 92.045 70.8632 91.9234 70.8384 91.7828C70.8136 91.6421 70.8186 91.4854 70.8535 91.3122Z" fill="white"/>
<path d="M73.9875 91.0361C73.8676 91.0166 73.7751 91.0046 73.71 91.0001L73.5572 91.7599L73.7574 91.7924C73.8541 91.808 73.9423 91.8173 74.0215 91.8201C74.1008 91.8229 74.1699 91.815 74.2286 91.7965C74.2871 91.7779 74.3361 91.7464 74.3749 91.7015C74.414 91.6567 74.4417 91.5935 74.4581 91.5121C74.4734 91.4363 74.4715 91.371 74.4525 91.3157C74.4338 91.2606 74.4026 91.2145 74.3591 91.1774C74.3157 91.1403 74.2617 91.1105 74.1973 91.088C74.1329 91.0656 74.063 91.0483 73.9875 91.0361ZM74.2238 92.0513C74.2469 92.0952 74.2757 92.1523 74.3106 92.223C74.3451 92.2939 74.38 92.3717 74.4149 92.4565C74.4498 92.5413 74.4834 92.6295 74.516 92.7209C74.5486 92.8123 74.5744 92.8996 74.5936 92.9828L74.286 92.933C74.2621 92.8531 74.2351 92.7716 74.2049 92.6885C74.1747 92.6055 74.1433 92.5257 74.1107 92.4492C74.0782 92.3728 74.0451 92.3009 74.0117 92.2334C73.9784 92.1658 73.948 92.1068 73.9202 92.0562C73.8946 92.0541 73.8689 92.051 73.8425 92.0467L73.7628 92.0338L73.5103 91.9929L73.3516 92.7817L73.0703 92.7361L73.4704 90.7478C73.5533 90.7413 73.6446 90.7426 73.7437 90.7515C73.8427 90.7606 73.9328 90.7716 74.0141 90.7848C74.2965 90.8305 74.5011 90.9188 74.6276 91.0496C74.754 91.1802 74.796 91.3513 74.7535 91.5628C74.7265 91.6968 74.6682 91.8057 74.5785 91.8892C74.4886 91.9729 74.3704 92.0269 74.2238 92.0513Z" fill="white"/>
<path d="M76.6716 91.26L76.6224 91.5045L75.9898 91.4021L75.633 93.1749L75.3514 93.1293L75.7082 91.3565L75.0755 91.2541L75.1247 91.0096L76.6716 91.26Z" fill="white"/>
<path d="M76.9395 92.3687C76.9148 92.4912 76.9078 92.6051 76.9187 92.7103C76.9295 92.8154 76.9566 92.9077 76.9998 92.987C77.0428 93.0663 77.1017 93.1315 77.1767 93.1828C77.2514 93.234 77.3403 93.2679 77.4432 93.2846C77.5459 93.3012 77.6421 93.2972 77.7312 93.2725C77.8202 93.2477 77.9006 93.205 77.9718 93.1442C78.0432 93.0834 78.1045 93.0054 78.1557 92.9103C78.2069 92.8152 78.2448 92.7063 78.2695 92.5838C78.2942 92.4612 78.3012 92.3473 78.2903 92.2422C78.2795 92.137 78.2525 92.0448 78.2094 91.9655C78.1663 91.8862 78.1077 91.8211 78.034 91.7699C77.9602 91.7189 77.8716 91.685 77.7689 91.6684C77.666 91.6517 77.5695 91.6557 77.4795 91.6803C77.3892 91.7049 77.3086 91.7475 77.2373 91.8083C77.1659 91.8691 77.1045 91.947 77.0533 92.0421C77.0021 92.1372 76.9642 92.2462 76.9395 92.3687ZM76.6425 92.3207C76.6774 92.1476 76.734 91.999 76.8121 91.8751C76.8902 91.7512 76.9821 91.6521 77.0883 91.5779C77.1944 91.5036 77.3108 91.4536 77.4371 91.428C77.5636 91.4021 77.6927 91.3999 77.8247 91.4212C77.9547 91.4423 78.0729 91.4845 78.1793 91.548C78.2858 91.6113 78.3737 91.6943 78.4431 91.797C78.5127 91.8997 78.5597 92.0212 78.5846 92.1617C78.6093 92.3023 78.6043 92.4592 78.5695 92.6323C78.5346 92.8055 78.478 92.9539 78.3999 93.0779C78.3218 93.2019 78.2303 93.301 78.125 93.3753C78.0199 93.4497 77.9052 93.4999 77.7807 93.5261C77.6562 93.552 77.529 93.5546 77.399 93.5336C77.267 93.5122 77.1469 93.4697 77.0385 93.406C76.9302 93.3423 76.8406 93.259 76.7703 93.1562C76.6997 93.0535 76.6522 92.9319 76.6275 92.7913C76.6027 92.6506 76.6076 92.4939 76.6425 92.3207Z" fill="white"/>
<path d="M80.1728 92.5503C80.0382 92.799 79.9063 93.0278 79.7777 93.2369C79.649 93.4462 79.5215 93.6496 79.395 93.8472L79.1114 93.8013C79.0683 93.4855 79.0407 93.1552 79.0289 92.8103C79.0169 92.4652 79.016 92.0918 79.0265 91.6898L79.3249 91.738C79.3214 91.895 79.3191 92.0519 79.3176 92.209C79.3159 92.3663 79.3164 92.5192 79.3186 92.6679C79.3209 92.8165 79.3244 92.959 79.3292 93.0948C79.334 93.2309 79.3417 93.3572 79.3526 93.4741C79.4718 93.2814 79.6001 93.0696 79.7372 92.8384C79.8743 92.6074 80.0072 92.3672 80.1361 92.1176L80.3819 92.1573C80.405 92.4315 80.4368 92.6984 80.4771 92.9581C80.5173 93.2179 80.5557 93.4567 80.5924 93.6746C80.6457 93.5701 80.7009 93.455 80.7586 93.3291C80.8161 93.2032 80.8745 93.0709 80.9337 92.9321C80.9929 92.7933 81.0524 92.6496 81.1127 92.5009C81.1728 92.3523 81.2318 92.204 81.29 92.0559L81.5794 92.1027C81.4304 92.4823 81.283 92.8317 81.1371 93.1512C80.9912 93.4706 80.8375 93.7716 80.676 94.0544L80.3923 94.0085C80.3491 93.7834 80.3088 93.5529 80.2719 93.3169C80.235 93.081 80.2018 92.8254 80.1728 92.5503Z" fill="white"/>
<path d="M82.7192 93.6355C82.691 93.4561 82.6625 93.2823 82.6333 93.1138C82.6042 92.9454 82.5713 92.7828 82.5348 92.6262C82.4374 92.7611 82.3421 92.903 82.2491 93.0517C82.1559 93.2004 82.0623 93.3544 81.968 93.514L82.7192 93.6355ZM82.833 94.4283C82.8175 94.3354 82.8039 94.2442 82.7918 94.155C82.7798 94.0656 82.767 93.9747 82.7536 93.882L81.8395 93.7342L81.5519 94.2211L81.2578 94.1736C81.3787 93.9721 81.4913 93.786 81.5959 93.615C81.7004 93.4442 81.8017 93.2823 81.8997 93.1293C81.9976 92.9764 82.0938 92.8307 82.1878 92.6922C82.2817 92.5537 82.3784 92.4171 82.4777 92.2825L82.7369 92.3244C82.7773 92.4816 82.8146 92.6398 82.8485 92.799C82.8826 92.9583 82.9158 93.1248 82.9478 93.2988C82.9798 93.4728 83.0115 93.6562 83.0428 93.849C83.0741 94.0419 83.107 94.2516 83.1416 94.4782L82.833 94.4283Z" fill="white"/>
<path d="M85.0643 92.972C84.9445 92.9526 84.8521 92.9406 84.7871 92.9361L84.6281 93.7272L84.8397 93.7615C84.9364 93.7771 85.0245 93.7849 85.1043 93.7848C85.1842 93.7848 85.2536 93.774 85.3128 93.7525C85.3721 93.7312 85.4213 93.6966 85.461 93.649C85.5003 93.6012 85.5283 93.5367 85.5446 93.4553C85.5602 93.3777 85.5581 93.3113 85.5383 93.2561C85.5185 93.2007 85.486 93.1539 85.4408 93.1155C85.3958 93.0773 85.3405 93.0468 85.2752 93.0241C85.2099 93.0016 85.1397 92.9842 85.0643 92.972ZM85.0908 92.7209C85.3728 92.7666 85.5788 92.8556 85.709 92.988C85.839 93.12 85.8826 93.2928 85.8397 93.5061C85.8164 93.6224 85.7756 93.7184 85.7175 93.7941C85.6593 93.8698 85.5861 93.9271 85.4974 93.9657C85.4088 94.0044 85.3062 94.0263 85.1895 94.0314C85.0728 94.0365 84.9438 94.0277 84.8029 94.0048L84.5796 93.9686L84.4294 94.7161L84.1484 94.6706L84.5477 92.684C84.6306 92.6775 84.7218 92.6788 84.8207 92.6877C84.9196 92.6967 85.0096 92.7078 85.0908 92.7209Z" fill="white"/>
<path d="M86.8781 93.2876C86.7582 93.2682 86.6657 93.2562 86.6007 93.2517L86.4478 94.0115L86.648 94.0439C86.7448 94.0596 86.8329 94.0689 86.9122 94.0717C86.9914 94.0745 87.0605 94.0666 87.1192 94.0481C87.1777 94.0295 87.2267 93.9979 87.2655 93.9531C87.3047 93.9083 87.3323 93.8451 87.3487 93.7637C87.364 93.6879 87.3622 93.6225 87.3432 93.5673C87.3244 93.5122 87.2933 93.4661 87.2498 93.429C87.2063 93.3919 87.1524 93.3621 87.0879 93.3396C87.0235 93.3172 86.9537 93.2999 86.8781 93.2876ZM87.1144 94.3029C87.1375 94.3467 87.1663 94.4039 87.2012 94.4746C87.2358 94.5454 87.2706 94.6233 87.3056 94.7081C87.3404 94.7929 87.3741 94.8811 87.4066 94.9725C87.4392 95.0639 87.465 95.1512 87.4842 95.2344L87.1766 95.1846C87.1527 95.1047 87.1257 95.0232 87.0955 94.94C87.0653 94.8571 87.0339 94.7773 87.0013 94.7008C86.9688 94.6244 86.9357 94.5525 86.9024 94.4849C86.869 94.4174 86.8386 94.3584 86.8108 94.3078C86.7853 94.3057 86.7595 94.3026 86.7332 94.2983L86.6535 94.2854L86.4009 94.2445L86.2422 95.0333L85.9609 94.9877L86.361 92.9994C86.444 92.9929 86.5353 92.9942 86.6343 93.0031C86.7333 93.0122 86.8234 93.0232 86.9048 93.0364C87.1871 93.0821 87.3917 93.1704 87.5182 93.3011C87.6447 93.4318 87.6866 93.6029 87.6441 93.8144C87.6171 93.9484 87.5588 94.0573 87.4691 94.1408C87.3792 94.2245 87.2611 94.2785 87.1144 94.3029Z" fill="white"/>
<path d="M89.4856 93.7312C89.4309 93.7746 89.367 93.8268 89.2939 93.888C89.2207 93.9492 89.1425 94.0177 89.0594 94.0934C88.9763 94.1692 88.8904 94.2494 88.8014 94.3341C88.7125 94.4188 88.6248 94.5049 88.5383 94.592C88.4519 94.6791 88.369 94.7663 88.2895 94.8537C88.2101 94.941 88.1375 95.0243 88.0716 95.1037L89.2027 95.287L89.1541 95.5286L87.6953 95.2922L87.7333 95.1031C87.7894 95.0322 87.8546 94.9545 87.9285 94.8703C88.0022 94.7861 88.0804 94.7005 88.1628 94.6137C88.245 94.527 88.3299 94.4395 88.4177 94.3515C88.5051 94.2635 88.5913 94.1794 88.6765 94.0991C88.7615 94.0187 88.8435 93.9437 88.9223 93.8744C89.0011 93.805 89.0726 93.7446 89.1369 93.6927L88.1045 93.5255L88.1531 93.284L89.5307 93.5072L89.4856 93.7312Z" fill="white"/>
<path d="M90.056 95.7004L90.2192 94.8902C90.1273 94.6607 90.0426 94.4353 89.9651 94.2142C89.8875 93.9929 89.8161 93.7768 89.7506 93.5655L90.0819 93.6191C90.1235 93.7903 90.1733 93.9654 90.2313 94.1443C90.2893 94.3232 90.3515 94.4963 90.4179 94.6635C90.5433 94.5273 90.6682 94.3845 90.7923 94.2351C90.9164 94.0856 91.0325 93.9374 91.14 93.7903L91.454 93.841C91.3102 94.0185 91.1589 94.1981 91.0004 94.3801C90.8415 94.562 90.6754 94.7453 90.5023 94.9299L90.3379 95.746L90.056 95.7004Z" fill="white"/>
<path d="M92.6732 95.1176L92.9547 95.1631L92.7649 96.1064C92.7401 96.1106 92.705 96.1139 92.6595 96.1165C92.614 96.1192 92.5617 96.1208 92.5027 96.1211C92.4437 96.1216 92.3796 96.1198 92.3105 96.1156C92.2414 96.1115 92.1721 96.1037 92.1024 96.0924C91.9612 96.0695 91.8372 96.0255 91.7306 95.96C91.6239 95.8947 91.5378 95.8106 91.4724 95.7078C91.4074 95.6051 91.365 95.485 91.3457 95.3476C91.3264 95.2103 91.3338 95.057 91.3677 94.8882C91.4017 94.7193 91.4575 94.5735 91.5353 94.4507C91.6128 94.328 91.7042 94.2291 91.8092 94.1539C91.9142 94.0788 92.0299 94.0273 92.1564 93.9996C92.2828 93.9721 92.4129 93.9691 92.5463 93.9907C92.6372 94.0054 92.7168 94.0244 92.7851 94.0473C92.8534 94.0705 92.9111 94.0938 92.9583 94.1175C93.0055 94.1413 93.0434 94.1634 93.0723 94.184C93.1012 94.2048 93.1205 94.22 93.1306 94.2296L92.9931 94.4508C92.9444 94.405 92.8761 94.3623 92.7881 94.323C92.7001 94.2836 92.6078 94.2561 92.511 94.2405C92.4084 94.2238 92.3114 94.2272 92.2199 94.2505C92.1282 94.2738 92.0459 94.3156 91.9729 94.3758C91.8997 94.4362 91.8367 94.5136 91.7837 94.6082C91.7307 94.703 91.6917 94.8124 91.6667 94.9366C91.6425 95.0569 91.6343 95.1689 91.6425 95.2723C91.6506 95.3759 91.6761 95.4677 91.719 95.5477C91.7619 95.628 91.8214 95.6942 91.8977 95.7466C91.9741 95.7991 92.0695 95.8346 92.1836 95.853C92.2649 95.8662 92.3348 95.873 92.3938 95.8736C92.4525 95.8741 92.4953 95.8725 92.522 95.8688L92.6732 95.1176Z" fill="white"/>
<path d="M93.6582 95.2878C93.6335 95.4103 93.6265 95.5242 93.6374 95.6293C93.6483 95.7345 93.6754 95.8267 93.7185 95.9061C93.7616 95.9854 93.8204 96.0506 93.8954 96.1019C93.9701 96.1531 94.059 96.187 94.1619 96.2036C94.2646 96.2202 94.3608 96.2162 94.4499 96.1915C94.539 96.1668 94.6193 96.1241 94.6906 96.0632C94.762 96.0024 94.8232 95.9245 94.8744 95.8294C94.9257 95.7343 94.9636 95.6254 94.9883 95.5028C95.013 95.3803 95.02 95.2664 95.0091 95.1612C94.9982 95.0561 94.9713 94.9639 94.9281 94.8845C94.8851 94.8052 94.8265 94.7402 94.7527 94.689C94.6789 94.6379 94.5903 94.604 94.4876 94.5874C94.3847 94.5708 94.2882 94.5748 94.1982 94.5993C94.1079 94.624 94.0273 94.6665 93.9561 94.7274C93.8847 94.7882 93.8233 94.8661 93.7721 94.9612C93.7208 95.0563 93.6829 95.1652 93.6582 95.2878ZM93.3613 95.2397C93.3962 95.0667 93.4527 94.9181 93.5308 94.7941C93.6089 94.6703 93.7009 94.5712 93.8071 94.4969C93.9131 94.4227 94.0296 94.3727 94.1558 94.347C94.2823 94.3212 94.4115 94.319 94.5434 94.3403C94.6735 94.3613 94.7916 94.4036 94.8981 94.4671C95.0046 94.5304 95.0924 94.6134 95.1618 94.716C95.2314 94.8187 95.2785 94.9403 95.3033 95.0807C95.3281 95.2214 95.3231 95.3783 95.2882 95.5513C95.2533 95.7245 95.1968 95.873 95.1187 95.9969C95.0406 96.1209 94.949 96.2201 94.8438 96.2943C94.7386 96.3688 94.624 96.419 94.4995 96.4451C94.375 96.4711 94.2478 96.4737 94.1178 96.4526C93.9858 96.4313 93.8657 96.3887 93.7572 96.3251C93.649 96.2613 93.5594 96.1781 93.489 96.0753C93.4185 95.9726 93.371 95.8509 93.3462 95.7103C93.3214 95.5697 93.3264 95.4129 93.3613 95.2397Z" fill="white"/>
<path d="M96.1543 96.5261C96.4214 96.5693 96.6346 96.5332 96.794 96.4176C96.9533 96.302 97.0576 96.1208 97.1073 95.8742C97.1569 95.6276 97.1298 95.4253 97.0257 95.2671C96.9213 95.1089 96.7358 95.0082 96.4686 94.965C96.3891 94.9521 96.3276 94.9431 96.2836 94.938C96.2397 94.9329 96.2088 94.9299 96.1908 94.929L95.88 96.4727C95.8971 96.4775 95.9273 96.4844 95.9704 96.4934C96.0136 96.5024 96.0748 96.5132 96.1543 96.5261ZM97.4065 95.9227C97.3713 96.0974 97.3136 96.245 97.2334 96.3654C97.1531 96.4858 97.0551 96.5801 96.9394 96.6487C96.8236 96.7172 96.6929 96.7611 96.5469 96.7806C96.4011 96.8002 96.2457 96.7966 96.0812 96.77C95.9998 96.7568 95.911 96.7389 95.8146 96.7163C95.7183 96.6936 95.6321 96.6662 95.5569 96.6339L95.951 94.6766C96.034 94.67 96.1254 94.6712 96.2245 94.6803C96.3236 94.6893 96.4138 94.7004 96.4953 94.7135C96.6598 94.7402 96.8067 94.7855 96.9357 94.8494C97.0649 94.9134 97.1702 94.9957 97.252 95.0961C97.3337 95.1965 97.3886 95.3158 97.417 95.4537C97.4451 95.5917 97.4416 95.7479 97.4065 95.9227Z" fill="white"/>
<path d="M98.8284 96.4506C98.8003 96.2712 98.7718 96.0975 98.7425 95.9289C98.7134 95.7606 98.6805 95.5979 98.644 95.4414C98.5467 95.5763 98.4513 95.7182 98.3583 95.8668C98.2651 96.0156 98.1715 96.1695 98.0772 96.3292L98.8284 96.4506ZM98.9422 97.2434C98.9267 97.1506 98.9131 97.0594 98.9011 96.9702C98.889 96.8808 98.8762 96.7899 98.8628 96.6972L97.9487 96.5494L97.6611 97.0363L97.3672 96.9888C97.4879 96.7873 97.6005 96.6012 97.7052 96.4302C97.8096 96.2593 97.9109 96.0974 98.0089 95.9445C98.1069 95.7915 98.203 95.6459 98.297 95.5074C98.391 95.3688 98.4876 95.2323 98.5869 95.0977L98.8461 95.1396C98.8865 95.2968 98.9239 95.455 98.9578 95.6142C98.9918 95.7734 99.025 95.94 99.057 96.114C99.0891 96.2879 99.1207 96.4713 99.1521 96.6641C99.1833 96.8571 99.2162 97.0668 99.2508 97.2933L98.9422 97.2434Z" fill="white"/>
<path d="M315.96 109.762C310.967 100.899 305.567 92.1481 299.757 83.506C293.945 74.8655 287.762 66.7101 281.207 59.0381V109.762H264V32.3347H278.192C280.65 34.7925 283.367 37.81 286.349 41.3856C289.326 44.9612 292.363 48.7777 295.455 52.8368C298.546 56.8974 301.618 61.1042 304.673 65.4617C307.727 69.8193 310.596 74.009 313.278 78.0307V32.3347H330.597V109.762H315.96Z" fill="white"/>
<path d="M348.477 109.762V32.3347H400.772V46.9713H365.909V62.166H396.86V76.4668H365.909V95.1251H403.342V109.762H348.477Z" fill="white"/>
<path d="M436.771 32.3353C438.116 34.7932 439.665 37.8293 441.422 41.4407C443.176 45.0551 445.006 48.9649 446.91 53.1732C448.816 57.3816 450.701 61.6831 452.568 66.0765C454.435 70.4729 456.191 74.6066 457.834 78.4775C459.478 74.6066 461.233 70.4729 463.1 66.0765C464.968 61.6831 466.852 57.3816 468.758 53.1732C470.663 48.9649 472.493 45.0551 474.248 41.4407C476.004 37.8293 477.554 34.7932 478.899 32.3353H494.765C495.509 37.4749 496.199 43.2284 496.832 49.5977C497.464 55.9653 498.024 62.5957 498.509 69.4841C498.993 76.3741 499.439 83.2828 499.85 90.2101C500.257 97.1359 500.613 103.656 500.911 109.762H483.925C483.703 102.24 483.404 94.0469 483.033 85.1825C482.658 76.3182 482.1 67.3808 481.357 58.3672C480.009 61.4966 478.515 64.9587 476.873 68.7581C475.228 72.5576 473.603 76.3555 471.997 80.1549C470.389 83.9528 468.839 87.5844 467.345 91.048C465.851 94.5117 464.579 97.4717 463.534 99.9295H451.354C450.306 97.4717 449.037 94.5117 447.543 91.048C446.049 87.5844 444.496 83.9528 442.89 80.1549C441.283 76.3555 439.657 72.5576 438.014 68.7581C436.37 64.9587 434.876 61.4966 433.531 58.3672C432.785 67.3808 432.228 76.3182 431.855 85.1825C431.482 94.0469 431.185 102.24 430.961 109.762H413.977C414.274 103.656 414.628 97.1359 415.038 90.2101C415.447 83.2828 415.894 76.3741 416.379 69.4841C416.862 62.5957 417.422 55.9653 418.055 49.5977C418.688 43.2284 419.376 37.4749 420.123 32.3353H436.771Z" fill="white"/>
<path d="M531.047 70.993C531.047 74.7909 531.51 78.2188 532.443 81.2721C533.373 84.3269 534.715 86.9526 536.465 89.1477C538.216 91.3459 540.357 93.042 542.891 94.2328C545.422 95.4236 548.327 96.019 551.607 96.019C554.809 96.019 557.698 95.4236 560.266 94.2328C562.836 93.042 564.996 91.3459 566.748 89.1477C568.497 86.9526 569.837 84.3269 570.77 81.2721C571.7 78.2188 572.168 74.7909 572.168 70.993C572.168 67.1936 571.7 63.7501 570.77 60.658C569.837 57.5675 568.497 54.9231 566.748 52.7264C564.996 50.5298 562.836 48.8337 560.266 47.6413C557.698 46.4505 554.809 45.8535 551.607 45.8535C548.327 45.8535 545.422 46.4692 542.891 47.6973C540.357 48.927 538.216 50.6417 536.465 52.8368C534.715 55.035 533.373 57.6794 532.443 60.77C531.51 63.8621 531.047 67.2682 531.047 70.993ZM590.157 70.993C590.157 77.6234 589.17 83.4501 587.197 88.4776C585.221 93.5052 582.52 97.7151 579.095 101.103C575.666 104.493 571.588 107.044 566.858 108.756C562.129 110.469 557.043 111.326 551.607 111.326C546.316 111.326 541.327 110.469 536.633 108.756C531.939 107.044 527.842 104.493 524.343 101.103C520.84 97.7151 518.084 93.5052 516.073 88.4776C514.062 83.4501 513.055 77.6234 513.055 70.993C513.055 64.3642 514.098 58.5344 516.184 53.5084C518.269 48.4793 521.082 44.2539 524.621 40.8275C528.158 37.4012 532.256 34.8314 536.911 33.1167C541.568 31.4051 546.466 30.5485 551.607 30.5485C556.895 30.5485 561.888 31.4051 566.58 33.1167C571.274 34.8314 575.368 37.4012 578.871 40.8275C582.372 44.2539 585.129 48.4793 587.139 53.5084C589.151 58.5344 590.157 64.3642 590.157 70.993Z" fill="white"/>
<path d="M270.434 153.432C273.492 153.432 275.02 152.385 275.02 150.294C275.02 149.651 274.883 149.102 274.613 148.65C274.341 148.197 273.974 147.806 273.512 147.473C273.049 147.142 272.52 146.854 271.928 146.613C271.334 146.372 270.706 146.131 270.042 145.89C269.277 145.628 268.552 145.331 267.868 144.999C267.186 144.667 266.592 144.275 266.09 143.823C265.587 143.37 265.189 142.832 264.899 142.209C264.606 141.586 264.46 140.832 264.46 139.947C264.46 138.116 265.084 136.687 266.331 135.663C267.577 134.637 269.297 134.123 271.489 134.123C272.758 134.123 273.909 134.259 274.944 134.531C275.981 134.803 276.74 135.1 277.223 135.422L276.287 137.805C275.865 137.542 275.236 137.287 274.401 137.035C273.567 136.783 272.596 136.657 271.489 136.657C270.927 136.657 270.404 136.718 269.921 136.839C269.439 136.959 269.016 137.139 268.653 137.382C268.291 137.623 268.005 137.931 267.794 138.302C267.582 138.674 267.478 139.112 267.478 139.614C267.478 140.177 267.588 140.65 267.809 141.032C268.03 141.415 268.341 141.752 268.744 142.043C269.146 142.335 269.614 142.601 270.148 142.842C270.681 143.083 271.269 143.325 271.912 143.566C272.817 143.928 273.647 144.291 274.401 144.653C275.156 145.015 275.81 145.447 276.362 145.949C276.916 146.453 277.343 147.052 277.645 147.745C277.948 148.438 278.099 149.278 278.099 150.263C278.099 152.095 277.429 153.502 276.092 154.487C274.753 155.473 272.867 155.966 270.434 155.966C269.608 155.966 268.849 155.91 268.156 155.799C267.462 155.689 266.844 155.558 266.299 155.408C265.757 155.257 265.289 155.095 264.899 154.926C264.505 154.755 264.197 154.607 263.977 154.487L264.852 152.074C265.314 152.336 266.02 152.626 266.965 152.948C267.91 153.272 269.065 153.432 270.434 153.432Z" fill="white"/>
<path d="M287.409 136.96C286.162 136.96 285.206 136.989 284.542 137.05V145.255H286.745C287.751 145.255 288.656 145.19 289.46 145.059C290.265 144.928 290.943 144.708 291.496 144.395C292.051 144.084 292.477 143.657 292.781 143.114C293.081 142.57 293.232 141.877 293.232 141.033C293.232 140.227 293.076 139.564 292.764 139.041C292.453 138.517 292.03 138.101 291.496 137.788C290.965 137.477 290.346 137.261 289.641 137.14C288.937 137.02 288.194 136.96 287.409 136.96ZM287.168 134.394C290.103 134.394 292.361 134.953 293.942 136.07C295.52 137.185 296.31 138.85 296.31 141.062C296.31 142.269 296.094 143.299 295.662 144.154C295.228 145.009 294.606 145.704 293.79 146.236C292.975 146.769 291.985 147.156 290.818 147.397C289.652 147.638 288.334 147.759 286.866 147.759H284.542V155.512H281.617V134.908C282.44 134.707 283.362 134.572 284.377 134.5C285.392 134.43 286.322 134.394 287.168 134.394Z" fill="white"/>
<path d="M302.219 145.044C302.219 146.311 302.379 147.463 302.701 148.499C303.023 149.534 303.482 150.414 304.076 151.138C304.668 151.863 305.391 152.421 306.248 152.813C307.101 153.205 308.062 153.4 309.129 153.4C310.194 153.4 311.151 153.205 311.996 152.813C312.84 152.421 313.56 151.863 314.152 151.138C314.746 150.414 315.203 149.534 315.525 148.499C315.847 147.463 316.007 146.311 316.007 145.044C316.007 143.777 315.847 142.625 315.525 141.59C315.203 140.555 314.746 139.675 314.152 138.95C313.56 138.226 312.84 137.669 311.996 137.276C311.151 136.884 310.194 136.688 309.129 136.688C308.062 136.688 307.101 136.884 306.248 137.276C305.391 137.669 304.668 138.226 304.076 138.95C303.482 139.675 303.023 140.555 302.701 141.59C302.379 142.625 302.219 143.777 302.219 145.044ZM299.141 145.044C299.141 143.255 299.408 141.676 299.941 140.308C300.475 138.941 301.198 137.8 302.113 136.884C303.028 135.969 304.096 135.28 305.312 134.818C306.529 134.355 307.821 134.123 309.189 134.123C310.537 134.123 311.809 134.355 313.006 134.818C314.203 135.28 315.253 135.969 316.158 136.884C317.064 137.8 317.783 138.941 318.316 140.308C318.849 141.676 319.117 143.255 319.117 145.044C319.117 146.835 318.849 148.413 318.316 149.781C317.783 151.149 317.064 152.29 316.158 153.205C315.253 154.12 314.203 154.809 313.006 155.272C311.809 155.734 310.537 155.966 309.189 155.966C307.821 155.966 306.529 155.734 305.312 155.272C304.096 154.809 303.028 154.12 302.113 153.205C301.198 152.29 300.475 151.149 299.941 149.781C299.408 148.413 299.141 146.835 299.141 145.044Z" fill="white"/>
<path d="M329.245 136.96C327.998 136.96 327.042 136.989 326.378 137.05V144.924H328.46C329.466 144.924 330.372 144.874 331.176 144.773C331.98 144.672 332.659 144.481 333.213 144.199C333.765 143.918 334.194 143.522 334.494 143.009C334.797 142.496 334.948 141.816 334.948 140.972C334.948 140.187 334.797 139.534 334.494 139.01C334.194 138.488 333.786 138.076 333.273 137.774C332.76 137.473 332.157 137.261 331.462 137.14C330.768 137.02 330.03 136.96 329.245 136.96ZM333.681 146.764C334.002 147.167 334.408 147.694 334.903 148.347C335.394 149.002 335.902 149.726 336.426 150.52C336.949 151.315 337.467 152.145 337.98 153.009C338.493 153.874 338.93 154.708 339.292 155.512H336.094C335.691 154.749 335.254 153.975 334.781 153.19C334.309 152.406 333.831 151.657 333.348 150.942C332.866 150.228 332.387 149.56 331.914 148.936C331.442 148.313 331.016 147.77 330.633 147.307C330.372 147.327 330.106 147.338 329.832 147.338H329.004H326.378V155.512H323.453V134.908C324.276 134.707 325.198 134.572 326.213 134.5C327.228 134.43 328.158 134.394 329.004 134.394C331.939 134.394 334.178 134.948 335.717 136.055C337.255 137.16 338.025 138.81 338.025 141.002C338.025 142.39 337.658 143.578 336.924 144.562C336.188 145.547 335.108 146.281 333.681 146.764Z" fill="white"/>
<path d="M356.402 134.606V137.14H349.825V155.513H346.897V137.14H340.32V134.606H356.402Z" fill="white"/>
<path d="M360.899 145.044C360.899 146.311 361.059 147.463 361.381 148.498C361.703 149.534 362.161 150.414 362.755 151.138C363.348 151.863 364.071 152.421 364.927 152.813C365.781 153.204 366.742 153.4 367.808 153.4C368.873 153.4 369.831 153.204 370.675 152.813C371.52 152.421 372.239 151.863 372.832 151.138C373.426 150.414 373.883 149.534 374.205 148.498C374.527 147.463 374.687 146.311 374.687 145.044C374.687 143.777 374.527 142.625 374.205 141.59C373.883 140.554 373.426 139.675 372.832 138.95C372.239 138.226 371.52 137.669 370.675 137.276C369.831 136.884 368.873 136.688 367.808 136.688C366.742 136.688 365.781 136.884 364.927 137.276C364.071 137.669 363.348 138.226 362.755 138.95C362.161 139.675 361.703 140.554 361.381 141.59C361.059 142.625 360.899 143.777 360.899 145.044ZM357.82 145.044C357.82 143.255 358.088 141.675 358.621 140.307C359.154 138.941 359.877 137.8 360.793 136.884C361.707 135.968 362.775 135.28 363.991 134.818C365.209 134.355 366.501 134.123 367.869 134.123C369.217 134.123 370.489 134.355 371.686 134.818C372.883 135.28 373.933 135.968 374.838 136.884C375.744 137.8 376.462 138.941 376.996 140.307C377.529 141.675 377.796 143.255 377.796 145.044C377.796 146.835 377.529 148.413 376.996 149.781C376.462 151.149 375.744 152.29 374.838 153.204C373.933 154.12 372.883 154.809 371.686 155.272C370.489 155.734 369.217 155.965 367.869 155.965C366.501 155.965 365.209 155.734 363.991 155.272C362.775 154.809 361.707 154.12 360.793 153.204C359.877 152.29 359.154 151.149 358.621 149.781C358.088 148.413 357.82 146.835 357.82 145.044Z" fill="white"/>
<path d="M393.085 141.334C392.24 144.03 391.384 146.523 390.519 148.815C389.655 151.108 388.79 153.34 387.924 155.514H384.998C383.932 152.435 382.991 149.188 382.178 145.769C381.363 142.349 380.603 138.629 379.898 134.606H382.977C383.258 136.176 383.551 137.743 383.852 139.311C384.152 140.882 384.465 142.405 384.787 143.884C385.109 145.36 385.43 146.775 385.752 148.121C386.074 149.469 386.405 150.716 386.749 151.863C387.553 149.751 388.408 147.433 389.313 144.908C390.218 142.385 391.062 139.776 391.847 137.081H394.383C395.167 139.776 396.022 142.385 396.947 144.908C397.872 147.433 398.736 149.751 399.542 151.863C399.864 150.736 400.184 149.5 400.507 148.153C400.828 146.805 401.145 145.392 401.457 143.913C401.77 142.435 402.075 140.906 402.378 139.327C402.679 137.749 402.97 136.176 403.253 134.606H406.24C405.515 138.629 404.746 142.349 403.931 145.769C403.116 149.188 402.186 152.435 401.142 155.514H398.214C397.329 153.34 396.463 151.108 395.619 148.815C394.775 146.523 393.929 144.03 393.085 141.334Z" fill="white"/>
<path d="M420.375 147.76C419.73 146.009 419.092 144.316 418.458 142.676C417.825 141.038 417.166 139.463 416.483 137.955C415.779 139.463 415.109 141.038 414.476 142.676C413.842 144.316 413.214 146.009 412.59 147.76H420.375ZM423.121 155.513C422.777 154.608 422.457 153.717 422.155 152.843C421.854 151.968 421.541 151.079 421.219 150.173H411.746L409.844 155.513H406.797C407.602 153.3 408.356 151.255 409.061 149.373C409.763 147.494 410.452 145.709 411.127 144.019C411.8 142.33 412.47 140.716 413.134 139.177C413.797 137.638 414.49 136.114 415.215 134.606H417.901C418.624 136.114 419.319 137.638 419.982 139.177C420.645 140.716 421.316 142.33 421.989 144.019C422.662 145.709 423.351 147.494 424.055 149.373C424.759 151.255 425.514 153.3 426.319 155.513H423.121Z" fill="white"/>
<path d="M441.878 136.96C440.631 136.96 439.674 136.989 439.011 137.05V145.255H441.214C442.22 145.255 443.125 145.19 443.928 145.059C444.734 144.928 445.412 144.708 445.965 144.395C446.52 144.084 446.946 143.657 447.249 143.114C447.549 142.57 447.7 141.877 447.7 141.033C447.7 140.227 447.545 139.564 447.232 139.041C446.921 138.517 446.498 138.101 445.965 137.788C445.433 137.477 444.815 137.261 444.11 137.14C443.406 137.02 442.663 136.96 441.878 136.96ZM441.637 134.394C444.572 134.394 446.83 134.953 448.411 136.07C449.989 137.185 450.779 138.85 450.779 141.062C450.779 142.269 450.563 143.299 450.13 144.154C449.697 145.009 449.075 145.704 448.258 146.236C447.444 146.769 446.453 147.156 445.287 147.397C444.121 147.638 442.803 147.759 441.335 147.759H439.011V155.512H436.086V134.908C436.908 134.707 437.83 134.572 438.846 134.5C439.861 134.43 440.791 134.394 441.637 134.394Z" fill="white"/>
<path d="M460.253 136.96C459.006 136.96 458.049 136.989 457.386 137.05V144.924H459.467C460.473 144.924 461.38 144.874 462.184 144.773C462.987 144.672 463.667 144.481 464.22 144.199C464.772 143.918 465.201 143.522 465.502 143.009C465.805 142.496 465.956 141.816 465.956 140.972C465.956 140.187 465.805 139.534 465.502 139.01C465.201 138.488 464.794 138.076 464.281 137.774C463.768 137.473 463.165 137.261 462.47 137.14C461.776 137.02 461.038 136.96 460.253 136.96ZM464.688 146.765C465.01 147.167 465.416 147.694 465.91 148.347C466.402 149.002 466.91 149.726 467.434 150.52C467.957 151.315 468.474 152.145 468.987 153.009C469.5 153.874 469.937 154.709 470.3 155.512H467.101C466.699 154.749 466.262 153.975 465.789 153.19C465.317 152.406 464.839 151.657 464.356 150.942C463.874 150.228 463.395 149.56 462.922 148.936C462.449 148.313 462.023 147.77 461.641 147.307C461.38 147.327 461.114 147.338 460.84 147.338H460.012H457.386V155.512H454.461V134.908C455.283 134.707 456.205 134.572 457.221 134.5C458.236 134.43 459.166 134.395 460.012 134.395C462.947 134.395 465.186 134.948 466.725 136.055C468.263 137.16 469.032 138.81 469.032 141.002C469.032 142.39 468.666 143.578 467.932 144.562C467.196 145.547 466.116 146.281 464.688 146.765Z" fill="white"/>
<path d="M487.117 136.929C486.654 137.453 486.116 138.081 485.503 138.815C484.889 139.548 484.241 140.363 483.556 141.259C482.872 142.154 482.17 143.099 481.445 144.094C480.72 145.089 480.012 146.096 479.317 147.112C478.623 148.127 477.964 149.137 477.34 150.143C476.717 151.149 476.154 152.103 475.652 153.008H487.419V155.513H472.242V153.552C472.664 152.749 473.163 151.862 473.736 150.897C474.309 149.932 474.923 148.946 475.577 147.94C476.23 146.936 476.908 145.919 477.614 144.893C478.317 143.867 479.015 142.883 479.71 141.938C480.403 140.993 481.078 140.107 481.731 139.283C482.384 138.457 482.983 137.734 483.525 137.109H472.785V134.606H487.117V136.929Z" fill="white"/>
<path d="M496.487 155.513V147.126C495.098 144.974 493.791 142.852 492.564 140.761C491.336 138.669 490.181 136.618 489.094 134.607H492.533C493.298 136.256 494.153 137.93 495.098 139.63C496.044 141.329 497.019 142.963 498.025 144.531C499.01 142.963 499.976 141.329 500.921 139.63C501.866 137.93 502.732 136.256 503.516 134.607H506.775C505.688 136.618 504.531 138.664 503.306 140.746C502.078 142.827 500.78 144.934 499.413 147.065V155.513H496.487Z" fill="white"/>
<path d="M521.092 145.226H524.018V154.999C523.777 155.082 523.43 155.172 522.978 155.271C522.525 155.372 522.002 155.474 521.409 155.573C520.815 155.674 520.167 155.76 519.463 155.83C518.758 155.901 518.045 155.935 517.32 155.935C515.852 155.935 514.515 155.694 513.309 155.211C512.102 154.729 511.065 154.025 510.199 153.1C509.336 152.175 508.666 151.038 508.193 149.69C507.721 148.344 507.484 146.794 507.484 145.045C507.484 143.295 507.75 141.742 508.285 140.383C508.817 139.026 509.537 137.885 510.442 136.96C511.346 136.035 512.407 135.331 513.624 134.847C514.842 134.365 516.145 134.124 517.531 134.124C518.477 134.124 519.316 134.185 520.05 134.304C520.786 134.426 521.414 134.566 521.936 134.727C522.46 134.889 522.886 135.049 523.219 135.209C523.552 135.371 523.777 135.492 523.898 135.571L522.962 138.015C522.379 137.634 521.605 137.317 520.64 137.065C519.674 136.814 518.688 136.688 517.682 136.688C516.616 136.688 515.646 136.879 514.772 137.261C513.896 137.644 513.152 138.197 512.539 138.92C511.925 139.645 511.448 140.524 511.105 141.56C510.763 142.597 510.592 143.758 510.592 145.045C510.592 146.292 510.737 147.428 511.029 148.453C511.32 149.479 511.763 150.359 512.357 151.093C512.951 151.828 513.685 152.395 514.559 152.798C515.434 153.201 516.466 153.401 517.653 153.401C518.499 153.401 519.215 153.356 519.811 153.266C520.403 153.176 520.831 153.09 521.092 153.009V145.226Z" fill="white"/>
<path d="M530.821 145.044C530.821 146.311 530.981 147.463 531.303 148.498C531.625 149.534 532.083 150.414 532.677 151.138C533.269 151.863 533.992 152.421 534.849 152.813C535.703 153.204 536.664 153.4 537.73 153.4C538.795 153.4 539.753 153.204 540.597 152.813C541.441 152.421 542.161 151.863 542.754 151.138C543.348 150.414 543.805 149.534 544.127 148.498C544.448 147.463 544.609 146.311 544.609 145.044C544.609 143.777 544.448 142.625 544.127 141.59C543.805 140.554 543.348 139.675 542.754 138.95C542.161 138.226 541.441 137.669 540.597 137.276C539.753 136.884 538.795 136.688 537.73 136.688C536.664 136.688 535.703 136.884 534.849 137.276C533.992 137.669 533.269 138.226 532.677 138.95C532.083 139.675 531.625 140.554 531.303 141.59C530.981 142.625 530.821 143.777 530.821 145.044ZM527.742 145.044C527.742 143.255 528.01 141.675 528.543 140.307C529.076 138.941 529.799 137.8 530.715 136.884C531.629 135.968 532.697 135.28 533.913 134.818C535.131 134.355 536.423 134.123 537.791 134.123C539.139 134.123 540.411 134.355 541.608 134.818C542.805 135.28 543.855 135.968 544.759 136.884C545.666 137.8 546.384 138.941 546.917 140.307C547.451 141.675 547.718 143.255 547.718 145.044C547.718 146.835 547.451 148.413 546.917 149.781C546.384 151.149 545.666 152.29 544.759 153.204C543.855 154.12 542.805 154.809 541.608 155.272C540.411 155.734 539.139 155.965 537.791 155.965C536.423 155.965 535.131 155.734 533.913 155.272C532.697 154.809 531.629 154.12 530.715 153.204C529.799 152.29 529.076 151.149 528.543 149.781C528.01 148.413 527.742 146.835 527.742 145.044Z" fill="white"/>
<path d="M557.862 153.13C560.637 153.13 562.708 152.421 564.078 151.003C565.446 149.585 566.129 147.598 566.129 145.044C566.129 142.49 565.446 140.505 564.078 139.087C562.708 137.669 560.637 136.96 557.862 136.96C557.036 136.96 556.399 136.97 555.946 136.99C555.494 137.01 555.177 137.03 554.995 137.05V153.04C555.177 153.06 555.494 153.08 555.946 153.1C556.399 153.12 557.036 153.13 557.862 153.13ZM569.237 145.044C569.237 146.854 568.955 148.429 568.393 149.766C567.828 151.104 567.034 152.209 566.009 153.085C564.983 153.96 563.756 154.613 562.327 155.045C560.9 155.479 559.33 155.695 557.621 155.695C556.775 155.695 555.845 155.659 554.83 155.589C553.815 155.518 552.893 155.382 552.07 155.18V134.908C552.893 134.708 553.815 134.571 554.83 134.501C555.845 134.431 556.775 134.395 557.621 134.395C559.33 134.395 560.9 134.611 562.327 135.043C563.756 135.476 564.983 136.13 566.009 137.004C567.034 137.879 567.828 138.986 568.393 140.323C568.955 141.661 569.237 143.235 569.237 145.044Z" fill="white"/>
<path d="M584.233 147.76C583.587 146.009 582.95 144.316 582.316 142.676C581.683 141.038 581.024 139.463 580.341 137.955C579.637 139.463 578.967 141.038 578.334 142.676C577.699 144.316 577.071 146.009 576.448 147.76H584.233ZM586.979 155.513C586.635 154.608 586.315 153.717 586.013 152.843C585.711 151.968 585.399 151.079 585.077 150.173H575.604L573.702 155.513H570.656C571.46 153.3 572.214 151.255 572.918 149.373C573.621 147.494 574.31 145.709 574.985 144.019C575.658 142.33 576.328 140.716 576.992 139.177C577.654 137.638 578.348 136.114 579.072 134.606H581.759C582.482 136.114 583.177 137.638 583.839 139.177C584.503 140.716 585.173 142.33 585.847 144.019C586.52 145.709 587.209 147.494 587.913 149.373C588.617 151.255 589.371 153.3 590.177 155.513H586.979Z" fill="white"/>
</svg>
