<svg width="687" height="443" viewBox="0 0 687 443" fill="none" xmlns="http://www.w3.org/2000/svg">
<path d="M639.329 186.444C634.734 184.759 633.134 182.951 631.497 178.611L622.831 156.225C622.442 155.118 621.92 154.727 620.425 154.579L614.448 154.835L614.267 150.101L606.23 150.445L606.148 148.312L582.792 149.313L582.908 152.318L574.199 152.691L574.346 156.554L568.804 156.792C566.359 156.817 565.951 158.166 565.39 160.808L558.376 184.755C556.64 188.931 555.06 190.223 550.656 190.246L487.714 192.944C480.639 193.385 477.961 195.765 478.326 206.675L482.534 316.56C482.838 320.573 483.733 321.996 487.499 321.937L682.659 313.57C684.769 312.44 685.672 311.345 686.404 307.82L677.811 186.944L639.329 186.444Z" fill="black" stroke="black"/>
<path d="M520.141 219.69L514.768 219.92C516.091 234.104 514.489 237.004 510.671 240.105L513.635 317.513L523.87 317.074L520.141 219.69Z" fill="#F4731C" stroke="black"/>
<path d="M658.459 214.196L658.1 204.81C658.176 204.071 658.373 203.785 659.234 203.782L664.915 203.538C666.047 203.536 666.233 203.962 666.237 205.048L666.574 213.848C666.587 214.936 666.431 215.368 665.368 215.369L659.687 215.612C658.801 215.508 658.56 215.224 658.459 214.196Z" fill="#F4731C" stroke="black"/>
<path d="M569.238 170.063C569.669 168.434 570.249 167.821 572.479 167.701L617.513 165.77C619.822 165.454 620.906 165.716 621.948 167.803L623.972 180.5C624.181 183.414 623.132 183.968 620.262 183.994L569.855 186.155C568.54 185.91 568.043 185.336 567.935 182.903L569.238 170.063Z" fill="#F4731C" stroke="black"/>
<ellipse cx="55.9514" cy="60.6576" rx="55.9514" ry="60.6576" transform="matrix(0.999082 -0.0428329 0.0382644 0.999268 540.906 206.858)" fill="#F4731C"/>
<ellipse cx="53.9894" cy="58.5306" rx="53.9894" ry="58.5306" transform="matrix(0.999082 -0.0428329 0.0382644 0.999268 542.961 208.9)" fill="black"/>
<ellipse cx="46.577" cy="50.4948" rx="46.577" ry="50.4948" transform="matrix(0.999082 -0.0428329 0.0382644 0.999268 550.656 216.612)" fill="#F4731C"/>
<ellipse cx="32.6628" cy="35.4102" rx="32.6628" ry="35.4102" transform="matrix(0.999082 -0.0428329 0.0382644 0.999268 565.133 231.09)" fill="black"/>
<path d="M239.512 220.62C239.4 220.946 239.286 221.275 238.92 222.333C239.601 221.489 239.781 221.266 239.961 221.043C239.812 220.9 239.661 220.76 239.512 220.62Z" fill="#FEFEFE"/>
<path d="M11.585 82.0749C18.261 91.4099 26.9394 98.6686 36.1411 105.267C46.2411 112.508 56.6098 119.378 66.9414 126.293C73.0655 130.395 79.5613 133.97 85.4966 138.32C93.3511 144.074 98.188 152.474 103.099 160.619C107.384 167.729 111.048 175.208 115.044 182.492C115.905 184.063 117.006 185.501 118.339 187.52C120.802 182.721 123.067 178.474 125.181 174.155C129.34 165.656 133.202 156.944 134.291 147.503C135.047 140.965 135.015 134.207 134.297 127.66C133.468 120.124 131.608 112.645 127.441 106.093C123.825 100.41 120.619 94.2413 116.002 89.4794C109.206 82.4724 100.937 77.2872 91.2802 74.4987C82.6076 71.9934 73.9121 69.3622 65.5856 65.9216C56.2323 62.0549 47.0648 57.6076 38.2063 52.7056C26.1814 46.0532 18.4498 35.7229 14.8487 22.3924C14.7657 22.0835 14.6599 21.7832 14.5655 21.4772C14.2852 21.3628 14.0049 21.2484 13.7274 21.134C11.339 25.9217 8.60449 30.572 6.63656 35.5255C3.06112 44.526 1.8426 53.9611 3.42438 63.5707C4.5485 70.3832 7.57189 76.4636 11.585 82.0749ZM112.713 197.29C100.339 213.955 96.8379 232.874 98.9717 253.071C99.724 260.19 101.103 267.251 102.45 274.29C103.165 278.034 105.024 281.288 108.548 283.21C109.315 283.628 110.299 283.651 111.185 283.851C110.167 281.875 109.063 279.935 108.159 277.908C107.167 275.683 106.935 273.437 109.192 270.904C110.116 272.743 110.874 274.281 111.66 275.808C112.761 277.951 113.488 280.453 115.073 282.143C118.637 285.939 119.795 290.629 121.162 295.357C122.292 299.255 123.705 303.101 127.103 305.73C127.953 306.385 128.951 306.851 129.832 307.377C131.4 305.507 128.82 301.568 132.704 301.274C132.89 303.722 132.827 305.727 133.242 307.629C133.674 309.614 132.701 310.331 131.257 309.759C127.158 308.135 122.441 307.732 119.375 303.902C118.525 302.841 117.189 302.172 115.67 301.016C116.852 308.324 138.611 329.442 144.792 329.722C144.712 328.407 144.632 327.103 144.551 325.801C144.829 325.701 145.104 325.604 145.378 325.504C145.936 326.648 146.685 327.735 147.014 328.939C148.499 334.37 152.724 336.583 157.598 337.762C158.879 338.073 160.924 337.479 161.854 336.543C164.397 333.981 166.774 331.178 168.756 328.166C170.581 325.389 170.953 322.195 169.314 319.006C169.002 318.4 169.085 317.59 168.879 316.092C171.513 317.653 173.441 318.997 175.535 319.993C178.801 321.548 182.094 323.15 185.538 324.205C188.549 325.129 189.845 323.476 189.256 320.347C189.087 319.461 189.448 318.477 189.565 317.536C190.452 318.036 191.713 318.314 192.168 319.072C196.433 326.204 201.879 332.333 207.728 338.179C208.483 338.931 208.495 340.893 208.2 342.143C207.025 347.163 206.987 352.125 208.489 357.041C209.502 360.359 211.587 360.813 214.061 358.428C217.874 354.756 217.977 349.654 214.344 345.761C210.5 341.637 209.965 336.409 209.851 331.187C209.607 320.219 212.17 309.845 217.242 300.133C218.483 297.753 218.403 295.582 217.531 293.154C214.81 285.57 211.859 278.045 209.65 270.309C206.55 259.441 207.03 248.418 209.05 237.327C210.345 230.214 210.611 222.921 211.575 215.743C212.302 210.34 213.489 205.001 214.307 199.609C214.667 197.224 214.836 194.767 214.713 192.365C214.562 189.431 212.98 188.541 210.649 190.214C205.514 193.904 199.651 197.098 198.955 204.926C198.143 203.919 197.645 203.302 196.776 202.223C193.243 206.07 189.768 209.637 186.536 213.412C177.242 224.266 167.735 234.853 156.513 243.851C149.074 249.811 140.819 252.494 131.468 252.528C125.602 252.551 119.589 247.972 116.866 241.763C112.504 231.825 112.004 221.528 113.457 210.984C114.172 205.793 114.907 200.602 115.044 194.971C114.26 195.74 113.359 196.421 112.713 197.29ZM68.6348 275.611C64.0697 275.808 59.3472 276.34 56.1035 280.533C52.3479 285.384 53.6694 289.868 59.5503 291.538C64.3414 292.897 68.978 291.773 73.6175 290.632C78.5745 289.413 83.4886 287.878 88.5171 287.117C95.3019 286.09 101.989 287.125 108.451 289.534C110.033 290.123 111.723 290.417 113.365 290.849C113.519 290.543 113.671 290.234 113.823 289.928C112.641 289.17 111.5 288.33 110.267 287.666C97.2526 280.668 83.809 274.956 68.6348 275.611ZM63.8294 303.636C64.4415 306.811 67.0673 308.836 70.5798 308.922C75.3166 309.036 78.9464 306.551 82.5533 303.948C85.2163 302.029 87.8535 300.061 90.6366 298.328C96.446 294.71 102.859 293.721 109.592 294.356C110.45 294.438 111.32 294.396 112.184 294.381C112.307 294.378 112.424 294.215 112.77 293.955C107.976 291.101 102.842 289.923 97.4986 289.482C89.564 288.827 82.0813 290.969 74.6158 293.22C72.3332 293.909 69.9391 294.284 67.7395 295.159C64.6989 296.369 63.1372 300.061 63.8294 303.636ZM78.0968 319.043C80.5138 322.652 84.0492 324.952 88.1481 325.796C89.5812 326.093 92.0296 324.663 93.0164 323.299C95.8367 319.395 97.7932 314.845 100.754 311.069C103.6 307.44 107.298 304.489 110.573 301.188C111.509 300.247 112.27 299.129 113.108 298.094C111.812 297.559 110.539 296.941 109.203 296.521C108.485 296.292 107.659 296.4 106.397 296.332C101.818 297.01 96.8808 297.825 92.5159 300.899C88.4685 303.748 84.0549 306.07 79.9561 308.856C75.7485 311.713 75.2651 314.813 78.0968 319.043ZM146.654 372.588C144.886 380.576 144.952 388.432 150.53 395.205C151.654 396.569 153.155 397.619 154.834 399.129C154.202 395.065 153.556 391.601 153.164 388.106C152.952 386.23 153.041 384.291 153.267 382.409C153.367 381.563 154.134 380.793 154.6 379.987C154.872 380.816 155.163 381.64 155.407 382.478C155.475 382.715 155.415 382.998 155.384 383.256C154.171 392.951 158.264 400.733 164.317 407.763C166.31 410.08 168.493 412.233 170.589 414.458C170.872 414.27 171.156 414.081 171.439 413.889C170.489 409.453 169.439 405.032 168.627 400.57C168.164 398.025 168.015 395.414 167.889 392.825C167.861 392.219 168.496 391.581 168.824 390.955C169.239 391.53 169.914 392.056 170.029 392.682C171.13 398.746 171.808 404.906 173.261 410.881C174.808 417.258 177.726 423.033 183.183 427.174C188.632 431.31 194.522 431.289 200.672 429.233C201.813 428.853 203.103 428.667 204.05 428C207.145 425.821 209.459 427.074 211.721 429.356C215.554 433.226 219.398 437.021 224.876 438.671C230.145 440.261 234.91 439.804 239.209 436.209C243.105 432.957 243.451 429.001 240.064 425.203C231.887 416.031 224.295 406.407 218.586 395.491C215.683 389.942 212.917 384.2 211.092 378.236C208.397 369.428 206.507 360.364 204.444 351.373C202.757 344.005 200.334 337.144 193.223 333.237C191.367 332.222 189.196 331.781 187.174 331.072C184.917 330.28 182.514 329.751 180.438 328.627C177.048 326.788 174.989 326.376 172.197 329.033C168.641 332.414 165.383 336.174 162.423 340.093C155.035 349.862 149.323 360.539 146.654 372.588ZM226.089 186.065C226.561 183.799 227.036 181.537 227.565 179C224.91 180.465 224.355 182.621 226.089 186.065ZM229.069 172.405V166.239C226.847 168.264 226.858 170.243 229.069 172.405ZM244.186 151.009C252.833 147.271 261.786 144.277 271.211 143.216C282.475 141.949 293.753 140.359 305.057 140.021C314.803 139.732 324.605 140.902 334.368 141.649C337.119 141.857 338.458 140.479 338.81 138.351C339.513 134.095 339.808 129.771 340.186 125.467C341.313 112.648 336.072 102.315 327.317 93.5263C322.208 88.3983 316.216 84.9435 308.644 84.6403C302.698 84.4001 298.273 86.7681 296.23 92.1364C294.28 97.2615 293.299 102.758 291.969 108.112C291.371 110.529 290.965 112.994 290.47 115.437C290.138 115.525 289.809 115.611 289.48 115.7C289.142 115.076 288.482 114.43 288.519 113.829C288.731 110.335 288.084 108.885 284.76 107.766C275.227 104.56 265.439 103.834 255.525 105.467C249.472 106.465 243.877 108.636 239.358 112.98C231.486 120.539 231.372 134.17 239.126 140.816C240.228 141.763 241.483 142.53 242.667 143.379C242.547 143.682 242.427 143.985 242.304 144.288C239.864 143.791 237.433 143.259 234.984 142.81C227.939 141.511 220.92 140.959 213.892 143.064C205.091 145.698 203.426 151.959 206.066 159.195C207.322 162.635 209.321 165.824 211.163 169.025C211.93 170.36 212.004 171.09 210.377 171.424C207.013 172.119 203.606 172.64 200.283 173.492C195.291 174.773 190.226 175.94 185.432 177.779C180.795 179.558 179.714 183.582 182.074 188.018C183.006 189.765 184.147 191.401 185.123 193.129C185.606 193.978 185.932 194.919 186.513 196.238C183.387 196.238 180.729 196.083 178.101 196.283C175.632 196.469 173.075 196.695 170.767 197.507C167.574 198.628 166.31 201.697 167.443 204.935C168.29 207.354 169.491 209.651 170.518 212.01C170.77 212.591 170.955 213.2 171.27 214.07C168.916 214.07 166.928 213.907 164.974 214.098C158.696 214.71 156.722 216.85 156.425 222.238C156.173 226.834 154.717 231.364 153.802 235.926C153.645 236.707 153.539 237.499 153.353 238.631C165.006 230.889 174.313 221.388 182.6 210.806C191.859 198.983 200.818 186.902 210.52 175.454C219.67 164.655 231.175 156.635 244.186 151.009ZM342.674 143.565C353.34 152.314 356.018 161.008 351.967 174.416C351.249 176.792 350.566 179.178 349.865 181.56C364.338 173.295 375.448 162.644 376.569 145.015C377.176 135.474 369.799 123.751 360.915 120.153C356.979 118.557 352.705 117.553 348.489 116.961C343.921 116.321 342.036 118.477 341.873 123.013C341.67 128.639 341.167 134.256 341.049 139.881C341.024 141.12 341.733 142.793 342.674 143.565ZM119.972 193.646C120.965 193.455 122.129 193.535 122.919 193.029C127.292 190.226 131.866 187.629 135.836 184.32C153.842 169.325 163.805 149.84 165.85 126.674C167.062 112.963 166.648 99.1148 167.211 85.3382C167.643 74.6904 168.104 64.0226 169.208 53.432C170.235 43.585 173.824 34.3787 177.714 25.2867C180.555 18.6487 182.809 11.7589 185.306 4.97499C185.48 4.50309 185.5 3.97402 185.589 3.48782C168.301 2.93298 153.622 8.73019 140.81 19.8441C127.727 31.1926 116.966 44.3143 109.309 59.8727C107.527 63.4935 106.18 67.3373 104.787 71.1354C103.909 73.5235 104.575 76.0145 106.709 77.0928C118.685 83.1645 123.208 95.0936 129.377 105.656C136.051 117.084 138.562 129.511 137.203 142.758C135.779 156.661 131.591 169.594 124.56 181.66C122.867 184.566 121.477 187.66 120.115 190.743C119.749 191.57 120.004 192.671 119.972 193.646ZM13.7016 17.4274C14.145 16.7325 14.8429 16.2005 15.8698 15.1223C16.3389 17.599 16.6907 19.521 17.0626 21.4343C19.8629 35.843 28.9559 45.5327 41.1668 52.4653C57.5623 61.7718 75.1335 68.2039 93.5857 72.1049C100.047 73.4691 102.212 74.2528 104.429 66.2076C104.498 65.9588 104.641 65.7329 104.735 65.4898C111.906 46.8712 124.294 32.1736 138.98 19.0233C153.052 6.41644 169.731 1.3943 188.135 0.750799C191.258 0.642119 191.601 1.31422 190.226 3.9683C187.36 9.5024 184.565 15.0737 181.765 20.6421C172.303 39.4495 168.653 59.458 169.339 80.3875C169.631 89.2363 169.84 98.0909 169.866 106.945C169.934 128.659 165.378 149.105 153.244 167.52C145.404 179.424 136.03 189.545 122.575 195.091C119.795 196.238 118.182 197.931 117.404 200.728C114.832 209.963 114.123 219.349 115.316 228.833C116.105 235.099 118.757 240.722 123.053 245.292C124.826 247.177 127.55 248.947 130.024 249.242C135.779 249.931 148.153 245.939 150.764 237.29C152.455 231.693 153.727 225.939 154.731 220.176C155.384 216.429 157.211 214.167 160.715 213.16C162.698 212.591 164.737 212.234 167.002 211.724C166.57 209.831 166.247 208.058 165.761 206.336C164.605 202.252 165.607 198.74 169.173 196.572C171.299 195.282 173.985 194.553 176.487 194.321C182.998 193.718 183.126 194.333 180.226 187.861C177.7 182.226 179.165 178.325 184.905 176.075C188.123 174.813 191.456 173.792 194.802 172.906C199.033 171.785 203.332 170.909 207.811 169.883C206.604 166.742 205.423 163.871 204.387 160.948C200.657 150.415 205.059 142.558 216.083 140.622C219.973 139.938 224.024 140.133 228.002 139.998C230.273 139.918 232.547 139.984 234.678 139.984C233.594 136.252 231.915 132.665 231.604 128.962C230.806 119.521 235.519 112.708 243.254 107.821C248.528 104.486 254.495 102.956 260.619 103.113C268.751 103.319 276.872 104.151 284.984 104.892C289.26 105.284 289.552 105.178 290.67 100.937C291.419 98.0966 292.14 95.2023 293.321 92.5311C296.434 85.4812 302.855 81.6173 310.369 83.0587C324.574 85.7786 334.931 93.5292 339.751 107.626C340.612 110.14 341.078 112.791 341.584 114.813C345.543 114.813 349.301 114.381 352.923 114.893C365.145 116.621 376.941 129.354 378.806 142.581C379.061 144.38 379.721 145.235 381.42 145.904C389.261 148.999 396.858 152.597 403.597 157.773C410.908 163.388 416.7 170.352 418.325 179.469C419.572 186.468 419.223 193.787 419.237 200.965C419.246 206.079 419.077 212.517 418.774 217.63C418.634 217.619 418.931 218.425 418.814 218.511C417.624 219.372 418.719 218.717 417.93 219.941C417.581 220.485 416.754 221.182 416.351 221.669C414.074 224.423 412.833 223.33 412.67 223.439C412.738 223.31 413.777 221.371 413.848 221.248C416.171 217.227 416.508 212.688 416.677 208.212C416.963 200.602 417.827 192.874 416.9 185.387C415.313 172.557 408.72 162.361 397.232 155.912C393.042 153.558 388.508 151.776 384.023 150.003C380.625 148.656 380.803 149.205 379.301 152.468C377.147 157.136 374.544 161.697 371.495 165.83C365.305 174.216 356.733 180.038 348.363 186.019C347.614 186.556 346.693 186.857 344.991 187.686C345.4 185.939 345.454 184.743 345.943 183.768C349.221 177.27 351.461 170.52 351.381 163.147C351.275 153.243 345.354 146.279 335.575 144.231C326.974 142.427 318.544 143.342 310.043 145.012C295.475 147.872 281.465 152.374 268.116 158.846C253.01 166.17 238.886 174.936 228.065 188.107C219.576 198.443 215.185 210.529 213.729 223.719C212.828 231.867 212.974 240.03 214.327 248.115C215.72 256.458 216.944 264.872 219.041 273.051C221.032 280.833 223.841 288.432 226.727 295.946C227.831 298.82 227.473 300.939 225.814 303.161C221.255 309.265 218.778 316.189 217.307 323.608C214.258 338.997 222.797 357.321 236.257 365.398C244.947 370.612 254.341 372.7 264.137 373.48C287.2 375.314 310.286 374.947 333.249 372.342C352.299 370.183 370.511 364.9 386.498 353.735C405.236 340.647 417.298 322.847 423.216 300.836C424.134 297.413 424.806 293.921 425.527 290.446C426.454 285.961 425.644 281.574 423.036 278.011C418.302 271.547 417.181 264.082 416.011 256.558C415.21 251.421 414.526 246.267 413.711 241.134C413.608 240.479 412.284 238.866 411.998 238.239C414.097 236.578 414.003 227.838 416.969 229.128C417.081 236.738 417.181 247.783 418.153 255.302C419.166 263.099 419.978 271.218 425.876 277.479C426.789 278.448 427.206 280.05 427.466 281.431C429.411 291.744 426.374 301.32 422.964 310.829C419.372 317.324 416.019 323.968 412.106 330.263C409.472 334.501 406.097 338.288 402.95 342.198C401.572 343.911 401.718 345.06 403.674 346.067C409.975 349.299 416.423 352.01 423.714 351.581C425.007 351.504 426.279 351.101 427.518 350.186C422.109 348.63 416.697 347.071 411.288 345.512C411.363 345.08 411.434 344.646 411.506 344.214C412.899 344.36 414.315 344.4 415.685 344.674C420.167 345.572 424.626 346.585 429.108 347.489C430.959 347.86 432.89 348.464 434.703 348.258C438.239 347.852 441.745 347.054 445.195 346.159C445.893 345.979 446.29 344.646 446.988 343.599C443.467 342.366 440.404 341.294 437.34 340.224C437.415 339.875 437.489 339.526 437.564 339.177C438.485 339.177 439.42 339.086 440.329 339.192C449.566 340.284 457.709 337.702 464.991 332.027C467.949 329.725 469.66 326.799 469.096 323.073C468.33 318.002 470.172 314.044 473.387 310.337C476.439 306.819 477.202 302.595 475.829 298.176C474.219 292.991 470.609 291.204 465.844 293.806C460.727 296.601 455.998 300.121 451.162 303.41C446.717 306.433 442.192 309.256 436.797 310.22C436.093 310.346 435.298 309.968 434.546 309.825C434.809 309.628 435.049 309.319 435.344 309.25C436.216 309.05 437.266 309.199 437.97 308.764C442.506 305.936 446.96 302.97 451.465 300.09C456.193 297.061 460.747 293.661 465.755 291.198C470.317 288.959 475.403 291.387 477.723 295.96C479.399 299.26 479.659 302.821 478.078 306.024C476.221 309.782 473.555 313.134 471.464 316.789C470.789 317.971 470.438 319.606 470.615 320.948C471.135 324.912 470.867 328.681 468.081 331.701C466.224 333.715 464.133 335.745 461.739 336.978C455.773 340.05 449.7 342.675 444.757 347.609C442.801 349.559 438.871 349.459 435.904 350.483C424.966 354.258 414.409 353.62 404.249 347.949C401.523 346.428 399.149 346.596 396.586 348.593C386.42 356.512 375.685 363.47 363.423 367.829C348.795 373.026 333.604 375.133 318.232 375.937C295.069 377.147 271.929 377.444 248.9 373.549C238.303 371.753 227.565 370.76 216.887 369.431C212.84 368.927 211.939 369.777 212.699 373.844C213.286 376.981 213.904 380.207 215.159 383.11C220.906 396.395 228.031 408.816 238.22 419.326C240.708 421.897 242.765 424.989 244.552 428.106C246.02 430.672 245.293 433.466 243.214 435.537C236.066 442.658 225.643 445.072 217.571 437.845C215.374 435.877 213.157 433.926 211.043 431.873C208.309 429.216 207.196 429.067 203.641 430.537C201.335 431.49 198.933 432.385 196.49 432.785C190.317 433.803 184.943 431.741 180.526 427.503C170.135 417.53 159.897 407.4 149.546 397.387C146.21 394.161 144.12 390.243 143.819 385.735C143.542 381.546 143.648 377.21 144.411 373.088C146.053 364.205 150.172 356.232 154.623 348.452C155.341 347.2 156.179 346.044 154.208 345.066C142.538 339.266 133.059 330.6 123.834 321.634C119.117 317.052 114.535 312.325 109.944 307.617C108.156 305.784 106.775 306.325 105.556 308.166C102.976 312.07 100.456 316.014 97.8733 319.915C96.6834 321.717 95.6194 323.671 94.1205 325.183C90.0731 329.262 85.897 329.376 81.4692 325.827C78.0482 323.081 75.5883 319.698 74.6358 315.357C74.0408 312.64 72.8395 311.132 69.6645 310.783C63.7808 310.137 61.9845 307.663 62.056 301.734C62.0645 300.954 62.0788 300.17 62.1761 299.398C62.3763 297.768 63.3832 295.52 62.6795 294.682C61.7757 293.603 59.5131 293.683 57.8455 293.232C51.444 291.496 49.6134 286.296 53.3919 280.765C56.7071 275.909 61.5611 273.972 67.1417 273.452C76.2405 272.602 84.8816 274.928 93.4998 277.373C94.7698 277.733 96.0656 278.016 97.573 278.391C96.5976 272.319 95.5793 266.696 94.807 261.042C92.9821 247.709 93.8688 234.481 97.7646 221.643C100.282 213.355 103.98 205.49 109.278 198.448C114.109 192.022 115.25 185.112 110.999 177.799C108.997 174.35 107.232 170.766 105.253 167.303C98.4225 155.345 90.1389 144.755 78.3571 137.104C67.5192 130.069 56.9416 122.624 46.3669 115.197C35.8608 107.821 25.1888 100.628 16.3589 91.1497C6.67089 80.7507 0.380968 68.8817 0.787139 54.2757C1.16471 40.6564 6.49069 28.6901 13.7016 17.4274Z" fill="black"/>
<path d="M405.018 235.206C403.216 227.521 400.342 220.331 394.844 214.448C390.522 209.821 385.082 208.022 378.88 208.345C377.639 208.411 376.423 208.883 374.31 209.375C375.688 210.301 376.298 210.793 376.975 211.156C383.557 214.703 387.856 220.163 390.316 227.135C391.294 229.907 390.8 230.536 387.865 230.624C387.519 230.636 387.17 230.642 386.824 230.653C381.935 230.825 381.601 231.291 382.21 236.041C382.493 238.269 382.413 240.54 382.562 242.788C382.713 245.062 381.812 245.937 379.515 245.425C377.181 244.907 375.448 245.937 374.258 247.896C373.037 249.909 373.866 251.46 376.249 251.637C377.356 251.717 378.474 251.648 379.618 251.648C377.997 259.101 370.597 261.244 361.781 256.731C363.011 262.594 363.889 268.348 367.164 273.29C370.628 278.515 379.281 280.411 384.919 277.649C389.876 275.22 394.95 273.015 400.067 270.945C402.993 269.758 404.724 267.839 405.49 264.827C408.013 254.903 407.324 245.036 405.018 235.206ZM362.691 240.766C362.768 241.593 363.878 242.322 364.539 243.097C365.34 242.368 366.495 241.764 366.804 240.866C366.987 240.334 365.834 239.342 364.873 237.969C363.783 239.287 362.628 240.082 362.691 240.766ZM366.263 224.541C363.057 224.538 359.576 227.819 359.756 230.782C359.899 233.13 361.344 234.108 363.603 234.042C367.093 233.999 370.794 230.87 370.703 228.042C370.637 226.083 368.689 224.544 366.263 224.541ZM412.598 223.426C412.621 223.429 412.644 223.44 412.667 223.437C413.474 223.369 414.183 223.054 414.809 222.545C415.379 222.079 415.725 221.455 416.105 220.838C416.826 219.662 417.641 218.452 418.771 217.631C418.817 217.597 418.851 217.554 418.891 217.514C421.068 219.43 419.589 221.455 418.991 223.42C418.408 225.336 417.292 227.235 416.966 229.129C416.817 229.183 416.686 229.272 416.62 229.418C415.264 232.363 414.678 236.13 411.995 238.241C411.923 238.295 411.875 238.369 411.84 238.449C411.694 238.455 411.549 238.461 411.403 238.467C410.513 243.457 409.523 248.431 408.774 253.442C408.239 257.028 408.056 260.666 407.658 264.272C407.358 266.989 407.61 269.466 410.939 271.451C409.297 271.771 408.385 272.069 407.464 272.112C399.203 272.481 391.658 275.035 384.753 279.522C382.33 281.098 382.336 281.89 384.447 283.889C385.102 284.51 385.554 285.348 386.097 286.088C385.88 286.294 385.665 286.503 385.451 286.712C384.178 285.78 382.891 284.867 381.635 283.912C371.541 276.241 360.946 276.179 350.245 282.29C346.221 284.59 342.686 287.753 338.924 290.516C338.063 291.148 337.194 291.76 336.327 292.383C336.135 292.209 335.941 292.037 335.749 291.866C336.081 291.285 336.304 290.59 336.767 290.144C343.546 283.592 351.207 278.552 360.583 276.536C364.602 275.669 364.65 275.398 363.437 271.302C361.518 264.827 359.384 258.375 358.083 251.768C355.946 240.889 356.89 230.218 361.753 220.025C367.714 207.527 376.672 203.683 389.753 208.454C394.464 210.173 399.02 212.32 403.617 214.342C406.878 215.775 409.664 215.338 412.083 212.644C412.478 212.209 413.185 212.057 413.748 211.774C413.957 212.383 414.363 213.001 414.34 213.602C414.194 217.7 412.289 221.092 409.795 224.373C411.214 224.656 412.018 224.164 412.598 223.426Z" fill="black"/>
<path d="M263.088 252.475C265.559 252.727 269.503 248.968 269.492 246.575C269.478 244.441 268.391 243.174 266.131 243.157C263.499 243.137 261.254 246.277 261.22 250.87C261.554 251.179 262.264 252.392 263.088 252.475ZM268.351 260.317C268.231 259.539 267.023 258.933 266.291 258.252C265.602 259.019 264.446 259.739 264.363 260.566C264.295 261.272 265.462 262.099 266.554 263.463C267.458 261.981 268.468 261.061 268.351 260.317ZM268.142 289.967C270.321 292.789 273.359 294.022 276.935 292.915C287.157 289.755 297.601 288.557 308.281 289.006C311.571 289.143 314.368 288.01 316.124 284.899C325.246 268.728 321.651 243.025 308.436 230.198C300.132 222.139 288.385 219.842 278.988 224.453C278.465 224.71 277.99 225.056 276.866 225.742C283.204 227.639 287.504 231.265 290.856 236.098C291.399 236.879 291.931 237.674 292.389 238.507C295.181 243.575 294.789 244.73 289.583 246.904C285.544 248.591 285.607 248.582 286.033 253.05C286.654 259.51 285.333 265.456 281.134 270.602C275.482 277.531 268.188 277.077 263.519 269.486C262.896 268.471 262.224 267.49 261.323 266.589C262.192 274.806 262.833 283.091 268.142 289.967ZM273.708 260.637C273.079 262.542 272.718 264.673 272.884 266.652C272.973 267.696 274.312 269.223 275.316 269.438C276.362 269.658 278.162 268.877 278.785 267.962C279.892 266.326 280.361 264.261 281.305 261.838C280.255 260.42 279.54 258.475 278.227 257.897C276.039 256.939 274.366 258.652 273.708 260.637ZM248.897 253.896C247.404 251.657 245.805 250.376 244.381 248.923C243.282 247.799 243.062 246.832 244.753 245.602C248.088 243.174 251.291 240.509 254.283 237.663C258.605 233.547 262.395 228.834 266.938 224.999C279.291 214.566 296.105 211.603 308.052 225.614C317.795 237.039 323.822 249.818 323.144 265.148C322.8 272.958 320.409 280.263 316.948 287.47C319.099 288.568 321.161 289.621 323.227 290.673C323.158 290.925 323.089 291.174 323.021 291.425C321.445 291.425 319.834 291.643 318.298 291.391C298.956 288.228 280.982 292.635 263.705 301.081C263.036 301.409 262.218 301.435 261.471 301.601C261.323 301.315 261.177 301.026 261.031 300.74C262.478 299.668 263.897 298.552 265.379 297.534C269.057 295.009 269.017 294.906 266.566 291.342C263.969 287.564 260.974 283.903 259.212 279.742C256.866 274.211 253.769 270.799 247.376 271.605C246.878 271.668 246.283 271.603 245.842 271.379C243.251 270.061 240.668 268.717 238.145 267.27C237.788 267.064 237.625 266.249 237.67 265.742C237.69 265.539 238.511 265.325 238.983 265.27C240.087 265.145 241.203 265.11 243.079 264.993C238.225 261.99 234.573 259.033 232.539 254.125C235.64 254.534 238.303 255.195 240.951 255.146C243.606 255.097 246.249 254.342 248.897 253.896Z" fill="black"/>
<path d="M305.321 185.399C300.725 183.011 295.762 182.253 290.699 182.47C278.325 182.999 267.502 188.096 257.035 194.205C255.734 194.966 254.144 195.226 252.688 195.721C253.406 194.219 253.74 192.257 254.902 191.288C269.083 179.444 285.15 176.65 302.687 181.938C304.783 182.573 306.597 184.152 308.539 185.293C308.307 185.671 308.076 186.051 307.844 186.429C307 186.091 306.125 185.817 305.321 185.399Z" fill="black"/>
<path d="M326.477 315.079C325.355 317.747 326.8 319.452 328.705 320.822C330.235 321.926 331.926 322.869 333.659 323.619C342.389 327.388 351.379 327.102 359.877 323.562C366.396 320.847 373.833 318.079 373.718 308.755C373.718 308.655 373.961 308.552 374.09 308.446C376.367 310.308 378.647 312.17 380.992 314.084C380.904 314.149 380.472 314.696 379.965 314.781C375.575 315.505 372.342 318.322 368.879 320.747C356.705 329.276 343.999 331.495 330.435 324.022C328.974 323.218 327.258 322.889 325.673 322.303C323.533 321.511 321.405 320.684 319.134 319.821C321.74 317.593 323.962 315.688 326.308 313.68C326.359 314.043 326.654 314.658 326.477 315.079Z" fill="black"/>
<path d="M397.077 172.859C401.983 174.218 405.884 177.212 409.325 180.807C409.909 181.416 409.849 182.638 410.086 183.576C409.171 183.476 408.192 183.541 407.357 183.23C406.49 182.906 405.75 182.229 404.972 181.682C395.123 174.778 384.563 173.243 373.239 177.464C370.839 178.359 368.439 179.257 366.039 180.152C365.848 179.909 365.659 179.663 365.467 179.42C367.026 178.022 368.396 176.28 370.178 175.279C378.742 170.474 387.812 170.291 397.077 172.859Z" fill="black"/>
<path d="M293.948 209.409C297.401 209.595 300.653 210.439 303.773 212.71C299.443 212.017 295.53 210.931 291.597 210.848C278.199 210.573 267.61 217.889 256.683 224.258C254.306 225.643 251.649 226.541 249.123 227.665C249.006 227.321 248.889 226.978 248.772 226.635C251.286 225.076 253.875 223.623 256.306 221.945C267.647 214.114 279.758 208.643 293.948 209.409Z" fill="black"/>
<path d="M390.646 200.32C392.62 201.086 394.199 202.863 395.961 204.175C395.701 204.661 395.437 205.151 395.177 205.637C387.614 199.093 379.111 198.71 370.118 201.392C376.897 198.278 383.776 197.649 390.646 200.32Z" fill="black"/>
<path d="M206.151 277.286C204.769 272.604 203.379 267.891 201.986 263.18C202.261 263.114 202.535 263.051 202.807 262.989C204.901 267.605 208.868 271.849 206.151 277.286Z" fill="#F7F4F2"/>
<path d="M194.383 300.226C193.161 302.98 191.94 305.735 190.719 308.492C189.835 304.928 191.468 302.317 193.262 299.769C193.636 299.92 194.008 300.075 194.383 300.226Z" fill="#F7F4F2"/>
<path d="M101.992 245.859C100.076 242.307 100.525 241.615 106.383 237.969C107.412 241.978 102.47 242.241 101.992 245.859Z" fill="#F7F4F2"/>
<path d="M106.367 225.096C105.014 227.012 104.067 228.35 103.121 229.689C101.828 226.795 103.198 225.748 106.367 225.096Z" fill="#F7F4F2"/>
<path d="M17.8375 34.2774C18.0692 35.2813 17.9805 36.3824 18.318 37.3376C23.2006 51.2086 32.697 60.169 46.8844 64.1673C48.1344 64.5191 49.2413 65.3828 50.4141 66.0091C50.2968 66.3209 50.1795 66.6326 50.0622 66.9443C49.1956 66.8757 48.2259 67.0387 47.4822 66.7012C42.3193 64.3732 36.9275 62.3884 32.1364 59.4368C23.747 54.2745 17.7974 47.0302 16.1842 36.9258C15.901 35.1411 15.9897 33.2964 15.9067 31.4803C16.2385 31.4289 16.5703 31.3774 16.9021 31.3259C17.2196 32.3069 17.6058 33.2736 17.8375 34.2774Z" fill="#F7F4F2"/>
<path d="M411.926 330.244C415.839 323.949 419.191 317.305 422.783 310.807C426.642 310.476 430.504 310.141 434.365 309.806C435.117 309.949 435.912 310.327 436.616 310.201C442.011 309.237 446.536 306.412 450.978 303.391C455.818 300.102 460.543 296.582 465.66 293.788C470.428 291.185 474.038 292.972 475.649 298.155C477.022 302.576 476.255 306.798 473.206 310.316C469.991 314.025 468.149 317.98 468.915 323.054C469.476 326.781 467.765 329.706 464.811 332.009C457.528 337.683 449.385 340.263 440.149 339.173C439.236 339.067 438.304 339.159 437.38 339.159C437.305 339.508 437.234 339.856 437.16 340.205C440.223 341.275 443.286 342.348 446.808 343.577C446.107 344.627 445.709 345.957 445.014 346.137C441.565 347.032 438.058 347.83 434.522 348.236C432.709 348.445 430.775 347.842 428.925 347.467C424.442 346.566 419.983 345.551 415.501 344.656C414.134 344.381 412.718 344.341 411.325 344.195C411.25 344.627 411.179 345.059 411.107 345.494C416.516 347.052 421.925 348.608 427.334 350.167C426.096 351.082 424.826 351.485 423.533 351.56C416.242 351.991 409.795 349.28 403.493 346.046C401.534 345.042 401.388 343.892 402.77 342.176C405.913 338.269 409.291 334.483 411.926 330.244Z" fill="#F4731C"/>
<path d="M238.797 265.25C238.322 265.304 237.501 265.522 237.484 265.722C237.436 266.228 237.599 267.046 237.959 267.252C240.482 268.696 243.065 270.04 245.656 271.359C246.097 271.582 246.692 271.651 247.19 271.588C253.58 270.778 256.68 274.19 259.023 279.721C260.785 283.883 263.78 287.544 266.38 291.322C268.828 294.885 268.871 294.988 265.193 297.514C263.708 298.532 262.292 299.647 260.842 300.72C260.991 301.008 261.137 301.294 261.282 301.58C262.032 301.415 262.85 301.389 263.519 301.06C280.793 292.614 298.767 288.21 318.112 291.37C319.645 291.622 321.258 291.405 322.834 291.405C322.903 291.153 322.969 290.904 323.038 290.652C320.975 289.6 318.913 288.547 316.762 287.452C320.223 280.242 322.611 272.938 322.957 265.13C323.633 249.797 317.609 237.022 307.866 225.596C295.919 211.585 279.105 214.545 266.751 224.978C262.209 228.816 258.419 233.53 254.094 237.642C251.102 240.488 247.902 243.153 244.564 245.584C242.876 246.814 243.093 247.778 244.195 248.902C245.616 250.355 247.215 251.639 248.711 253.876C246.063 254.322 243.42 255.08 240.762 255.125C238.114 255.174 235.453 254.513 232.353 254.104C234.387 259.015 238.036 261.969 242.89 264.972C241.014 265.093 239.901 265.124 238.797 265.25ZM325.483 322.284C327.068 322.87 328.784 323.199 330.243 324.003C343.809 331.476 356.512 329.257 368.689 320.728C372.153 318.303 375.385 315.486 379.776 314.762C380.282 314.676 380.711 314.13 380.8 314.064C378.457 312.151 376.177 310.286 373.898 308.424C373.772 308.533 373.526 308.636 373.529 308.736C373.643 318.06 366.203 320.828 359.687 323.542C351.186 327.083 342.199 327.369 333.469 323.6C331.733 322.85 330.045 321.906 328.512 320.802C326.61 319.433 325.166 317.728 326.287 315.06C326.461 314.639 326.17 314.024 326.115 313.661C323.773 315.669 321.547 317.574 318.944 319.801C321.213 320.665 323.341 321.492 325.483 322.284ZM248.582 226.614C248.7 226.957 248.814 227.3 248.931 227.644C251.46 226.523 254.117 225.625 256.491 224.24C267.418 217.871 278.007 210.552 291.405 210.83C295.338 210.91 299.251 211.999 303.584 212.692C300.464 210.421 297.209 209.577 293.759 209.391C279.569 208.622 267.455 214.093 256.114 221.927C253.683 223.605 251.097 225.058 248.582 226.614ZM302.5 181.921C284.963 176.63 268.894 179.424 254.715 191.27C253.554 192.24 253.219 194.199 252.498 195.7C253.957 195.208 255.547 194.945 256.849 194.187C267.315 188.078 278.136 182.979 290.51 182.45C295.572 182.233 300.538 182.993 305.135 185.379C305.935 185.796 306.814 186.071 307.655 186.411C307.889 186.031 308.121 185.653 308.352 185.273C306.407 184.132 304.597 182.553 302.5 181.921ZM365.854 180.133C368.254 179.235 370.654 178.337 373.054 177.445C384.378 173.224 394.938 174.757 404.787 181.661C405.565 182.207 406.305 182.885 407.172 183.211C408.007 183.522 408.986 183.457 409.901 183.557C409.663 182.619 409.724 181.397 409.14 180.788C405.699 177.19 401.797 174.199 396.892 172.84C387.63 170.272 378.557 170.455 369.993 175.26C368.211 176.261 366.844 178 365.282 179.401C365.474 179.644 365.663 179.887 365.854 180.133ZM394.981 205.619C395.244 205.13 395.505 204.644 395.765 204.155C394.006 202.842 392.424 201.069 390.45 200.299C383.58 197.628 376.704 198.26 369.922 201.375C378.915 198.692 387.421 199.075 394.981 205.619ZM217.124 323.588C218.592 316.172 221.072 309.245 225.628 303.142C227.287 300.92 227.648 298.801 226.543 295.926C223.657 288.413 220.848 280.814 218.855 273.032C216.761 264.852 215.537 256.441 214.141 248.096C212.791 240.01 212.645 231.848 213.543 223.7C215.002 210.509 219.393 198.423 227.882 188.087C238.703 174.917 252.824 166.151 267.933 158.826C281.282 152.354 295.289 147.853 309.86 144.993C318.358 143.322 326.787 142.407 335.391 144.212C345.171 146.26 351.092 153.224 351.198 163.128C351.275 170.501 349.035 177.25 345.76 183.748C345.268 184.724 345.214 185.919 344.805 187.667C346.51 186.837 347.428 186.537 348.18 185.999C356.547 180.019 365.119 174.196 371.309 165.81C374.361 161.678 376.964 157.116 379.115 152.449C380.619 149.185 380.439 148.636 383.84 149.983C388.322 151.756 392.859 153.538 397.049 155.892C408.536 162.341 415.13 172.537 416.717 185.367C417.644 192.855 416.78 200.582 416.491 208.193C416.322 212.669 415.988 217.208 413.662 221.229C412.804 222.719 412.275 224.884 409.612 224.352C412.106 221.071 414.014 217.679 414.16 213.584C414.18 212.98 413.774 212.366 413.565 211.754C413.004 212.037 412.295 212.191 411.903 212.626C409.48 215.317 406.694 215.758 403.436 214.322C398.84 212.3 394.283 210.152 389.572 208.433C376.489 203.663 367.533 207.509 361.569 220.005C356.707 230.198 355.763 240.868 357.902 251.748C359.201 258.357 361.338 264.809 363.254 271.284C364.467 275.377 364.421 275.652 360.4 276.515C351.023 278.532 343.366 283.574 336.584 290.123C336.124 290.572 335.901 291.267 335.566 291.845C335.76 292.019 335.952 292.191 336.144 292.363C337.01 291.742 337.883 291.127 338.741 290.498C342.502 287.732 346.038 284.569 350.065 282.27C360.763 276.158 371.358 276.221 381.452 283.891C382.707 284.847 383.995 285.762 385.267 286.694C385.485 286.485 385.699 286.277 385.914 286.068C385.37 285.33 384.921 284.489 384.263 283.868C382.155 281.872 382.147 281.08 384.572 279.504C391.477 275.014 399.02 272.463 407.281 272.091C408.205 272.051 409.114 271.753 410.756 271.433C407.43 269.448 407.178 266.969 407.475 264.255C407.873 260.645 408.056 257.007 408.594 253.424C409.343 248.413 410.333 243.437 411.219 238.446C411.643 238.432 412.066 238.417 412.489 238.4C412.847 239.304 413.379 240.179 413.525 241.114C414.34 246.248 415.027 251.402 415.825 256.538C416.995 264.063 418.119 271.528 422.853 277.991C425.458 281.555 426.268 285.942 425.341 290.426C424.623 293.901 423.951 297.393 423.03 300.817C417.115 322.827 405.05 340.628 386.311 353.715C370.328 364.881 352.116 370.163 333.063 372.323C310.103 374.928 287.017 375.294 263.954 373.461C254.157 372.68 244.761 370.592 236.074 365.378C222.61 357.302 214.075 338.978 217.124 323.588Z" fill="#F4731C"/>
<path d="M190.713 308.49C191.934 305.736 193.155 302.982 194.377 300.225C194.002 300.073 193.63 299.922 193.256 299.767C191.462 302.316 189.829 304.927 190.713 308.49ZM206.147 277.285C208.862 271.848 204.894 267.604 202.803 262.988C202.529 263.051 202.257 263.116 201.982 263.179C203.373 267.893 204.763 272.603 206.147 277.285ZM106.384 237.969C100.526 241.615 100.074 242.31 101.993 245.859C102.471 242.241 107.413 241.978 106.384 237.969ZM103.109 229.689C104.055 228.35 105.002 227.012 106.355 225.096C103.186 225.748 101.819 226.795 103.109 229.689ZM129.833 307.375C128.949 306.852 127.951 306.385 127.104 305.73C123.706 303.102 122.29 299.255 121.163 295.357C119.793 290.63 118.635 285.939 115.073 282.144C113.486 280.451 112.759 277.951 111.658 275.809C110.872 274.282 110.114 272.743 109.19 270.904C106.933 273.435 107.167 275.683 108.16 277.908C109.061 279.936 110.168 281.872 111.186 283.851C110.299 283.651 109.316 283.628 108.549 283.211C105.025 281.289 103.166 278.034 102.448 274.291C101.101 267.252 99.7219 260.188 98.9696 253.072C96.8358 232.875 100.34 213.956 112.714 197.288C113.36 196.418 114.261 195.741 115.042 194.971C114.905 200.603 114.172 205.794 113.454 210.984C112.001 221.529 112.502 231.825 116.864 241.764C119.587 247.97 125.6 252.552 131.466 252.529C140.817 252.494 149.074 249.812 156.511 243.849C167.733 234.854 177.243 224.266 186.534 213.413C189.766 209.637 193.244 206.071 196.777 202.224C197.646 203.302 198.141 203.917 198.956 204.927C199.651 197.099 205.512 193.902 210.646 190.215C212.978 188.539 214.562 189.431 214.714 192.366C214.837 194.768 214.668 197.225 214.305 199.607C213.487 205.001 212.303 210.341 211.576 215.743C210.609 222.922 210.343 230.215 209.048 237.328C207.028 248.419 206.55 259.441 209.651 270.309C211.859 278.043 214.808 285.57 217.529 293.155C218.401 295.583 218.484 297.754 217.24 300.133C212.168 309.846 209.608 320.219 209.848 331.184C209.963 336.41 210.498 341.638 214.345 345.762C217.975 349.654 217.872 354.757 214.059 358.429C211.588 360.811 209.502 360.359 208.49 357.039C206.988 352.125 207.025 347.163 208.201 342.144C208.493 340.894 208.481 338.932 207.729 338.18C201.879 332.334 196.433 326.205 192.166 319.072C191.711 318.312 190.45 318.037 189.566 317.537C189.446 318.478 189.088 319.461 189.254 320.348C189.843 323.477 188.547 325.13 185.535 324.206C182.094 323.151 178.799 321.549 175.533 319.993C173.439 318.995 171.511 317.654 168.877 316.092C169.086 317.591 169 318.4 169.311 319.007C170.953 322.196 170.581 325.39 168.754 328.164C166.774 331.176 164.395 333.982 161.855 336.541C160.922 337.479 158.877 338.071 157.595 337.762C152.721 336.584 148.5 334.371 147.015 328.939C146.686 327.735 145.934 326.646 145.379 325.505C145.104 325.602 144.827 325.702 144.552 325.799C144.632 327.103 144.71 328.407 144.79 329.72C138.611 329.443 116.85 308.322 115.671 301.014C117.187 302.173 118.523 302.842 119.373 303.903C122.442 307.732 127.156 308.136 131.254 309.76C132.702 310.332 133.674 309.614 133.242 307.63C132.828 305.728 132.888 303.723 132.705 301.275C128.817 301.569 131.397 305.507 129.833 307.375Z" fill="#F4731C"/>
<path d="M111.016 283.842C111.016 283.842 111.013 283.837 111.011 283.832C111.016 283.835 111.018 283.835 111.023 283.835L111.016 283.842Z" fill="#E78C3B"/>
<path d="M15.9932 36.9063C17.6064 47.0107 23.556 54.255 31.9454 59.4173C36.7365 62.3689 42.1283 64.3537 47.2884 66.6817C48.0349 67.0192 49.0046 66.8562 49.8684 66.9249C49.9857 66.6131 50.103 66.3014 50.2202 65.9896C49.0475 65.3633 47.9434 64.4996 46.6934 64.1478C32.506 60.1495 23.0068 51.1891 18.127 37.3181C17.7895 36.3629 17.8782 35.2618 17.6465 34.2579C17.4148 33.2569 17.0287 32.2903 16.7083 31.3064C16.3765 31.3579 16.0447 31.4094 15.7129 31.4609C15.7987 33.277 15.7072 35.1217 15.9932 36.9063ZM6.45392 35.5049C8.41899 30.5514 11.1535 25.9039 13.5419 21.1162C13.8222 21.2306 14.1025 21.3422 14.3828 21.4566C14.4772 21.7626 14.5831 22.0658 14.666 22.3718C18.2672 35.7022 25.9987 46.0326 38.0237 52.6878C46.8822 57.5898 56.0496 62.0371 65.403 65.901C73.7295 69.3444 82.425 71.9728 91.0976 74.4781C100.751 77.2695 109.021 82.4518 115.817 89.4588C120.436 94.2207 123.643 100.393 127.258 106.075C131.423 112.625 133.285 120.104 134.114 127.64C134.832 134.186 134.864 140.945 134.109 147.482C133.019 156.923 129.157 165.635 124.999 174.135C122.885 178.456 120.619 182.701 118.154 187.502C116.824 185.483 115.722 184.042 114.861 182.472C110.865 175.187 107.201 167.708 102.917 160.601C98.0053 152.453 93.1656 144.056 85.3111 138.302C79.3758 133.952 72.8828 130.374 66.7588 126.276C56.4272 119.36 46.0555 112.49 35.9585 105.246C26.7567 98.648 18.0784 91.3921 11.4023 82.0542C7.38926 76.4429 4.36586 70.3654 3.24174 63.5501C1.6571 53.9405 2.87848 44.5053 6.45392 35.5049Z" fill="#F4731C"/>
<path d="M145.649 44.0084C144.694 45.7673 143.742 47.5291 142.786 49.288C143.069 49.4396 143.35 49.594 143.633 49.7456C144.591 47.9895 145.549 46.2306 146.507 44.4746C146.221 44.3202 145.935 44.1629 145.649 44.0084ZM177.537 25.2668C173.647 34.3588 170.057 43.568 169.033 53.4121C167.929 64.0027 167.468 74.6733 167.033 85.3211C166.473 99.0949 166.885 112.943 165.675 126.654C163.63 149.82 153.667 169.308 135.661 184.3C131.688 187.609 127.117 190.206 122.744 193.009C121.954 193.515 120.787 193.435 119.797 193.626C119.826 192.651 119.574 191.553 119.938 190.724C121.299 187.64 122.689 184.546 124.383 181.64C131.416 169.574 135.601 156.641 137.025 142.738C138.384 129.491 135.876 117.064 129.199 105.636C123.033 95.0737 118.507 83.1447 106.531 77.0757C104.4 75.9947 103.734 73.5065 104.609 71.1184C106.005 67.3203 107.349 63.4736 109.131 59.8528C116.791 44.2944 127.552 31.1727 140.632 19.8243C153.444 8.7103 168.123 2.91308 185.414 3.46792C185.325 3.95412 185.303 4.48321 185.131 4.95511C182.634 11.739 180.377 18.6288 177.537 25.2668Z" fill="#F4731C"/>
<path d="M338.65 138.338C338.298 140.466 336.96 141.847 334.208 141.635C324.446 140.889 314.643 139.719 304.892 140.008C293.588 140.345 282.31 141.936 271.043 143.203C261.618 144.264 252.665 147.258 244.015 150.999C231.003 156.625 219.496 164.647 210.346 175.446C200.641 186.895 191.682 198.975 182.423 210.802C174.134 221.386 164.823 230.887 153.17 238.629C153.356 237.5 153.462 236.707 153.619 235.924C154.535 231.362 155.993 226.832 156.245 222.236C156.54 216.845 158.516 214.708 164.795 214.093C166.748 213.905 168.736 214.065 171.09 214.065C170.776 213.195 170.59 212.586 170.338 212.006C169.311 209.646 168.11 207.35 167.263 204.93C166.131 201.692 167.395 198.624 170.587 197.503C172.895 196.69 175.452 196.464 177.921 196.279C180.55 196.078 183.207 196.233 186.336 196.233C185.753 194.914 185.427 193.973 184.946 193.121C183.968 191.396 182.826 189.758 181.897 188.01C179.537 183.577 180.615 179.55 185.255 177.771C190.049 175.932 195.115 174.763 200.106 173.484C203.43 172.632 206.839 172.109 210.203 171.417C211.83 171.079 211.756 170.35 210.987 169.017C209.145 165.814 207.145 162.625 205.889 159.184C203.249 151.949 204.914 145.685 213.715 143.051C220.746 140.946 227.765 141.501 234.811 142.797C237.259 143.248 239.693 143.78 242.133 144.275C242.256 143.972 242.376 143.669 242.496 143.366C241.312 142.516 240.056 141.75 238.955 140.806C231.201 134.156 231.315 120.526 239.184 112.964C243.709 108.619 249.304 106.449 255.354 105.451C265.27 103.815 275.061 104.544 284.595 107.75C287.919 108.868 288.565 110.318 288.354 113.813C288.316 114.414 288.977 115.06 289.315 115.684C289.644 115.595 289.973 115.509 290.304 115.421C290.799 112.978 291.205 110.513 291.806 108.096C293.133 102.742 294.114 97.2424 296.065 92.1173C298.107 86.7491 302.532 84.381 308.482 84.6213C316.053 84.9244 322.049 88.3793 327.154 93.5073C335.913 102.299 341.153 112.632 340.029 125.453C339.651 129.758 339.354 134.082 338.65 138.338Z" fill="#F4731C"/>
<path d="M162.246 340.073C165.207 336.155 168.468 332.394 172.02 329.013C174.812 326.356 176.874 326.768 180.264 328.607C182.34 329.731 184.74 330.26 186.997 331.052C189.022 331.762 191.193 332.202 193.047 333.22C200.157 337.124 202.583 343.985 204.271 351.353C206.33 360.345 208.224 369.408 210.918 378.217C212.743 384.18 215.509 389.923 218.412 395.471C224.122 406.388 231.71 416.012 239.888 425.184C243.274 428.982 242.931 432.937 239.035 436.189C234.733 439.784 229.971 440.242 224.699 438.651C219.222 437.001 215.38 433.206 211.545 429.336C209.285 427.054 206.968 425.801 203.873 427.981C202.926 428.647 201.636 428.833 200.498 429.213C194.345 431.27 188.456 431.29 183.007 427.154C177.552 423.013 174.632 417.239 173.084 410.861C171.634 404.886 170.953 398.726 169.852 392.663C169.738 392.036 169.063 391.51 168.648 390.935C168.319 391.562 167.684 392.199 167.715 392.806C167.841 395.394 167.99 398.005 168.453 400.55C169.263 405.012 170.313 409.434 171.262 413.87C170.979 414.061 170.699 414.25 170.415 414.439C168.319 412.214 166.134 410.06 164.14 407.743C158.087 400.714 153.997 392.931 155.207 383.236C155.238 382.979 155.298 382.696 155.23 382.458C154.99 381.62 154.698 380.796 154.423 379.967C153.96 380.774 153.193 381.543 153.09 382.389C152.864 384.271 152.779 386.21 152.99 388.087C153.382 391.582 154.026 395.045 154.658 399.109C152.979 397.599 151.477 396.549 150.356 395.185C144.778 388.413 144.709 380.556 146.477 372.568C149.146 360.519 154.861 349.843 162.246 340.073Z" fill="#F4731C"/>
<path d="M376.799 211.138C376.121 210.771 375.512 210.282 374.136 209.356C376.247 208.864 377.465 208.392 378.704 208.326C384.905 208.003 390.345 209.802 394.667 214.429C400.168 220.312 403.04 227.502 404.842 235.187C407.147 245.017 407.836 254.884 405.314 264.808C404.547 267.817 402.819 269.739 399.89 270.923C394.776 272.996 389.699 275.202 384.745 277.63C379.104 280.392 370.452 278.496 366.991 273.271C363.715 268.329 362.834 262.575 361.604 256.709C370.42 261.225 377.82 259.08 379.445 251.629C378.3 251.629 377.182 251.698 376.075 251.615C373.689 251.441 372.86 249.891 374.081 247.877C375.271 245.918 377.008 244.888 379.339 245.406C381.638 245.918 382.539 245.043 382.388 242.769C382.239 240.521 382.319 238.25 382.033 236.022C381.424 231.272 381.759 230.806 386.65 230.634C386.996 230.623 387.342 230.617 387.691 230.606C390.626 230.517 391.118 229.888 390.139 227.116C387.682 220.144 383.383 214.684 376.799 211.138Z" fill="white"/>
<path d="M349.862 181.54C350.563 179.158 351.247 176.772 351.965 174.396C356.015 160.991 353.338 152.294 342.671 143.545C341.73 142.773 341.021 141.1 341.047 139.861C341.167 134.236 341.667 128.619 341.871 122.993C342.034 118.46 343.919 116.301 348.487 116.941C352.703 117.533 356.976 118.537 360.912 120.133C369.799 123.734 377.173 135.454 376.567 144.995C375.445 162.624 364.336 173.275 349.862 181.54Z" fill="#F4731C"/>
<path d="M68.4605 275.591C83.6347 274.936 97.0784 280.648 110.093 287.649C111.326 288.313 112.467 289.15 113.648 289.908C113.497 290.217 113.342 290.523 113.191 290.829C111.549 290.397 109.858 290.103 108.274 289.514C101.812 287.106 95.1276 286.07 88.3429 287.097C83.3115 287.858 78.4003 289.394 73.4433 290.612C68.8038 291.753 64.1671 292.877 59.376 291.519C53.4951 289.848 52.1737 285.367 55.9293 280.513C59.1729 276.321 63.8925 275.789 68.4605 275.591Z" fill="#F4731C"/>
<path d="M79.7782 308.836C83.8771 306.05 88.2906 303.728 92.338 300.879C96.7029 297.805 101.64 296.993 106.219 296.312C107.481 296.381 108.307 296.272 109.025 296.501C110.361 296.921 111.634 297.539 112.93 298.074C112.092 299.109 111.331 300.227 110.395 301.168C107.12 304.469 103.422 307.42 100.576 311.049C97.6153 314.825 95.6589 319.375 92.8385 323.279C91.8517 324.643 89.4033 326.073 87.9702 325.778C83.8713 324.932 80.3359 322.632 77.9189 319.023C75.0872 314.793 75.5706 311.693 79.7782 308.836Z" fill="#F4731C"/>
<path d="M67.5525 295.14C69.7521 294.265 72.1491 293.89 74.4288 293.201C81.8943 290.947 89.3799 288.805 97.3116 289.46C102.658 289.903 107.789 291.082 112.586 293.933C112.24 294.193 112.12 294.359 112 294.362C111.136 294.377 110.263 294.419 109.405 294.336C102.672 293.702 96.259 294.691 90.4496 298.309C87.6665 300.039 85.0293 302.01 82.3691 303.929C78.7622 306.529 75.1324 309.017 70.3928 308.902C66.8832 308.817 64.2574 306.789 63.6452 303.617C62.953 300.039 64.5119 296.35 67.5525 295.14Z" fill="#F4731C"/>
<path d="M359.575 230.764C359.395 227.801 362.876 224.518 366.083 224.523C368.508 224.526 370.456 226.062 370.522 228.024C370.613 230.853 366.912 233.978 363.422 234.024C361.163 234.09 359.718 233.109 359.575 230.764Z" fill="white"/>
<path d="M366.629 240.848C366.32 241.743 365.165 242.349 364.364 243.076C363.703 242.303 362.593 241.571 362.516 240.745C362.453 240.064 363.609 239.266 364.698 237.951C365.659 239.323 366.812 240.313 366.629 240.848Z" fill="white"/>
<path d="M227.383 178.982C226.854 181.519 226.379 183.781 225.907 186.046C224.176 182.6 224.728 180.446 227.383 178.982Z" fill="#F4731C"/>
<path d="M228.883 172.386C226.672 170.224 226.66 168.244 228.883 166.22V172.386Z" fill="#F4731C"/>
<path d="M280.958 270.584C285.157 265.438 286.479 259.492 285.858 253.029C285.429 248.564 285.369 248.57 289.408 246.883C294.611 244.709 295.005 243.557 292.214 238.489C291.756 237.656 291.224 236.858 290.68 236.078C287.328 231.247 283.026 227.621 276.688 225.724C277.812 225.035 278.289 224.689 278.813 224.435C288.209 219.824 299.957 222.121 308.26 230.18C321.475 243.005 325.068 268.71 315.949 284.881C314.193 287.992 311.395 289.125 308.103 288.988C297.425 288.536 286.982 289.734 276.759 292.897C273.184 294.001 270.146 292.771 267.966 289.946C262.658 283.073 262.017 274.785 261.147 266.571C262.045 267.469 262.72 268.453 263.344 269.465C268.012 277.059 275.306 277.51 280.958 270.584Z" fill="white"/>
<path d="M281.117 261.82C280.173 264.24 279.704 266.307 278.597 267.94C277.977 268.858 276.174 269.639 275.13 269.419C274.124 269.204 272.785 267.674 272.696 266.63C272.53 264.654 272.891 262.524 273.523 260.619C274.178 258.634 275.851 256.921 278.039 257.879C279.355 258.457 280.067 260.401 281.117 261.82Z" fill="white"/>
<path d="M265.947 243.138C268.206 243.156 269.293 244.423 269.305 246.556C269.319 248.947 265.375 252.708 262.903 252.456C262.079 252.37 261.37 251.158 261.032 250.852C261.07 246.259 263.315 243.118 265.947 243.138Z" fill="white"/>
<path d="M266.111 258.232C266.843 258.913 268.05 259.519 268.17 260.297C268.288 261.041 267.278 261.962 266.374 263.443C265.281 262.079 264.114 261.253 264.183 260.546C264.266 259.72 265.422 258.999 266.111 258.232Z" fill="white"/>
</svg>
