<svg width="488" height="371" viewBox="0 0 488 371" fill="none" xmlns="http://www.w3.org/2000/svg">
<path d="M58.297 308.746C53.9388 308.849 53.0797 307.47 52.8124 303.479L398.794 15.7093C402.255 14.8375 403.893 15.1957 405.155 19.4672L58.297 308.746Z" fill="#A3541F"/>
<path d="M340.23 86.4747L347.13 61.4151C343.407 58.1853 340.664 56.0241 340.913 54.9176C343.743 51.944 345.251 50.2477 345.957 45.7558C346.834 45.0295 347.384 44.9532 348.491 45.0095C351.332 45.4882 352.431 45.5777 355.672 44.8535C355.613 38.8655 355.715 37.4334 356.372 37.2986C359.541 34.8436 361.301 33.485 365.816 32.5565C368.065 33.8229 368.921 33.9386 369.514 33.4269C369.476 32.1941 369.224 31.6406 368.717 30.7218L362.897 29.66C361.351 28.8894 361.364 28.368 362.233 27.4059C365.927 24.7561 368.216 24.2476 372.525 24.3738C373.623 23.537 374.324 22.8683 375.503 21.047C378.115 20.4446 379.219 20.0939 380.728 19.5076C381.134 17.7052 381.772 17.0709 383.592 16.3776C386.308 14.408 390.062 13.7585 391.034 14.1851C392.006 14.6118 392.23 15.2086 393.712 15.6826L402.691 16.9566C405.566 17.8778 406.867 18.5127 407.3 20.3349C407.27 21.3124 406.992 21.852 405.773 22.7446C404.284 23.6103 403.356 23.7868 401.656 23.9575C399.435 24.5446 398.969 25.0443 400.56 26.077C421.451 43.0766 433.227 52.395 453.363 73.8857C455.711 76.1077 457.133 77.2376 456.108 83.2024C450.432 91.3481 452.648 94.0709 432.844 107.04C423.459 111.164 417.891 112.686 407.827 114.411C399.586 114.574 395.195 114.395 385.053 116.547L374.761 119.579C369.711 126.771 366.876 130.528 361.764 125.695C360.335 124.173 359.6 122.953 358.303 119.202C356.811 116.528 355.69 115.357 353.663 113.383L350.77 109.989C349.094 107.829 348.636 106.342 347.986 103.461L347.844 103.305C344.931 100.127 343.247 98.2897 342.311 93.5374C340.481 90.8327 340.223 89.2757 340.23 86.4747Z" fill="#FF0000" stroke="black"/>
<path d="M364.128 94.3463C363.029 101.229 358.976 106.164 353.261 109.681C349.997 111.691 346.325 113.044 342.809 114.629C342.301 114.859 341.64 114.748 341.052 114.795C340.972 114.583 340.892 114.37 340.812 114.158C341.611 113.731 342.363 113.143 343.215 112.903C352.879 110.18 359.35 104.076 362.674 94.6269C362.904 93.9762 362.844 93.2261 363.002 92.5423C363.159 91.8604 363.422 91.2019 363.641 90.5317C363.867 90.5667 364.093 90.6018 364.319 90.6369C364.26 91.874 364.323 93.1306 364.128 94.3463ZM370.626 93.3917C369.287 90.0173 367.425 86.8515 365.798 83.5901C365.607 83.668 365.416 83.744 365.225 83.822C365.16 84.0304 365.088 84.2369 365.032 84.4454C362.579 93.5261 357.312 100.563 349.121 105.097C343.086 108.436 336.841 111.465 330.47 114.098C324.798 116.443 318.874 118.234 312.967 119.94C306.39 121.842 300.757 125.372 296.128 130.145C292.981 133.389 290.797 137.593 288.334 141.464C285.497 145.926 284.228 151.021 283.663 156.154C283.174 160.614 283.153 165.217 283.667 169.671C284.41 176.102 287.04 182.036 289.873 187.827C291.313 190.77 292.856 193.662 294.536 196.933C295.442 195.557 296.192 194.575 296.779 193.506C299.501 188.544 301.997 183.449 304.915 178.608C308.261 173.057 311.558 167.337 316.908 163.417C320.951 160.454 325.375 158.017 329.546 155.225C336.584 150.514 343.649 145.834 350.527 140.899C356.796 136.405 362.707 131.462 367.255 125.101C369.989 121.279 372.048 117.139 372.814 112.496C373.894 105.95 373.062 99.5228 370.626 93.3917Z" fill="#F4731C"/>
<path d="M275.806 99.1843C276.457 100.382 277.106 101.583 277.757 102.781C277.564 102.884 277.373 102.989 277.18 103.092C276.527 101.896 275.875 100.698 275.222 99.5018C275.417 99.3966 275.612 99.2895 275.806 99.1843ZM254.085 86.4175C256.735 92.6109 259.18 98.8842 259.878 105.59C260.63 112.804 260.944 120.073 261.24 127.327C261.622 136.709 261.341 146.143 262.165 155.482C263.558 171.263 270.345 184.538 282.611 194.751C285.317 197.005 288.431 198.774 291.41 200.683C291.948 201.028 292.743 200.974 293.417 201.104C293.397 200.44 293.569 199.692 293.321 199.127C292.394 197.027 291.447 194.919 290.293 192.939C285.502 184.72 282.651 175.91 281.681 166.439C280.756 157.415 282.464 148.95 287.012 141.165C291.213 133.97 294.296 125.844 302.454 121.71C303.905 120.973 304.359 119.278 303.763 117.652C302.812 115.064 301.897 112.444 300.683 109.977C295.465 99.3791 288.135 90.4406 279.224 82.71C270.497 75.1391 260.497 71.1901 248.719 71.568C248.779 71.8992 248.795 72.2596 248.912 72.5811C250.613 77.2023 252.15 81.8956 254.085 86.4175Z" fill="#F4731C"/>
<path d="M211.876 219.492C211.952 219.714 212.03 219.938 212.28 220.659C211.816 220.084 211.693 219.932 211.57 219.781C211.672 219.683 211.775 219.588 211.876 219.492Z" fill="#FEFEFE"/>
<path d="M367.135 125.115C362.587 131.474 356.675 136.419 350.407 140.913C343.527 145.846 336.464 150.526 329.426 155.237C325.254 158.031 320.829 160.466 316.786 163.429C311.436 167.349 308.141 173.071 304.795 178.62C301.876 183.463 299.38 188.558 296.658 193.52C296.072 194.589 295.322 195.569 294.414 196.945C292.736 193.676 291.193 190.782 289.753 187.841C286.92 182.05 284.289 176.116 283.547 169.685C283.033 165.231 283.054 160.628 283.543 156.168C284.108 151.035 285.375 145.94 288.214 141.476C290.677 137.605 292.861 133.403 296.006 130.159C300.635 125.386 306.268 121.854 312.846 119.954C318.754 118.248 324.677 116.455 330.349 114.112C336.721 111.478 342.966 108.448 349 105.109C357.192 100.577 362.458 93.5402 364.912 84.4594C364.968 84.249 365.04 84.0444 365.104 83.836C365.295 83.758 365.486 83.6801 365.675 83.6022C367.302 86.8635 369.165 90.0314 370.506 93.4057C372.941 99.5368 373.771 105.964 372.694 112.51C371.928 117.151 369.869 121.293 367.135 125.115ZM298.246 203.6C306.675 214.952 309.06 227.84 307.607 241.598C307.094 246.447 306.155 251.258 305.237 256.052C304.75 258.602 303.484 260.82 301.083 262.129C300.561 262.413 299.891 262.429 299.287 262.565C299.98 261.219 300.733 259.898 301.348 258.517C302.024 257.001 302.182 255.472 300.645 253.745C300.016 254.998 299.499 256.046 298.963 257.087C298.213 258.546 297.718 260.251 296.639 261.402C294.211 263.987 293.422 267.182 292.491 270.403C291.721 273.058 290.758 275.679 288.444 277.469C287.865 277.915 287.185 278.233 286.585 278.591C285.517 277.317 287.274 274.634 284.628 274.434C284.502 276.101 284.545 277.467 284.262 278.763C283.968 280.115 284.63 280.604 285.614 280.214C288.407 279.108 291.62 278.833 293.708 276.224C294.287 275.501 295.197 275.046 296.232 274.258C295.427 279.236 280.605 293.622 276.394 293.813C276.449 292.917 276.503 292.028 276.558 291.142C276.369 291.074 276.182 291.007 275.995 290.939C275.615 291.719 275.104 292.459 274.88 293.279C273.869 296.979 270.991 298.487 267.671 299.289C266.798 299.502 265.405 299.097 264.771 298.459C263.039 296.714 261.42 294.805 260.07 292.753C258.827 290.861 258.573 288.685 259.69 286.513C259.902 286.1 259.846 285.548 259.986 284.528C258.191 285.591 256.878 286.507 255.452 287.185C253.227 288.245 250.984 289.336 248.638 290.055C246.586 290.684 245.704 289.558 246.105 287.427C246.22 286.823 245.975 286.152 245.895 285.511C245.291 285.852 244.431 286.041 244.122 286.558C241.216 291.417 237.506 295.592 233.522 299.574C233.007 300.086 233 301.423 233.2 302.274C234.001 305.693 234.026 309.073 233.004 312.422C232.314 314.682 230.893 314.992 229.208 313.367C226.611 310.866 226.54 307.39 229.015 304.739C231.634 301.929 231.998 298.368 232.076 294.81C232.242 287.339 230.496 280.273 227.041 273.656C226.196 272.036 226.25 270.557 226.844 268.903C228.697 263.736 230.708 258.61 232.212 253.34C234.325 245.937 233.997 238.428 232.622 230.873C231.739 226.028 231.558 221.06 230.901 216.17C230.406 212.49 229.598 208.852 229.04 205.18C228.795 203.555 228.68 201.882 228.764 200.245C228.867 198.246 229.944 197.64 231.532 198.78C235.03 201.293 239.024 203.469 239.498 208.802C240.051 208.116 240.39 207.695 240.983 206.961C243.389 209.581 245.756 212.01 247.958 214.582C254.289 221.976 260.765 229.188 268.409 235.317C273.477 239.377 279.101 241.205 285.47 241.228C289.467 241.244 293.562 238.125 295.417 233.895C298.389 227.125 298.73 220.111 297.74 212.928C297.253 209.392 296.752 205.856 296.658 202.02C297.192 202.544 297.806 203.008 298.246 203.6ZM328.272 256.952C331.382 257.087 334.599 257.449 336.809 260.305C339.367 263.609 338.467 266.664 334.461 267.802C331.197 268.727 328.039 267.962 324.878 267.184C321.501 266.354 318.154 265.308 314.729 264.79C310.107 264.091 305.551 264.796 301.15 266.436C300.072 266.838 298.921 267.038 297.802 267.332C297.697 267.124 297.594 266.914 297.49 266.705C298.295 266.189 299.073 265.616 299.912 265.164C308.778 260.397 317.936 256.506 328.272 256.952ZM331.546 276.043C331.129 278.206 329.34 279.585 326.947 279.643C323.721 279.721 321.248 278.028 318.791 276.255C316.977 274.948 315.181 273.608 313.285 272.427C309.327 269.963 304.959 269.289 300.372 269.721C299.788 269.778 299.195 269.748 298.607 269.739C298.523 269.737 298.443 269.626 298.207 269.448C301.473 267.504 304.971 266.701 308.61 266.401C314.015 265.955 319.113 267.414 324.198 268.948C325.753 269.417 327.384 269.672 328.882 270.268C330.953 271.093 332.017 273.608 331.546 276.043ZM321.827 286.538C320.18 288.997 317.772 290.563 314.98 291.138C314.004 291.341 312.336 290.366 311.664 289.437C309.742 286.778 308.41 283.678 306.393 281.107C304.454 278.634 301.935 276.624 299.704 274.375C299.067 273.734 298.548 272.973 297.977 272.267C298.86 271.903 299.727 271.482 300.637 271.196C301.126 271.04 301.689 271.114 302.549 271.067C305.668 271.529 309.031 272.084 312.005 274.179C314.762 276.119 317.768 277.701 320.56 279.599C323.427 281.545 323.756 283.657 321.827 286.538ZM275.126 323.013C276.33 328.454 276.285 333.806 272.486 338.42C271.72 339.349 270.697 340.064 269.553 341.093C269.984 338.324 270.424 335.965 270.691 333.584C270.835 332.306 270.775 330.985 270.621 329.703C270.553 329.127 270.03 328.603 269.713 328.053C269.528 328.618 269.329 329.179 269.163 329.75C269.117 329.912 269.158 330.105 269.179 330.28C270.005 336.884 267.217 342.186 263.094 346.974C261.736 348.552 260.249 350.02 258.821 351.535C258.628 351.407 258.435 351.278 258.242 351.148C258.889 348.126 259.604 345.114 260.158 342.075C260.473 340.341 260.574 338.562 260.66 336.799C260.68 336.386 260.247 335.951 260.023 335.525C259.741 335.916 259.281 336.275 259.203 336.701C258.453 340.832 257.991 345.028 257.001 349.098C255.947 353.443 253.959 357.376 250.242 360.197C246.53 363.014 242.518 363.001 238.329 361.6C237.551 361.341 236.672 361.214 236.028 360.76C233.919 359.276 232.343 360.129 230.802 361.684C228.191 364.32 225.572 366.905 221.841 368.029C218.252 369.112 215.005 368.8 212.077 366.352C209.423 364.136 209.187 361.442 211.494 358.855C217.065 352.607 222.236 346.051 226.125 338.615C228.103 334.835 229.987 330.923 231.23 326.861C233.066 320.86 234.354 314.686 235.759 308.561C236.908 303.542 238.559 298.869 243.403 296.207C244.667 295.516 246.146 295.216 247.524 294.732C249.061 294.193 250.698 293.832 252.112 293.067C254.421 291.814 255.824 291.533 257.726 293.343C260.148 295.646 262.367 298.208 264.384 300.877C269.417 307.532 273.308 314.805 275.126 323.013ZM221.015 195.953C220.693 194.41 220.37 192.869 220.009 191.141C221.817 192.138 222.195 193.607 221.015 195.953ZM218.984 186.648V182.448C220.498 183.827 220.49 185.175 218.984 186.648ZM208.687 172.074C202.796 169.527 196.698 167.487 190.277 166.765C182.604 165.902 174.921 164.818 167.221 164.588C160.582 164.392 153.905 165.188 147.255 165.697C145.38 165.839 144.469 164.9 144.229 163.451C143.75 160.552 143.549 157.606 143.292 154.674C142.524 145.942 146.094 138.903 152.058 132.916C155.538 129.423 159.62 127.069 164.778 126.863C168.828 126.699 171.843 128.312 173.234 131.969C174.563 135.46 175.231 139.205 176.137 142.852C176.544 144.498 176.821 146.178 177.158 147.841C177.384 147.902 177.608 147.96 177.832 148.021C178.062 147.596 178.512 147.156 178.487 146.746C178.343 144.366 178.783 143.378 181.047 142.616C187.542 140.432 194.209 139.937 200.963 141.05C205.086 141.73 208.897 143.208 211.976 146.168C217.338 151.317 217.416 160.602 212.133 165.13C211.383 165.775 210.528 166.297 209.721 166.876C209.803 167.082 209.885 167.289 209.969 167.495C211.631 167.156 213.287 166.794 214.955 166.488C219.754 165.603 224.535 165.227 229.323 166.661C235.318 168.456 236.452 172.72 234.654 177.649C233.798 179.993 232.437 182.165 231.182 184.345C230.659 185.255 230.609 185.752 231.718 185.98C234.009 186.453 236.33 186.808 238.594 187.389C241.994 188.261 245.445 189.056 248.71 190.309C251.869 191.521 252.605 194.262 250.998 197.284C250.362 198.474 249.585 199.588 248.921 200.765C248.591 201.344 248.369 201.985 247.974 202.883C250.103 202.883 251.913 202.778 253.704 202.914C255.386 203.041 257.128 203.195 258.7 203.748C260.875 204.512 261.736 206.602 260.964 208.807C260.387 210.456 259.569 212.02 258.87 213.627C258.698 214.023 258.571 214.438 258.357 215.03C259.961 215.03 261.315 214.919 262.646 215.05C266.923 215.467 268.267 216.924 268.47 220.594C268.641 223.725 269.633 226.811 270.256 229.919C270.364 230.45 270.436 230.99 270.562 231.762C262.624 226.488 256.284 220.016 250.639 212.807C244.332 204.753 238.229 196.524 231.62 188.725C225.387 181.369 217.55 175.906 208.687 172.074ZM141.597 167.002C134.331 172.962 132.507 178.885 135.266 188.018C135.755 189.637 136.221 191.262 136.698 192.885C126.839 187.254 119.271 179.999 118.507 167.99C118.094 161.491 123.119 153.505 129.171 151.054C131.852 149.967 134.763 149.283 137.635 148.88C140.747 148.443 142.031 149.912 142.142 153.002C142.28 156.834 142.623 160.661 142.703 164.493C142.721 165.337 142.238 166.476 141.597 167.002ZM293.301 201.118C292.625 200.987 291.832 201.042 291.294 200.697C288.315 198.788 285.199 197.019 282.495 194.765C270.229 184.55 263.443 171.277 262.049 155.496C261.223 146.156 261.506 136.723 261.122 127.338C260.828 120.085 260.514 112.818 259.762 105.604C259.062 98.8958 256.617 92.6245 253.967 86.431C252.032 81.9092 250.497 77.2159 248.796 72.5946C248.677 72.2732 248.663 71.9128 248.603 71.5816C260.38 71.2036 270.379 75.1527 279.106 82.7235C288.019 90.4541 295.349 99.3926 300.565 109.991C301.779 112.458 302.697 115.076 303.646 117.663C304.244 119.29 303.79 120.987 302.336 121.721C294.178 125.857 291.097 133.984 286.895 141.178C282.349 148.964 280.638 157.429 281.563 166.453C282.534 175.923 285.386 184.733 290.176 192.953C291.329 194.932 292.276 197.04 293.204 199.14C293.453 199.703 293.28 200.453 293.301 201.118ZM365.693 81.0773C365.391 80.6039 364.915 80.2415 364.216 79.507C363.896 81.1942 363.657 82.5034 363.403 83.8068C361.496 93.622 355.302 100.223 346.984 104.945C335.815 111.285 323.845 115.666 311.276 118.324C306.874 119.253 305.399 119.787 303.889 114.306C303.842 114.137 303.745 113.983 303.681 113.817C298.796 101.134 290.357 91.1224 280.353 82.1644C270.767 73.5766 259.405 70.1555 246.869 69.7171C244.741 69.6431 244.507 70.1009 245.445 71.9089C247.397 75.6787 249.301 79.4739 251.208 83.2671C257.654 96.0787 260.14 109.709 259.672 123.966C259.474 129.994 259.331 136.025 259.314 142.057C259.267 156.848 262.371 170.776 270.636 183.321C275.977 191.429 282.362 198.324 291.528 202.102C293.422 202.883 294.521 204.036 295.051 205.942C296.803 212.232 297.286 218.627 296.473 225.087C295.935 229.356 294.129 233.186 291.203 236.299C289.995 237.583 288.14 238.789 286.454 238.99C282.534 239.459 274.105 236.739 272.326 230.848C271.174 227.035 270.307 223.115 269.623 219.19C269.179 216.637 267.934 215.096 265.547 214.411C264.197 214.023 262.807 213.779 261.264 213.433C261.558 212.143 261.779 210.935 262.11 209.762C262.897 206.98 262.215 204.588 259.785 203.111C258.338 202.232 256.508 201.735 254.803 201.578C250.368 201.167 250.281 201.585 252.256 197.177C253.977 193.339 252.979 190.681 249.069 189.148C246.877 188.289 244.607 187.593 242.327 186.989C239.445 186.225 236.517 185.629 233.465 184.93C234.288 182.791 235.092 180.835 235.798 178.844C238.338 171.668 235.34 166.316 227.83 164.998C225.18 164.532 222.421 164.664 219.711 164.573C218.164 164.518 216.615 164.563 215.163 164.563C215.902 162.021 217.045 159.578 217.258 157.055C217.801 150.623 214.59 145.983 209.322 142.653C205.729 140.382 201.664 139.339 197.492 139.446C191.953 139.587 186.421 140.154 180.895 140.658C177.982 140.925 177.784 140.853 177.022 137.964C176.511 136.029 176.02 134.058 175.216 132.238C173.096 127.436 168.721 124.803 163.603 125.785C153.926 127.638 146.871 132.918 143.588 142.521C143.001 144.233 142.684 146.039 142.339 147.417C139.642 147.417 137.082 147.122 134.615 147.471C126.289 148.648 118.254 157.321 116.983 166.332C116.81 167.558 116.36 168.14 115.202 168.596C109.862 170.704 104.686 173.155 100.096 176.681C95.1156 180.505 91.1699 185.249 90.0631 191.46C89.2136 196.228 89.4513 201.213 89.4416 206.103C89.4357 209.587 89.5507 213.972 89.7572 217.456C89.8527 217.448 89.6501 217.997 89.73 218.056C90.5405 218.642 89.7943 218.196 90.332 219.03C90.5697 219.4 91.1329 219.875 91.4076 220.207C92.9586 222.083 93.8042 221.339 93.9153 221.413C93.8685 221.325 93.1612 220.004 93.1125 219.92C91.5304 217.181 91.3004 214.089 91.1855 211.04C90.9906 205.856 90.4022 200.592 91.0335 195.491C92.1149 186.752 96.6061 179.806 104.431 175.413C107.286 173.809 110.374 172.596 113.429 171.388C115.744 170.47 115.623 170.844 116.646 173.067C118.113 176.247 119.887 179.354 121.964 182.169C126.18 187.881 132.02 191.848 137.721 195.922C138.231 196.288 138.859 196.493 140.018 197.058C139.74 195.867 139.703 195.053 139.369 194.389C137.136 189.962 135.611 185.364 135.665 180.342C135.737 173.595 139.771 168.851 146.433 167.456C152.292 166.227 158.034 166.85 163.825 167.988C173.748 169.936 183.292 173.003 192.386 177.412C202.675 182.401 212.297 188.372 219.668 197.344C225.451 204.385 228.442 212.618 229.434 221.604C230.048 227.154 229.948 232.714 229.027 238.222C228.078 243.905 227.244 249.637 225.816 255.209C224.459 260.51 222.546 265.686 220.58 270.804C219.828 272.762 220.071 274.206 221.202 275.72C224.307 279.877 225.995 284.594 226.996 289.648C229.073 300.131 223.257 312.613 214.088 318.115C208.168 321.667 201.769 323.089 195.096 323.621C179.385 324.87 163.659 324.62 148.017 322.846C135.04 321.375 122.634 317.776 111.744 310.17C98.9794 301.255 90.7627 289.129 86.7313 274.136C86.1058 271.804 85.6479 269.425 85.1569 267.058C84.5256 264.003 85.077 261.014 86.854 258.587C90.0788 254.184 90.8425 249.099 91.6395 243.973C92.185 240.474 92.6507 236.963 93.2061 233.466C93.2762 233.02 94.1783 231.921 94.3732 231.495C92.943 230.363 93.0073 224.409 90.9867 225.288C90.9107 230.472 90.8425 237.996 90.18 243.118C89.4903 248.429 88.9369 253.96 84.9192 258.224C84.2976 258.885 84.0131 259.976 83.8358 260.917C82.5108 267.942 84.5801 274.465 86.9027 280.943C89.35 285.367 91.6336 289.893 94.2992 294.181C96.0937 297.068 98.3929 299.648 100.536 302.311C101.475 303.478 101.376 304.261 100.043 304.947C95.7508 307.149 91.3589 308.996 86.3922 308.703C85.5115 308.651 84.6444 308.376 83.8008 307.753C87.4853 306.693 91.1718 305.631 94.8564 304.569C94.8058 304.275 94.757 303.979 94.7083 303.685C93.7594 303.784 92.7949 303.811 91.8616 303.998C88.8083 304.61 85.7707 305.3 82.7174 305.915C81.4567 306.169 80.1415 306.58 78.9062 306.439C76.4978 306.163 74.109 305.619 71.7591 305.009C71.2837 304.887 71.0129 303.979 70.5375 303.266C72.936 302.426 75.0229 301.695 77.1097 300.967C77.059 300.729 77.0083 300.491 76.9577 300.254C76.3303 300.254 75.6931 300.191 75.0735 300.264C68.7819 301.008 63.2345 299.248 58.2737 295.383C56.259 293.815 55.0938 291.822 55.4777 289.283C55.9999 285.829 54.745 283.133 52.5549 280.608C50.4759 278.211 49.9557 275.334 50.891 272.324C51.988 268.792 54.4469 267.574 57.6931 269.347C61.1789 271.25 64.3997 273.649 67.6946 275.889C70.7226 277.948 73.8051 279.871 77.4799 280.528C77.9592 280.614 78.5009 280.356 79.0133 280.259C78.8341 280.125 78.6704 279.914 78.4697 279.867C77.8754 279.731 77.1603 279.832 76.681 279.536C73.5907 277.609 70.5569 275.589 67.4881 273.627C64.2672 271.564 61.1653 269.248 57.7535 267.57C54.6457 266.045 51.1813 267.699 49.6011 270.814C48.4593 273.062 48.2819 275.488 49.3594 277.67C50.624 280.23 52.44 282.513 53.8643 285.003C54.3242 285.808 54.5638 286.922 54.443 287.836C54.0884 290.536 54.2716 293.104 56.1694 295.161C57.434 296.533 58.8583 297.916 60.4892 298.756C64.5537 300.848 68.6903 302.636 72.0573 305.997C73.39 307.326 76.0672 307.258 78.0878 307.955C85.5388 310.527 92.7306 310.092 99.6516 306.229C101.509 305.193 103.126 305.307 104.872 306.667C111.796 312.062 119.109 316.802 127.462 319.771C137.427 323.311 147.775 324.747 158.246 325.294C174.025 326.119 189.788 326.321 205.475 323.668C212.695 322.444 220.009 321.768 227.283 320.862C230.04 320.519 230.654 321.098 230.135 323.868C229.736 326.006 229.315 328.203 228.46 330.181C224.545 339.23 219.692 347.691 212.751 354.851C211.056 356.603 209.655 358.709 208.437 360.832C207.438 362.58 207.932 364.483 209.349 365.894C214.218 370.745 221.318 372.389 226.817 367.466C228.314 366.126 229.824 364.797 231.264 363.398C233.126 361.588 233.884 361.487 236.306 362.488C237.877 363.137 239.513 363.747 241.177 364.02C245.382 364.713 249.043 363.308 252.052 360.421C259.131 353.628 266.104 346.727 273.156 339.906C275.428 337.709 276.852 335.04 277.057 331.969C277.246 329.115 277.174 326.161 276.653 323.354C275.535 317.303 272.729 311.871 269.697 306.572C269.208 305.719 268.637 304.931 269.98 304.265C277.93 300.314 284.387 294.411 290.671 288.303C293.884 285.182 297.005 281.962 300.132 278.755C301.35 277.506 302.291 277.874 303.121 279.129C304.879 281.788 306.596 284.475 308.355 287.132C309.166 288.36 309.89 289.69 310.911 290.721C313.669 293.499 316.513 293.577 319.53 291.159C321.86 289.289 323.536 286.984 324.184 284.027C324.59 282.176 325.408 281.149 327.571 280.912C331.579 280.471 332.803 278.786 332.754 274.747C332.748 274.216 332.738 273.682 332.672 273.156C332.536 272.045 331.85 270.514 332.329 269.943C332.945 269.209 334.486 269.263 335.622 268.955C339.983 267.773 341.23 264.231 338.656 260.463C336.398 257.155 333.091 255.836 329.289 255.481C323.091 254.903 317.205 256.487 311.334 258.152C310.469 258.398 309.587 258.591 308.56 258.846C309.224 254.71 309.918 250.88 310.444 247.028C311.687 237.945 311.083 228.935 308.429 220.189C306.714 214.543 304.195 209.185 300.586 204.389C297.295 200.011 296.518 195.304 299.413 190.323C300.777 187.973 301.98 185.532 303.328 183.173C307.981 175.027 313.624 167.813 321.65 162.601C329.032 157.809 336.238 152.737 343.441 147.678C350.598 142.653 357.868 137.753 363.883 131.297C370.482 124.213 374.767 116.128 374.49 106.178C374.233 96.9008 370.605 88.7494 365.693 81.0773Z" fill="black"/>
<path d="M99.1227 229.429C100.35 224.194 102.308 219.296 106.053 215.288C108.998 212.136 112.704 210.911 116.928 211.131C117.774 211.176 118.602 211.497 120.042 211.832C119.102 212.463 118.687 212.798 118.226 213.046C113.742 215.462 110.814 219.181 109.138 223.931C108.472 225.818 108.809 226.247 110.808 226.307C111.044 226.315 111.281 226.319 111.517 226.327C114.847 226.444 115.075 226.761 114.66 229.997C114.467 231.515 114.522 233.062 114.42 234.593C114.317 236.142 114.931 236.738 116.495 236.39C118.085 236.037 119.266 236.738 120.077 238.073C120.909 239.444 120.344 240.5 118.721 240.621C117.966 240.676 117.205 240.629 116.425 240.629C117.53 245.706 122.571 247.165 128.576 244.091C127.738 248.085 127.14 252.005 124.909 255.371C122.549 258.931 116.655 260.222 112.815 258.34C109.438 256.686 105.981 255.184 102.496 253.774C100.502 252.965 99.3234 251.658 98.8012 249.606C97.0827 242.846 97.5523 236.125 99.1227 229.429ZM127.956 233.216C127.904 233.779 127.148 234.276 126.698 234.804C126.152 234.307 125.365 233.896 125.154 233.284C125.03 232.922 125.815 232.246 126.47 231.311C127.212 232.209 127.999 232.75 127.956 233.216ZM125.523 222.164C127.707 222.162 130.078 224.396 129.955 226.415C129.858 228.014 128.874 228.68 127.335 228.636C124.958 228.606 122.436 226.475 122.499 224.548C122.543 223.214 123.87 222.166 125.523 222.164ZM93.9593 221.404C93.9437 221.406 93.9281 221.414 93.9125 221.412C93.363 221.365 92.8798 221.151 92.4531 220.804C92.0653 220.486 91.8296 220.061 91.5704 219.641C91.0794 218.84 90.5241 218.016 89.7544 217.457C89.7233 217.433 89.6999 217.404 89.6726 217.377C88.1898 218.682 89.1972 220.061 89.6044 221.4C90.0019 222.705 90.7618 223.999 90.9839 225.289C91.0853 225.326 91.1749 225.386 91.2197 225.485C92.1433 227.492 92.5427 230.058 94.3704 231.496C94.4191 231.533 94.4522 231.583 94.4756 231.638C94.575 231.642 94.6744 231.646 94.7737 231.65C95.3797 235.049 96.0539 238.437 96.5644 241.851C96.9287 244.294 97.0534 246.772 97.3243 249.228C97.5289 251.079 97.3574 252.766 95.0894 254.119C96.2078 254.337 96.8294 254.539 97.4568 254.569C103.084 254.82 108.224 256.56 112.928 259.616C114.578 260.69 114.574 261.23 113.136 262.591C112.69 263.014 112.382 263.585 112.012 264.09C112.16 264.23 112.306 264.372 112.452 264.514C113.319 263.879 114.196 263.258 115.052 262.607C121.928 257.382 129.145 257.339 136.434 261.502C139.176 263.069 141.584 265.223 144.146 267.105C144.733 267.536 145.325 267.953 145.915 268.378C146.046 268.259 146.178 268.142 146.309 268.025C146.083 267.63 145.931 267.156 145.615 266.852C140.997 262.389 135.779 258.956 129.392 257.583C126.655 256.992 126.622 256.807 127.448 254.017C128.755 249.606 130.209 245.211 131.095 240.711C132.551 233.3 131.908 226.031 128.595 219.087C124.535 210.574 118.432 207.955 109.522 211.205C106.313 212.376 103.209 213.839 100.077 215.216C97.8562 216.192 95.9584 215.894 94.31 214.059C94.0411 213.763 93.5598 213.66 93.176 213.467C93.0337 213.882 92.7571 214.302 92.7726 214.712C92.872 217.503 94.1697 219.814 95.8688 222.049C94.9023 222.242 94.3548 221.906 93.9593 221.404Z" fill="black"/>
<path d="M195.81 241.192C194.127 241.363 191.44 238.803 191.448 237.173C191.458 235.719 192.198 234.856 193.737 234.845C195.53 234.831 197.059 236.97 197.083 240.099C196.855 240.309 196.372 241.135 195.81 241.192ZM192.225 246.534C192.307 246.004 193.129 245.591 193.628 245.127C194.098 245.649 194.885 246.14 194.941 246.703C194.988 247.185 194.193 247.748 193.449 248.677C192.833 247.668 192.145 247.04 192.225 246.534ZM192.368 266.731C190.883 268.654 188.814 269.494 186.378 268.74C179.414 266.587 172.3 265.771 165.025 266.077C162.784 266.17 160.878 265.399 159.682 263.279C153.468 252.264 155.917 234.755 164.919 226.017C170.576 220.527 178.578 218.963 184.979 222.103C185.335 222.278 185.659 222.514 186.425 222.982C182.107 224.273 179.178 226.744 176.895 230.036C176.524 230.568 176.162 231.11 175.85 231.677C173.949 235.129 174.216 235.916 177.762 237.397C180.513 238.546 180.47 238.54 180.18 241.583C179.757 245.985 180.657 250.035 183.518 253.54C187.368 258.26 192.336 257.951 195.516 252.78C195.941 252.088 196.399 251.42 197.013 250.806C196.42 256.404 195.984 262.048 192.368 266.731ZM188.576 246.752C189.004 248.05 189.25 249.501 189.137 250.849C189.077 251.56 188.165 252.601 187.481 252.747C186.768 252.897 185.542 252.365 185.117 251.742C184.363 250.627 184.044 249.221 183.401 247.57C184.116 246.604 184.603 245.279 185.497 244.886C186.988 244.233 188.128 245.4 188.576 246.752ZM205.477 242.16C206.494 240.635 207.583 239.762 208.554 238.772C209.302 238.007 209.452 237.348 208.3 236.51C206.028 234.856 203.846 233.04 201.808 231.102C198.864 228.298 196.282 225.088 193.188 222.475C184.772 215.368 173.319 213.35 165.18 222.894C158.544 230.677 154.438 239.382 154.9 249.825C155.134 255.145 156.763 260.121 159.121 265.031C157.655 265.779 156.251 266.496 154.844 267.213C154.891 267.384 154.937 267.553 154.984 267.725C156.058 267.725 157.155 267.873 158.201 267.702C171.377 265.547 183.621 268.549 195.39 274.302C195.846 274.526 196.403 274.544 196.911 274.657C197.013 274.462 197.112 274.265 197.211 274.07C196.226 273.34 195.259 272.58 194.25 271.886C191.744 270.166 191.771 270.096 193.441 267.668C195.21 265.095 197.25 262.601 198.451 259.766C200.048 255.998 202.159 253.674 206.513 254.224C206.853 254.267 207.258 254.222 207.558 254.07C209.323 253.172 211.083 252.256 212.801 251.27C213.045 251.13 213.156 250.575 213.125 250.23C213.111 250.091 212.552 249.945 212.23 249.908C211.478 249.823 210.718 249.799 209.44 249.719C212.747 247.674 215.235 245.659 216.62 242.316C214.508 242.595 212.694 243.045 210.89 243.012C209.082 242.978 207.281 242.464 205.477 242.16Z" fill="black"/>
<path d="M167.036 195.5C170.167 193.873 173.548 193.357 176.996 193.505C185.426 193.865 192.799 197.337 199.928 201.498C200.815 202.017 201.898 202.194 202.89 202.531C202.401 201.508 202.173 200.172 201.382 199.511C191.721 191.444 180.776 189.54 168.83 193.142C167.402 193.575 166.167 194.65 164.844 195.428C165.002 195.685 165.159 195.944 165.317 196.201C165.892 195.971 166.488 195.784 167.036 195.5Z" fill="black"/>
<path d="M152.636 283.838C153.4 285.655 152.416 286.817 151.118 287.75C150.076 288.502 148.924 289.145 147.743 289.655C141.797 292.223 135.673 292.028 129.884 289.616C125.443 287.767 120.377 285.881 120.455 279.53C120.455 279.462 120.289 279.392 120.202 279.32C118.651 280.588 117.098 281.856 115.5 283.16C115.56 283.205 115.855 283.577 116.2 283.635C119.19 284.128 121.392 286.047 123.752 287.699C132.045 293.509 140.7 295.021 149.939 289.93C150.935 289.382 152.104 289.158 153.184 288.759C154.641 288.219 156.091 287.656 157.638 287.068C155.863 285.55 154.349 284.253 152.751 282.885C152.716 283.133 152.515 283.551 152.636 283.838Z" fill="black"/>
<path d="M104.534 186.958C101.192 187.883 98.5342 189.923 96.1902 192.372C95.7927 192.787 95.8336 193.619 95.6719 194.258C96.2954 194.19 96.9618 194.234 97.5307 194.022C98.1211 193.802 98.6258 193.34 99.1558 192.968C105.864 188.265 113.058 187.219 120.772 190.094C122.407 190.704 124.042 191.316 125.676 191.926C125.807 191.76 125.936 191.593 126.066 191.427C125.004 190.474 124.071 189.288 122.857 188.606C117.023 185.333 110.845 185.208 104.534 186.958Z" fill="black"/>
<path d="M174.787 211.855C172.435 211.982 170.22 212.557 168.094 214.104C171.044 213.632 173.709 212.892 176.388 212.835C185.515 212.648 192.728 217.632 200.172 221.971C201.791 222.914 203.601 223.525 205.321 224.291C205.401 224.057 205.481 223.823 205.561 223.59C203.848 222.528 202.085 221.538 200.429 220.395C192.703 215.06 184.453 211.333 174.787 211.855Z" fill="black"/>
<path d="M108.917 205.664C107.573 206.186 106.497 207.396 105.297 208.29C105.474 208.621 105.653 208.954 105.831 209.286C110.983 204.828 116.775 204.567 122.901 206.394C118.283 204.273 113.597 203.844 108.917 205.664Z" fill="black"/>
<path d="M234.595 258.093C235.536 254.904 236.483 251.693 237.432 248.484C237.245 248.44 237.058 248.397 236.873 248.354C235.447 251.498 232.744 254.389 234.595 258.093Z" fill="#F7F4F2"/>
<path d="M242.609 273.72C243.441 275.596 244.273 277.472 245.105 279.351C245.707 276.923 244.595 275.144 243.373 273.408C243.118 273.512 242.865 273.617 242.609 273.72Z" fill="#F7F4F2"/>
<path d="M305.548 236.686C306.853 234.266 306.547 233.794 302.557 231.31C301.855 234.042 305.222 234.221 305.548 236.686Z" fill="#F7F4F2"/>
<path d="M302.57 222.541C303.492 223.847 304.137 224.758 304.782 225.67C305.663 223.699 304.729 222.985 302.57 222.541Z" fill="#F7F4F2"/>
<path d="M362.871 92.5556C362.713 93.2394 362.773 93.9895 362.544 94.6402C359.218 104.089 352.749 110.193 343.084 112.917C342.233 113.156 341.479 113.745 340.68 114.171C340.76 114.384 340.839 114.596 340.919 114.808C341.51 114.762 342.17 114.873 342.677 114.643C346.194 113.057 349.867 111.705 353.13 109.694C358.845 106.178 362.898 101.243 363.997 94.3597C364.19 93.144 364.13 91.8874 364.186 90.6502C363.96 90.6152 363.734 90.5801 363.508 90.545C363.292 91.2133 363.029 91.8718 362.871 92.5556Z" fill="#F7F4F2"/>
<path d="M94.4177 294.168C91.7521 289.88 89.4685 285.355 87.0212 280.928C84.3927 280.702 81.7623 280.474 79.1318 280.246C78.6194 280.344 78.0777 280.601 77.5984 280.515C73.9236 279.859 70.8411 277.934 67.8151 275.876C64.5183 273.636 61.2994 271.238 57.8135 269.334C54.5654 267.561 52.1065 268.779 51.0095 272.309C50.0742 275.321 50.5964 278.197 52.6735 280.593C54.8636 283.12 56.1184 285.814 55.5962 289.27C55.2143 291.809 56.3795 293.802 58.3922 295.37C63.3531 299.236 68.9004 300.993 75.192 300.251C75.8136 300.179 76.4488 300.241 77.0781 300.241C77.1288 300.479 77.1775 300.716 77.2282 300.954C75.1414 301.683 73.0545 302.413 70.656 303.251C71.1333 303.966 71.4042 304.872 71.8777 304.995C74.2275 305.605 76.6164 306.148 79.0247 306.425C80.26 306.567 81.5772 306.156 82.8379 305.901C85.8911 305.287 88.9288 304.595 91.9821 303.986C92.9134 303.798 93.8779 303.771 94.8268 303.672C94.8775 303.966 94.9262 304.26 94.9749 304.556C91.2903 305.618 87.6058 306.678 83.9212 307.74C84.7649 308.363 85.63 308.638 86.5107 308.689C91.4774 308.983 95.8693 307.136 100.162 304.932C101.496 304.249 101.596 303.465 100.655 302.296C98.5134 299.635 96.2122 297.056 94.4177 294.168Z" fill="#F4731C"/>
<path d="M212.357 249.894C212.681 249.931 213.24 250.079 213.251 250.215C213.285 250.56 213.174 251.118 212.928 251.258C211.209 252.242 209.45 253.157 207.685 254.055C207.385 254.207 206.979 254.254 206.64 254.211C202.287 253.66 200.175 255.984 198.579 259.752C197.379 262.587 195.339 265.081 193.568 267.654C191.9 270.082 191.871 270.152 194.377 271.872C195.388 272.566 196.352 273.325 197.34 274.056C197.239 274.253 197.139 274.448 197.04 274.642C196.53 274.529 195.972 274.512 195.516 274.288C183.75 268.535 171.505 265.534 158.328 267.687C157.283 267.859 156.184 267.711 155.111 267.711C155.064 267.539 155.019 267.37 154.972 267.198C156.377 266.481 157.782 265.764 159.247 265.018C156.89 260.107 155.263 255.131 155.027 249.812C154.567 239.368 158.671 230.665 165.307 222.882C173.446 213.337 184.899 215.354 193.315 222.461C196.409 225.075 198.991 228.286 201.937 231.088C203.975 233.026 206.155 234.842 208.429 236.498C209.579 237.336 209.43 237.992 208.68 238.758C207.712 239.748 206.623 240.622 205.604 242.146C207.408 242.45 209.208 242.966 211.018 242.997C212.823 243.03 214.635 242.58 216.747 242.302C215.362 245.647 212.875 247.659 209.569 249.705C210.847 249.787 211.605 249.808 212.357 249.894ZM153.307 288.746C152.227 289.145 151.058 289.369 150.064 289.917C140.823 295.007 132.169 293.496 123.875 287.686C121.515 286.034 119.313 284.115 116.322 283.622C115.978 283.563 115.685 283.191 115.625 283.147C117.221 281.843 118.774 280.573 120.327 279.305C120.412 279.379 120.58 279.449 120.578 279.517C120.5 285.868 125.568 287.754 130.007 289.603C135.798 292.015 141.92 292.21 147.866 289.642C149.049 289.132 150.199 288.489 151.243 287.737C152.539 286.803 153.523 285.642 152.759 283.825C152.64 283.538 152.839 283.119 152.876 282.872C154.472 284.239 155.988 285.537 157.761 287.055C156.216 287.643 154.766 288.206 153.307 288.746ZM205.691 223.575C205.611 223.809 205.534 224.043 205.454 224.277C203.731 223.513 201.921 222.901 200.304 221.958C192.861 217.62 185.647 212.634 176.521 212.823C173.842 212.878 171.176 213.62 168.224 214.091C170.35 212.544 172.567 211.97 174.917 211.843C184.583 211.319 192.835 215.046 200.561 220.382C202.217 221.526 203.979 222.515 205.691 223.575ZM168.963 193.13C180.909 189.526 191.855 191.429 201.514 199.499C202.305 200.159 202.533 201.494 203.024 202.517C202.03 202.182 200.947 202.003 200.06 201.486C192.931 197.325 185.56 193.851 177.131 193.491C173.682 193.343 170.299 193.861 167.168 195.486C166.622 195.77 166.024 195.957 165.451 196.189C165.292 195.93 165.134 195.673 164.976 195.414C166.301 194.636 167.534 193.561 168.963 193.13ZM125.806 191.913C124.171 191.301 122.536 190.689 120.901 190.081C113.187 187.206 105.994 188.25 99.285 192.953C98.755 193.325 98.2503 193.787 97.6599 194.009C97.091 194.221 96.4246 194.176 95.8011 194.245C95.9628 193.606 95.9219 192.774 96.3194 192.359C98.6634 189.908 101.321 187.87 104.663 186.945C110.972 185.195 117.153 185.32 122.986 188.593C124.2 189.275 125.132 190.459 126.195 191.414C126.065 191.579 125.936 191.745 125.806 191.913ZM105.964 209.273C105.785 208.94 105.608 208.609 105.43 208.276C106.629 207.382 107.706 206.174 109.051 205.65C113.731 203.83 118.415 204.261 123.035 206.382C116.909 204.555 111.114 204.816 105.964 209.273ZM227.121 289.634C226.121 284.582 224.432 279.864 221.328 275.706C220.198 274.192 219.952 272.749 220.704 270.791C222.67 265.673 224.584 260.496 225.942 255.195C227.368 249.623 228.202 243.893 229.153 238.209C230.073 232.701 230.172 227.141 229.56 221.59C228.566 212.605 225.576 204.372 219.792 197.331C212.421 188.359 202.802 182.388 192.51 177.398C183.416 172.989 173.875 169.923 163.949 167.975C158.16 166.837 152.418 166.213 146.557 167.443C139.895 168.838 135.862 173.582 135.79 180.328C135.737 185.351 137.263 189.949 139.494 194.375C139.829 195.04 139.866 195.854 140.145 197.044C138.983 196.479 138.358 196.275 137.845 195.908C132.146 191.835 126.306 187.868 122.09 182.156C120.011 179.341 118.238 176.233 116.773 173.054C115.748 170.831 115.87 170.457 113.554 171.374C110.5 172.582 107.41 173.796 104.556 175.399C96.7305 179.793 92.2393 186.738 91.1579 195.478C90.5266 200.578 91.115 205.842 91.3118 211.027C91.4268 214.076 91.6547 217.168 93.2389 219.907C93.8234 220.922 94.1839 222.397 95.9979 222.034C94.2988 219.8 92.9992 217.489 92.8998 214.699C92.8862 214.288 93.1629 213.869 93.3051 213.452C93.687 213.645 94.1702 213.75 94.4372 214.047C96.0875 215.88 97.9853 216.18 100.205 215.202C103.336 213.824 106.44 212.361 109.649 211.19C118.561 207.941 124.662 210.561 128.725 219.073C132.037 226.016 132.68 233.285 131.222 240.696C130.338 245.199 128.882 249.594 127.577 254.005C126.751 256.793 126.782 256.98 129.521 257.568C135.909 258.942 141.125 262.376 145.744 266.838C146.058 267.144 146.21 267.617 146.438 268.011C146.306 268.13 146.175 268.246 146.045 268.363C145.454 267.941 144.86 267.522 144.275 267.093C141.713 265.209 139.305 263.054 136.561 261.488C129.274 257.325 122.057 257.367 115.181 262.593C114.325 263.243 113.448 263.867 112.581 264.502C112.433 264.36 112.287 264.217 112.141 264.075C112.511 263.573 112.817 263 113.265 262.577C114.701 261.217 114.707 260.678 113.055 259.604C108.351 256.545 103.213 254.807 97.5859 254.554C96.9565 254.527 96.3369 254.324 95.2185 254.106C97.4846 252.754 97.656 251.065 97.4534 249.216C97.1826 246.757 97.0579 244.279 96.6916 241.838C96.1811 238.425 95.5069 235.035 94.9029 231.635C94.6145 231.625 94.3261 231.616 94.0377 231.604C93.7942 232.22 93.4318 232.816 93.3324 233.453C92.7771 236.95 92.3094 240.461 91.7658 243.96C90.9689 249.086 90.2031 254.17 86.9784 258.573C85.2033 261.001 84.6519 263.99 85.2832 267.044C85.7723 269.411 86.2302 271.79 86.8576 274.122C90.887 289.116 99.1057 301.242 111.87 310.157C122.758 317.763 135.164 321.361 148.143 322.832C163.783 324.607 179.51 324.856 195.22 323.607C201.894 323.076 208.295 321.653 214.212 318.102C223.384 312.6 229.198 300.118 227.121 289.634Z" fill="#F4731C"/>
<path d="M245.109 279.35C244.277 277.474 243.445 275.598 242.613 273.719C242.868 273.616 243.122 273.513 243.377 273.408C244.599 275.144 245.711 276.922 245.109 279.35ZM234.595 258.093C232.746 254.389 235.448 251.498 236.873 248.353C237.06 248.396 237.245 248.441 237.432 248.484C236.485 251.695 235.538 254.903 234.595 258.093ZM302.554 231.31C306.545 233.794 306.852 234.268 305.545 236.685C305.22 234.221 301.853 234.042 302.554 231.31ZM304.785 225.67C304.14 224.758 303.495 223.847 302.574 222.541C304.732 222.985 305.664 223.699 304.785 225.67ZM286.58 278.59C287.183 278.234 287.863 277.916 288.439 277.47C290.754 275.679 291.719 273.059 292.486 270.404C293.42 267.183 294.209 263.988 296.635 261.403C297.716 260.249 298.211 258.547 298.961 257.087C299.497 256.047 300.013 254.999 300.643 253.746C302.18 255.47 302.02 257.002 301.344 258.517C300.73 259.899 299.976 261.218 299.283 262.566C299.887 262.429 300.557 262.414 301.079 262.129C303.48 260.82 304.746 258.603 305.235 256.053C306.153 251.258 307.092 246.446 307.605 241.599C309.058 227.84 306.671 214.953 298.242 203.599C297.802 203.006 297.188 202.545 296.656 202.021C296.75 205.857 297.248 209.393 297.737 212.929C298.727 220.112 298.386 227.125 295.415 233.896C293.56 238.123 289.464 241.244 285.468 241.229C279.098 241.205 273.473 239.378 268.407 235.316C260.763 229.189 254.284 221.976 247.956 214.583C245.754 212.011 243.385 209.582 240.978 206.961C240.386 207.696 240.049 208.115 239.493 208.802C239.02 203.47 235.028 201.292 231.53 198.781C229.942 197.639 228.863 198.247 228.759 200.246C228.676 201.882 228.791 203.556 229.038 205.179C229.595 208.853 230.402 212.49 230.897 216.171C231.555 221.061 231.737 226.029 232.619 230.874C233.995 238.429 234.32 245.938 232.208 253.341C230.704 258.609 228.695 263.737 226.842 268.903C226.248 270.558 226.191 272.036 227.039 273.657C230.493 280.273 232.237 287.34 232.074 294.809C231.996 298.369 231.631 301.93 229.011 304.739C226.538 307.391 226.608 310.866 229.206 313.368C230.889 314.991 232.309 314.683 232.999 312.421C234.022 309.074 233.997 305.694 233.196 302.275C232.997 301.423 233.005 300.087 233.518 299.575C237.502 295.592 241.212 291.417 244.119 286.558C244.429 286.04 245.288 285.853 245.89 285.512C245.972 286.153 246.216 286.823 246.103 287.427C245.701 289.559 246.584 290.685 248.636 290.055C250.98 289.337 253.224 288.246 255.45 287.186C256.876 286.506 258.189 285.592 259.984 284.528C259.841 285.549 259.9 286.101 259.688 286.514C258.569 288.686 258.822 290.862 260.067 292.752C261.416 294.803 263.037 296.715 264.767 298.458C265.402 299.097 266.796 299.5 267.668 299.29C270.989 298.487 273.865 296.979 274.876 293.28C275.1 292.46 275.612 291.717 275.99 290.94C276.177 291.006 276.366 291.074 276.554 291.141C276.499 292.029 276.446 292.917 276.392 293.812C280.601 293.623 295.425 279.235 296.227 274.257C295.195 275.046 294.285 275.502 293.706 276.225C291.615 278.834 288.404 279.108 285.612 280.215C284.626 280.605 283.964 280.116 284.258 278.763C284.54 277.468 284.499 276.102 284.624 274.434C287.272 274.635 285.515 277.318 286.58 278.59Z" fill="#F4731C"/>
<path d="M299.403 262.56C299.403 262.56 299.405 262.556 299.407 262.553C299.403 262.555 299.402 262.555 299.398 262.555L299.403 262.56Z" fill="#E78C3B"/>
<path d="M144.339 163.442C144.579 164.891 145.49 165.832 147.365 165.688C154.015 165.18 160.692 164.383 167.335 164.579C175.035 164.809 182.718 165.893 190.393 166.756C196.813 167.478 202.912 169.518 208.804 172.067C217.668 175.899 225.507 181.364 231.74 188.72C238.351 196.519 244.454 204.748 250.761 212.804C256.408 220.015 262.75 226.487 270.688 231.76C270.561 230.991 270.489 230.451 270.382 229.917C269.759 226.81 268.765 223.724 268.593 220.593C268.393 216.921 267.046 215.465 262.769 215.047C261.438 214.918 260.084 215.027 258.481 215.027C258.695 214.435 258.822 214.02 258.993 213.624C259.693 212.017 260.511 210.453 261.088 208.804C261.859 206.599 260.998 204.509 258.824 203.745C257.251 203.192 255.509 203.038 253.828 202.911C252.037 202.775 250.227 202.88 248.095 202.88C248.493 201.982 248.715 201.341 249.042 200.76C249.709 199.585 250.486 198.469 251.119 197.279C252.727 194.259 251.992 191.516 248.832 190.304C245.566 189.051 242.115 188.254 238.715 187.384C236.451 186.803 234.129 186.446 231.837 185.975C230.729 185.745 230.779 185.248 231.303 184.34C232.558 182.158 233.92 179.986 234.776 177.642C236.574 172.713 235.44 168.447 229.444 166.652C224.655 165.219 219.874 165.596 215.074 166.479C213.407 166.787 211.748 167.149 210.086 167.486C210.003 167.28 209.921 167.073 209.839 166.867C210.646 166.288 211.501 165.766 212.251 165.123C217.533 160.593 217.455 151.308 212.095 146.157C209.013 143.198 205.202 141.719 201.08 141.039C194.325 139.925 187.655 140.421 181.161 142.605C178.897 143.367 178.457 144.355 178.601 146.736C178.626 147.145 178.176 147.585 177.946 148.01C177.722 147.949 177.498 147.891 177.272 147.831C176.935 146.167 176.658 144.487 176.249 142.841C175.345 139.194 174.677 135.448 173.348 131.956C171.957 128.299 168.942 126.686 164.889 126.85C159.732 127.056 155.648 129.41 152.17 132.903C146.204 138.892 142.634 145.931 143.4 154.665C143.657 157.597 143.86 160.543 144.339 163.442Z" fill="#F4731C"/>
<path d="M264.503 300.864C262.487 298.195 260.265 295.633 257.845 293.33C255.944 291.52 254.539 291.801 252.23 293.053C250.815 293.819 249.18 294.179 247.643 294.719C246.264 295.202 244.785 295.502 243.522 296.196C238.678 298.855 237.026 303.529 235.876 308.548C234.473 314.673 233.183 320.847 231.348 326.847C230.105 330.91 228.221 334.822 226.243 338.601C222.354 346.038 217.184 352.593 211.614 358.841C209.307 361.429 209.541 364.123 212.194 366.338C215.125 368.787 218.369 369.099 221.96 368.016C225.692 366.891 228.308 364.306 230.921 361.67C232.461 360.116 234.039 359.262 236.147 360.747C236.792 361.201 237.671 361.327 238.446 361.586C242.637 362.987 246.649 363.001 250.361 360.184C254.077 357.363 256.066 353.429 257.12 349.085C258.108 345.015 258.572 340.818 259.322 336.688C259.4 336.261 259.86 335.903 260.143 335.511C260.367 335.938 260.799 336.372 260.778 336.785C260.692 338.549 260.591 340.327 260.275 342.061C259.724 345.1 259.009 348.112 258.362 351.134C258.555 351.265 258.746 351.393 258.938 351.522C260.367 350.006 261.855 348.539 263.213 346.961C267.336 342.172 270.123 336.871 269.298 330.267C269.277 330.091 269.236 329.898 269.283 329.737C269.447 329.166 269.645 328.605 269.832 328.04C270.148 328.589 270.67 329.113 270.74 329.69C270.894 330.972 270.953 332.293 270.809 333.571C270.542 335.952 270.103 338.311 269.673 341.079C270.816 340.051 271.839 339.336 272.603 338.406C276.403 333.793 276.449 328.441 275.245 323C273.427 314.792 269.534 307.519 264.503 300.864Z" fill="#F4731C"/>
<path d="M118.351 213.033C118.812 212.784 119.227 212.45 120.165 211.819C118.727 211.484 117.897 211.163 117.053 211.118C112.829 210.898 109.123 212.123 106.178 215.275C102.431 219.283 100.475 224.181 99.2477 229.416C97.6772 236.112 97.2076 242.833 98.9262 249.593C99.4484 251.643 100.625 252.952 102.62 253.759C106.104 255.171 109.563 256.673 112.938 258.327C116.78 260.209 122.674 258.918 125.032 255.358C127.263 251.992 127.863 248.072 128.701 244.076C122.696 247.152 117.655 245.691 116.548 240.616C117.328 240.616 118.089 240.663 118.844 240.606C120.469 240.487 121.034 239.431 120.202 238.06C119.391 236.725 118.208 236.024 116.62 236.377C115.054 236.725 114.44 236.129 114.543 234.58C114.645 233.049 114.59 231.502 114.785 229.984C115.2 226.748 114.972 226.431 111.64 226.314C111.404 226.306 111.168 226.302 110.931 226.295C108.932 226.234 108.596 225.806 109.263 223.918C110.937 219.168 113.865 215.449 118.351 213.033Z" fill="white"/>
<path d="M136.699 192.871C136.222 191.248 135.756 189.623 135.267 188.004C132.508 178.873 134.332 172.948 141.598 166.989C142.239 166.463 142.722 165.323 142.704 164.479C142.623 160.647 142.282 156.821 142.143 152.989C142.032 149.901 140.748 148.43 137.636 148.866C134.764 149.27 131.853 149.953 129.172 151.041C123.118 153.493 118.095 161.477 118.508 167.977C119.272 179.985 126.84 187.241 136.699 192.871Z" fill="#F4731C"/>
<path d="M328.391 256.939C318.055 256.493 308.897 260.383 300.031 265.153C299.192 265.605 298.414 266.175 297.609 266.692C297.713 266.902 297.818 267.111 297.921 267.319C299.04 267.025 300.191 266.824 301.271 266.423C305.672 264.782 310.226 264.077 314.848 264.777C318.275 265.295 321.62 266.341 324.997 267.171C328.158 267.948 331.316 268.714 334.58 267.789C338.586 266.651 339.486 263.598 336.928 260.292C334.718 257.436 331.503 257.073 328.391 256.939Z" fill="#F4731C"/>
<path d="M320.677 279.585C317.884 277.688 314.878 276.106 312.121 274.165C309.147 272.071 305.784 271.518 302.665 271.054C301.806 271.101 301.242 271.027 300.753 271.182C299.843 271.469 298.976 271.89 298.094 272.254C298.665 272.959 299.183 273.721 299.82 274.362C302.051 276.61 304.57 278.621 306.509 281.093C308.526 283.665 309.859 286.764 311.78 289.424C312.452 290.353 314.12 291.327 315.096 291.127C317.888 290.55 320.297 288.983 321.943 286.525C323.872 283.643 323.543 281.531 320.677 279.585Z" fill="#F4731C"/>
<path d="M329.005 270.256C327.507 269.659 325.874 269.404 324.321 268.935C319.235 267.399 314.136 265.94 308.733 266.386C305.091 266.688 301.596 267.491 298.328 269.433C298.564 269.611 298.646 269.724 298.728 269.726C299.316 269.735 299.91 269.765 300.495 269.708C305.082 269.276 309.45 269.95 313.407 272.414C315.303 273.593 317.1 274.935 318.912 276.242C321.369 278.013 323.841 279.708 327.07 279.63C329.461 279.572 331.25 278.191 331.667 276.03C332.138 273.593 331.076 271.08 329.005 270.256Z" fill="#F4731C"/>
<path d="M130.083 226.402C130.206 224.384 127.834 222.147 125.65 222.151C123.998 222.153 122.671 223.199 122.626 224.536C122.564 226.463 125.085 228.592 127.462 228.623C129.002 228.668 129.986 228 130.083 226.402Z" fill="white"/>
<path d="M125.279 233.272C125.489 233.881 126.276 234.294 126.822 234.789C127.272 234.263 128.028 233.765 128.081 233.201C128.124 232.738 127.336 232.194 126.594 231.298C125.939 232.233 125.154 232.907 125.279 233.272Z" fill="white"/>
<path d="M220.133 191.128C220.493 192.856 220.817 194.397 221.138 195.94C222.317 193.593 221.941 192.126 220.133 191.128Z" fill="#F4731C"/>
<path d="M219.109 186.635C220.616 185.162 220.623 183.814 219.109 182.435V186.635Z" fill="#F4731C"/>
<path d="M183.633 253.528C180.773 250.023 179.873 245.972 180.296 241.569C180.588 238.528 180.629 238.532 177.878 237.383C174.333 235.902 174.064 235.117 175.966 231.665C176.278 231.098 176.64 230.554 177.011 230.022C179.294 226.732 182.225 224.261 186.543 222.97C185.777 222.5 185.451 222.264 185.095 222.091C178.694 218.95 170.692 220.515 165.035 226.005C156.033 234.741 153.586 252.252 159.798 263.267C160.994 265.387 162.9 266.158 165.142 266.065C172.416 265.757 179.53 266.573 186.494 268.728C188.929 269.48 190.999 268.642 192.483 266.717C196.1 262.036 196.536 256.39 197.129 250.794C196.517 251.406 196.057 252.076 195.632 252.766C192.452 257.939 187.484 258.246 183.633 253.528Z" fill="white"/>
<path d="M183.523 247.558C184.166 249.206 184.486 250.615 185.24 251.727C185.663 252.353 186.89 252.884 187.602 252.734C188.287 252.588 189.199 251.546 189.26 250.835C189.373 249.489 189.127 248.037 188.697 246.74C188.25 245.388 187.111 244.221 185.62 244.873C184.724 245.267 184.239 246.592 183.523 247.558Z" fill="white"/>
<path d="M193.858 234.832C192.319 234.844 191.578 235.707 191.57 237.16C191.561 238.789 194.248 241.351 195.931 241.179C196.492 241.121 196.975 240.295 197.205 240.086C197.18 236.957 195.65 234.818 193.858 234.832Z" fill="white"/>
<path d="M193.753 245.114C193.254 245.578 192.432 245.991 192.35 246.521C192.27 247.027 192.958 247.654 193.574 248.664C194.318 247.734 195.113 247.171 195.066 246.69C195.01 246.127 194.223 245.636 193.753 245.114Z" fill="white"/>
<path d="M170.075 230.429C182.657 221.287 189.061 215.69 200.309 205.612C189.384 204.468 180.374 202.802 152.105 195.585C117.781 185.322 104.456 184.275 88.214 188.315L59.1208 212.631C55.3356 216.003 53.0345 217.711 52.8438 221.656H54.8401C58.2542 213.822 64.0625 210.582 73.0177 211.013C85.744 211.625 104.826 219.649 132.423 232.435C148.355 238.421 156.599 238.376 170.075 230.429Z" fill="#FF0000"/>
<path d="M54.8401 221.656H52.8438C53.252 222.512 53.5402 222.885 54.3534 223.011C63.3713 219.761 66.6564 216.482 73.0177 211.013C64.0625 210.582 58.2542 213.822 54.8401 221.656Z" fill="#FF0000"/>
<path d="M88.214 188.315C104.456 184.275 117.781 185.322 152.105 195.585C180.374 202.802 189.384 204.468 200.309 205.612C210.561 204.985 216.538 205.295 227.563 206.657C232.373 209.441 233.435 210.011 234.468 209.673C234.02 206.399 234.074 204.88 234.468 202.482C235.629 195.274 236.254 191.626 237.349 185.227L237.389 184.994C237.697 174.29 236.465 167.536 231.73 154.348C222.44 134.924 210.282 128.247 179.883 121.617C175.78 121.026 172.282 120.743 168.752 120.691C163.838 120.62 158.862 120.998 152.105 121.617C142.162 122.868 136.79 124.065 127.306 127.394C105.432 134.819 101.374 141.443 97.7311 154.348C97.2487 156.479 96.2248 159.436 95.5404 167.986C93.6625 177.774 91.8503 181.862 88.214 188.315Z" fill="#FF0000"/>
<path d="M179.883 121.617C180.163 117.975 179.408 116.939 174.966 116.939C170.524 116.939 168.915 117.605 168.752 120.691C172.282 120.743 175.78 121.026 179.883 121.617Z" fill="#FF0000"/>
<path d="M200.309 205.612C189.061 215.69 182.657 221.287 170.075 230.429C156.599 238.376 148.355 238.421 132.423 232.435C104.826 219.649 85.744 211.625 73.0177 211.013M200.309 205.612C189.384 204.468 180.374 202.802 152.105 195.585C117.781 185.322 104.456 184.275 88.214 188.315M200.309 205.612C210.561 204.985 216.538 205.295 227.563 206.657C232.373 209.441 233.435 210.011 234.468 209.673C234.02 206.399 234.074 204.88 234.468 202.482C235.629 195.274 236.254 191.626 237.349 185.227M52.8438 221.656H54.8401C58.2542 213.822 64.0625 210.582 73.0177 211.013M52.8438 221.656C53.0345 217.711 55.3356 216.003 59.1208 212.631L88.214 188.315M52.8438 221.656C53.252 222.512 53.5402 222.885 54.3534 223.011C63.3713 219.761 66.6564 216.482 73.0177 211.013M88.214 188.315C91.8503 181.862 93.6625 177.774 95.5404 167.986C96.2248 159.436 97.2487 156.479 97.7311 154.348C101.374 141.443 105.432 134.819 127.306 127.394C136.79 124.065 142.162 122.868 152.105 121.617C158.862 120.998 163.838 120.62 168.752 120.691M179.883 121.617C210.282 128.247 222.44 134.924 231.73 154.348C236.465 167.536 237.697 174.29 237.389 184.994M179.883 121.617C180.163 117.975 179.408 116.939 174.966 116.939C170.524 116.939 168.915 117.605 168.752 120.691M179.883 121.617C175.78 121.026 172.282 120.743 168.752 120.691M237.389 184.994L237.349 185.227M237.389 184.994C237.376 185.072 237.362 185.15 237.349 185.227" stroke="black"/>
<path d="M132.291 169.199C131.624 167.283 130.874 165.375 130.04 163.473C129.205 161.572 128.28 159.753 127.265 158.015L125.471 167.969L122.094 167.361L124.833 152.166L127.618 152.668C128.014 153.237 128.44 153.926 128.899 154.733C129.357 155.54 129.818 156.396 130.281 157.302C130.744 158.209 131.198 159.143 131.643 160.106C132.088 161.069 132.503 161.993 132.887 162.877L134.504 153.909L137.903 154.522L135.163 169.717L132.291 169.199Z" fill="white"/>
<path d="M138.68 170.351L141.419 155.156L151.682 157.006L151.164 159.879L144.322 158.645L143.785 161.627L149.859 162.722L149.353 165.529L143.279 164.433L142.619 168.095L149.965 169.42L149.447 172.292L138.68 170.351Z" fill="white"/>
<path d="M158.736 158.278C158.913 158.808 159.11 159.459 159.327 160.23C159.543 161.001 159.764 161.833 159.989 162.726C160.214 163.62 160.432 164.531 160.643 165.459C160.854 166.388 161.052 167.261 161.237 168.079C161.697 167.377 162.188 166.628 162.71 165.831C163.231 165.035 163.753 164.258 164.276 163.499C164.799 162.741 165.297 162.038 165.769 161.391C166.241 160.745 166.653 160.204 167.004 159.769L170.118 160.33C170.082 161.365 170.013 162.519 169.912 163.791C169.811 165.063 169.686 166.384 169.538 167.753C169.389 169.122 169.232 170.494 169.068 171.868C168.902 173.241 168.742 174.534 168.584 175.742L165.251 175.141C165.473 173.657 165.704 172.039 165.945 170.286C166.185 168.533 166.392 166.76 166.565 164.964C166.19 165.531 165.774 166.157 165.317 166.845C164.86 167.532 164.407 168.22 163.957 168.909C163.507 169.598 163.075 170.255 162.659 170.882C162.243 171.509 161.889 172.045 161.597 172.49L159.207 172.059C159.088 171.54 158.944 170.914 158.773 170.182C158.602 169.449 158.426 168.681 158.245 167.879C158.064 167.077 157.88 166.274 157.691 165.47C157.503 164.666 157.333 163.934 157.179 163.272C156.714 165.015 156.289 166.749 155.902 168.475C155.515 170.202 155.167 171.799 154.857 173.267L151.523 172.667C151.798 171.479 152.098 170.212 152.424 168.867C152.749 167.522 153.081 166.182 153.42 164.847C153.759 163.512 154.103 162.231 154.453 161.004C154.802 159.776 155.141 158.671 155.469 157.689L158.736 158.278Z" fill="white"/>
<path d="M175.888 169.203C175.753 169.948 175.723 170.638 175.798 171.27C175.872 171.902 176.043 172.465 176.309 172.958C176.574 173.451 176.935 173.86 177.39 174.183C177.844 174.506 178.393 174.726 179.037 174.842C179.665 174.955 180.253 174.941 180.8 174.798C181.346 174.655 181.83 174.399 182.252 174.029C182.672 173.66 183.028 173.192 183.32 172.626C183.61 172.06 183.823 171.403 183.958 170.658C184.092 169.913 184.122 169.22 184.049 168.58C183.975 167.941 183.806 167.375 183.54 166.882C183.274 166.389 182.91 165.979 182.448 165.654C181.986 165.33 181.44 165.11 180.812 164.997C180.168 164.881 179.577 164.899 179.036 165.051C178.495 165.202 178.015 165.463 177.593 165.832C177.172 166.201 176.815 166.673 176.523 167.246C176.231 167.82 176.019 168.472 175.888 169.203ZM187.488 171.295C187.253 172.596 186.853 173.704 186.288 174.621C185.723 175.538 185.044 176.269 184.252 176.812C183.459 177.356 182.568 177.713 181.579 177.881C180.591 178.05 179.562 178.038 178.496 177.846C177.457 177.659 176.508 177.314 175.648 176.812C174.787 176.31 174.073 175.664 173.507 174.875C172.939 174.086 172.547 173.162 172.33 172.105C172.114 171.047 172.122 169.868 172.357 168.567C172.591 167.266 173.002 166.159 173.59 165.246C174.177 164.333 174.878 163.603 175.694 163.056C176.509 162.509 177.405 162.149 178.379 161.978C179.353 161.806 180.345 161.812 181.354 161.994C182.391 162.181 183.341 162.525 184.201 163.027C185.062 163.53 185.774 164.179 186.34 164.975C186.906 165.772 187.298 166.698 187.514 167.757C187.731 168.814 187.722 169.994 187.488 171.295Z" fill="white"/>
<path d="M121.818 176.159C122.418 176.267 122.755 176.116 122.829 175.706C122.852 175.579 122.844 175.467 122.807 175.369C122.77 175.27 122.712 175.18 122.633 175.099C122.554 175.017 122.46 174.942 122.352 174.874C122.244 174.806 122.129 174.736 122.008 174.665C121.867 174.587 121.735 174.503 121.613 174.414C121.49 174.324 121.388 174.226 121.305 174.12C121.223 174.013 121.164 173.894 121.129 173.761C121.093 173.628 121.091 173.475 121.123 173.301C121.187 172.942 121.36 172.684 121.641 172.527C121.922 172.37 122.278 172.33 122.708 172.407C122.957 172.452 123.178 172.519 123.372 172.61C123.566 172.7 123.704 172.785 123.787 172.865L123.519 173.3C123.446 173.233 123.332 173.161 123.177 173.082C123.022 173.003 122.836 172.944 122.618 172.905C122.508 172.885 122.403 172.878 122.304 172.885C122.205 172.891 122.116 172.912 122.036 172.946C121.957 172.981 121.89 173.031 121.835 173.097C121.78 173.162 121.744 173.244 121.727 173.343C121.707 173.453 121.712 173.55 121.741 173.633C121.771 173.716 121.82 173.793 121.889 173.864C121.958 173.936 122.04 174.005 122.136 174.071C122.232 174.137 122.339 174.205 122.457 174.275C122.622 174.379 122.772 174.479 122.907 174.577C123.042 174.675 123.155 174.782 123.246 174.901C123.337 175.019 123.399 175.152 123.434 175.298C123.469 175.445 123.469 175.615 123.434 175.809C123.369 176.168 123.188 176.42 122.891 176.567C122.593 176.713 122.206 176.743 121.728 176.656C121.566 176.627 121.419 176.589 121.287 176.543C121.155 176.497 121.038 176.449 120.937 176.401C120.835 176.352 120.749 176.304 120.679 176.256C120.608 176.209 120.552 176.169 120.513 176.138L120.77 175.695C120.852 175.763 120.98 175.845 121.154 175.942C121.328 176.038 121.549 176.111 121.818 176.159Z" fill="white"/>
<path d="M125.731 173.528C125.486 173.484 125.297 173.456 125.165 173.444L124.874 175.054L125.307 175.132C125.504 175.168 125.684 175.187 125.846 175.19C126.009 175.193 126.15 175.173 126.27 175.132C126.39 175.09 126.488 175.022 126.567 174.926C126.645 174.83 126.699 174.699 126.729 174.533C126.758 174.375 126.751 174.239 126.708 174.126C126.665 174.012 126.597 173.915 126.503 173.835C126.41 173.755 126.296 173.691 126.162 173.642C126.028 173.594 125.885 173.556 125.731 173.528ZM125.774 173.016C126.35 173.12 126.773 173.309 127.044 173.585C127.314 173.859 127.41 174.214 127.332 174.648C127.29 174.885 127.211 175.079 127.096 175.232C126.98 175.384 126.834 175.499 126.655 175.574C126.476 175.65 126.268 175.691 126.03 175.697C125.793 175.703 125.53 175.68 125.242 175.628L124.786 175.546L124.511 177.067L123.938 176.964L124.667 172.92C124.835 172.91 125.021 172.916 125.223 172.938C125.424 172.96 125.608 172.986 125.774 173.016Z" fill="white"/>
<path d="M128.35 175.638C128.305 175.886 128.296 176.118 128.322 176.333C128.349 176.547 128.408 176.736 128.499 176.899C128.589 177.063 128.711 177.198 128.866 177.305C129.019 177.412 129.201 177.484 129.41 177.522C129.619 177.56 129.814 177.555 129.994 177.508C130.173 177.461 130.334 177.377 130.476 177.256C130.618 177.135 130.739 176.978 130.839 176.787C130.939 176.595 131.011 176.374 131.056 176.126C131.101 175.877 131.11 175.645 131.083 175.431C131.057 175.216 130.998 175.027 130.907 174.864C130.817 174.701 130.695 174.566 130.543 174.459C130.392 174.352 130.211 174.28 130.002 174.242C129.792 174.205 129.597 174.209 129.415 174.256C129.233 174.303 129.072 174.386 128.93 174.508C128.788 174.629 128.667 174.785 128.567 174.977C128.467 175.169 128.395 175.389 128.35 175.638ZM127.746 175.529C127.809 175.178 127.917 174.877 128.071 174.628C128.224 174.378 128.406 174.18 128.618 174.033C128.83 173.885 129.064 173.788 129.319 173.74C129.574 173.693 129.836 173.693 130.104 173.741C130.369 173.789 130.61 173.879 130.829 174.013C131.047 174.146 131.229 174.318 131.374 174.53C131.52 174.741 131.62 174.991 131.676 175.278C131.733 175.565 131.729 175.885 131.666 176.236C131.603 176.587 131.494 176.887 131.341 177.137C131.188 177.387 131.007 177.585 130.797 177.732C130.587 177.88 130.356 177.978 130.105 178.027C129.854 178.075 129.596 178.075 129.331 178.028C129.063 177.979 128.818 177.888 128.595 177.754C128.373 177.62 128.187 177.448 128.04 177.235C127.893 177.024 127.792 176.774 127.735 176.487C127.679 176.199 127.682 175.88 127.746 175.529Z" fill="white"/>
<path d="M133.934 175.006C133.689 174.962 133.5 174.934 133.368 174.922L133.089 176.468L133.498 176.541C133.695 176.577 133.875 176.599 134.036 176.608C134.197 176.616 134.338 176.603 134.456 176.567C134.574 176.532 134.673 176.469 134.75 176.379C134.827 176.289 134.881 176.161 134.911 175.995C134.939 175.841 134.932 175.708 134.891 175.594C134.851 175.481 134.785 175.386 134.695 175.309C134.605 175.231 134.494 175.168 134.362 175.12C134.231 175.072 134.088 175.034 133.934 175.006ZM134.457 177.087C134.506 177.178 134.567 177.295 134.641 177.441C134.714 177.587 134.788 177.747 134.863 177.922C134.938 178.096 135.01 178.277 135.08 178.465C135.15 178.653 135.206 178.832 135.249 179.003L134.621 178.889C134.569 178.725 134.511 178.558 134.446 178.387C134.381 178.217 134.314 178.053 134.244 177.895C134.175 177.738 134.104 177.59 134.034 177.451C133.963 177.312 133.899 177.19 133.84 177.086C133.788 177.081 133.735 177.073 133.682 177.064L133.519 177.034L133.004 176.941L132.715 178.546L132.141 178.442L132.87 174.399C133.038 174.388 133.224 174.394 133.426 174.416C133.627 174.438 133.811 174.464 133.977 174.494C134.553 174.598 134.973 174.786 135.236 175.058C135.499 175.329 135.591 175.68 135.514 176.11C135.465 176.382 135.351 176.603 135.172 176.77C134.992 176.937 134.754 177.043 134.457 177.087Z" fill="white"/>
<path d="M139.349 175.506L139.259 176.004L137.968 175.771L137.318 179.376L136.744 179.273L137.394 175.667L136.103 175.435L136.193 174.937L139.349 175.506Z" fill="white"/>
<path d="M139.866 177.715C139.821 177.963 139.811 178.195 139.838 178.41C139.864 178.624 139.923 178.813 140.014 178.976C140.105 179.139 140.227 179.275 140.381 179.382C140.535 179.489 140.717 179.561 140.926 179.599C141.135 179.637 141.33 179.632 141.509 179.585C141.689 179.538 141.85 179.454 141.992 179.333C142.134 179.212 142.255 179.055 142.355 178.863C142.454 178.672 142.527 178.451 142.571 178.203C142.616 177.954 142.626 177.722 142.599 177.508C142.573 177.293 142.514 177.104 142.423 176.941C142.332 176.778 142.211 176.643 142.059 176.536C141.907 176.429 141.726 176.357 141.517 176.319C141.308 176.282 141.112 176.286 140.931 176.333C140.749 176.38 140.587 176.463 140.446 176.584C140.303 176.706 140.182 176.862 140.082 177.054C139.983 177.246 139.91 177.466 139.866 177.715ZM139.261 177.606C139.325 177.255 139.433 176.954 139.586 176.705C139.739 176.455 139.921 176.257 140.134 176.11C140.345 175.962 140.579 175.865 140.834 175.817C141.09 175.769 141.351 175.77 141.62 175.818C141.884 175.866 142.126 175.956 142.344 176.09C142.563 176.223 142.745 176.395 142.89 176.607C143.035 176.818 143.136 177.068 143.192 177.355C143.248 177.642 143.245 177.961 143.182 178.313C143.118 178.664 143.01 178.964 142.857 179.214C142.704 179.463 142.522 179.662 142.312 179.809C142.102 179.957 141.872 180.055 141.621 180.104C141.369 180.152 141.112 180.152 140.847 180.105C140.579 180.056 140.333 179.965 140.111 179.831C139.888 179.697 139.703 179.524 139.556 179.312C139.409 179.101 139.307 178.851 139.251 178.564C139.195 178.276 139.198 177.957 139.261 177.606Z" fill="white"/>
<path d="M146.324 178.126C146.063 178.625 145.806 179.084 145.556 179.503C145.305 179.922 145.056 180.33 144.809 180.726L144.235 180.622C144.135 179.98 144.065 179.31 144.026 178.61C143.988 177.91 143.97 177.153 143.974 176.339L144.578 176.447C144.578 176.766 144.58 177.083 144.584 177.402C144.587 177.721 144.594 178.031 144.605 178.332C144.616 178.633 144.629 178.923 144.645 179.198C144.66 179.474 144.681 179.73 144.708 179.968C144.94 179.582 145.19 179.157 145.457 178.693C145.724 178.23 145.982 177.748 146.231 177.247L146.729 177.337C146.788 177.893 146.863 178.436 146.955 178.964C147.048 179.492 147.135 179.977 147.218 180.42C147.321 180.211 147.428 179.979 147.539 179.726C147.65 179.473 147.762 179.207 147.876 178.928C147.989 178.649 148.103 178.36 148.219 178.06C148.334 177.761 148.446 177.463 148.557 177.165L149.144 177.271C148.859 178.035 148.576 178.737 148.295 179.38C148.015 180.022 147.717 180.626 147.403 181.193L146.829 181.09C146.732 180.632 146.641 180.163 146.556 179.683C146.472 179.204 146.394 178.684 146.324 178.126Z" fill="white"/>
<path d="M151.447 180.351C151.382 179.984 151.317 179.629 151.25 179.285C151.184 178.941 151.111 178.609 151.03 178.289C150.838 178.56 150.651 178.845 150.469 179.144C150.286 179.444 150.103 179.754 149.919 180.075L151.447 180.351ZM151.711 181.969C151.676 181.779 151.645 181.593 151.616 181.411C151.588 181.229 151.558 181.043 151.527 180.854L149.668 180.519L149.106 181.499L148.508 181.392C148.744 180.986 148.965 180.611 149.169 180.267C149.374 179.923 149.572 179.597 149.764 179.289C149.956 178.982 150.145 178.689 150.329 178.41C150.514 178.131 150.704 177.857 150.899 177.587L151.427 177.682C151.515 178.003 151.598 178.327 151.673 178.652C151.749 178.978 151.824 179.318 151.896 179.674C151.968 180.029 152.04 180.404 152.112 180.797C152.184 181.192 152.259 181.62 152.339 182.082L151.711 181.969Z" fill="white"/>
<path d="M156.059 178.994C155.814 178.95 155.625 178.922 155.493 178.91L155.202 180.52L155.635 180.598C155.832 180.634 156.012 180.653 156.175 180.656C156.337 180.659 156.478 180.64 156.598 180.598C156.718 180.556 156.816 180.488 156.895 180.392C156.973 180.296 157.027 180.165 157.057 179.999C157.086 179.841 157.079 179.706 157.036 179.592C156.993 179.478 156.925 179.381 156.832 179.301C156.738 179.221 156.624 179.157 156.49 179.108C156.356 179.06 156.213 179.022 156.059 178.994ZM156.102 178.482C156.678 178.586 157.101 178.775 157.372 179.051C157.643 179.325 157.739 179.68 157.66 180.114C157.618 180.351 157.539 180.545 157.424 180.698C157.308 180.85 157.162 180.965 156.983 181.04C156.804 181.116 156.596 181.157 156.358 181.163C156.121 181.169 155.858 181.146 155.57 181.094L155.114 181.012L154.84 182.533L154.266 182.43L154.995 178.386C155.163 178.376 155.349 178.382 155.551 178.404C155.752 178.426 155.936 178.452 156.102 178.482Z" fill="white"/>
<path d="M159.66 179.643C159.416 179.599 159.227 179.571 159.094 179.56L158.816 181.105L159.224 181.179C159.422 181.214 159.601 181.236 159.763 181.245C159.924 181.254 160.064 181.24 160.183 181.205C160.301 181.169 160.399 181.106 160.476 181.016C160.554 180.926 160.608 180.798 160.637 180.633C160.665 180.479 160.659 180.345 160.618 180.232C160.577 180.118 160.512 180.023 160.422 179.946C160.332 179.868 160.221 179.806 160.089 179.757C159.957 179.709 159.814 179.671 159.66 179.643ZM160.184 181.725C160.233 181.815 160.294 181.933 160.368 182.078C160.441 182.224 160.515 182.384 160.59 182.559C160.664 182.733 160.736 182.914 160.807 183.102C160.877 183.29 160.933 183.469 160.975 183.64L160.348 183.527C160.296 183.363 160.237 183.195 160.172 183.024C160.107 182.854 160.04 182.69 159.971 182.532C159.901 182.375 159.831 182.227 159.76 182.088C159.69 181.949 159.625 181.828 159.567 181.723C159.515 181.718 159.462 181.711 159.408 181.701L159.246 181.672L158.73 181.579L158.441 183.183L157.867 183.079L158.596 179.036C158.765 179.025 158.95 179.032 159.152 179.053C159.354 179.076 159.538 179.102 159.704 179.131C160.28 179.235 160.7 179.423 160.962 179.695C161.225 179.966 161.318 180.317 161.24 180.747C161.191 181.02 161.077 181.24 160.898 181.407C160.719 181.574 160.481 181.68 160.184 181.725Z" fill="white"/>
<path d="M164.92 180.588C164.811 180.674 164.683 180.778 164.537 180.901C164.39 181.023 164.234 181.16 164.068 181.311C163.903 181.463 163.731 181.624 163.554 181.793C163.376 181.963 163.202 182.135 163.029 182.31C162.857 182.485 162.692 182.66 162.534 182.835C162.376 183.01 162.232 183.178 162.101 183.338L164.411 183.754L164.322 184.245L161.344 183.708L161.413 183.324C161.524 183.181 161.654 183.025 161.8 182.856C161.947 182.686 162.102 182.515 162.266 182.34C162.43 182.166 162.599 181.991 162.774 181.815C162.948 181.638 163.12 181.47 163.29 181.309C163.459 181.148 163.623 180.998 163.78 180.859C163.938 180.72 164.081 180.6 164.209 180.496L162.101 180.116L162.19 179.625L165.003 180.132L164.92 180.588Z" fill="white"/>
<path d="M166.099 184.566L166.396 182.92C166.2 182.448 166.018 181.986 165.851 181.532C165.684 181.078 165.53 180.635 165.388 180.201L166.063 180.323C166.155 180.674 166.263 181.033 166.389 181.4C166.514 181.767 166.648 182.122 166.79 182.465C167.039 182.192 167.286 181.906 167.532 181.606C167.777 181.306 168.006 181.008 168.218 180.712L168.858 180.827C168.574 181.183 168.274 181.544 167.96 181.909C167.645 182.274 167.316 182.642 166.972 183.011L166.674 184.669L166.099 184.566Z" fill="white"/>
<path d="M171.292 183.416L171.866 183.52L171.52 185.438C171.47 185.446 171.399 185.451 171.306 185.455C171.214 185.458 171.107 185.46 170.988 185.458C170.868 185.457 170.737 185.451 170.597 185.44C170.456 185.429 170.315 185.41 170.172 185.385C169.884 185.333 169.63 185.238 169.411 185.101C169.191 184.963 169.012 184.788 168.875 184.576C168.739 184.364 168.647 184.117 168.602 183.836C168.557 183.555 168.566 183.243 168.628 182.899C168.689 182.556 168.797 182.261 168.95 182.013C169.102 181.765 169.284 181.567 169.494 181.417C169.704 181.268 169.937 181.167 170.193 181.115C170.449 181.064 170.713 181.063 170.986 181.112C171.171 181.145 171.334 181.187 171.474 181.236C171.614 181.286 171.732 181.336 171.829 181.386C171.926 181.436 172.004 181.483 172.063 181.526C172.123 181.569 172.163 181.601 172.184 181.621L171.914 182.068C171.813 181.972 171.672 181.883 171.491 181.799C171.311 181.715 171.122 181.656 170.925 181.62C170.715 181.582 170.518 181.586 170.333 181.63C170.148 181.674 169.982 181.756 169.836 181.876C169.69 181.997 169.565 182.153 169.461 182.344C169.358 182.535 169.283 182.757 169.237 183.009C169.193 183.254 169.181 183.482 169.203 183.694C169.223 183.905 169.279 184.094 169.37 184.259C169.46 184.424 169.584 184.561 169.741 184.671C169.899 184.781 170.095 184.857 170.327 184.899C170.493 184.929 170.636 184.946 170.756 184.949C170.875 184.952 170.962 184.951 171.016 184.944L171.292 183.416Z" fill="white"/>
<path d="M173.217 183.727C173.172 183.976 173.163 184.207 173.189 184.422C173.216 184.636 173.275 184.825 173.366 184.989C173.456 185.152 173.579 185.287 173.733 185.394C173.886 185.501 174.068 185.574 174.277 185.611C174.486 185.649 174.681 185.644 174.861 185.597C175.04 185.55 175.201 185.466 175.343 185.345C175.486 185.224 175.606 185.067 175.706 184.876C175.806 184.684 175.878 184.463 175.923 184.215C175.968 183.966 175.977 183.734 175.951 183.52C175.924 183.305 175.865 183.116 175.775 182.953C175.684 182.79 175.562 182.655 175.411 182.548C175.259 182.442 175.078 182.369 174.869 182.332C174.659 182.294 174.464 182.298 174.283 182.345C174.101 182.392 173.939 182.475 173.797 182.597C173.655 182.718 173.534 182.874 173.434 183.066C173.334 183.258 173.262 183.478 173.217 183.727ZM172.613 183.618C172.676 183.267 172.785 182.966 172.938 182.717C173.091 182.467 173.273 182.269 173.485 182.122C173.697 181.974 173.931 181.877 174.186 181.83C174.441 181.782 174.703 181.782 174.971 181.83C175.236 181.878 175.477 181.968 175.696 182.102C175.915 182.235 176.096 182.407 176.241 182.619C176.387 182.83 176.487 183.08 176.544 183.367C176.6 183.654 176.597 183.974 176.533 184.325C176.47 184.676 176.362 184.976 176.208 185.226C176.055 185.476 175.874 185.674 175.664 185.822C175.454 185.969 175.224 186.067 174.972 186.116C174.721 186.164 174.463 186.164 174.199 186.117C173.93 186.068 173.685 185.977 173.462 185.844C173.24 185.71 173.055 185.537 172.908 185.325C172.76 185.113 172.659 184.863 172.603 184.576C172.546 184.289 172.55 183.969 172.613 183.618Z" fill="white"/>
<path d="M178.235 186.269C178.78 186.368 179.211 186.302 179.53 186.072C179.849 185.842 180.053 185.476 180.144 184.975C180.234 184.474 180.17 184.06 179.952 183.734C179.733 183.407 179.352 183.194 178.807 183.096C178.645 183.067 178.52 183.046 178.43 183.034C178.341 183.022 178.278 183.015 178.241 183.012L177.676 186.15C177.711 186.161 177.772 186.176 177.86 186.196C177.948 186.216 178.073 186.24 178.235 186.269ZM180.754 185.085C180.689 185.44 180.579 185.739 180.421 185.982C180.263 186.225 180.068 186.413 179.836 186.549C179.603 186.684 179.339 186.769 179.044 186.803C178.748 186.838 178.432 186.825 178.097 186.764C177.931 186.734 177.75 186.694 177.553 186.645C177.356 186.595 177.18 186.536 177.026 186.467L177.743 182.489C177.912 182.478 178.098 182.484 178.299 182.506C178.501 182.528 178.685 182.554 178.851 182.584C179.186 182.645 179.487 182.743 179.751 182.878C180.017 183.013 180.234 183.185 180.405 183.393C180.575 183.601 180.691 183.846 180.755 184.129C180.818 184.411 180.818 184.73 180.754 185.085Z" fill="white"/>
<path d="M183.595 186.148C183.53 185.782 183.465 185.427 183.399 185.083C183.332 184.739 183.259 184.407 183.178 184.086C182.987 184.358 182.799 184.643 182.617 184.942C182.435 185.241 182.251 185.551 182.067 185.873L183.595 186.148ZM183.859 187.767C183.824 187.577 183.793 187.391 183.764 187.209C183.736 187.027 183.706 186.841 183.675 186.652L181.816 186.317L181.254 187.297L180.656 187.189C180.892 186.784 181.113 186.409 181.317 186.065C181.522 185.721 181.72 185.395 181.912 185.087C182.104 184.779 182.293 184.486 182.478 184.208C182.662 183.929 182.852 183.655 183.048 183.384L183.575 183.48C183.663 183.801 183.746 184.125 183.821 184.45C183.897 184.776 183.972 185.116 184.044 185.471C184.116 185.827 184.188 186.201 184.26 186.595C184.332 186.989 184.407 187.418 184.487 187.88L183.859 187.767Z" fill="white"/>
</svg>
