<svg width="32" height="33" viewBox="0 0 32 33" fill="none" xmlns="http://www.w3.org/2000/svg">
<path fill-rule="evenodd" clip-rule="evenodd" d="M6 12.3262C6 7.00201 10.5264 2.76367 16 2.76367C21.4736 2.76367 26 7.00201 26 12.3262C26 15.3277 24.3771 19.0413 22.5994 22.2511C20.795 25.509 18.717 28.4441 17.6026 29.9491C17.4187 30.2005 17.1783 30.4051 16.9007 30.5464C16.6217 30.6884 16.313 30.7624 16 30.7624C15.687 30.7624 15.3783 30.6884 15.0993 30.5464C14.8217 30.4051 14.5812 30.2004 14.3973 29.949C13.283 28.4435 11.205 25.5072 9.40058 22.2489C7.62292 19.0389 6 15.3256 6 12.3262ZM16 4.76367C11.5361 4.76367 8 8.19909 8 12.3262C8 14.7643 9.37708 18.0782 11.1502 21.28C12.8918 24.425 14.9091 27.2783 16 28.7525C17.0908 27.279 19.1082 24.4267 20.8498 21.2821C22.6229 18.0808 24 14.7665 24 12.3262C24 8.19909 20.4639 4.76367 16 4.76367Z" fill="#F4731C"/>
<path fill-rule="evenodd" clip-rule="evenodd" d="M16 10.7637C14.8954 10.7637 14 11.6591 14 12.7637C14 13.8682 14.8954 14.7637 16 14.7637C17.1046 14.7637 18 13.8682 18 12.7637C18 11.6591 17.1046 10.7637 16 10.7637ZM12 12.7637C12 10.5545 13.7909 8.76367 16 8.76367C18.2091 8.76367 20 10.5545 20 12.7637C20 14.9728 18.2091 16.7637 16 16.7637C13.7909 16.7637 12 14.9728 12 12.7637Z" fill="#F4731C"/>
</svg>
