<svg width="48" height="49" viewBox="0 0 48 49" fill="none" xmlns="http://www.w3.org/2000/svg">
<path fill-rule="evenodd" clip-rule="evenodd" d="M9 17.7451C9 9.75887 15.7896 3.40137 24 3.40137C32.2104 3.40137 39 9.75887 39 17.7451C39 22.2474 36.5657 27.8178 33.8991 32.6325C31.1925 37.5193 28.0755 41.922 26.4039 44.1795C26.1281 44.5566 25.7674 44.8635 25.351 45.0754C24.9325 45.2884 24.4696 45.3994 24 45.3994C23.5304 45.3994 23.0675 45.2884 22.649 45.0754C22.2325 44.8634 21.8718 44.5565 21.596 44.1794C19.9245 41.921 16.8075 37.5167 14.1009 32.6292C11.4344 27.8142 9 22.2442 9 17.7451ZM24 6.40137C17.3042 6.40137 12 11.5545 12 17.7451C12 21.4023 14.0656 26.3731 16.7253 31.1759C19.3377 35.8933 22.3637 40.1733 24 42.3847C25.6363 40.1744 28.6623 35.8959 31.2747 31.179C33.9343 26.377 36 21.4056 36 17.7451C36 11.5545 30.6958 6.40137 24 6.40137Z" fill="white"/>
<path fill-rule="evenodd" clip-rule="evenodd" d="M24 15.4014C22.3431 15.4014 21 16.7445 21 18.4014C21 20.0582 22.3431 21.4014 24 21.4014C25.6569 21.4014 27 20.0582 27 18.4014C27 16.7445 25.6569 15.4014 24 15.4014ZM18 18.4014C18 15.0877 20.6863 12.4014 24 12.4014C27.3137 12.4014 30 15.0877 30 18.4014C30 21.7151 27.3137 24.4014 24 24.4014C20.6863 24.4014 18 21.7151 18 18.4014Z" fill="white"/>
</svg>
