<svg width="24" height="24" viewBox="0 0 24 24" fill="none" xmlns="http://www.w3.org/2000/svg">
<path d="M18.4668 22.5003C18.3089 22.501 18.1549 22.4518 18.0266 22.3597L11.998 17.9891L5.96944 22.3597C5.84064 22.4531 5.68547 22.5032 5.52636 22.5026C5.36726 22.502 5.21246 22.4509 5.08434 22.3565C4.95623 22.2622 4.86144 22.1295 4.81368 21.9777C4.76592 21.826 4.76766 21.6629 4.81865 21.5122L7.1699 14.548L1.07615 10.3691C0.944159 10.2787 0.844537 10.1484 0.791844 9.99736C0.73915 9.84629 0.736147 9.68233 0.783272 9.52944C0.830397 9.37654 0.925182 9.24272 1.05378 9.14753C1.18237 9.05234 1.33804 9.00077 1.49803 9.00035H9.01584L11.2846 2.01832C11.3335 1.86758 11.4288 1.73619 11.557 1.64301C11.6852 1.54983 11.8396 1.49963 11.998 1.49963C12.1565 1.49963 12.3109 1.54983 12.4391 1.64301C12.5672 1.73619 12.6626 1.86758 12.7115 2.01832L14.9802 9.00269H22.498C22.6582 9.00261 22.8142 9.05383 22.9432 9.14884C23.0722 9.24384 23.1674 9.37765 23.2148 9.53066C23.2622 9.68368 23.2594 9.84785 23.2067 9.99915C23.1541 10.1504 23.0544 10.2809 22.9222 10.3714L16.8262 14.548L19.176 21.5103C19.2141 21.6231 19.2248 21.7432 19.2072 21.8609C19.1897 21.9786 19.1444 22.0904 19.0751 22.1871C19.0058 22.2838 18.9145 22.3627 18.8088 22.4172C18.703 22.4716 18.5858 22.5001 18.4668 22.5003Z" fill="#FF914C"/>
</svg>
