<svg width="94" height="93" viewBox="0 0 94 93" fill="none" xmlns="http://www.w3.org/2000/svg">
<path d="M24.3806 22.6279C20.6508 24.8603 18.7349 26.3706 15.5056 32.6079C15.5056 32.6079 3.87786 62.2105 4.7411 62.2105H13.4918M25.2397 43.6033C25.2397 43.6033 32.6257 62.2105 31.5597 62.2105H22.7097M13.4918 62.2105V88.797M13.4918 62.2105H22.7097M22.7097 62.2105V88.797M29.5719 26.0129C29.5719 26.0129 32.1324 39.7057 33.259 39.9086C34.3857 40.1114 46.3689 45.3857 46.3689 45.3857M49.3391 49.95H56.3037C57.2255 49.95 56.3037 56.2385 56.3037 57.3542C56.3037 58.47 69.516 58.47 69.516 57.3542V47.7185M48.5197 62.7299L89.2832 62.2105M42.0332 13.2722C42.0332 18.1946 38.0038 22.185 33.0332 22.185C28.0626 22.185 24.0332 18.1946 24.0332 13.2722C24.0332 8.34977 28.0626 4.35938 33.0332 4.35938C38.0038 4.35938 42.0332 8.34977 42.0332 13.2722ZM86.4102 52.46C86.4102 55.9617 83.5437 58.8003 80.0078 58.8003C76.4719 58.8003 73.6055 55.9617 73.6055 52.46C73.6055 48.9584 76.4719 46.1197 80.0078 46.1197C83.5437 46.1197 86.4102 48.9584 86.4102 52.46Z" stroke="#FF914C" stroke-width="5" stroke-linecap="round"/>
</svg>
