<svg width="76" height="102" viewBox="0 0 76 102" fill="none" xmlns="http://www.w3.org/2000/svg">
<path d="M20.2672 14.0473C20.7315 14.0361 21.1995 14.18 21.7595 14.488C22.8492 15.0874 35.2802 21.6078 37.4198 23.2097C39.5593 24.8116 39.2118 27.039 36.1313 27.6673C33.0507 28.2955 4.11891 27.6673 4.11891 27.6673C0.578362 27.1623 0.752195 24.3963 2.63177 23.2097C4.51135 22.023 17.8417 15.0652 18.8851 14.488C19.3923 14.2074 19.8281 14.058 20.2672 14.0473ZM20.2672 14.0473V8.55281L20.1811 8.52656C17.5179 7.71444 16.5467 7.41829 16.3853 4.75863C16.2221 2.07051 18.0674 0.808236 20.2672 0.796946C22.467 0.785656 23.9921 2.12132 24.3596 4.75863M48.2826 53.0107C48.7905 51.2779 48.723 34.2184 48.9486 33.3879C49.1742 32.5573 50.2307 32.3447 50.4407 33.754V97.2838C50.5373 98.9024 50.907 99.6476 52.9814 100.345C54.2925 100.649 54.7991 100.65 56.0171 100.345C58.4579 99.6526 58.4652 98.9749 58.483 97.34L58.4836 97.2838C58.4836 97.2838 57.8714 71.3186 58.4836 70.0143C59.0958 68.71 60.3517 68.7454 61.0449 70.0143C61.7381 71.2832 61.0449 97.2838 61.0449 97.2838C61.0983 98.9951 61.4211 99.6944 63.4165 100.345C64.9751 100.746 65.6864 100.699 66.4522 100.345C68.1956 99.4113 68.9511 98.7872 68.9187 97.2838V60.8711C68.9187 60.8711 68.5435 34.0869 68.9187 33.3879C69.2938 32.6888 70.2424 32.3691 70.4365 33.3879C70.6306 34.4066 71.4893 53.441 71.4893 53.441C72.0497 55.3013 75.4643 54.7124 75.4643 53.441V27.4406C75.4643 21.4047 72.1875 21.312 67.4957 21.412H52.602C47.832 21.5035 44.25 21.0483 44.2539 27.4406C44.2578 33.8328 44.0437 51.1794 44.25 53.0107C44.4562 54.8419 47.7747 54.7435 48.2826 53.0107ZM67.8164 11.2628C67.8164 15.5827 64.2347 19.0847 59.8164 19.0847C55.3981 19.0847 51.8164 15.5827 51.8164 11.2628C51.8164 6.94281 55.3981 3.4408 59.8164 3.4408C64.2347 3.4408 67.8164 6.94281 67.8164 11.2628Z" stroke="#FF914C" stroke-linecap="round"/>
</svg>
