<svg width="91" height="101" viewBox="0 0 91 101" fill="none" xmlns="http://www.w3.org/2000/svg">
<path d="M19.5172 14.4837C19.9815 14.4722 20.4495 14.6193 21.0095 14.9344C22.0992 15.5474 34.5302 22.2162 36.6698 23.8546C38.8093 25.493 38.4618 27.7711 35.3813 28.4136C32.3007 29.0562 3.36891 28.4136 3.36891 28.4136C-0.171638 27.8972 0.00219476 25.0683 1.88177 23.8546C3.76135 22.6409 17.0917 15.5247 18.1351 14.9344C18.6423 14.6474 19.0781 14.4946 19.5172 14.4837ZM19.5172 14.4837V8.86412L19.4311 8.83727C16.7679 8.00667 15.7967 7.70377 15.6353 4.98357C15.4721 2.23427 17.3174 0.94326 19.5172 0.931713C21.717 0.920166 23.2421 2.28623 23.6096 4.98357M48.5934 51.6224C48.5934 51.6224 53.9531 34.0325 55.115 31.5529C56.2769 29.0734 58.2753 29.1004 57.5971 31.9788L46.949 68.0817H56.6071V96.9032C56.7037 98.5587 57.0734 99.3209 59.1478 100.034C60.4589 100.345 60.9655 100.346 62.1835 100.034C64.6243 99.326 64.6316 98.6329 64.6494 96.9608L64.65 96.9032C64.65 96.9032 64.0378 70.3471 64.65 69.0131C65.2622 67.6791 66.5181 67.7153 67.2113 69.0131C67.9045 70.3109 67.2113 96.9032 67.2113 96.9032C67.2647 98.6535 67.5875 99.3688 69.5829 100.034C71.1415 100.444 71.8528 100.396 72.6186 100.034C74.362 99.0792 75.1175 98.4409 75.0851 96.9032V68.0817H85.1407C85.1407 68.0817 74.4559 33.0112 74.2313 31.5529C74.0067 30.0947 75.5591 29.727 76.6029 31.5529C77.6467 33.3789 82.9588 51.6224 82.9588 51.6224C83.4746 52.8038 83.8044 53.3671 85.1407 53.5502C86.6918 53.6145 87.5034 53.5117 88.6507 52.6015C89.777 51.6729 89.7353 51.0868 89.5993 49.9911L81.6307 25.4703C79.9516 20.7694 78.3539 19.2022 73.6621 19.3045H58.7684C53.9984 19.3981 52.1227 20.513 50.4203 25.4703L43.0621 49.9911C42.7437 51.0292 42.6379 51.5987 43.5901 52.6015C44.9534 53.7083 45.6931 53.9564 46.949 53.5502C47.7278 53.1146 48.1349 52.7371 48.5934 51.6224ZM74.25 8.93164C74.25 13.3499 70.6683 16.9316 66.25 16.9316C61.8317 16.9316 58.25 13.3499 58.25 8.93164C58.25 4.51336 61.8317 0.931642 66.25 0.931642C70.6683 0.931642 74.25 4.51336 74.25 8.93164Z" stroke="#FF914C" stroke-linecap="round"/>
</svg>
