 <svg
                xmlns="http://www.w3.org/2000/svg"
                
                width="82"
                height="82"
                viewBox="0 0 82 82"
                fill="none"
              >
                <path
                  d="M49.5405 25.5784C48.4973 27.5742 43.6853 41.7322 43.6853 41.7322C43.2737 42.6294 42.9082 42.9332 42.2089 43.2838C41.0814 43.6108 40.4173 43.4111 39.1932 42.5203C38.3384 41.7131 38.4334 41.2547 38.7192 40.4191L45.3255 20.6826C46.854 16.6925 48.538 15.7951 52.8205 15.7198H66.1923C70.4047 15.6375 71.8392 16.8989 73.3467 20.6826L80.501 40.4191C80.6231 41.301 80.6605 41.7728 79.6493 42.5203C78.6193 43.2528 77.8906 43.3356 76.498 43.2838C75.2982 43.1365 75.0022 42.6831 74.5391 41.7322C74.5391 41.7322 69.7698 27.0481 68.8326 25.5784C67.8954 24.1088 66.5017 24.4047 66.7034 25.5784C66.905 26.7522 76.498 54.9801 76.498 54.9801H67.4699V78.1783C67.499 79.4159 66.8207 79.9297 65.2555 80.698C64.5679 80.9899 63.9293 81.0286 62.53 80.698C60.7385 80.1628 60.4487 79.587 60.4007 78.1783C60.4007 78.1783 61.0231 56.7743 60.4007 55.7298C59.7783 54.6852 58.6508 54.656 58.1011 55.7298C57.5515 56.8035 58.1011 78.1783 58.1011 78.1783L58.1006 78.2246C58.0846 79.5705 58.078 80.1284 55.8867 80.698C54.7931 80.9494 54.3383 80.9486 53.1612 80.698C51.2987 80.1242 50.9669 79.5107 50.8801 78.1783V54.9801H42.2089L51.769 25.9212C52.3779 23.6044 50.5837 23.5827 49.5405 25.5784Z"
                  fill="#FF914C"
                />
                <path
                  d="M66.7202 7.37077C66.7202 10.927 63.5044 13.8099 59.5377 13.8099C55.5709 13.8099 52.3551 10.927 52.3551 7.37077C52.3551 3.81454 55.5709 0.931642 59.5377 0.931642C63.5044 0.931642 66.7202 3.81454 66.7202 7.37077Z"
                  fill="#FF914C"
                />
                <path
                  d="M17.5803 11.8396C17.9971 11.8303 18.4173 11.9487 18.9201 12.2023C19.8984 12.6957 31.0592 18.0634 32.9801 19.3821C34.901 20.7009 34.589 22.5345 31.8233 23.0516C29.0575 23.5688 3.08214 23.0516 3.08214 23.0516C-0.0966189 22.636 0.0594501 20.359 1.74696 19.3821C3.43448 18.4053 15.4026 12.6775 16.3394 12.2023C16.7948 11.9714 17.1861 11.8483 17.5803 11.8396ZM17.5803 11.8396V7.31642L17.503 7.29481C15.1119 6.62626 14.24 6.38246 14.095 4.193C13.9486 1.98011 15.6053 0.940993 17.5803 0.931699C19.5553 0.922405 20.9246 2.02194 21.2545 4.193M43.6853 41.7322C43.6853 41.7322 48.4973 27.5742 49.5405 25.5784C50.5837 23.5827 52.3779 23.6044 51.769 25.9212L42.2089 54.9801H50.8801V78.1783C50.9669 79.5107 51.2987 80.1242 53.1612 80.698C54.3383 80.9486 54.7931 80.9494 55.8867 80.698C58.078 80.1284 58.0846 79.5705 58.1006 78.2246L58.1011 78.1783C58.1011 78.1783 57.5515 56.8035 58.1011 55.7298C58.6508 54.656 59.7783 54.6852 60.4007 55.7298C61.0231 56.7743 60.4007 78.1783 60.4007 78.1783C60.4487 79.587 60.7385 80.1628 62.53 80.698C63.9293 81.0286 64.5679 80.9899 65.2555 80.698C66.8207 79.9297 67.499 79.4159 67.4699 78.1783V54.9801H76.498C76.498 54.9801 66.905 26.7522 66.7034 25.5784C66.5017 24.4047 67.8954 24.1088 68.8326 25.5784C69.7698 27.0481 74.5391 41.7322 74.5391 41.7322C75.0022 42.6831 75.2982 43.1365 76.498 43.2838C77.8906 43.3356 78.6193 43.2528 79.6493 42.5203C80.6605 41.7728 80.6231 41.301 80.501 40.4191L73.3467 20.6826C71.8392 16.8989 70.4047 15.6375 66.1923 15.7198H52.8205C48.538 15.7951 46.854 16.6925 45.3255 20.6826L38.7192 40.4191C38.4334 41.2547 38.3384 41.7131 39.1932 42.5203C40.4173 43.4111 41.0814 43.6108 42.2089 43.2838C42.9082 42.9332 43.2737 42.6294 43.6853 41.7322ZM66.7202 7.37077C66.7202 10.927 63.5044 13.8099 59.5377 13.8099C55.5709 13.8099 52.3551 10.927 52.3551 7.37077C52.3551 3.81454 55.5709 0.931642 59.5377 0.931642C63.5044 0.931642 66.7202 3.81454 66.7202 7.37077Z"
                  stroke="#FF914C"
                  strokeLinecap="round"
                />
              </svg>