<svg
            xmlns="http://www.w3.org/2000/svg"
            width="25"
            height="25"
            viewBox="0 0 25 25"
            fill="none"
          >
            <path
              d="M19.0813 22.9996C18.1663 22.9996 16.881 22.6686 14.9563 21.5933C12.6159 20.2808 10.8056 19.0691 8.47774 16.7474C6.23336 14.5044 5.14118 13.0522 3.61258 10.2707C1.88571 7.13003 2.18008 5.48378 2.50915 4.78019C2.90102 3.93925 3.47946 3.43628 4.22712 2.93707C4.65178 2.65883 5.10118 2.42032 5.56962 2.22457C5.61649 2.20441 5.66008 2.18519 5.69899 2.16785C5.93102 2.06332 6.28258 1.90535 6.7279 2.0741C7.02508 2.18566 7.2904 2.41394 7.70571 2.8241C8.55743 3.6641 9.72133 5.53488 10.1507 6.45363C10.439 7.07285 10.6298 7.4816 10.6302 7.94003C10.6302 8.47675 10.3602 8.89066 10.0326 9.33738C9.97118 9.42128 9.91024 9.50144 9.85118 9.57925C9.49446 10.048 9.41618 10.1835 9.46774 10.4253C9.57227 10.9114 10.3518 12.3585 11.6329 13.6368C12.914 14.915 14.3193 15.6453 14.8073 15.7494C15.0595 15.8033 15.1977 15.7218 15.6815 15.3524C15.7509 15.2994 15.8221 15.2446 15.8966 15.1897C16.3963 14.818 16.791 14.555 17.3151 14.555H17.3179C17.774 14.555 18.1645 14.7528 18.8113 15.0791C19.6551 15.5047 21.5821 16.6536 22.4273 17.5063C22.8384 17.9207 23.0676 18.185 23.1796 18.4818C23.3484 18.9285 23.1895 19.2786 23.0859 19.513C23.0685 19.5519 23.0493 19.5946 23.0291 19.6419C22.8318 20.1095 22.5919 20.558 22.3124 20.9816C21.8141 21.7269 21.3093 22.3039 20.4665 22.6963C20.0337 22.901 19.5601 23.0047 19.0813 22.9996Z"
              fill="white"
            />
          </svg>