<svg
              xmlns="http://www.w3.org/2000/svg"
              width="66"
              height="67"
              viewBox="0 0 66 67"
              fill="none"
            >
              <path
                d="M53.4164 12.6442C50.7399 9.94127 47.5558 7.79378 44.0468 6.32514C40.5379 4.85649 36.7734 4.09563 32.9695 4.08627C29.1656 4.07691 25.3974 4.81923 21.8813 6.27058C18.3652 7.72194 15.1705 9.85373 12.4807 12.5435C9.79098 15.2332 7.65919 18.4279 6.20784 21.944C4.75648 25.4601 4.01416 29.2284 4.02352 33.0322C4.03289 36.8361 4.79375 40.6007 6.26239 44.1096C7.73104 47.6185 9.87853 50.8027 12.5815 53.4791C15.258 56.1821 18.4421 58.3296 21.9511 59.7982C25.46 61.2669 29.2245 62.0277 33.0284 62.0371C36.8322 62.0465 40.6005 61.3041 44.1166 59.8528C47.6327 58.4014 50.8274 56.2697 53.5172 53.5799C56.2069 50.8902 58.3387 47.6955 59.79 44.1793C61.2414 40.6632 61.9837 36.895 61.9744 33.0911C61.965 29.2873 61.2041 25.5227 59.7355 22.0138C58.2668 18.5049 56.1194 15.3207 53.4164 12.6442ZM8.24894 33.0617C8.24802 30.8712 8.53845 28.6903 9.11261 26.5764C10.0588 28.6131 11.4329 30.3727 12.3675 32.4623C13.5753 35.1487 16.8186 34.4036 18.2508 36.7574C19.5218 38.847 18.1644 41.4896 19.1157 43.6758C19.8067 45.2627 21.4361 45.6094 22.5601 46.7696C23.7087 47.94 23.6842 49.5436 23.8595 51.0699C24.0573 52.8631 24.3782 54.6406 24.8198 56.3899C24.8198 56.4027 24.8198 56.4169 24.8302 56.4298C15.1841 53.0422 8.24894 43.8473 8.24894 33.0617ZM32.9989 57.8117C31.6167 57.8112 30.237 57.6957 28.8739 57.4662C28.8881 57.1169 28.8946 56.7908 28.9294 56.5639C29.2426 54.5143 30.2687 52.5098 31.6532 50.9758C33.0209 49.4624 34.8952 48.4389 36.0502 46.7219C37.182 45.0461 37.521 42.7902 37.0543 40.8322C36.3673 37.9395 32.4369 36.974 30.3177 35.4052C29.0995 34.5029 28.0154 33.1081 26.4157 32.9947C25.6784 32.9431 25.0609 33.1016 24.33 32.9134C23.6597 32.7394 23.1337 32.3785 22.4196 32.4726C21.0854 32.6479 20.2437 34.0736 18.8102 33.8802C17.4503 33.6985 16.0491 32.1065 15.7397 30.811C15.3427 29.1455 16.6601 28.6054 18.0716 28.4572C18.6607 28.3953 19.322 28.3282 19.8879 28.5448C20.633 28.8207 20.9849 29.5503 21.6539 29.919C22.9082 30.6073 23.1621 29.5077 22.97 28.394C22.6826 26.7259 22.3474 26.0466 23.835 24.8981C24.8662 24.1066 25.748 23.5342 25.583 22.1124C25.485 21.2771 25.0274 20.8994 25.4541 20.0679C25.7776 19.435 26.6658 18.864 27.2446 18.4863C28.7386 17.5117 33.6448 17.5839 31.6403 14.8563C31.0512 14.0557 29.9645 12.6249 28.9332 12.429C27.6442 12.1853 27.0718 13.6239 26.1734 14.2581C25.2452 14.9143 23.438 15.6593 22.5086 14.6449C21.2582 13.2797 23.3374 12.8324 23.7976 11.8785C24.0103 11.4338 23.7976 10.8163 23.4393 10.235C23.9042 10.039 24.3768 9.85727 24.8572 9.68969C25.1583 9.91206 25.5154 10.046 25.8885 10.0764C26.7509 10.1331 27.5643 9.66649 28.3171 10.2543C29.1524 10.8988 29.7544 11.7135 30.863 11.9146C31.9355 12.1093 33.0711 11.4841 33.3367 10.3858C33.4978 9.71805 33.3367 9.01294 33.182 8.32329C38.0031 8.35103 42.7098 9.79486 46.7171 12.4754C46.4593 12.3774 46.1512 12.389 45.771 12.5656C44.9885 12.9291 43.8799 13.8547 43.7884 14.7725C43.684 15.814 45.2205 15.961 45.9502 15.961C47.0459 15.961 48.1557 15.4711 47.8025 14.2053C47.6491 13.6561 47.4403 13.0851 47.1039 12.7396C47.9126 13.3008 48.6874 13.9095 49.4242 14.5624C49.4126 14.574 49.401 14.5843 49.3894 14.5972C48.6469 15.3706 47.7845 15.9829 47.2766 16.9239C46.9182 17.5865 46.5148 17.901 45.789 18.0725C45.3894 18.1666 44.9331 18.2014 44.5979 18.4695C43.6646 19.2043 44.1957 20.9703 45.08 21.5001C46.1977 22.1691 47.8554 21.8546 48.6984 20.8994C49.3571 20.1517 49.7452 18.8536 50.9298 18.8549C51.4514 18.8538 51.9524 19.0581 52.3246 19.4234C52.8144 19.9313 52.7177 20.4057 52.8221 21.0399C53.0065 22.1665 54.0004 21.5555 54.6049 20.987C55.0456 21.7713 55.4432 22.5791 55.796 23.4066C55.1309 24.3644 54.6023 25.4085 53.0026 24.2922C52.0448 23.6232 51.4557 22.6525 50.253 22.3509C49.2025 22.0931 48.1261 22.3612 47.0884 22.5404C45.9089 22.7453 44.5103 22.8356 43.6157 23.7289C42.7507 24.59 42.2931 25.7424 41.3727 26.6073C39.5925 28.2831 38.841 30.1123 39.9934 32.4816C41.102 34.7594 43.421 35.9956 45.9231 35.8332C48.3813 35.6695 50.935 34.2438 50.8641 37.8158C50.8383 39.0803 51.1025 39.9556 51.4905 41.1299C51.8502 42.2127 51.8257 43.262 51.9082 44.3797C51.9866 45.6884 52.1913 46.9865 52.5192 48.2559C50.2087 51.2307 47.2488 53.6382 43.8657 55.2943C40.4826 56.9505 36.7657 57.8115 32.9989 57.8117Z"
                fill="#0F48B7"
              />
            </svg>