                   <svg
        width="25"
        height="89"
        viewBox="0 0 25 89"
        fill="none"
        xmlns="http://www.w3.org/2000/svg"
      >
        <path
          d="M0.000796026 88.5568C7.2008 89.0416 10.2677 89.0138 12.6677 88.5576C15.8677 87.9303 18.401 85.7063 17.3343 84.3947C16.9343 83.853 16.401 81.7145 16.2677 79.6901C16.1343 76.1545 16.001 75.9264 12.5343 74.8429C8.66766 73.6453 7.86767 72.4763 10.2677 71.5354C11.0677 71.2218 11.7343 70.0242 11.7343 68.8837C11.7343 66.9448 12.1343 66.6882 16.2677 65.5762C18.801 64.8919 20.801 64.1505 20.9344 63.8939C20.9344 63.6373 21.3344 63.1811 21.601 62.8675C22.9344 61.5844 23.4677 58.9327 22.401 58.619C20.401 58.0773 19.7344 56.7657 20.9344 55.6252C24.2677 52.4602 25.3344 49.0102 23.601 47.3849C21.601 45.6456 20.9343 44.8473 20.001 42.4807C19.4677 41.4542 18.6677 40.4848 18.2677 40.3422C17.7343 40.1711 17.201 39.2587 16.9344 38.2893C16.6677 36.8636 17.3343 36.1508 20.2677 34.7822C22.1343 33.8413 23.4677 32.8148 23.0677 32.5012C22.6677 32.1875 22.801 31.8739 23.3343 31.8168C24.6676 31.6458 23.601 24.2894 22.1344 23.2345C21.4677 22.7497 20.5344 21.5807 20.1344 20.6113C19.4677 19.2712 18.401 18.6439 15.7343 18.0451C12.801 17.3608 12.401 17.0186 12.5343 15.3934C12.6677 14.3669 12.1343 13.3405 11.4677 13.1124C10.6677 12.8272 11.201 12.4851 13.3344 11.9718C17.3344 11.0594 20.6677 8.69284 20.001 7.40975C19.601 6.86801 19.201 5.89857 18.9344 5.27129C18.6677 4.67251 17.8677 4.10225 16.9344 4.04523C16.1344 3.9882 15.4677 3.76009 15.4677 3.53199C15.4677 3.30389 14.5343 3.04727 13.4677 2.93322C12.2677 2.84768 10.5343 2.41999 9.46768 1.99229C6.40101 0.709211 3.07584 0.452591 0.00100336 0.452591C-0.000787697 2.41273 1.27894e-06 84.3939 0.000796026 88.5568Z"
          fill="#ff914c"
        />
      </svg>