<svg
                xmlns="http://www.w3.org/2000/svg"
                width="82"
                height="83"
                viewBox="0 0 82 83"
                fill="none"
              >
                <path
                  d="M19.6098 18.6678C16.0823 20.7828 14.2703 22.2138 11.2161 28.1233C11.2161 28.1233 0.219074 56.1701 1.0355 56.1701H9.3116M20.4222 38.5408C20.4222 38.5408 27.4077 56.1701 26.3995 56.1701H18.0295M9.3116 56.1701V81.3594M9.3116 56.1701H18.0295M18.0295 56.1701V81.3594M24.5195 21.8749C24.5195 21.8749 26.9412 34.8481 28.0067 35.0403C29.0722 35.2325 40.4055 40.2295 40.4055 40.2295M43.2146 44.5539H49.8014C50.6732 44.5539 49.8014 50.512 49.8014 51.5691C49.8014 52.6262 62.2971 52.6262 62.2971 51.5691V42.4398M42.4397 56.6623L80.9922 56.1701M36.305 9.80375C36.305 14.4675 32.4941 18.2481 27.7931 18.2481C23.0921 18.2481 19.2812 14.4675 19.2812 9.80375C19.2812 5.14005 23.0921 1.35938 27.7931 1.35938C32.4941 1.35938 36.305 5.14005 36.305 9.80375ZM78.275 46.9321C78.275 50.2497 75.564 52.9392 72.2199 52.9392C68.8758 52.9392 66.1648 50.2497 66.1648 46.9321C66.1648 43.6145 68.8758 40.925 72.2199 40.925C75.564 40.925 78.275 43.6145 78.275 46.9321Z"
                  stroke="#FF914C"
                  strokeWidth="3"
                  strokeLinecap="round"
                />
              </svg>