<svg
          xmlns="http://www.w3.org/2000/svg"
          width="917"
          height="407"
          viewBox="0 0 917 407"
          fill="none"
        >
          <path
            d="M398.597 209.666C275.717 284.718 138.86 323.862 0.398438 330.039V405.254H916.338V0.744263C733.764 12.9286 654.267 48.9566 519.771 132.735C484.201 154.892 444.785 180.388 398.597 209.666Z"
            fill="#D9E9F3"
          />
          <path
            fillRule="evenodd"
            clipRule="evenodd"
            d="M823.206 0.744385L809.323 18.6701H814.11L804.534 32.2354H809.323L801.664 44.3474H806.927L799.266 59.3663H819.962H823.206H826.112H847.072L839.479 44.3474H844.75L837.22 32.2354H841.863L832.388 18.6701H837.22L823.206 0.744385Z"
            fill="#258725"
          />
          <path
            d="M823.206 59.3663H819.962V64.393H826.112V59.3663H823.206Z"
            fill="#895A0E"
          />
          <path
            fillRule="evenodd"
            clipRule="evenodd"
            d="M742.855 52.3843L728.972 70.31H733.759L724.182 83.8753H728.972L721.312 95.9873H726.575L718.914 111.006H739.611H742.855H745.761H766.72L759.127 95.9873H764.398L756.868 83.8753H761.512L752.036 70.31H756.868L742.855 52.3843Z"
            fill="#20A520"
          />
          <path
            d="M742.855 111.006H739.611V116.033H745.761V111.006H742.855Z"
            fill="#895A0E"
          />
          <path
            fillRule="evenodd"
            clipRule="evenodd"
            d="M704.472 41.6179L690.589 59.5436H695.376L685.8 73.109H690.589L682.929 85.221H688.192L680.531 100.24H701.228H704.472H707.378H728.338L720.744 85.221H726.016L718.485 73.109H723.129L713.653 59.5436H718.485L704.472 41.6179Z"
            fill="#45CB45"
          />
          <path
            d="M704.472 100.24H701.228V105.267H707.378V100.24H704.472Z"
            fill="#895A0E"
          />
          <path
            fillRule="evenodd"
            clipRule="evenodd"
            d="M790.659 32.5688L776.776 50.4946H781.563L771.987 64.0599H776.776L769.117 76.1719H774.38L766.719 91.1908H787.416H790.659H793.565H814.525L806.932 76.1719H812.203L804.673 64.0599H809.316L799.841 50.4946H804.673L790.659 32.5688Z"
            fill="#3BB93B"
          />
          <path
            d="M790.659 91.1908H787.416V96.2175H793.565V91.1908H790.659Z"
            fill="#895A0E"
          />
          <path
            fillRule="evenodd"
            clipRule="evenodd"
            d="M766.753 64.3933L752.87 82.319H757.657L748.081 95.8844H752.87L745.21 107.996H750.473L742.812 123.015H763.509H766.753H769.659H790.619L783.026 107.996H788.297L780.767 95.8844H785.41L775.935 82.319H780.767L766.753 64.3933Z"
            fill="#28AE28"
          />
          <path
            d="M766.753 123.015H763.509V128.042H769.659V123.015H766.753Z"
            fill="#895A0E"
          />
          <path
            fillRule="evenodd"
            clipRule="evenodd"
            d="M823.206 61.6699L809.323 79.5956H814.11L804.534 93.161H809.323L801.664 105.273H806.927L799.266 120.292H819.962H823.206H826.112H847.072L839.479 105.273H844.75L837.22 93.161H841.863L832.388 79.5956H837.22L823.206 61.6699Z"
            fill="#28AE28"
          />
          <path
            d="M823.206 120.292H819.962V125.319H826.112V120.292H823.206Z"
            fill="#895A0E"
          />
          <path
            fillRule="evenodd"
            clipRule="evenodd"
            d="M718.948 78.5444L705.065 96.4701H709.852L700.276 110.035H705.065L697.406 122.147H702.669L695.008 137.166H715.705H718.948H721.854H742.814L735.221 122.147H740.492L732.962 110.035H737.606L728.13 96.4701H732.962L718.948 78.5444Z"
            fill="#3EBC3E"
          />
          <path
            d="M718.948 137.166H715.705V142.193H721.854V137.166H718.948Z"
            fill="#895A0E"
          />
          <path
            fillRule="evenodd"
            clipRule="evenodd"
            d="M799.292 93.4941L785.409 111.42H790.196L780.62 124.985H785.409L777.749 137.097H783.012L775.352 152.116H796.048H799.292H802.198H823.158L815.565 137.097H820.836L813.306 124.985H817.949L808.474 111.42H813.306L799.292 93.4941Z"
            fill="#249A24"
          />
          <path
            d="M799.292 152.116H796.048V157.143H802.198V152.116H799.292Z"
            fill="#895A0E"
          />
          <path
            fillRule="evenodd"
            clipRule="evenodd"
            d="M845.55 161.938L830.901 180.693H835.953L825.848 194.886H830.901L822.819 207.558H828.373L820.289 223.272H842.128H845.55H848.617H870.733L862.721 207.558H868.283L860.337 194.886H865.237L855.238 180.693H860.337L845.55 161.938Z"
            fill="#258725"
          />
          <path
            d="M845.55 223.272H842.128V228.531H848.617V223.272H845.55Z"
            fill="#895A0E"
          />
          <path
            fillRule="evenodd"
            clipRule="evenodd"
            d="M760.777 215.967L746.128 234.721H751.179L741.075 248.914H746.128L738.046 261.586H743.599L735.516 277.3H757.354H760.777H763.843H785.959L777.947 261.586H783.509L775.563 248.914H780.463L770.465 234.721H775.563L760.777 215.967Z"
            fill="#20A520"
          />
          <path
            d="M760.777 277.3H757.354V282.559H763.843V277.3H760.777Z"
            fill="#895A0E"
          />
          <path
            fillRule="evenodd"
            clipRule="evenodd"
            d="M720.269 204.702L705.62 223.457H710.671L700.567 237.65H705.62L697.538 250.322H703.091L695.008 266.035H716.846H720.269H723.336H745.451L737.439 250.322H743.001L735.056 237.65H739.956L729.957 223.457H735.056L720.269 204.702Z"
            fill="#45CB45"
          />
          <path
            d="M720.269 266.035H716.846V271.295H723.336V266.035H720.269Z"
            fill="#895A0E"
          />
          <path
            fillRule="evenodd"
            clipRule="evenodd"
            d="M811.214 195.235L796.566 213.989H801.617L791.512 228.182H796.566L788.483 240.854H794.037L785.953 256.568H807.792H811.214H814.281H836.397L828.385 240.854H833.947L826.001 228.182H830.901L820.902 213.989H826.001L811.214 195.235Z"
            fill="#3BB93B"
          />
          <path
            d="M811.214 256.568H807.792V261.827H814.281V256.568H811.214Z"
            fill="#895A0E"
          />
          <path
            fillRule="evenodd"
            clipRule="evenodd"
            d="M785.98 228.531L771.331 247.286H776.382L766.278 261.478H771.331L763.249 274.15H768.802L760.719 289.864H782.557H785.98H789.046H811.162L803.15 274.15H808.712L800.767 261.478H805.666L795.668 247.286H800.767L785.98 228.531Z"
            fill="#28AE28"
          />
          <path
            d="M785.98 289.864H782.557V295.123H789.046V289.864H785.98Z"
            fill="#895A0E"
          />
          <path
            fillRule="evenodd"
            clipRule="evenodd"
            d="M845.55 225.682L830.901 244.436H835.953L825.848 258.629H830.901L822.819 271.301H828.373L820.289 287.015H842.128H845.55H848.617H870.733L862.721 271.301H868.283L860.337 258.629H865.237L855.238 244.436H860.337L845.55 225.682Z"
            fill="#28AE28"
          />
          <path
            d="M845.55 287.015H842.128V292.274H848.617V287.015H845.55Z"
            fill="#895A0E"
          />
          <path
            fillRule="evenodd"
            clipRule="evenodd"
            d="M735.535 243.337L720.886 262.091H725.937L715.833 276.284H720.886L712.804 288.956H718.357L710.273 304.67H732.112H735.535H738.601H760.717L752.705 288.956H758.267L750.321 276.284H755.221L745.223 262.091H750.321L735.535 243.337Z"
            fill="#3EBC3E"
          />
          <path
            d="M735.535 304.67H732.112V309.929H738.601V304.67H735.535Z"
            fill="#895A0E"
          />
          <path
            fillRule="evenodd"
            clipRule="evenodd"
            d="M820.324 258.978L805.675 277.733H810.726L800.622 291.925H805.675L797.593 304.597H803.146L795.062 320.311H816.901H820.324H823.39H845.506L837.494 304.597H843.056L835.11 291.925H840.01L830.012 277.733H835.11L820.324 258.978Z"
            fill="#249A24"
          />
          <path
            d="M820.324 320.311H816.901V325.57H823.39V320.311H820.324Z"
            fill="#895A0E"
          />
          <path
            fillRule="evenodd"
            clipRule="evenodd"
            d="M613.457 88.7581L598.808 107.513H603.859L593.754 121.706H598.808L590.726 134.378H596.279L588.195 150.091H610.034H613.457H616.523H638.639L630.627 134.378H636.189L628.243 121.706H633.143L623.145 107.513H628.243L613.457 88.7581Z"
            fill="#258725"
          />
          <path
            d="M613.457 150.091H610.034V155.35H616.523V150.091H613.457Z"
            fill="#895A0E"
          />
          <path
            fillRule="evenodd"
            clipRule="evenodd"
            d="M528.683 142.786L514.034 161.541H519.085L508.981 175.734H514.034L505.952 188.406H511.505L503.422 204.119H525.261H528.683H531.75H553.865L545.853 188.406H551.416L543.47 175.734H548.37L538.371 161.541H543.47L528.683 142.786Z"
            fill="#20A520"
          />
          <path
            d="M528.683 204.119H525.261V209.378H531.75V204.119H528.683Z"
            fill="#895A0E"
          />
          <path
            fillRule="evenodd"
            clipRule="evenodd"
            d="M488.175 131.522L473.526 150.277H478.578L468.473 164.469H473.526L465.444 177.142H470.998L462.914 192.855H484.753H488.175H491.242H513.358L505.346 177.142H510.908L502.962 164.469H507.862L497.863 150.277H502.962L488.175 131.522Z"
            fill="#45CB45"
          />
          <path
            d="M488.175 192.855H484.753V198.114H491.242V192.855H488.175Z"
            fill="#895A0E"
          />
          <path
            fillRule="evenodd"
            clipRule="evenodd"
            d="M579.121 122.054L564.472 140.809H569.523L559.418 155.002H564.472L556.39 167.674H561.943L553.859 183.387H575.698H579.121H582.187H604.303L596.291 167.674H601.853L593.907 155.002H598.807L588.809 140.809H593.907L579.121 122.054Z"
            fill="#3BB93B"
          />
          <path
            d="M579.121 183.387H575.698V188.647H582.187V183.387H579.121Z"
            fill="#895A0E"
          />
          <path
            fillRule="evenodd"
            clipRule="evenodd"
            d="M553.886 155.35L539.237 174.105H544.289L534.184 188.298H539.237L531.155 200.97H536.709L528.625 216.683H550.464H553.886H556.953H579.069L571.057 200.97H576.619L568.673 188.298H573.573L563.574 174.105H568.673L553.886 155.35Z"
            fill="#28AE28"
          />
          <path
            d="M553.886 216.683H550.464V221.943H556.953V216.683H553.886Z"
            fill="#895A0E"
          />
          <path
            fillRule="evenodd"
            clipRule="evenodd"
            d="M613.457 152.501L598.808 171.256H603.859L593.754 185.449H598.808L590.726 198.121H596.279L588.195 213.834H610.034H613.457H616.523H638.639L630.627 198.121H636.189L628.243 185.449H633.143L623.145 171.256H628.243L613.457 152.501Z"
            fill="#28AE28"
          />
          <path
            d="M613.457 213.834H610.034V219.094H616.523V213.834H613.457Z"
            fill="#895A0E"
          />
          <path
            fillRule="evenodd"
            clipRule="evenodd"
            d="M503.441 170.156L488.792 188.911H493.843L483.739 203.104H488.792L480.71 215.776H486.263L478.18 231.489H500.018H503.441H506.507H528.623L520.611 215.776H526.173L518.228 203.104H523.127L513.129 188.911H518.228L503.441 170.156Z"
            fill="#3EBC3E"
          />
          <path
            d="M503.441 231.489H500.018V236.749H506.507V231.489H503.441Z"
            fill="#895A0E"
          />
          <path
            fillRule="evenodd"
            clipRule="evenodd"
            d="M588.23 185.797L573.581 204.552H578.632L568.528 218.745H573.581L565.499 231.417H571.052L562.969 247.13H584.807H588.23H591.296H613.412L605.4 231.417H610.962L603.017 218.745H607.916L597.918 204.552H603.017L588.23 185.797Z"
            fill="#249A24"
          />
          <path
            d="M588.23 247.13H584.807V252.39H591.296V247.13H588.23Z"
            fill="#895A0E"
          />
          <path
            fillRule="evenodd"
            clipRule="evenodd"
            d="M666.98 225.682L652.331 244.436H657.382L647.278 258.629H652.331L644.249 271.301H649.802L641.719 287.015H663.557H666.98H670.046H692.162L684.15 271.301H689.712L681.767 258.629H686.666L676.668 244.436H681.767L666.98 225.682Z"
            fill="#258725"
          />
          <path
            d="M666.98 287.015H663.557V292.274H670.046V287.015H666.98Z"
            fill="#895A0E"
          />
          <path
            fillRule="evenodd"
            clipRule="evenodd"
            d="M582.207 279.71L567.558 298.464H572.609L562.504 312.657H567.558L559.476 325.329H565.029L556.945 341.043H578.784H582.207H585.273H607.389L599.377 325.329H604.939L596.993 312.657H601.893L591.895 298.464H596.993L582.207 279.71Z"
            fill="#20A520"
          />
          <path
            d="M582.207 341.043H578.784V346.302H585.273V341.043H582.207Z"
            fill="#895A0E"
          />
          <path
            fillRule="evenodd"
            clipRule="evenodd"
            d="M541.699 268.446L527.05 287.2H532.101L521.997 301.393H527.05L518.968 314.065H524.521L516.438 329.779H538.276H541.699H544.765H566.881L558.869 314.065H564.431L556.485 301.393H561.385L551.387 287.2H556.485L541.699 268.446Z"
            fill="#45CB45"
          />
          <path
            d="M541.699 329.779H538.276V335.038H544.765V329.779H541.699Z"
            fill="#895A0E"
          />
          <path
            fillRule="evenodd"
            clipRule="evenodd"
            d="M632.644 258.978L617.995 277.733H623.046L612.942 291.925H617.995L609.913 304.597H615.466L607.383 320.311H629.221H632.644H635.711H657.826L649.814 304.597H655.376L647.431 291.925H652.331L642.332 277.733H647.431L632.644 258.978Z"
            fill="#3BB93B"
          />
          <path
            d="M632.644 320.311H629.221V325.57H635.711V320.311H632.644Z"
            fill="#895A0E"
          />
          <path
            fillRule="evenodd"
            clipRule="evenodd"
            d="M607.41 292.274L592.761 311.029H597.812L587.708 325.221H592.761L584.679 337.894H590.232L582.148 353.607H603.987H607.41H610.476H632.592L624.58 337.894H630.142L622.196 325.221H627.096L617.098 311.029H622.196L607.41 292.274Z"
            fill="#28AE28"
          />
          <path
            d="M607.41 353.607H603.987V358.866H610.476V353.607H607.41Z"
            fill="#895A0E"
          />
          <path
            fillRule="evenodd"
            clipRule="evenodd"
            d="M666.98 289.425L652.331 308.18H657.382L647.278 322.372H652.331L644.249 335.044H649.802L641.719 350.758H663.557H666.98H670.046H692.162L684.15 335.044H689.712L681.767 322.372H686.666L676.668 308.18H681.767L666.98 289.425Z"
            fill="#28AE28"
          />
          <path
            d="M666.98 350.758H663.557V356.017H670.046V350.758H666.98Z"
            fill="#895A0E"
          />
          <path
            fillRule="evenodd"
            clipRule="evenodd"
            d="M556.964 307.08L542.316 325.835H547.367L537.262 340.027H542.316L534.233 352.699H539.787L531.703 368.413H553.542H556.964H560.031H582.147L574.135 352.699H579.697L571.751 340.027H576.651L566.652 325.835H571.751L556.964 307.08Z"
            fill="#3EBC3E"
          />
          <path
            d="M556.964 368.413H553.542V373.672H560.031V368.413H556.964Z"
            fill="#895A0E"
          />
          <path
            fillRule="evenodd"
            clipRule="evenodd"
            d="M641.753 322.721L627.105 341.476H632.156L622.051 355.668H627.105L619.022 368.341H624.576L616.492 384.054H638.331H641.753H644.82H666.936L658.924 368.341H664.486L656.54 355.668H661.44L651.441 341.476H656.54L641.753 322.721Z"
            fill="#249A24"
          />
          <path
            d="M641.753 384.054H638.331V389.313H644.82V384.054H641.753Z"
            fill="#895A0E"
          />
          <path
            d="M267.413 267.713V387.484H462.916V267.713H267.413Z"
            fill="#DD8B64"
          />
          <path
            d="M53.7266 387.484H267.413V267.713L159.888 191.495L53.7266 267.713V387.484Z"
            fill="#E9AF94"
          />
          <path
            d="M88.6451 274.198V299.619H110.346V274.198H88.6451Z"
            fill="#CED5D6"
          />
          <path
            d="M123.987 299.619V274.198H110.346V299.619H123.987Z"
            fill="#B45B33"
          />
          <path
            d="M75.3125 274.198V299.619H88.6451V274.198H75.3125Z"
            fill="#B45B33"
          />
          <path
            d="M88.6451 274.198H75.3125V299.619H88.6451M88.6451 274.198V299.619M88.6451 274.198H110.346M88.6451 299.619H110.346M110.346 274.198H123.987V299.619H110.346M110.346 274.198V299.619"
            stroke="black"
          />
          <path
            d="M154.989 274.198V299.619H176.69V274.198H154.989Z"
            fill="#CED5D6"
          />
          <path
            d="M190.331 299.619V274.198H176.69V299.619H190.331Z"
            fill="#B45B33"
          />
          <path
            d="M141.656 274.198V299.619H154.989V274.198H141.656Z"
            fill="#B45B33"
          />
          <path
            d="M154.989 274.198H141.656V299.619H154.989M154.989 274.198V299.619M154.989 274.198H176.69M154.989 299.619H176.69M176.69 274.198H190.331V299.619H176.69M176.69 274.198V299.619"
            stroke="black"
          />
          <path
            d="M88.6451 328.451V353.872H110.346V328.451H88.6451Z"
            fill="#CED5D6"
          />
          <path
            d="M123.987 353.872V328.451H110.346V353.872H123.987Z"
            fill="#B45B33"
          />
          <path
            d="M75.3125 328.451V353.872H88.6451V328.451H75.3125Z"
            fill="#B45B33"
          />
          <path
            d="M88.6451 328.451H75.3125V353.872H88.6451M88.6451 328.451V353.872M88.6451 328.451H110.346M88.6451 353.872H110.346M110.346 328.451H123.987V353.872H110.346M110.346 328.451V353.872"
            stroke="black"
          />
          <path
            d="M221.348 328.451V353.872H243.049V328.451H221.348Z"
            fill="#CED5D6"
          />
          <path
            d="M256.69 353.872V328.451H243.049V353.872H256.69Z"
            fill="#B45B33"
          />
          <path
            d="M208.016 328.451V353.872H221.348V328.451H208.016Z"
            fill="#B45B33"
          />
          <path
            d="M221.348 328.451H208.016V353.872H221.348M221.348 328.451V353.872M221.348 328.451H243.049M221.348 353.872H243.049M243.049 328.451H256.69V353.872H243.049M243.049 328.451V353.872"
            stroke="black"
          />
          <path
            d="M307.575 328.451V353.872H329.276V328.451H307.575Z"
            fill="#CED5D6"
          />
          <path
            d="M342.917 353.872V328.451H329.276V353.872H342.917Z"
            fill="#B45B33"
          />
          <path
            d="M294.242 328.451V353.872H307.575V328.451H294.242Z"
            fill="#B45B33"
          />
          <path
            d="M307.575 328.451H294.242V353.872H307.575M307.575 328.451V353.872M307.575 328.451H329.276M307.575 353.872H329.276M329.276 328.451H342.917V353.872H329.276M329.276 328.451V353.872"
            stroke="black"
          />
          <path
            d="M398.02 328.451V353.872H419.721V328.451H398.02Z"
            fill="#CED5D6"
          />
          <path
            d="M433.362 353.872V328.451H419.721V353.872H433.362Z"
            fill="#B45B33"
          />
          <path
            d="M384.688 328.451V353.872H398.02V328.451H384.688Z"
            fill="#B45B33"
          />
          <path
            d="M398.02 328.451H384.688V353.872H398.02M398.02 328.451V353.872M398.02 328.451H419.721M398.02 353.872H419.721M419.721 328.451H433.362V353.872H419.721M419.721 328.451V353.872"
            stroke="black"
          />
          <path
            d="M398.02 274.198V299.619H419.721V274.198H398.02Z"
            fill="#CED5D6"
          />
          <path
            d="M433.362 299.619V274.198H419.721V299.619H433.362Z"
            fill="#B45B33"
          />
          <path
            d="M384.688 274.198V299.619H398.02V274.198H384.688Z"
            fill="#B45B33"
          />
          <path
            d="M398.02 274.198H384.688V299.619H398.02M398.02 274.198V299.619M398.02 274.198H419.721M398.02 299.619H419.721M419.721 274.198H433.362V299.619H419.721M419.721 274.198V299.619"
            stroke="black"
          />
          <path
            d="M307.575 274.198V299.619H329.276V274.198H307.575Z"
            fill="#CED5D6"
          />
          <path
            d="M342.917 299.619V274.198H329.276V299.619H342.917Z"
            fill="#B45B33"
          />
          <path
            d="M294.242 274.198V299.619H307.575V274.198H294.242Z"
            fill="#B45B33"
          />
          <path
            d="M307.575 274.198H294.242V299.619H307.575M307.575 274.198V299.619M307.575 274.198H329.276M307.575 299.619H329.276M329.276 274.198H342.917V299.619H329.276M329.276 274.198V299.619"
            stroke="black"
          />
          <path
            d="M154.989 328.451V353.872H176.69V328.451H154.989Z"
            fill="#CED5D6"
          />
          <path
            d="M190.331 353.872V328.451H176.69V353.872H190.331Z"
            fill="#B45B33"
          />
          <path
            d="M141.656 328.451V353.872H154.989V328.451H141.656Z"
            fill="#B45B33"
          />
          <path
            d="M154.989 328.451H141.656V353.872H154.989M154.989 328.451V353.872M154.989 328.451H176.69M154.989 353.872H176.69M176.69 328.451H190.331V353.872H176.69M176.69 328.451V353.872"
            stroke="black"
          />
          <path
            d="M221.348 274.198V299.619H243.049V274.198H221.348Z"
            fill="#CED5D6"
          />
          <path
            d="M256.69 299.619V274.198H243.049V299.619H256.69Z"
            fill="#B45B33"
          />
          <path
            d="M208.016 274.198V299.619H221.348V274.198H208.016Z"
            fill="#B45B33"
          />
          <path
            d="M221.348 274.198H208.016V299.619H221.348M221.348 274.198V299.619M221.348 274.198H243.049M221.348 299.619H243.049M243.049 274.198H256.69V299.619H243.049M243.049 274.198V299.619"
            stroke="black"
          />
          <path
            fillRule="evenodd"
            clipRule="evenodd"
            d="M359.913 168.657H172.531L304.259 262.598C302.882 270.274 300.943 275.34 296.892 278.283H485.558C491.943 269.075 490.83 263.931 485.558 254.724L359.913 168.657Z"
            fill="#B45B33"
          />
          <path
            d="M304.259 262.598L172.531 168.657H149.433L23.4835 262.598C23.1255 273.953 23.8416 279.78 39.2337 281.492L160.465 193.323L281.165 281.492C288.539 281.741 293.47 280.77 296.892 278.283C300.943 275.34 302.882 270.274 304.259 262.598Z"
            fill="#9C461F"
          />
          <path
            d="M318.57 168.657H337.687V134.787H318.57V168.657Z"
            fill="#716A6A"
          />
          <path
            d="M671.788 147.141V243.337H828.808V147.141H671.788Z"
            fill="#DD8B64"
          />
          <path
            d="M500.164 243.337H671.788V147.141L585.429 85.926L500.164 147.141V243.337Z"
            fill="#E9AF94"
          />
          <path
            d="M528.216 152.35V172.767H545.646V152.35H528.216Z"
            fill="#CED5D6"
          />
          <path
            d="M556.601 172.767V152.35H545.646V172.767H556.601Z"
            fill="#B45B33"
          />
          <path
            d="M517.508 152.35V172.767H528.216V152.35H517.508Z"
            fill="#B45B33"
          />
          <path
            d="M528.216 152.35H517.508V172.767H528.216M528.216 152.35V172.767M528.216 152.35H545.646M528.216 172.767H545.646M545.646 152.35H556.601V172.767H545.646M545.646 152.35V172.767"
            stroke="black"
          />
          <path
            d="M581.497 152.35V172.767H598.927V152.35H581.497Z"
            fill="#CED5D6"
          />
          <path
            d="M609.882 172.767V152.35H598.927V172.767H609.882Z"
            fill="#B45B33"
          />
          <path
            d="M570.789 152.35V172.767H581.497V152.35H570.789Z"
            fill="#B45B33"
          />
          <path
            d="M581.497 152.35H570.789V172.767H581.497M581.497 152.35V172.767M581.497 152.35H598.927M581.497 172.767H598.927M598.927 152.35H609.882V172.767H598.927M598.927 152.35V172.767"
            stroke="black"
          />
          <path
            d="M528.216 195.923V216.341H545.646V195.923H528.216Z"
            fill="#CED5D6"
          />
          <path
            d="M556.601 216.341V195.923H545.646V216.341H556.601Z"
            fill="#B45B33"
          />
          <path
            d="M517.508 195.923V216.341H528.216V195.923H517.508Z"
            fill="#B45B33"
          />
          <path
            d="M528.216 195.923H517.508V216.341H528.216M528.216 195.923V216.341M528.216 195.923H545.646M528.216 216.341H545.646M545.646 195.923H556.601V216.341H545.646M545.646 195.923V216.341"
            stroke="black"
          />
          <path
            d="M634.794 195.923V216.341H652.224V195.923H634.794Z"
            fill="#CED5D6"
          />
          <path
            d="M663.179 216.341V195.923H652.224V216.341H663.179Z"
            fill="#B45B33"
          />
          <path
            d="M624.086 195.923V216.341H634.794V195.923H624.086Z"
            fill="#B45B33"
          />
          <path
            d="M634.794 195.923H624.086V216.341H634.794M634.794 195.923V216.341M634.794 195.923H652.224M634.794 216.341H652.224M652.224 195.923H663.179V216.341H652.224M652.224 195.923V216.341"
            stroke="black"
          />
          <path
            d="M704.044 195.923V216.341H721.474V195.923H704.044Z"
            fill="#CED5D6"
          />
          <path
            d="M732.429 216.341V195.923H721.474V216.341H732.429Z"
            fill="#B45B33"
          />
          <path
            d="M693.336 195.923V216.341H704.044V195.923H693.336Z"
            fill="#B45B33"
          />
          <path
            d="M704.044 195.923H693.336V216.341H704.044M704.044 195.923V216.341M704.044 195.923H721.474M704.044 216.341H721.474M721.474 195.923H732.429V216.341H721.474M721.474 195.923V216.341"
            stroke="black"
          />
          <path
            d="M776.693 195.923V216.341H794.122V195.923H776.693Z"
            fill="#CED5D6"
          />
          <path
            d="M805.078 216.341V195.923H794.122V216.341H805.078Z"
            fill="#B45B33"
          />
          <path
            d="M765.984 195.923V216.341H776.693V195.923H765.984Z"
            fill="#B45B33"
          />
          <path
            d="M776.693 195.923H765.984V216.341H776.693M776.693 195.923V216.341M776.693 195.923H794.122M776.693 216.341H794.122M794.122 195.923H805.078V216.341H794.122M794.122 195.923V216.341"
            stroke="black"
          />
          <path
            d="M776.693 152.35V172.767H794.122V152.35H776.693Z"
            fill="#CED5D6"
          />
          <path
            d="M805.078 172.767V152.35H794.122V172.767H805.078Z"
            fill="#B45B33"
          />
          <path
            d="M765.984 152.35V172.767H776.693V152.35H765.984Z"
            fill="#B45B33"
          />
          <path
            d="M776.693 152.35H765.984V172.767H776.693M776.693 152.35V172.767M776.693 152.35H794.122M776.693 172.767H794.122M794.122 152.35H805.078V172.767H794.122M794.122 152.35V172.767"
            stroke="black"
          />
          <path
            d="M704.044 152.35V172.767H721.474V152.35H704.044Z"
            fill="#CED5D6"
          />
          <path
            d="M732.429 172.767V152.35H721.474V172.767H732.429Z"
            fill="#B45B33"
          />
          <path
            d="M693.336 152.35V172.767H704.044V152.35H693.336Z"
            fill="#B45B33"
          />
          <path
            d="M704.044 152.35H693.336V172.767H704.044M704.044 152.35V172.767M704.044 152.35H721.474M704.044 172.767H721.474M721.474 152.35H732.429V172.767H721.474M721.474 152.35V172.767"
            stroke="black"
          />
          <path
            d="M581.497 195.923V216.341H598.927V195.923H581.497Z"
            fill="#CED5D6"
          />
          <path
            d="M609.882 216.341V195.923H598.927V216.341H609.882Z"
            fill="#B45B33"
          />
          <path
            d="M570.789 195.923V216.341H581.497V195.923H570.789Z"
            fill="#B45B33"
          />
          <path
            d="M581.497 195.923H570.789V216.341H581.497M581.497 195.923V216.341M581.497 195.923H598.927M581.497 216.341H598.927M598.927 195.923H609.882V216.341H598.927M598.927 195.923V216.341"
            stroke="black"
          />
          <path
            d="M634.794 152.35V172.767H652.224V152.35H634.794Z"
            fill="#CED5D6"
          />
          <path
            d="M663.179 172.767V152.35H652.224V172.767H663.179Z"
            fill="#B45B33"
          />
          <path
            d="M624.086 152.35V172.767H634.794V152.35H624.086Z"
            fill="#B45B33"
          />
          <path
            d="M634.794 152.35H624.086V172.767H634.794M634.794 152.35V172.767M634.794 152.35H652.224M634.794 172.767H652.224M652.224 152.35H663.179V172.767H652.224M652.224 152.35V172.767"
            stroke="black"
          />
          <path
            fillRule="evenodd"
            clipRule="evenodd"
            d="M746.083 67.5837H595.586L701.384 143.034C700.279 149.198 698.722 153.267 695.468 155.631H846.997C852.125 148.235 851.231 144.104 846.997 136.709L746.083 67.5837Z"
            fill="#B45B33"
          />
          <path
            d="M701.384 143.034L595.586 67.5837H577.035L475.878 143.034C475.59 152.153 476.165 156.833 488.527 158.208L585.896 87.3946L682.836 158.208C688.759 158.408 692.719 157.628 695.468 155.631C698.722 153.267 700.279 149.198 701.384 143.034Z"
            fill="#9C461F"
          />
          <path
            d="M712.883 67.5835H728.237V40.3809H712.883V67.5835Z"
            fill="#716A6A"
          />
          <path
            d="M688.082 299.628V406.099H861.874V299.628H688.082Z"
            fill="#DD8B64"
          />
          <path
            d="M498.125 406.099H688.082V299.628L592.498 231.874L498.125 299.628V406.099Z"
            fill="#E9AF94"
          />
          <path
            d="M529.172 305.393V327.992H548.464V305.393H529.172Z"
            fill="#CED5D6"
          />
          <path
            d="M560.59 327.992V305.393H548.464V327.992H560.59Z"
            fill="#B45B33"
          />
          <path
            d="M517.32 305.393V327.992H529.172V305.393H517.32Z"
            fill="#B45B33"
          />
          <path
            d="M529.172 305.393H517.32V327.992H529.172M529.172 305.393V327.992M529.172 305.393H548.464M529.172 327.992H548.464M548.464 305.393H560.59V327.992H548.464M548.464 305.393V327.992"
            stroke="black"
          />
          <path
            d="M588.141 305.393V327.992H607.432V305.393H588.141Z"
            fill="#CED5D6"
          />
          <path
            d="M619.558 327.992V305.393H607.432V327.992H619.558Z"
            fill="#B45B33"
          />
          <path
            d="M576.289 305.393V327.992H588.141V305.393H576.289Z"
            fill="#B45B33"
          />
          <path
            d="M588.141 305.393H576.289V327.992H588.141M588.141 305.393V327.992M588.141 305.393H607.432M588.141 327.992H607.432M607.432 305.393H619.558V327.992H607.432M607.432 305.393V327.992"
            stroke="black"
          />
          <path
            d="M529.172 353.621V376.22H548.464V353.621H529.172Z"
            fill="#CED5D6"
          />
          <path
            d="M560.59 376.22V353.621H548.464V376.22H560.59Z"
            fill="#B45B33"
          />
          <path
            d="M517.32 353.621V376.22H529.172V353.621H517.32Z"
            fill="#B45B33"
          />
          <path
            d="M529.172 353.621H517.32V376.22H529.172M529.172 353.621V376.22M529.172 353.621H548.464M529.172 376.22H548.464M548.464 353.621H560.59V376.22H548.464M548.464 353.621V376.22"
            stroke="black"
          />
          <path
            d="M647.133 353.621V376.22H666.425V353.621H647.133Z"
            fill="#CED5D6"
          />
          <path
            d="M678.551 376.22V353.621H666.425V376.22H678.551Z"
            fill="#B45B33"
          />
          <path
            d="M635.281 353.621V376.22H647.133V353.621H635.281Z"
            fill="#B45B33"
          />
          <path
            d="M647.133 353.621H635.281V376.22H647.133M647.133 353.621V376.22M647.133 353.621H666.425M647.133 376.22H666.425M666.425 353.621H678.551V376.22H666.425M666.425 353.621V376.22"
            stroke="black"
          />
          <path
            d="M723.782 353.621V376.22H743.073V353.621H723.782Z"
            fill="#CED5D6"
          />
          <path
            d="M755.199 376.22V353.621H743.073V376.22H755.199Z"
            fill="#B45B33"
          />
          <path
            d="M711.93 353.621V376.22H723.782V353.621H711.93Z"
            fill="#B45B33"
          />
          <path
            d="M723.782 353.621H711.93V376.22H723.782M723.782 353.621V376.22M723.782 353.621H743.073M723.782 376.22H743.073M743.073 353.621H755.199V376.22H743.073M743.073 353.621V376.22"
            stroke="black"
          />
          <path
            d="M804.188 353.621V376.22H823.479V353.621H804.188Z"
            fill="#CED5D6"
          />
          <path
            d="M835.605 376.22V353.621H823.479V376.22H835.605Z"
            fill="#B45B33"
          />
          <path
            d="M792.336 353.621V376.22H804.188V353.621H792.336Z"
            fill="#B45B33"
          />
          <path
            d="M804.188 353.621H792.336V376.22H804.188M804.188 353.621V376.22M804.188 353.621H823.479M804.188 376.22H823.479M823.479 353.621H835.605V376.22H823.479M823.479 353.621V376.22"
            stroke="black"
          />
          <path
            d="M804.188 305.393V327.992H823.479V305.393H804.188Z"
            fill="#CED5D6"
          />
          <path
            d="M835.605 327.992V305.393H823.479V327.992H835.605Z"
            fill="#B45B33"
          />
          <path
            d="M792.336 305.393V327.992H804.188V305.393H792.336Z"
            fill="#B45B33"
          />
          <path
            d="M804.188 305.393H792.336V327.992H804.188M804.188 305.393V327.992M804.188 305.393H823.479M804.188 327.992H823.479M823.479 305.393H835.605V327.992H823.479M823.479 305.393V327.992"
            stroke="black"
          />
          <path
            d="M723.782 305.393V327.992H743.073V305.393H723.782Z"
            fill="#CED5D6"
          />
          <path
            d="M755.199 327.992V305.393H743.073V327.992H755.199Z"
            fill="#B45B33"
          />
          <path
            d="M711.93 305.393V327.992H723.782V305.393H711.93Z"
            fill="#B45B33"
          />
          <path
            d="M723.782 305.393H711.93V327.992H723.782M723.782 305.393V327.992M723.782 305.393H743.073M723.782 327.992H743.073M743.073 305.393H755.199V327.992H743.073M743.073 305.393V327.992"
            stroke="black"
          />
          <path
            d="M588.141 353.621V376.22H607.432V353.621H588.141Z"
            fill="#CED5D6"
          />
          <path
            d="M619.558 376.22V353.621H607.432V376.22H619.558Z"
            fill="#B45B33"
          />
          <path
            d="M576.289 353.621V376.22H588.141V353.621H576.289Z"
            fill="#B45B33"
          />
          <path
            d="M588.141 353.621H576.289V376.22H588.141M588.141 353.621V376.22M588.141 353.621H607.432M588.141 376.22H607.432M607.432 353.621H619.558V376.22H607.432M607.432 353.621V376.22"
            stroke="black"
          />
          <path
            d="M647.133 305.393V327.992H666.425V305.393H647.133Z"
            fill="#CED5D6"
          />
          <path
            d="M678.551 327.992V305.393H666.425V327.992H678.551Z"
            fill="#B45B33"
          />
          <path
            d="M635.281 305.393V327.992H647.133V305.393H635.281Z"
            fill="#B45B33"
          />
          <path
            d="M647.133 305.393H635.281V327.992H647.133M647.133 305.393V327.992M647.133 305.393H666.425M647.133 327.992H666.425M666.425 305.393H678.551V327.992H666.425M666.425 305.393V327.992"
            stroke="black"
          />
          <path
            fillRule="evenodd"
            clipRule="evenodd"
            d="M770.311 211.573H603.738L720.837 295.082C719.614 301.905 717.89 306.408 714.289 309.025H882.004C887.68 300.839 886.69 296.267 882.004 288.082L770.311 211.573Z"
            fill="#B45B33"
          />
          <path
            d="M720.837 295.082L603.738 211.573H583.205L471.242 295.082C470.924 305.176 471.561 310.356 485.243 311.877L593.012 233.5L700.308 311.877C706.863 312.099 711.246 311.235 714.289 309.025C717.89 306.408 719.614 301.905 720.837 295.082Z"
            fill="#9C461F"
          />
          <path
            d="M733.562 211.573H750.556V181.464H733.562V211.573Z"
            fill="#716A6A"
          />
        </svg>