<svg
            xmlns="http://www.w3.org/2000/svg"
            width="25"
            height="25"
            viewBox="0 0 25 25"
            fill="none"
          >
            <path
              d="M20.125 4.25H4.375C3.67904 4.25074 3.01179 4.52755 2.51967 5.01967C2.02755 5.51179 1.75074 6.17904 1.75 6.875V18.125C1.75074 18.821 2.02755 19.4882 2.51967 19.9803C3.01179 20.4725 3.67904 20.7493 4.375 20.75H20.125C20.821 20.7493 21.4882 20.4725 21.9803 19.9803C22.4725 19.4882 22.7493 18.821 22.75 18.125V6.875C22.7493 6.17904 22.4725 5.51179 21.9803 5.01967C21.4882 4.52755 20.821 4.25074 20.125 4.25V4.25ZM19.4603 8.59203L12.7103 13.842C12.5787 13.9444 12.4167 13.9999 12.25 13.9999C12.0833 13.9999 11.9213 13.9444 11.7897 13.842L5.03969 8.59203C4.96038 8.53214 4.89377 8.45709 4.84372 8.37123C4.79367 8.28537 4.76118 8.19042 4.74815 8.0919C4.73511 7.99338 4.74179 7.89325 4.76778 7.79733C4.79378 7.70142 4.83858 7.61162 4.89958 7.53316C4.96058 7.45471 5.03656 7.38916 5.12312 7.34032C5.20967 7.29149 5.30506 7.26034 5.40376 7.24869C5.50245 7.23704 5.60248 7.24513 5.69802 7.27247C5.79357 7.29981 5.88272 7.34587 5.96031 7.40797L12.25 12.2998L18.5397 7.40797C18.697 7.2892 18.8947 7.23711 19.0901 7.26296C19.2854 7.28881 19.4628 7.39053 19.5838 7.54612C19.7047 7.70171 19.7596 7.89866 19.7365 8.09439C19.7134 8.29011 19.6142 8.46888 19.4603 8.59203Z"
              fill="white"
            />
          </svg>