<svg width="101" height="101" viewBox="0 0 101 101" fill="none" xmlns="http://www.w3.org/2000/svg">
<path d="M10.2656 16.4707H91.4922" stroke="white" stroke-width="5" stroke-linecap="round"/>
<path fill-rule="evenodd" clip-rule="evenodd" d="M25.097 9.83398H53.353H55.0205H83.2766L83.2774 85.538C83.4886 91.4206 81.8756 92.9977 76.7005 92.772L54.1868 92.3823L31.673 92.772C26.498 92.9977 24.8849 91.4206 25.0961 85.538L25.097 9.83398Z" fill="#FF914C"/>
<path d="M25.097 9.83398V7.33398H22.597L22.597 9.83396L25.097 9.83398ZM83.2766 9.83398L85.7766 9.83396L85.7766 7.33398H83.2766V9.83398ZM83.2774 85.538L80.7774 85.538V85.5828L80.779 85.6277L83.2774 85.538ZM76.7005 92.772L76.8095 90.2744L76.7767 90.273L76.7438 90.2724L76.7005 92.772ZM54.1868 92.3823L54.2301 89.8826L54.1868 89.8819L54.1435 89.8826L54.1868 92.3823ZM31.673 92.772L31.6298 90.2724L31.5969 90.273L31.5641 90.2744L31.673 92.772ZM25.0961 85.538L27.5945 85.6277L27.5961 85.5828L27.5961 85.538L25.0961 85.538ZM53.353 7.33398H25.097V12.334H53.353V7.33398ZM53.353 12.334H55.0205V7.33398H53.353V12.334ZM55.0205 12.334H83.2766V7.33398H55.0205V12.334ZM80.7766 9.83401L80.7774 85.538L85.7774 85.5379L85.7766 9.83396L80.7766 9.83401ZM80.779 85.6277C80.8839 88.549 80.4483 89.4525 80.1777 89.7436C79.9754 89.9613 79.331 90.3844 76.8095 90.2744L76.5916 95.2696C79.2452 95.3854 81.9948 95.1328 83.84 93.1477C85.6169 91.236 85.8821 88.4096 85.7758 85.4483L80.779 85.6277ZM76.7438 90.2724L54.2301 89.8826L54.1435 94.8819L76.6573 95.2716L76.7438 90.2724ZM31.7163 95.2716L54.2301 94.8819L54.1435 89.8826L31.6298 90.2724L31.7163 95.2716ZM22.5977 85.4483C22.4914 88.4096 22.7567 91.236 24.5336 93.1477C26.3787 95.1328 29.1284 95.3854 31.782 95.2696L31.5641 90.2744C29.0426 90.3844 28.3982 89.9613 28.1959 89.7436C27.9253 89.4525 27.4897 88.549 27.5945 85.6277L22.5977 85.4483ZM22.597 9.83396L22.5961 85.5379L27.5961 85.538L27.597 9.83401L22.597 9.83396Z" fill="white"/>
<path d="M19.0953 8.80381H26.1785V84.8409H19.0953C16.6877 84.8229 15.9627 83.7583 15.9708 79.4246V12.5535C15.9346 9.85126 16.3548 8.74743 19.0953 8.80381Z" fill="white"/>
<path d="M19.7706 10.876H24.4192V82.7677H19.7706C18.1906 82.7507 17.7148 81.7441 17.7201 77.6466V14.4213C17.6964 11.8663 17.9721 10.8227 19.7706 10.876Z" fill="#FF914C"/>
<path d="M33.3906 58.4336C37.351 61.9256 39.4441 62.6369 42.5736 58.4336C46.4634 54.7975 48.6313 54.4767 52.5232 58.4336C58.0216 63.2864 61.1049 62.5329 66.605 58.4336C70.1222 54.8421 71.9237 55.563 75.0234 58.4336" stroke="#0F48B7" stroke-width="5" stroke-linecap="round"/>
<path d="M33.3906 69.2989C37.351 72.7909 39.4441 73.5022 42.5736 69.2989C46.4634 65.6627 48.6313 65.3419 52.5232 69.2989C58.0216 74.1516 61.1049 73.3981 66.605 69.2989C70.1222 65.7074 71.9237 66.4283 75.0234 69.2989" stroke="white" stroke-width="5" stroke-linecap="round"/>
</svg>
