<svg width="400" height="151" viewBox="0 0 400 151" fill="none" xmlns="http://www.w3.org/2000/svg">
<path d="M123.942 0.953491C121.015 1.23906 117.659 1.8102 116.446 2.23856C115.303 2.66692 112.948 3.16667 111.305 3.30945C109.663 3.45224 107.807 3.952 107.236 4.45174C105.88 5.59402 97.6694 7.45024 97.1697 6.66492C97.0269 6.37935 95.0279 6.45073 92.7433 6.73631C86.8891 7.52164 62.901 7.80721 58.6175 7.16467C56.6898 6.80771 51.1926 6.59352 46.4806 6.59352C41.7687 6.59352 36.7712 6.30795 35.2719 5.95099C26.4192 3.52362 14.8536 3.16666 10.8555 5.16566C9.21351 5.95099 6.78615 6.73631 5.35829 7.02188C3.2165 7.30745 2.64536 7.80721 2.35978 9.37785C2.14561 10.5915 2.50257 11.948 3.35929 13.1617C4.14461 14.304 4.92993 16.9455 5.14411 19.4443C5.42968 21.943 6.00083 23.8706 6.57197 24.0848C7.14311 24.299 7.50008 26.0838 7.57147 29.2965C7.85704 42.7898 8.14262 46.4308 8.92794 48.0014C9.49908 49.0723 9.71326 50.7858 9.3563 52.8562C9.07072 54.998 9.21351 56.3544 9.78465 57.1398C10.8555 58.3534 10.7842 62.1373 9.71326 63.4223C9.3563 63.9221 9.21351 64.4932 9.42769 64.7074C10.3558 65.6355 8.99933 68.5626 7.14311 69.4907C4.50157 70.99 2.43118 75.6305 3.00232 78.986C3.28789 81.0564 3.14511 82.0559 2.14561 83.1268C1.43168 83.9121 1.28889 84.4833 1.71725 84.4833C3.00232 84.4833 2.71675 89.1238 1.50307 90.1947C0.860532 90.6945 0.646353 91.4084 0.931925 91.694C1.2175 91.9795 1.28889 94.7639 1.00332 97.8338C0.717746 100.904 0.432174 104.83 0.289388 106.615C0.0752094 108.4 0.432174 110.899 1.00332 112.327C1.64585 113.683 2.00282 115.111 1.93143 115.468C1.86003 115.825 2.00282 116.61 2.28839 117.253C3.07371 119.109 3.35929 120.323 3.71625 123.678C3.93043 125.463 4.35879 127.248 4.78715 127.747C5.2869 128.319 5.14411 129.389 4.43018 131.103C3.2165 134.03 3.93043 135.172 6.92894 135.172C7.99983 135.172 8.99933 135.529 9.14212 135.886C9.2849 136.386 11.7837 136.457 16.8526 136.029C24.206 135.458 31.3453 135.886 36.1287 137.243C37.4851 137.6 40.912 138.599 43.6249 139.456C46.4093 140.241 49.9075 141.098 51.4782 141.241C52.9774 141.455 54.905 142.026 55.7617 142.597C58.0463 144.025 60.3309 144.596 66.4707 145.167C78.8217 146.31 86.6035 147.38 89.6734 148.38C91.4582 148.951 95.1707 149.522 97.8836 149.594C102.096 149.665 103.381 149.379 106.094 147.809C107.879 146.809 111.091 145.667 113.233 145.31C119.159 144.239 151 145.167 157.14 146.595C159.139 147.024 165.136 147.38 170.704 147.238C176.202 147.166 189.124 147.166 199.333 147.166C216.681 147.309 218.252 147.38 221.465 148.808C224.606 150.165 226.534 150.379 241.026 150.593C253.235 150.807 258.375 150.593 262.444 149.808C267.156 148.88 275.367 148.523 291.002 148.666C293.572 148.737 298.783 148.094 302.567 147.309C306.351 146.524 311.848 145.881 314.775 145.881C321.486 145.881 331.053 144.096 334.837 142.169C337.693 140.67 338.121 140.67 349.187 141.455C364.251 142.597 374.603 141.455 383.241 137.671C390.809 134.387 393.308 132.388 394.379 128.818C395.592 124.82 395.521 115.539 394.236 111.327C393.379 108.614 393.308 106.615 393.807 102.76C394.379 98.0479 394.236 93.5502 393.379 89.695C393.236 88.8382 392.308 87.339 391.38 86.4823C390.452 85.5542 389.524 84.0549 389.31 83.0554C388.81 80.985 391.023 74.631 394.95 66.8492C397.163 62.5656 397.52 61.2805 397.234 58.4962C396.949 56.4258 397.163 54.7838 397.805 53.9271C398.662 52.642 399.59 38.7918 398.805 38.7918C398.591 38.7918 398.377 38.2206 398.305 37.5067C398.162 36.0788 397.449 32.0808 396.949 29.6535C396.735 28.5112 396.163 28.0828 394.664 28.0828C391.309 28.0828 389.524 27.2975 389.524 25.7982C389.524 25.0843 388.739 23.2995 387.739 21.8716C386.454 19.8726 386.168 18.9445 386.74 17.945C387.097 17.2311 387.81 16.6599 388.31 16.6599C389.881 16.6599 387.168 15.3035 383.099 14.0898C378.172 12.5905 369.534 12.305 369.534 13.6614C369.534 14.2326 369.177 14.3754 368.677 14.0184C367.749 13.4473 358.825 13.0903 339.906 12.8047C329.911 12.6619 323.985 11.8052 320.987 10.2346C320.273 9.87759 318.345 9.44925 316.632 9.23506C314.918 9.09227 311.563 8.23557 309.278 7.45024C306.922 6.59352 304.423 6.09377 303.71 6.37935C302.996 6.59352 302.424 6.45073 302.424 6.09377C302.424 5.16566 297.356 5.16566 296.213 6.02238C295.714 6.52213 295.214 6.45073 294.928 6.02238C294.643 5.52263 293.857 5.66542 292.572 6.52213C289.645 8.44974 276.58 9.52063 272.439 8.23557C270.655 7.66441 268.941 6.95049 268.513 6.66492C268.156 6.37935 265.3 5.95099 262.302 5.66542C259.232 5.37984 255.519 4.73732 254.091 4.23756C252.592 3.73781 250.093 3.45224 248.451 3.66641C246.452 3.8092 245.167 3.59503 244.453 2.80971C243.525 1.95299 242.526 1.88159 238.813 2.38135C236.315 2.73831 227.962 3.23807 220.323 3.45224C212.683 3.73781 204.687 4.02339 202.546 4.16617C200.475 4.30896 197.905 4.09477 196.834 3.8092C193.407 2.66692 187.268 2.30995 166.064 2.02438C147.359 1.8102 140.862 1.52463 131.795 0.667908C130.439 0.525131 126.869 0.667908 123.942 0.953491Z" fill="#053490"/>
</svg>
