<svg width="67" height="67" viewBox="0 0 67 67" fill="none" xmlns="http://www.w3.org/2000/svg">
<path d="M53.768 13.1442C51.0915 10.4413 47.9073 8.29378 44.3984 6.82514C40.8895 5.35649 37.1249 4.59563 33.3211 4.58627C29.5172 4.57691 25.749 5.31923 22.2329 6.77058C18.7167 8.22194 15.522 10.3537 12.8323 13.0435C10.1425 15.7332 8.01076 18.9279 6.5594 22.444C5.10804 25.9601 4.36573 29.7284 4.37509 33.5322C4.38445 37.3361 5.14531 41.1007 6.61396 44.6096C8.0826 48.1185 10.2301 51.3027 12.933 53.9791C15.6095 56.6821 18.7937 58.8296 22.3026 60.2982C25.8115 61.7669 29.5761 62.5277 33.3799 62.5371C37.1838 62.5465 40.952 61.8041 44.4682 60.3528C47.9843 58.9014 51.179 56.7697 53.8687 54.0799C56.5585 51.3902 58.6903 48.1955 60.1416 44.6793C61.593 41.1632 62.3353 37.395 62.3259 33.5911C62.3166 29.7873 61.5557 26.0227 60.0871 22.5138C58.6184 19.0049 56.4709 15.8207 53.768 13.1442ZM8.60051 33.5617C8.59958 31.3712 8.89002 29.1903 9.46418 27.0764C10.4103 29.1131 11.7845 30.8727 12.7191 32.9623C13.9269 35.6487 17.1702 34.9036 18.6023 37.2574C19.8734 39.347 18.516 41.9896 19.4673 44.1758C20.1582 45.7627 21.7876 46.1094 22.9117 47.2696C24.0602 48.44 24.0357 50.0436 24.2111 51.5699C24.4089 53.3631 24.7298 55.1406 25.1714 56.8899C25.1714 56.9027 25.1714 56.9169 25.1817 56.9298C15.5357 53.5422 8.60051 44.3473 8.60051 33.5617ZM33.3505 58.3117C31.9683 58.3112 30.5885 58.1957 29.2255 57.9662C29.2397 57.6169 29.2461 57.2908 29.2809 57.0639C29.5942 55.0143 30.6203 53.0098 32.0047 51.4758C33.3724 49.9624 35.2467 48.9389 36.4017 47.2219C37.5335 45.5461 37.8725 43.2902 37.4059 41.3322C36.7188 38.4395 32.7885 37.474 30.6693 35.9052C29.4511 35.0029 28.367 33.6081 26.7673 33.4947C26.0299 33.4431 25.4125 33.6016 24.6816 33.4134C24.0112 33.2394 23.4853 32.8785 22.7712 32.9726C21.437 33.1479 20.5952 34.5736 19.1618 34.3802C17.8018 34.1985 16.4006 32.6065 16.0912 31.311C15.6942 29.6455 17.0116 29.1054 18.4232 28.9572C19.0123 28.8953 19.6736 28.8282 20.2394 29.0448C20.9845 29.3207 21.3364 30.0503 22.0055 30.419C23.2597 31.1073 23.5137 30.0077 23.3216 28.894C23.0341 27.2259 22.699 26.5466 24.1866 25.3981C25.2178 24.6066 26.0995 24.0342 25.9345 22.6124C25.8366 21.7771 25.3789 21.3994 25.8056 20.5679C26.1292 19.935 27.0173 19.364 27.5961 18.9863C29.0902 18.0117 33.9963 18.0839 31.9918 15.3563C31.4027 14.5557 30.3161 13.1249 29.2848 12.929C27.9957 12.6853 27.4234 14.1239 26.5249 14.7581C25.5968 15.4143 23.7895 16.1593 22.8601 15.1449C21.6097 13.7797 23.689 13.3324 24.1492 12.3785C24.3619 11.9338 24.1492 11.3163 23.7908 10.735C24.2557 10.539 24.7284 10.3573 25.2088 10.1897C25.5098 10.4121 25.867 10.546 26.24 10.5764C27.1024 10.6331 27.9158 10.1665 28.6686 10.7543C29.5039 11.3988 30.1059 12.2135 31.2145 12.4146C32.287 12.6093 33.4227 11.9841 33.6882 10.8858C33.8494 10.2181 33.6882 9.51294 33.5336 8.82329C38.3547 8.85103 43.0614 10.2949 47.0687 12.9754C46.8109 12.8774 46.5028 12.889 46.1225 13.0656C45.3401 13.4291 44.2315 14.3547 44.14 15.2725C44.0355 16.314 45.5721 16.461 46.3017 16.461C47.3974 16.461 48.5073 15.9711 48.1541 14.7053C48.0007 14.1561 47.7919 13.5851 47.4554 13.2396C48.2642 13.8008 49.039 14.4095 49.7757 15.0624C49.7641 15.074 49.7525 15.0843 49.7409 15.0972C48.9984 15.8706 48.1361 16.4829 47.6282 17.4239C47.2698 18.0865 46.8663 18.401 46.1406 18.5725C45.741 18.6666 45.2846 18.7014 44.9495 18.9695C44.0162 19.7043 44.5473 21.4703 45.4316 22.0001C46.5492 22.6691 48.207 22.3546 49.05 21.3994C49.7087 20.6517 50.0967 19.3536 51.2814 19.3549C51.8029 19.3538 52.3039 19.5581 52.6761 19.9234C53.166 20.4313 53.0693 20.9057 53.1737 21.5399C53.358 22.6665 54.3519 22.0555 54.9565 21.487C55.3972 22.2713 55.7948 23.0791 56.1476 23.9066C55.4824 24.8644 54.9539 25.9085 53.3542 24.7922C52.3964 24.1232 51.8073 23.1525 50.6046 22.8509C49.554 22.5931 48.4777 22.8612 47.44 23.0404C46.2605 23.2453 44.8618 23.3356 43.9672 24.2289C43.1023 25.09 42.6446 26.2424 41.7243 27.1073C39.9441 28.7831 39.1925 30.6123 40.345 32.9816C41.4536 35.2594 43.7726 36.4956 46.2747 36.3332C48.7329 36.1695 51.2865 34.7438 51.2156 38.3158C51.1898 39.5803 51.4541 40.4556 51.8421 41.6299C52.2018 42.7127 52.1773 43.762 52.2598 44.8797C52.3382 46.1884 52.5428 47.4865 52.8708 48.7559C50.5602 51.7307 47.6004 54.1382 44.2173 55.7943C40.8341 57.4505 37.1172 58.3115 33.3505 58.3117Z" fill="white"/>
</svg>
