<svg width="1111" height="229" viewBox="0 0 1111 229" fill="none" xmlns="http://www.w3.org/2000/svg">
<path d="M598.841 2.43372C577.769 2.65732 478.273 1.5952 476.318 1.0921C475.015 0.700806 457.853 1.14801 453.508 1.65111C450.684 1.98651 448.946 1.93062 448.295 1.48341C446.991 0.477203 441.777 0.700806 436.564 1.93062C432.436 2.93683 431.567 2.93683 428.309 2.21011C423.964 1.20392 414.84 1.20392 404.412 2.15422C398.547 2.71323 394.637 2.71323 387.033 2.21011C381.602 1.87471 374.868 1.76291 371.826 1.98651C368.785 2.21011 362.268 2.37781 357.489 2.43372C352.058 2.48961 347.278 2.82503 345.541 3.38403C343.368 4.11073 340.327 4.22255 331.637 3.94304C314.475 3.38403 304.482 3.38402 290.362 4.05482C283.193 4.39023 265.814 4.72565 251.693 4.83745C234.314 4.94925 225.19 5.22876 223.669 5.73186C222.149 6.12315 220.411 6.23495 218.89 5.89955C214.111 4.94925 198.035 4.66975 181.308 5.22876C154.37 6.17906 141.336 7.07347 142.422 7.80019C143.074 8.30328 137.86 8.47099 122.436 8.47099C98.1055 8.47099 78.9883 8.97411 66.6057 9.92441C61.8265 10.2598 54.8749 10.5952 51.399 10.6511C15.7719 11.3219 0.347778 12.1045 0.347778 13.2225L0.355591 14.1313C0.488403 29.2304 2.22998 227.334 0.347778 227.657C3.60645 228.719 45.3163 228.049 50.3127 226.539C54.0059 225.365 55.7438 225.254 73.5574 225.477C131.777 226.148 260.6 224.974 294.055 223.465C309.696 222.794 318.386 222.738 347.713 223.241C377.475 223.8 383.775 223.744 391.812 223.018C403.543 221.955 463.067 220.949 501.084 221.117C558.869 221.452 659.668 221.005 667.271 220.39C671.399 220.055 681.609 219.608 690.082 219.384C698.337 219.105 709.633 218.657 715.064 218.322C720.495 218.042 734.833 217.763 747.215 217.707C762.422 217.707 771.546 217.427 775.674 216.868C779.149 216.421 782.625 216.254 783.277 216.477C784.146 216.645 785.667 216.533 786.536 216.142C787.839 215.583 799.136 215.583 841.28 216.03C977.054 217.595 993.782 218.042 1020.28 220.446C1037.66 222.011 1040.92 222.179 1046.35 221.564C1050.05 221.173 1053.96 220.893 1055.04 220.949C1058.52 221.117 1063.3 217.819 1061.78 216.309C1060.91 215.359 1061.34 214.912 1063.08 214.912C1064.6 214.912 1068.73 213.682 1071.99 212.117C1077.64 209.546 1077.85 209.042 1076.98 204.57C1076.33 201.943 1075.25 199.539 1074.59 199.316C1074.16 199.036 1075.03 197.862 1076.98 196.744C1078.72 195.626 1079.81 194.564 1079.16 194.396C1078.5 194.229 1079.59 193.334 1081.33 192.496C1083.5 191.378 1083.94 190.539 1082.42 189.924C1080.89 189.142 1081.76 188.75 1086.76 187.968C1093.93 186.85 1094.36 186.347 1089.58 184.446C1085.67 182.937 1086.76 179.639 1091.97 177.682C1093.71 177.011 1095.02 175.726 1095.02 174.831C1095.02 173.993 1095.23 172.539 1095.45 171.701C1095.67 170.806 1093.71 169.409 1091.1 168.514C1088.72 167.62 1086.54 166.67 1086.54 166.39C1086.54 166.111 1085.24 165.552 1083.5 165.16C1081.76 164.825 1080.68 164.21 1081.33 163.819C1082.63 162.924 1078.29 160.744 1071.77 159.123C1067.43 158.005 1066.77 157.446 1068.08 155.49C1070.47 151.8 1079.81 147.272 1084.8 147.272C1088.72 147.272 1089.15 146.993 1088.06 145.26C1087.41 144.142 1085.24 142.8 1083.5 142.297C1081.11 141.626 1080.68 140.844 1081.98 139.39C1083.07 138.216 1082.85 136.987 1081.76 136.427C1080.46 135.868 1080.68 135.533 1081.98 135.533C1083.28 135.533 1085.02 134.527 1085.67 133.353C1086.76 131.62 1088.28 131.061 1092.19 130.837C1098.27 130.446 1098.71 129.831 1093.93 128.601C1090.89 127.819 1091.1 127.539 1096.1 125.639C1099.36 124.465 1101.75 123.011 1101.75 122.396C1101.75 121.726 1102.84 120.943 1104.14 120.608C1105.23 120.328 1106.31 119.154 1106.09 118.148C1106.09 117.086 1106.09 115.744 1105.88 115.185C1105.88 114.57 1107.18 113.9 1108.7 113.676C1110.66 113.341 1110.66 112.949 1108.27 111.775C1105.88 110.601 1105.66 109.875 1107.83 107.806C1111.53 104.229 1111.31 104.061 1100.66 101.322C1095.23 99.9803 1090.45 98.2474 1090.02 97.5207C1089.8 96.7381 1088.28 95.3965 1086.98 94.558C1083.28 92.3778 1083.72 90.7567 1088.06 89.1356C1093.06 87.3468 1097.62 84.0486 1095.88 83.3778C1095.23 83.1542 1096.97 82.7629 1099.36 82.5952C1103.05 82.3716 1103.7 82.0362 1102.4 81.0859C1101.53 80.471 1100.88 79.0176 1101.1 77.9555C1102.62 68.0611 1101.75 64.4834 1097.62 63.6449C1094.36 62.9741 1093.93 62.5828 1091.97 58.3902C1091.1 56.9927 1089.15 55.3157 1087.41 54.6449C1085.67 53.9741 1084.37 52.2971 1084.37 51.0114C1084.37 49.6697 1082.85 47.9927 1080.89 47.266C1078.72 46.5393 1076.77 45.1977 1076.55 44.2474C1076.12 43.2971 1073.51 41.3965 1070.9 39.9989C1067.64 38.266 1066.99 37.4275 1068.73 37.2598C1070.47 37.148 1070.03 36.6449 1067.21 35.6946C1063.73 34.5766 1063.3 33.9617 1065.04 32.5083C1066.12 31.558 1066.99 29.9368 1066.99 28.9306C1066.99 27.9803 1067.86 27.03 1068.95 26.8623C1070.03 26.6387 1069.6 25.8002 1067.64 24.794C1065.9 23.8996 1064.82 22.558 1065.47 21.8871C1066.12 21.2163 1065.47 20.0424 1063.95 19.3157C1061.34 18.1418 1061.56 17.8064 1064.17 17.1356C1067.43 16.2412 1067.21 14.5083 1063.52 14.5083C1062.43 14.5083 1057 13.9492 1051.78 13.2784C1046.35 12.6076 1036.14 11.6573 1028.97 11.1542C1021.81 10.6511 1011.16 9.8685 1005.51 9.4213C997.692 8.86229 993.782 8.8064 990.523 9.2536C987.482 9.70081 967.93 9.7567 926.003 9.4213C892.983 9.19769 859.093 8.97409 850.838 8.9182C831.504 8.8064 802.177 8.07968 796.529 7.57658C794.139 7.35298 785.884 7.18527 778.063 7.24117C770.243 7.29707 760.901 7.12938 756.991 6.84987C753.298 6.57037 743.088 6.23495 734.181 6.17906C716.368 5.95546 689.864 4.89334 684.216 4.11073C682.044 3.83124 677.916 3.60762 675.092 3.60762C672.051 3.60762 667.271 3.38403 664.23 3.04863C658.799 2.54553 620.348 2.15421 598.841 2.43372Z" fill="#F4731C"/>
</svg>
