<svg width="1920" height="138" viewBox="0 0 1920 138" fill="none" xmlns="http://www.w3.org/2000/svg">
<path fill-rule="evenodd" clip-rule="evenodd" d="M1919.62 137.729C1919.63 79.5886 1919.62 13.0286 1919.62 16.8225C1914.28 17.2371 1892.48 18.5847 1881.12 18.792C1869.75 19.0511 1850.7 19.6212 1838.67 20.0359C1808.92 21.1761 1753.1 22.0054 1693.27 22.109C1637.45 22.2127 1633.78 22.1608 1608.04 20.1395C1591.66 18.8438 1585.31 18.6883 1551.22 18.5328C1525.48 18.481 1507.1 18.6883 1495.07 19.1548C1476.68 19.9322 1454.62 19.6212 1421.53 17.9627C1413.85 17.5999 1399.81 17.289 1390.78 17.289C1381.42 17.289 1371.4 17.0816 1368.05 16.8225C1326.61 13.7128 1297.19 12.0024 1288.5 12.2616C1284.16 12.3652 1278.81 12.1579 1276.81 11.7951C1274.8 11.3805 1270.79 11.0695 1268.45 11.0695C1265.78 11.0695 1261.1 10.8622 1257.75 10.6031C1256.49 10.494 1253.8 10.2839 1250.36 10.0153C1245.64 9.64584 1239.49 9.16563 1233.69 8.68542C1209.29 6.8196 1187.9 4.90195 1170.85 3.1916C1155.48 1.58492 1137.09 0.859314 1110.35 0.755661C1093.97 0.703827 1086.62 1.11845 1035.15 5.0056C981.335 9.10005 976.322 9.35919 951.254 9.67017C930.865 9.87748 919.501 10.2921 902.788 11.536C890.756 12.4171 877.386 13.1427 872.707 13.1427C868.028 13.1427 854.658 13.8683 843.294 14.7494C824.242 16.1487 820.231 16.3042 804.856 15.9414C795.163 15.6823 775.442 15.475 760.736 15.475C729.985 15.3713 695.224 14.5939 680.518 13.6091C672.161 13.0909 637.4 12.7281 568.546 12.5726C538.464 12.4689 428.499 13.6091 418.137 14.1274C411.786 14.4384 401.425 14.6975 395.074 14.6975C389.058 14.6975 378.696 15.164 372.68 15.7859C359.31 17.0298 341.261 17.9109 341.261 17.289C341.261 17.0298 335.579 16.5634 328.56 16.2006C321.875 15.8896 314.522 15.475 312.851 15.2676C310.845 15.1122 306.834 14.9048 303.158 14.853C299.815 14.7494 292.128 14.3866 286.446 13.9719C280.763 13.6091 270.736 12.9872 264.386 12.6244C258.035 12.3134 249.01 11.6915 244.331 11.3287C239.652 10.9659 218.929 9.92931 198.206 9.04823C163.779 7.5452 158.765 7.49338 134.7 7.908C112.639 8.32263 102.278 8.89275 61.5004 12.0543C11.6983 15.9414 0.334054 17.4963 0.334054 20.6578C0.334054 20.7013 0.345529 21.3919 0.366647 22.6571C0.549386 33.6111 1.45039 87.6394 1.81477 137.729L1919.62 137.729Z" fill="#FF914C"/>
</svg>
