<svg width="1111" height="227" viewBox="0 0 1111 227" fill="none" xmlns="http://www.w3.org/2000/svg">
<path d="M598.884 1.85742C577.812 2.08102 478.316 1.0189 476.361 0.515805C475.058 0.124509 457.896 0.571714 453.551 1.07481C450.727 1.41021 448.989 1.35432 448.337 0.907117C447.034 -0.0990934 441.82 0.124509 436.607 1.35432C432.479 2.36053 431.61 2.36052 428.351 1.63382C424.007 0.627607 414.883 0.627622 404.455 1.57792C398.59 2.13693 394.679 2.13691 387.076 1.63382C381.645 1.29841 374.911 1.18661 371.869 1.41021C368.828 1.63382 362.311 1.80153 357.531 1.85742C352.101 1.91331 347.321 2.24873 345.583 2.80774C343.411 3.53444 340.37 3.64624 331.68 3.36674C314.518 2.80774 304.525 2.80772 290.405 3.47853C283.236 3.81393 265.857 4.14935 251.736 4.26115C234.357 4.37295 225.233 4.65246 223.712 5.15556C222.192 5.54686 220.454 5.65866 218.933 5.32325C214.154 4.37295 198.078 4.09346 181.351 4.65246C154.413 5.60277 141.379 6.49719 142.465 7.22389C143.117 7.72699 137.903 7.8947 122.479 7.8947C98.1483 7.8947 79.0311 8.39781 66.6486 9.34811C61.8693 9.68351 54.9177 10.0189 51.4419 10.0748C15.8148 10.7456 0.390625 11.5495 0.390625 12.6463V224.901C3.64917 225.963 45.3591 227.472 50.3556 225.963C54.0486 224.789 55.7866 224.677 73.6002 224.901C131.82 225.572 260.643 224.398 294.098 222.888C309.739 222.218 318.429 222.162 347.756 222.665C377.517 223.224 383.817 223.168 391.855 222.441C403.586 221.379 463.11 220.373 501.126 220.541C558.912 220.876 659.711 220.429 667.314 219.814C671.442 219.479 681.652 219.031 690.124 218.808C698.379 218.528 709.676 218.081 715.107 217.746C720.538 217.466 734.876 217.187 747.258 217.131C762.465 217.131 771.589 216.851 775.717 216.292C779.192 215.845 782.668 215.677 783.32 215.901C784.189 216.069 785.71 215.957 786.578 215.565C787.882 215.006 799.178 215.006 841.323 215.454C977.097 217.019 993.825 217.466 1020.33 219.87C1037.71 221.435 1040.97 221.603 1046.4 220.988C1050.09 220.597 1054 220.317 1055.09 220.373C1058.56 220.541 1063.34 217.242 1061.82 215.733C1060.95 214.783 1061.39 214.336 1063.12 214.336C1064.64 214.336 1068.77 213.106 1072.03 211.541C1077.68 208.969 1077.9 208.466 1077.03 203.994C1076.38 201.367 1075.29 198.963 1074.64 198.739C1074.2 198.46 1075.07 197.286 1077.03 196.168C1078.76 195.05 1079.85 193.988 1079.2 193.82C1078.55 193.652 1079.63 192.758 1081.37 191.92C1083.54 190.802 1083.98 189.963 1082.46 189.348C1080.94 188.565 1081.81 188.174 1086.8 187.392C1093.97 186.274 1094.41 185.77 1089.63 183.87C1085.72 182.361 1086.8 179.062 1092.02 177.106C1093.75 176.435 1095.06 175.149 1095.06 174.255C1095.06 173.416 1095.28 171.963 1095.49 171.124C1095.71 170.23 1093.75 168.833 1091.15 167.938C1088.76 167.044 1086.59 166.093 1086.59 165.814C1086.59 165.534 1085.28 164.975 1083.54 164.584C1081.81 164.249 1080.72 163.634 1081.37 163.242C1082.68 162.348 1078.33 160.168 1071.81 158.547C1067.47 157.429 1066.82 156.87 1068.12 154.913C1070.51 151.224 1079.85 146.696 1084.85 146.696C1088.76 146.696 1089.19 146.416 1088.11 144.683C1087.45 143.565 1085.28 142.224 1083.54 141.721C1081.15 141.05 1080.72 140.267 1082.02 138.814C1083.11 137.64 1082.89 136.41 1081.81 135.851C1080.5 135.292 1080.72 134.957 1082.02 134.957C1083.33 134.957 1085.06 133.951 1085.72 132.777C1086.8 131.044 1088.32 130.485 1092.23 130.261C1098.32 129.87 1098.75 129.255 1093.97 128.025C1090.93 127.242 1091.15 126.963 1096.14 125.062C1099.4 123.888 1101.79 122.435 1101.79 121.82C1101.79 121.149 1102.88 120.367 1104.18 120.031C1105.27 119.752 1106.35 118.578 1106.14 117.572C1106.14 116.51 1106.14 115.168 1105.92 114.609C1105.92 113.994 1107.22 113.323 1108.74 113.1C1110.7 112.764 1110.7 112.373 1108.31 111.199C1105.92 110.025 1105.7 109.298 1107.88 107.23C1111.57 103.652 1111.35 103.485 1100.71 100.746C1095.28 99.404 1090.5 97.6711 1090.06 96.9444C1089.84 96.1618 1088.32 94.8201 1087.02 93.9816C1083.33 91.8015 1083.76 90.1804 1088.11 88.5593C1093.1 86.7704 1097.66 83.4723 1095.93 82.8015C1095.28 82.5779 1097.01 82.1866 1099.4 82.0189C1103.1 81.7953 1103.75 81.4599 1102.44 80.5096C1101.58 79.8947 1100.92 78.4413 1101.14 77.3792C1102.66 67.4848 1101.79 63.9071 1097.66 63.0686C1094.41 62.3978 1093.97 62.0065 1092.02 57.8139C1091.15 56.4164 1089.19 54.7394 1087.45 54.0686C1085.72 53.3978 1084.41 51.7207 1084.41 50.435C1084.41 49.0934 1082.89 47.4164 1080.94 46.6897C1078.76 45.963 1076.81 44.6214 1076.59 43.6711C1076.16 42.7208 1073.55 40.8201 1070.94 39.4226C1067.69 37.6897 1067.03 36.8512 1068.77 36.6835C1070.51 36.5717 1070.08 36.0686 1067.25 35.1183C1063.78 34.0003 1063.34 33.3854 1065.08 31.932C1066.17 30.9817 1067.03 29.3605 1067.03 28.3543C1067.03 27.404 1067.9 26.4537 1068.99 26.286C1070.08 26.0624 1069.64 25.2239 1067.69 24.2177C1065.95 23.3233 1064.86 21.9817 1065.51 21.3109C1066.17 20.64 1065.51 19.4661 1063.99 18.7394C1061.39 17.5655 1061.6 17.2301 1064.21 16.5593C1067.47 15.6649 1067.25 13.932 1063.56 13.932C1062.47 13.932 1057.04 13.373 1051.83 12.7021C1046.4 12.0313 1036.19 11.081 1029.02 10.5779C1021.85 10.0748 1011.2 9.2922 1005.56 8.845C997.735 8.28599 993.824 8.2301 990.566 8.6773C987.525 9.12451 967.973 9.1804 926.046 8.845C893.026 8.6214 859.136 8.39779 850.881 8.3419C831.547 8.2301 802.22 7.50338 796.572 7.00029C794.182 6.77668 785.927 6.60898 778.106 6.66487C770.286 6.72076 760.944 6.55307 757.034 6.27357C753.341 5.99408 743.131 5.65866 734.224 5.60277C716.41 5.37916 689.907 4.31706 684.259 3.53445C682.087 3.25496 677.959 3.03132 675.135 3.03132C672.094 3.03132 667.314 2.80774 664.273 2.47233C658.842 1.96924 620.391 1.57792 598.884 1.85742Z" fill="white"/>
</svg>
