<svg width="654" height="258" viewBox="0 0 654 258" fill="none" xmlns="http://www.w3.org/2000/svg">
<path d="M6.97013 0.774423C8.4785 2.91124 9.98686 7.85241 10.3982 12.5267C10.9467 17.201 12.0437 20.8069 13.1407 21.2075C14.2377 21.6082 14.9233 24.947 15.0605 30.9568C15.609 56.198 16.1574 63.0091 17.6658 65.9472C18.7628 67.9505 19.1742 71.1557 18.4886 75.0287C17.9401 79.0352 18.2143 81.5727 19.3113 83.0418C21.3682 85.3121 21.231 92.3903 19.1742 94.7943C18.4886 95.7291 18.2143 96.7975 18.6257 97.1982C20.4083 98.9344 17.8029 104.41 14.2377 106.146C9.16412 108.951 5.18752 117.632 6.28451 123.908C6.83301 127.781 6.55876 129.651 4.63902 131.654C3.26778 133.123 2.99353 134.192 3.81628 134.192C6.28451 134.192 5.73601 142.873 3.4049 144.876C2.17079 145.811 1.75941 147.146 2.30791 147.681C2.85641 148.215 2.99353 153.423 2.44504 159.166C1.89654 164.909 1.34804 172.254 1.07379 175.593C0.662422 178.932 1.34804 183.606 2.44504 186.277C3.67915 188.814 4.36477 191.485 4.22765 192.153C4.09052 192.821 4.36477 194.29 4.91327 195.492C6.42163 198.964 6.97013 201.235 7.65575 207.512C8.06712 210.85 8.88987 214.189 9.71261 215.124C10.6725 216.192 10.3982 218.196 9.02699 221.401C6.69588 226.876 8.06712 229.013 13.8263 229.013C15.8832 229.013 17.8029 229.681 18.0772 230.349C18.3514 231.284 23.1508 231.417 32.8866 230.616C47.0104 229.547 60.7228 230.349 69.9101 232.886C72.5155 233.554 79.0974 235.424 84.3081 237.026C89.656 238.495 96.3751 240.098 99.3918 240.365C102.271 240.766 105.974 241.834 107.619 242.903C112.007 245.574 116.395 246.642 128.188 247.71C151.91 249.847 166.857 251.851 172.753 253.72C176.181 254.789 183.312 255.857 188.522 255.991C196.613 256.124 199.081 255.59 204.292 252.652C207.72 250.782 213.89 248.645 218.004 247.978C229.385 245.974 290.543 247.71 302.335 250.381C306.175 251.183 317.693 251.851 328.389 251.583C338.948 251.45 363.767 251.45 383.376 251.45C416.697 251.717 419.714 251.851 425.884 254.522C431.918 257.059 435.62 257.46 463.456 257.86C486.905 258.261 496.777 257.86 504.594 256.391C513.644 254.655 529.413 253.987 559.443 254.254C564.38 254.388 574.39 253.186 581.657 251.717C588.925 250.248 599.484 249.046 605.106 249.046C617.995 249.046 636.37 245.707 643.637 242.101C649.122 239.297 632.119 238.896 653.373 240.365V0.106445L6.97013 0.774423Z" fill="#25924F"/>
</svg>
