<svg width="430" height="39" viewBox="0 0 430 39" fill="none" xmlns="http://www.w3.org/2000/svg">
<path d="M413.139 0.563725C412.588 0.735033 411.417 0.849232 410.659 0.849232C408.179 0.849232 401.843 2.04839 400.259 2.79072C398.95 3.4474 398.192 3.53306 393.715 3.56161C389.1 3.61871 382.901 4.24684 381.179 4.90352C380.215 5.24614 375.738 5.18904 376.289 4.84642C376.565 4.64656 376.151 4.64656 375.118 4.81787C373.534 5.10338 368.988 5.3889 363.891 5.58876C362.376 5.61731 359.345 5.73151 357.072 5.81717C353.628 5.93137 352.526 5.84572 349.702 5.21759L346.396 4.47525L344.674 5.16049C343.641 5.56021 342.884 6.15978 342.884 6.6166C342.884 8.04417 341.713 8.7865 339.095 9.10056C337.718 9.24332 336.134 9.61448 335.445 9.92854C334.549 10.3283 332.621 10.5567 327.731 10.8136C324.08 11.0135 320.705 11.3276 320.085 11.556C319.534 11.7844 318.776 11.9842 318.501 11.9842C318.225 11.9842 316.71 12.2412 315.126 12.5267C313.473 12.8408 311.269 13.1834 310.167 13.2976C308.996 13.4118 307.549 13.6973 306.861 13.9543C305.69 14.3825 305.483 14.354 304.519 13.8401C303.968 13.526 303.348 13.4118 303.21 13.5546C303.072 13.7259 301.213 13.8401 299.077 13.783C296.047 13.7544 294.807 13.5831 293.361 13.0406C292.121 12.5553 290.399 12.2697 287.782 12.1555C285.715 12.0413 283.856 11.9842 283.649 12.0128C283.442 12.0413 282.616 11.9271 281.789 11.7558C280.894 11.556 280.136 11.5274 279.861 11.6702C278.896 12.3554 270.838 11.556 266.154 10.3283C264.225 9.81434 261.815 9.41462 260.644 9.41462C259.542 9.41462 257.544 9.27187 256.305 9.07201C254.307 8.7865 253.825 8.7865 253.274 9.12911C252.723 9.50028 252.585 9.50028 252.034 9.15766C251.483 8.81505 251.208 8.81504 250.243 9.21476C249.623 9.50028 248.039 9.70014 246.799 9.70014C244.94 9.70014 244.458 9.58594 244.251 9.04346C244.113 8.6723 243.218 8.24402 241.84 7.98706C240.532 7.7301 239.567 7.33038 239.567 7.04486C239.567 6.53094 239.498 6.53093 237.708 7.07341C236.606 7.35892 234.677 7.81575 233.368 8.10126C232.06 8.35823 230.476 8.67229 229.925 8.81505C228.547 9.12911 222.004 9.98565 220.97 9.98565C220.557 9.98565 219.731 10.157 219.249 10.3854C217.871 10.9278 213.876 10.728 209.675 9.87145C207.677 9.47173 205.817 9.12911 205.611 9.12911C205.335 9.12911 203.269 8.52954 200.996 7.81575C196.726 6.41674 195.21 6.33108 194.177 7.47314C193.282 8.44388 184.052 10.6138 172.067 12.698C169.588 13.1263 166.282 13.783 164.698 14.1541L161.805 14.8394L157.672 14.2683C155.399 13.9543 152.782 13.6973 151.817 13.6973C150.853 13.6973 149.958 13.5831 149.751 13.4404C149.545 13.2976 148.718 13.2405 147.96 13.3261C147.203 13.4118 145.825 13.269 144.861 13.0121C143.346 12.5838 137.835 12.1555 129.846 11.8129C126.815 11.6987 126.402 11.7558 124.335 12.6409C122.545 13.4404 121.58 13.6402 119.17 13.6688C117.516 13.6688 115.244 13.4975 114.141 13.2405C111.455 12.698 105.532 12.2697 97.4042 12.127C87.6925 11.9271 86.4527 11.7273 81.4935 9.55738C78.1874 8.12982 76.741 7.673 75.5012 7.7301C73.8481 7.81576 69.991 7.10198 67.9247 6.33109C66.8915 5.98847 66.065 5.95992 62.6211 6.24543C59.7971 6.47384 57.6619 6.5024 55.5267 6.30254C53.667 6.13123 51.6007 6.10268 50.292 6.24543C49.1211 6.38819 48.0191 6.44529 47.8125 6.33109C47.6058 6.24544 47.3992 6.30254 47.3992 6.47385C47.3992 6.78791 36.3788 6.75936 35.139 6.44529C34.7257 6.33109 32.7283 6.18833 30.7308 6.10268C28.7334 6.04558 26.4604 5.95992 25.6339 5.90282C24.6696 5.87427 23.0166 6.41674 20.3303 7.70155C15.0268 10.1855 12.9604 12.0413 12.9604 14.2112C12.9604 15.182 12.2717 16.7809 11.4451 17.8658C10.6186 18.9508 9.92984 20.6353 9.86096 21.606C9.86096 22.5768 9.58545 23.4619 9.37882 23.5761C9.10331 23.6617 9.10331 23.9187 9.30994 24.1471C9.51657 24.3755 9.17219 24.7752 8.62117 25.0607C6.21045 26.1743 4.07525 28.4584 3.66199 30.3998C2.90433 34.2543 2.6977 34.6826 1.66454 35.739C1.04464 36.3671 0.5625 37.6233 0.5625 38.7939C2.27904 38.7923 428.567 38.7604 429.949 38.7603C429.743 37.5326 429.049 34.2543 428.567 33.7404C427.534 32.6554 426.776 29.943 426.845 27.716C426.983 25.8316 425.743 21.9772 424.503 20.4069C423.883 19.5789 423.746 18.0371 423.952 14.8394C424.228 11.1277 424.09 9.9 422.919 7.41604C420.853 3.10479 420.646 2.3339 421.404 2.13404C422.23 1.93419 422.368 1.39171 421.611 1.47737C421.266 1.50592 420.095 1.3346 418.924 1.04909C417.753 0.792129 416.582 0.67793 416.376 0.763584C416.1 0.849238 415.549 0.792131 414.998 0.620823C414.447 0.420964 413.759 0.420968 413.139 0.563725Z" fill="#FF914C"/>
</svg>
