<svg width="431" height="40" viewBox="0 0 431 40" fill="none" xmlns="http://www.w3.org/2000/svg">
<path d="M17.6192 39.155C18.1702 38.9837 19.3411 38.8695 20.0988 38.8695C22.5784 38.8695 28.9151 37.6704 30.4993 36.928C31.808 36.2713 32.5656 36.1857 37.0426 36.1571C41.6574 36.1 47.8564 35.4719 49.5783 34.8152C50.5426 34.4726 55.0197 34.5297 54.4687 34.8723C54.1931 35.0722 54.6064 35.0722 55.6396 34.9009C57.2237 34.6154 61.7697 34.3299 66.8666 34.13C68.3819 34.1014 71.4125 33.9872 73.6855 33.9016C77.1293 33.7874 78.2314 33.873 81.0554 34.5012L84.3615 35.2435L86.0834 34.5583C87.1166 34.1585 87.8742 33.559 87.8742 33.1021C87.8742 31.6746 89.0452 30.9323 91.6625 30.6182C93.0401 30.4754 94.6242 30.1043 95.313 29.7902C96.2084 29.3905 98.137 29.1621 103.027 28.9051C106.678 28.7053 110.053 28.3912 110.673 28.1628C111.224 27.9344 111.981 27.7345 112.257 27.7345C112.532 27.7345 114.048 27.4776 115.632 27.192C117.285 26.878 119.489 26.5354 120.591 26.4212C121.762 26.3069 123.208 26.0214 123.897 25.7645C125.068 25.3362 125.275 25.3648 126.239 25.8787C126.79 26.1927 127.41 26.3069 127.548 26.1642C127.685 25.9929 129.545 25.8787 131.68 25.9358C134.711 25.9643 135.951 26.1356 137.397 26.6781C138.637 27.1635 140.359 27.449 142.976 27.5632C145.043 27.6774 146.902 27.7345 147.109 27.706C147.316 27.6774 148.142 27.7916 148.969 27.9629C149.864 28.1628 150.622 28.1913 150.897 28.0486C151.861 27.3633 159.92 28.1628 164.604 29.3905C166.532 29.9044 168.943 30.3041 170.114 30.3041C171.216 30.3041 173.213 30.4469 174.453 30.6467C176.451 30.9323 176.933 30.9323 177.484 30.5896C178.035 30.2185 178.173 30.2185 178.724 30.5611C179.275 30.9037 179.55 30.9037 180.514 30.504C181.134 30.2185 182.719 30.0186 183.958 30.0186C185.818 30.0186 186.3 30.1328 186.507 30.6753C186.645 31.0465 187.54 31.4747 188.917 31.7317C190.226 31.9887 191.19 32.3884 191.19 32.6739C191.19 33.1878 191.259 33.1878 193.05 32.6453C194.152 32.3598 196.081 31.903 197.389 31.6175C198.698 31.3605 200.282 31.0465 200.833 30.9037C202.211 30.5896 208.754 29.7331 209.787 29.7331C210.201 29.7331 211.027 29.5618 211.509 29.3334C212.887 28.7909 216.882 28.9908 221.083 29.8473C223.081 30.247 224.94 30.5896 225.147 30.5896C225.423 30.5896 227.489 31.1892 229.762 31.903C234.032 33.302 235.548 33.3877 236.581 32.2456C237.476 31.2749 246.706 29.105 258.69 27.0207C261.17 26.5925 264.476 25.9358 266.06 25.5646L268.953 24.8794L273.086 25.4504C275.359 25.7645 277.976 26.0214 278.94 26.0214C279.905 26.0214 280.8 26.1356 281.007 26.2784C281.213 26.4212 282.04 26.4783 282.797 26.3926C283.555 26.3069 284.933 26.4497 285.897 26.7067C287.412 27.1349 292.922 27.5632 300.912 27.9058C303.943 28.02 304.356 27.9629 306.422 27.0778C308.213 26.2784 309.178 26.0785 311.588 26.05C313.241 26.05 315.514 26.2213 316.616 26.4783C319.303 27.0207 325.226 27.449 333.354 27.5918C343.065 27.7916 344.305 27.9915 349.264 30.1614C352.57 31.5889 354.017 32.0458 355.257 31.9886C356.91 31.903 360.767 32.6168 362.833 33.3877C363.866 33.7303 364.693 33.7588 368.137 33.4733C370.961 33.2449 373.096 33.2164 375.231 33.4162C377.091 33.5875 379.157 33.6161 380.466 33.4733C381.637 33.3306 382.739 33.2735 382.945 33.3877C383.152 33.4733 383.359 33.4162 383.359 33.2449C383.359 32.9308 394.379 32.9594 395.619 33.2735C396.032 33.3877 398.03 33.5304 400.027 33.6161C402.024 33.6732 404.297 33.7588 405.124 33.8159C406.088 33.8445 407.741 33.302 410.427 32.0172C415.731 29.5332 417.797 27.6774 417.797 25.5075C417.797 24.5368 418.486 22.9379 419.313 21.8529C420.139 20.768 420.828 19.0835 420.897 18.1127C420.897 17.142 421.172 16.2569 421.379 16.1427C421.655 16.057 421.655 15.8001 421.448 15.5716C421.241 15.3432 421.586 14.9435 422.137 14.658C424.547 13.5445 426.683 11.2604 427.096 9.3189C427.853 5.46447 428.06 5.0362 429.093 3.9798C429.713 3.35167 430.195 2.09541 430.195 0.924805C428.479 0.92641 2.19064 0.958388 0.808319 0.95846C1.01495 2.18617 1.7085 5.46447 2.19064 5.97839C3.22381 7.06334 3.98148 9.77572 3.9126 12.0027C3.77484 13.8871 5.01463 17.7415 6.25443 19.3119C6.87432 20.1399 7.01208 21.6816 6.80545 24.8794C6.52994 28.5911 6.66768 29.8187 7.83859 32.3027C9.90492 36.614 10.1116 37.3848 9.35391 37.5847C8.52738 37.7846 8.38963 38.327 9.14728 38.2414C9.49167 38.2128 10.6626 38.3841 11.8335 38.6697C13.0044 38.9266 14.1753 39.0408 14.382 38.9552C14.6575 38.8695 15.2085 38.9266 15.7595 39.0979C16.3105 39.2978 16.9993 39.2978 17.6192 39.155Z" fill="#FF914C"/>
</svg>
