<svg
        width="25"
        height="89"
        viewBox="0 0 25 89"
        fill="none"
        xmlns="http://www.w3.org/2000/svg"
      >
        <path
          d="M24.4601 0.805469C17.2601 0.320749 14.1932 0.348468 11.7932 0.804676C8.59325 1.43196 6.05995 3.65597 7.12662 4.96757C7.52662 5.50931 8.05994 7.64779 8.19327 9.67221C8.3266 13.2078 8.45994 13.4359 11.9266 14.5194C15.7933 15.717 16.5933 16.886 14.1933 17.8269C13.3933 18.1406 12.7266 19.3381 12.7266 20.4786C12.7266 22.4175 12.3266 22.6741 8.19327 23.7861C5.65994 24.4704 3.65992 25.2118 3.52658 25.4684C3.52658 25.725 3.12656 26.1812 2.8599 26.4949C1.52656 27.7779 0.993243 30.4296 2.05991 30.7433C4.05991 31.285 4.72658 32.5966 3.52658 33.7371C0.193251 36.9021 -0.873436 40.3521 0.859898 41.9774C2.8599 43.7167 3.5266 44.515 4.45993 46.8816C4.99327 47.9081 5.79327 48.8775 6.19327 49.0201C6.7266 49.1912 7.25992 50.1036 7.52658 51.073C7.79325 52.4987 7.12661 53.2115 4.19327 54.5801C2.3266 55.521 0.993284 56.5475 1.39328 56.8612C1.79328 57.1748 1.65995 57.4884 1.12662 57.5455C-0.206712 57.7165 0.859906 65.0729 2.32657 66.1279C2.99324 66.6126 3.92657 67.7816 4.32657 68.751C4.99324 70.0912 6.05993 70.7184 8.7266 71.3172C11.6599 72.0015 12.0599 72.3437 11.9266 73.9689C11.7933 74.9954 12.3266 76.0219 12.9933 76.25C13.7933 76.5351 13.2599 76.8772 11.1266 77.3905C7.12656 78.3029 3.79327 80.6695 4.45993 81.9526C4.85993 82.4943 5.25992 83.4637 5.52658 84.091C5.79325 84.6898 6.59325 85.2601 7.52658 85.3171C8.32658 85.3741 8.99326 85.6022 8.99326 85.8303C8.99326 86.0584 9.92659 86.315 10.9933 86.4291C12.1933 86.5146 13.9266 86.9423 14.9933 87.37C18.0599 88.6531 21.3851 88.9097 24.4599 88.9097C24.4617 86.9496 24.4609 4.96836 24.4601 0.805469Z"
          fill="#1058e2"
        />
      </svg>