<svg width="92" height="90" viewBox="0 0 92 90" fill="none" xmlns="http://www.w3.org/2000/svg">
<g clip-path="url(#clip0_2248_2623)">
<path d="M12.0549 0.5C14.8371 0.500256 84.5014 0.500903 91.825 0.5C91.8259 4.69987 91.8269 87.5225 91.825 89.5H16.486C15.3972 89.0685 12.4062 87.0836 11.1813 86.9974C10.0926 86.8823 9.13993 86.6234 9.13993 86.3932C9.13993 86.1631 8.45946 85.933 7.64291 85.8755C6.69027 85.818 5.87372 85.2426 5.60153 84.6385C5.32935 84.0056 4.92109 83.0276 4.51281 82.4811C3.83236 81.1866 7.23461 78.799 11.3174 77.8785C13.4948 77.3606 14.0393 77.0155 13.2227 76.7279C12.5422 76.4977 11.9979 75.4621 12.134 74.4265C12.27 72.7869 11.8617 72.4416 8.86775 71.7512C6.14591 71.1471 5.05716 70.5143 4.3767 69.1622C3.96842 68.1842 3.01578 67.0048 2.33532 66.5158C0.838316 65.4515 -0.250368 58.0298 1.11055 57.8572C1.65491 57.7996 1.791 57.4832 1.38272 57.1668C0.974453 56.8504 2.33535 55.8147 4.24064 54.8655C7.23466 53.4847 7.91509 52.7656 7.64291 51.3272C7.37073 50.3492 6.82638 49.4287 6.28201 49.2561C5.87374 49.1122 5.05719 48.1342 4.51281 47.0986C3.56018 44.711 2.87968 43.9056 0.838307 42.1508C-0.930885 40.5111 0.157869 37.0305 3.56016 33.8374C4.78498 32.6867 4.10452 31.3635 2.06314 30.817C0.974411 30.5005 1.51876 27.8252 2.87968 26.5308C3.15186 26.2143 3.56016 25.7541 3.56016 25.4952C3.69625 25.2363 5.73765 24.4883 8.32339 23.798C12.5422 22.6761 12.9505 22.4172 12.9505 20.4611C12.9505 19.3105 13.631 18.1023 14.4475 17.7858C16.8972 16.8366 16.0806 15.6572 12.134 14.449C8.59557 13.3558 8.45948 13.1257 8.32339 9.55871C8.1873 7.51631 7.64295 5.35883 7.23467 4.81228C6.14593 3.48903 8.78873 1.13286 12.0549 0.5Z" fill="#25924F"/>
</g>
<defs>
<clipPath id="clip0_2248_2623">
<rect width="91.8261" height="89" fill="white" transform="translate(0 0.5)"/>
</clipPath>
</defs>
</svg>
