<svg width="1923" height="139" viewBox="0 0 1923 139" fill="none" xmlns="http://www.w3.org/2000/svg">
<mask id="mask0_2286_2634" style="mask-type:luminance" maskUnits="userSpaceOnUse" x="0" y="0" width="1923" height="139">
<path d="M1922.19 0H0.1875V139H1922.19V0Z" fill="white"/>
</mask>
<g mask="url(#mask0_2286_2634)">
<path d="M1922.19 139C1922.06 139 1921.63 139 1921.5 139L0.189118 138.944L0.1875 20.2798C0.951593 17.3033 13.3403 15.9141 61.527 12.1313C102.346 8.94829 112.717 8.3743 134.799 7.95685C158.89 7.5394 163.908 7.59158 198.37 9.10483C219.114 9.9919 239.858 11.0355 244.542 11.4007C249.227 11.766 258.261 12.3922 264.617 12.7054C270.975 13.0705 281.011 13.6967 286.699 14.062C292.387 14.4794 300.084 14.8447 303.43 14.9491C307.11 15.0013 311.125 15.21 313.132 15.3665C314.806 15.5752 322.167 15.9928 328.858 16.3058C335.884 16.671 341.572 17.1407 341.572 17.4016C341.572 18.0278 359.639 17.1407 373.022 15.8883C379.046 15.2621 389.418 14.7925 395.44 14.7925C401.797 14.7925 412.169 14.5316 418.526 14.2186C428.898 13.6967 538.975 12.5488 569.088 12.6531C638.011 12.8097 672.808 13.1749 681.172 13.6967C695.893 14.6881 730.69 15.4709 761.471 15.5752C776.193 15.5752 795.933 15.7839 805.636 16.0449C821.026 16.4102 825.041 16.2536 844.112 14.8447C855.488 13.9576 868.871 13.2271 873.555 13.2271C878.239 13.2271 891.623 12.4965 903.669 11.6096C920.398 10.3572 931.772 9.93971 952.182 9.73099C977.275 9.41791 982.294 9.15701 1036.17 5.03472C1087.69 1.12115 1095.06 0.703701 1111.45 0.755887C1138.22 0.860245 1156.62 1.59078 1172.01 3.20839C1189.07 4.93036 1210.48 6.86104 1234.9 8.73956C1240.72 9.22278 1246.86 9.706 1251.59 10.0779L1251.6 10.079C1255.05 10.3491 1257.73 10.5605 1259 10.6702C1262.34 10.9312 1267.02 11.1399 1269.71 11.1399C1272.05 11.1399 1276.06 11.453 1278.07 11.8704C1280.07 12.2357 1285.43 12.4444 1289.78 12.3401C1298.47 12.0791 1327.91 13.8011 1369.4 16.932C1372.76 17.1929 1382.79 17.4016 1392.16 17.4016C1401.2 17.4016 1415.24 17.7147 1422.94 18.0799C1456.06 19.7497 1478.15 20.0628 1496.55 19.28C1508.59 18.8105 1526.99 18.6018 1552.76 18.6539C1586.88 18.8105 1593.25 18.967 1609.64 20.2715C1635.4 22.3066 1639.08 22.3587 1694.96 22.2544C1754.85 22.15 1810.73 21.3152 1840.5 20.1671C1852.54 19.7497 1871.62 19.1757 1882.99 18.9148C1894.36 18.7061 1916.19 17.3494 1921.54 16.932C1921.91 16.9337 1921.47 16.9372 1921.78 16.9337H1922.19V138.477V139Z" fill="#FF914C"/>
</g>
</svg>
