<svg width="1923" height="140" viewBox="0 0 1923 140" fill="none" xmlns="http://www.w3.org/2000/svg">
<mask id="mask0_2286_2615" style="mask-type:luminance" maskUnits="userSpaceOnUse" x="0" y="0" width="1923" height="140">
<path d="M1922.19 0.339844H0.1875V139.34H1922.19V0.339844Z" fill="white"/>
</mask>
<g mask="url(#mask0_2286_2615)">
<path d="M1922.19 139.34C1922.06 139.34 1921.63 139.34 1921.5 139.34L0.189118 139.284L0.1875 20.6196C0.951593 17.6431 13.3403 16.2539 61.527 12.4711C102.346 9.28813 112.717 8.71414 134.799 8.29669C158.89 7.87924 163.908 7.93142 198.37 9.44467C219.114 10.3317 239.858 11.3753 244.542 11.7405C249.227 12.1058 258.261 12.732 264.617 13.0452C270.975 13.4103 281.011 14.0365 286.699 14.4018C292.387 14.8192 300.084 15.1845 303.43 15.2889C307.11 15.3411 311.125 15.5498 313.132 15.7063C314.806 15.915 322.167 16.3326 328.858 16.6456C335.884 17.0108 341.572 17.4805 341.572 17.7414C341.572 18.3676 359.639 17.4805 373.022 16.2281C379.046 15.6019 389.418 15.1323 395.44 15.1323C401.797 15.1323 412.169 14.8714 418.526 14.5584C428.898 14.0365 538.975 12.8886 569.088 12.9929C638.011 13.1495 672.808 13.5147 681.172 14.0365C695.893 15.0279 730.69 15.8107 761.471 15.915C776.193 15.915 795.933 16.1237 805.636 16.3847C821.026 16.75 825.041 16.5934 844.112 15.1845C855.488 14.2974 868.871 13.5669 873.555 13.5669C878.239 13.5669 891.623 12.8363 903.669 11.9494C920.398 10.697 931.772 10.2796 952.182 10.0708C977.275 9.75775 982.294 9.49685 1036.17 5.37456C1087.69 1.46099 1095.06 1.04354 1111.45 1.09573C1138.22 1.20009 1156.62 1.93062 1172.01 3.54823C1189.07 5.2702 1210.48 7.20088 1234.9 9.0794C1240.72 9.56262 1246.86 10.0458 1251.59 10.4177L1251.6 10.4188C1255.05 10.6889 1257.73 10.9003 1259 11.01C1262.34 11.271 1267.02 11.4797 1269.71 11.4797C1272.05 11.4797 1276.06 11.7928 1278.07 12.2102C1280.07 12.5755 1285.43 12.7842 1289.78 12.6799C1298.47 12.4189 1327.91 14.1409 1369.4 17.2718C1372.76 17.5327 1382.79 17.7414 1392.16 17.7414C1401.2 17.7414 1415.24 18.0545 1422.94 18.4197C1456.06 20.0895 1478.15 20.4026 1496.55 19.6198C1508.59 19.1503 1526.99 18.9416 1552.76 18.9937C1586.88 19.1503 1593.25 19.3068 1609.64 20.6113C1635.4 22.6464 1639.08 22.6985 1694.96 22.5942C1754.85 22.4898 1810.73 21.655 1840.5 20.5069C1852.54 20.0895 1871.62 19.5155 1882.99 19.2546C1894.36 19.0459 1916.19 17.6892 1921.54 17.2718C1921.91 17.2735 1921.47 17.277 1921.78 17.2735H1922.19V138.817V139.34Z" fill="#1058E2"/>
</g>
</svg>
