<svg width="1923" height="140" viewBox="0 0 1923 140" fill="none" xmlns="http://www.w3.org/2000/svg">
<mask id="mask0_2293_2591" style="mask-type:luminance" maskUnits="userSpaceOnUse" x="0" y="0" width="1923" height="140">
<path d="M0.015625 139.838L1922.02 139.838V0.837891L0.015625 0.837891V139.838Z" fill="white"/>
</mask>
<g mask="url(#mask0_2293_2591)">
<path d="M0.015625 0.837891C0.145625 0.837891 0.575566 0.837891 0.705566 0.837891L1922.01 0.89389L1922.02 119.558C1921.25 122.535 1908.86 123.924 1860.68 127.707C1819.86 130.89 1809.49 131.464 1787.4 131.881C1763.31 132.298 1758.29 132.246 1723.83 130.733C1703.09 129.846 1682.34 128.802 1677.66 128.437C1672.98 128.072 1663.94 127.446 1657.59 127.132C1651.23 126.767 1641.19 126.141 1635.5 125.776C1629.82 125.358 1622.12 124.993 1618.77 124.889C1615.09 124.837 1611.08 124.628 1609.07 124.471C1607.4 124.263 1600.04 123.845 1593.35 123.532C1586.32 123.167 1580.63 122.697 1580.63 122.436C1580.63 121.81 1562.56 122.697 1549.18 123.95C1543.16 124.576 1532.79 125.045 1526.76 125.045C1520.41 125.045 1510.03 125.306 1503.68 125.619C1493.31 126.141 1383.23 127.289 1353.12 127.185C1284.19 127.028 1249.4 126.663 1241.03 126.141C1226.31 125.15 1191.51 124.367 1160.73 124.263C1146.01 124.263 1126.27 124.054 1116.57 123.793C1101.18 123.428 1097.16 123.584 1078.09 124.993C1066.71 125.88 1053.33 126.611 1048.65 126.611C1043.96 126.611 1030.58 127.341 1018.53 128.228C1001.81 129.481 990.431 129.898 970.021 130.107C944.928 130.42 939.909 130.681 886.036 134.803C834.516 138.717 827.146 139.134 810.756 139.082C783.986 138.978 765.586 138.247 750.196 136.63C733.136 134.908 711.726 132.977 687.306 131.098C681.486 130.615 675.346 130.132 670.616 129.76L670.606 129.759C667.156 129.489 664.476 129.277 663.206 129.168C659.866 128.907 655.186 128.698 652.496 128.698C650.156 128.698 646.146 128.385 644.136 127.967C642.136 127.602 636.776 127.393 632.426 127.498C623.736 127.759 594.296 126.037 552.806 122.906C549.446 122.645 539.416 122.436 530.046 122.436C521.006 122.436 506.966 122.123 499.266 121.758C466.146 120.088 444.056 119.775 425.656 120.558C413.616 121.027 395.216 121.236 369.446 121.184C335.326 121.027 328.956 120.871 312.566 119.566C286.806 117.531 283.126 117.479 227.246 117.583C167.356 117.688 111.476 118.523 81.7056 119.671C69.6656 120.088 50.5856 120.662 39.2156 120.923C27.8456 121.132 6.01565 122.488 0.665649 122.906C0.295649 122.904 0.735659 122.901 0.425659 122.904H0.015625V1.36089V0.837891Z" fill="#053490"/>
</g>
</svg>
