<svg width="1923" height="140" viewBox="0 0 1923 140" fill="none" xmlns="http://www.w3.org/2000/svg">
<mask id="mask0_2293_2611" style="mask-type:luminance" maskUnits="userSpaceOnUse" x="0" y="0" width="1923" height="140">
<path d="M0.1875 139.838L1922.19 139.838V0.837891L0.1875 0.837891V139.838Z" fill="white"/>
</mask>
<g mask="url(#mask0_2293_2611)">
<path d="M0.1875 0.837891C0.3175 0.837891 0.747441 0.837891 0.877441 0.837891L1922.19 0.89389L1922.19 119.558C1921.42 122.535 1909.03 123.924 1860.85 127.707C1820.03 130.89 1809.66 131.464 1787.58 131.881C1763.48 132.298 1758.47 132.246 1724 130.733C1703.26 129.846 1682.52 128.802 1677.83 128.437C1673.15 128.072 1664.11 127.446 1657.76 127.132C1651.4 126.767 1641.36 126.141 1635.68 125.776C1629.99 125.358 1622.29 124.993 1618.95 124.889C1615.27 124.837 1611.25 124.628 1609.24 124.471C1607.57 124.263 1600.21 123.845 1593.52 123.532C1586.49 123.167 1580.8 122.697 1580.8 122.436C1580.8 121.81 1562.74 122.697 1549.35 123.95C1543.33 124.576 1532.96 125.045 1526.94 125.045C1520.58 125.045 1510.21 125.306 1503.85 125.619C1493.48 126.141 1383.4 127.289 1353.29 127.185C1284.36 127.028 1249.57 126.663 1241.2 126.141C1226.48 125.15 1191.69 124.367 1160.9 124.263C1146.18 124.263 1126.44 124.054 1116.74 123.793C1101.35 123.428 1097.33 123.584 1078.26 124.993C1066.89 125.88 1053.5 126.611 1048.82 126.611C1044.14 126.611 1030.75 127.341 1018.71 128.228C1001.98 129.481 990.603 129.898 970.193 130.107C945.1 130.42 940.081 130.681 886.208 134.803C834.688 138.717 827.317 139.134 810.927 139.082C784.157 138.978 765.758 138.247 750.368 136.63C733.308 134.908 711.898 132.977 687.478 131.098C681.658 130.615 675.517 130.132 670.787 129.76L670.777 129.759C667.327 129.489 664.647 129.277 663.377 129.168C660.037 128.907 655.357 128.698 652.667 128.698C650.327 128.698 646.317 128.385 644.307 127.967C642.307 127.602 636.948 127.393 632.598 127.498C623.908 127.759 594.468 126.037 552.978 122.906C549.618 122.645 539.588 122.436 530.218 122.436C521.178 122.436 507.137 122.123 499.438 121.758C466.318 120.088 444.228 119.775 425.828 120.558C413.788 121.027 395.388 121.236 369.618 121.184C335.498 121.027 329.128 120.871 312.738 119.566C286.978 117.531 283.297 117.479 227.417 117.583C167.527 117.688 111.647 118.523 81.8774 119.671C69.8374 120.088 50.7575 120.662 39.3875 120.923C28.0175 121.132 6.18752 122.488 0.837524 122.906C0.467524 122.904 0.907534 122.901 0.597534 122.904H0.1875V1.36089V0.837891Z" fill="#0F48B7" fill-opacity="0.270588"/>
</g>
</svg>
