<svg width="1923" height="140" viewBox="0 0 1923 140" fill="none" xmlns="http://www.w3.org/2000/svg">
<mask id="mask0_2293_2576" style="mask-type:luminance" maskUnits="userSpaceOnUse" x="0" y="0" width="1923" height="140">
<path d="M0.015625 139.34L1922.02 139.34V0.339844L0.015625 0.339844V139.34Z" fill="white"/>
</mask>
<g mask="url(#mask0_2293_2576)">
<path d="M0.015625 0.339844C0.145625 0.339844 0.575566 0.339844 0.705566 0.339844L1922.01 0.395844L1922.02 119.06C1921.25 122.037 1908.86 123.426 1860.68 127.209C1819.86 130.392 1809.49 130.966 1787.4 131.383C1763.31 131.8 1758.29 131.748 1723.83 130.235C1703.09 129.348 1682.34 128.304 1677.66 127.939C1672.98 127.574 1663.94 126.948 1657.59 126.634C1651.23 126.269 1641.19 125.643 1635.5 125.278C1629.82 124.86 1622.12 124.495 1618.77 124.391C1615.09 124.339 1611.08 124.13 1609.07 123.973C1607.4 123.765 1600.04 123.347 1593.35 123.034C1586.32 122.669 1580.63 122.199 1580.63 121.938C1580.63 121.312 1562.56 122.199 1549.18 123.452C1543.16 124.078 1532.79 124.547 1526.76 124.547C1520.41 124.547 1510.03 124.808 1503.68 125.121C1493.31 125.643 1383.23 126.791 1353.12 126.687C1284.19 126.53 1249.4 126.165 1241.03 125.643C1226.31 124.652 1191.51 123.869 1160.73 123.765C1146.01 123.765 1126.27 123.556 1116.57 123.295C1101.18 122.93 1097.16 123.086 1078.09 124.495C1066.71 125.382 1053.33 126.113 1048.65 126.113C1043.96 126.113 1030.58 126.843 1018.53 127.73C1001.81 128.983 990.431 129.4 970.021 129.609C944.928 129.922 939.909 130.183 886.036 134.305C834.516 138.219 827.146 138.636 810.756 138.584C783.986 138.48 765.586 137.749 750.196 136.131C733.136 134.409 711.726 132.479 687.306 130.6C681.486 130.117 675.346 129.634 670.616 129.262L670.606 129.261C667.156 128.991 664.476 128.779 663.206 128.67C659.866 128.409 655.186 128.2 652.496 128.2C650.156 128.2 646.146 127.887 644.136 127.469C642.136 127.104 636.776 126.895 632.426 127C623.736 127.261 594.296 125.539 552.806 122.408C549.446 122.147 539.416 121.938 530.046 121.938C521.006 121.938 506.966 121.625 499.266 121.26C466.146 119.59 444.056 119.277 425.656 120.06C413.616 120.529 395.216 120.738 369.446 120.686C335.326 120.529 328.956 120.373 312.566 119.068C286.806 117.033 283.126 116.981 227.246 117.085C167.356 117.19 111.476 118.025 81.7056 119.173C69.6656 119.59 50.5856 120.164 39.2156 120.425C27.8456 120.634 6.01565 121.99 0.665649 122.408C0.295649 122.406 0.735659 122.403 0.425659 122.406H0.015625V0.862839V0.339844Z" fill="#1058E2"/>
</g>
</svg>
