<svg width="1923" height="140" viewBox="0 0 1923 140" fill="none" xmlns="http://www.w3.org/2000/svg">
<mask id="mask0_2286_2661" style="mask-type:luminance" maskUnits="userSpaceOnUse" x="0" y="0" width="1923" height="140">
<path d="M1922.36 0.837891H0.359375V139.838H1922.36V0.837891Z" fill="white"/>
</mask>
<g mask="url(#mask0_2286_2661)">
<path d="M1922.36 139.838C1922.23 139.838 1921.8 139.838 1921.67 139.838L0.360993 139.782L0.359375 21.1177C1.12347 18.1412 13.5122 16.752 61.6989 12.9692C102.517 9.78618 112.889 9.21219 134.971 8.79474C159.062 8.37729 164.08 8.42947 198.542 9.94272C219.286 10.8298 240.03 11.8734 244.714 12.2386C249.399 12.6039 258.433 13.2301 264.789 13.5433C271.147 13.9084 281.183 14.5346 286.871 14.8999C292.559 15.3173 300.255 15.6826 303.601 15.787C307.281 15.8392 311.296 16.0479 313.303 16.2044C314.977 16.4131 322.338 16.8307 329.029 17.1437C336.055 17.5089 341.743 17.9786 341.743 18.2395C341.743 18.8657 359.81 17.9786 373.193 16.7262C379.217 16.1 389.589 15.6304 395.611 15.6304C401.968 15.6304 412.34 15.3695 418.697 15.0565C429.069 14.5346 539.146 13.3867 569.259 13.491C638.182 13.6476 672.979 14.0128 681.343 14.5346C696.064 15.526 730.861 16.3088 761.642 16.4131C776.364 16.4131 796.105 16.6218 805.808 16.8828C821.198 17.2481 825.213 17.0915 844.284 15.6826C855.66 14.7955 869.043 14.065 873.727 14.065C878.411 14.065 891.794 13.3344 903.84 12.4475C920.569 11.1951 931.944 10.7776 952.354 10.5689C977.447 10.2558 982.466 9.9949 1036.34 5.87261C1087.86 1.95904 1095.23 1.54159 1111.62 1.59378C1138.39 1.69814 1156.79 2.42867 1172.18 4.04628C1189.24 5.76825 1210.65 7.69893 1235.07 9.57745C1240.89 10.0607 1247.03 10.5439 1251.76 10.9158L1251.77 10.9169C1255.22 11.187 1257.9 11.3984 1259.17 11.5081C1262.51 11.7691 1267.19 11.9778 1269.88 11.9778C1272.22 11.9778 1276.23 12.2909 1278.24 12.7083C1280.24 13.0736 1285.6 13.2823 1289.95 13.178C1298.64 12.917 1328.08 14.639 1369.57 17.7699C1372.93 18.0308 1382.96 18.2395 1392.33 18.2395C1401.37 18.2395 1415.41 18.5526 1423.11 18.9178C1456.23 20.5876 1478.32 20.9007 1496.72 20.1179C1508.76 19.6484 1527.16 19.4397 1552.93 19.4918C1587.05 19.6484 1593.42 19.8049 1609.81 21.1094C1635.57 23.1445 1639.25 23.1966 1695.13 23.0923C1755.02 22.9879 1810.9 22.1531 1840.67 21.005C1852.71 20.5876 1871.79 20.0136 1883.16 19.7527C1894.53 19.544 1916.36 18.1873 1921.71 17.7699C1922.08 17.7716 1921.64 17.7751 1921.95 17.7716H1922.36V139.315V139.838Z" fill="#0F48B7" fill-opacity="0.270588"/>
</g>
</svg>
