<svg width="1923" height="139" viewBox="0 0 1923 139" fill="none" xmlns="http://www.w3.org/2000/svg">
<mask id="mask0_2293_2606" style="mask-type:luminance" maskUnits="userSpaceOnUse" x="0" y="0" width="1923" height="139">
<path d="M0.1875 139L1922.19 139V0L0.1875 0V139Z" fill="white"/>
</mask>
<g mask="url(#mask0_2293_2606)">
<path d="M0.1875 0C0.3175 0 0.747441 0 0.877441 0L1922.19 0.0559998L1922.19 118.72C1921.42 121.697 1909.03 123.086 1860.85 126.869C1820.03 130.052 1809.66 130.626 1787.58 131.043C1763.48 131.461 1758.47 131.408 1724 129.895C1703.26 129.008 1682.52 127.965 1677.83 127.599C1673.15 127.234 1664.11 126.608 1657.76 126.295C1651.4 125.929 1641.36 125.303 1635.68 124.938C1629.99 124.521 1622.29 124.155 1618.95 124.051C1615.27 123.999 1611.25 123.79 1609.24 123.634C1607.57 123.425 1600.21 123.007 1593.52 122.694C1586.49 122.329 1580.8 121.859 1580.8 121.598C1580.8 120.972 1562.74 121.859 1549.35 123.112C1543.33 123.738 1532.96 124.208 1526.94 124.208C1520.58 124.208 1510.21 124.468 1503.85 124.781C1493.48 125.303 1383.4 126.451 1353.29 126.347C1284.36 126.19 1249.57 125.825 1241.2 125.303C1226.48 124.312 1191.69 123.529 1160.9 123.425C1146.18 123.425 1126.44 123.216 1116.74 122.955C1101.35 122.59 1097.33 122.746 1078.26 124.155C1066.89 125.042 1053.5 125.773 1048.82 125.773C1044.14 125.773 1030.75 126.503 1018.71 127.39C1001.98 128.643 990.603 129.06 970.193 129.269C945.1 129.582 940.081 129.843 886.208 133.965C834.688 137.879 827.317 138.296 810.927 138.244C784.157 138.14 765.758 137.409 750.368 135.792C733.308 134.07 711.898 132.139 687.478 130.26C681.658 129.777 675.517 129.294 670.787 128.922L670.777 128.921C667.327 128.651 664.647 128.439 663.377 128.33C660.037 128.069 655.357 127.86 652.667 127.86C650.327 127.86 646.317 127.547 644.307 127.13C642.307 126.764 636.948 126.556 632.598 126.66C623.908 126.921 594.468 125.199 552.978 122.068C549.618 121.807 539.588 121.598 530.218 121.598C521.178 121.598 507.137 121.285 499.438 120.92C466.318 119.25 444.228 118.937 425.828 119.72C413.788 120.189 395.388 120.398 369.618 120.346C335.498 120.189 329.128 120.033 312.738 118.729C286.978 116.693 283.297 116.641 227.417 116.746C167.527 116.85 111.647 117.685 81.8774 118.833C69.8374 119.25 50.7575 119.824 39.3875 120.085C28.0175 120.294 6.18752 121.651 0.837524 122.068C0.467524 122.066 0.907534 122.063 0.597534 122.066H0.1875V0.522995V0Z" fill="white"/>
</g>
</svg>
