<svg width="1923" height="140" viewBox="0 0 1923 140" fill="none" xmlns="http://www.w3.org/2000/svg">
<mask id="mask0_2286_2651" style="mask-type:luminance" maskUnits="userSpaceOnUse" x="0" y="0" width="1923" height="140">
<path d="M1922.36 0.732422H0.359375V139.732H1922.36V0.732422Z" fill="white"/>
</mask>
<g mask="url(#mask0_2286_2651)">
<path d="M1922.36 139.732C1922.23 139.732 1921.8 139.732 1921.67 139.732L0.360993 139.676L0.359375 21.0122C1.12347 18.0357 13.5122 16.6465 61.6989 12.8637C102.517 9.68071 112.889 9.10672 134.971 8.68927C159.062 8.27182 164.08 8.324 198.542 9.83725C219.286 10.7243 240.03 11.7679 244.714 12.1331C249.399 12.4984 258.433 13.1246 264.789 13.4378C271.147 13.8029 281.183 14.4291 286.871 14.7944C292.559 15.2118 300.255 15.5771 303.601 15.6815C307.281 15.7337 311.296 15.9424 313.303 16.0989C314.977 16.3076 322.338 16.7252 329.029 17.0382C336.055 17.4034 341.743 17.8731 341.743 18.134C341.743 18.7602 359.81 17.8731 373.193 16.6207C379.217 15.9945 389.589 15.5249 395.611 15.5249C401.968 15.5249 412.34 15.264 418.697 14.951C429.069 14.4291 539.146 13.2812 569.259 13.3855C638.182 13.5421 672.979 13.9073 681.343 14.4291C696.064 15.4205 730.861 16.2033 761.642 16.3076C776.364 16.3076 796.105 16.5163 805.808 16.7773C821.198 17.1426 825.213 16.986 844.284 15.5771C855.66 14.69 869.043 13.9595 873.727 13.9595C878.411 13.9595 891.794 13.2289 903.84 12.342C920.569 11.0896 931.944 10.6721 952.354 10.4634C977.447 10.1503 982.466 9.88943 1036.34 5.76714C1087.86 1.85357 1095.23 1.43612 1111.62 1.48831C1138.39 1.59267 1156.79 2.3232 1172.18 3.94081C1189.24 5.66278 1210.65 7.59346 1235.07 9.47198C1240.89 9.9552 1247.03 10.4384 1251.76 10.8103L1251.77 10.8114C1255.22 11.0815 1257.9 11.2929 1259.17 11.4026C1262.51 11.6636 1267.19 11.8723 1269.88 11.8723C1272.22 11.8723 1276.23 12.1854 1278.24 12.6028C1280.24 12.9681 1285.6 13.1768 1289.95 13.0725C1298.64 12.8115 1328.08 14.5335 1369.57 17.6644C1372.93 17.9253 1382.96 18.134 1392.33 18.134C1401.37 18.134 1415.41 18.4471 1423.11 18.8123C1456.23 20.4821 1478.32 20.7952 1496.72 20.0124C1508.76 19.5429 1527.16 19.3342 1552.93 19.3863C1587.05 19.5429 1593.42 19.6994 1609.81 21.0039C1635.57 23.039 1639.25 23.0911 1695.13 22.9868C1755.02 22.8824 1810.9 22.0476 1840.67 20.8995C1852.71 20.4821 1871.79 19.9081 1883.16 19.6472C1894.53 19.4385 1916.36 18.0818 1921.71 17.6644C1922.08 17.6661 1921.64 17.6696 1921.95 17.6661H1922.36V139.209V139.732Z" fill="#25924F"/>
</g>
</svg>
