<svg width="1923" height="140" viewBox="0 0 1923 140" fill="none" xmlns="http://www.w3.org/2000/svg">
<mask id="mask0_2293_2596" style="mask-type:luminance" maskUnits="userSpaceOnUse" x="0" y="0" width="1923" height="140">
<path d="M0.1875 139.34L1922.19 139.34V0.339844L0.1875 0.339844V139.34Z" fill="white"/>
</mask>
<g mask="url(#mask0_2293_2596)">
<path d="M0.1875 0.339844C0.3175 0.339844 0.747441 0.339844 0.877441 0.339844L1922.19 0.395844L1922.19 119.06C1921.42 122.037 1909.03 123.426 1860.85 127.209C1820.03 130.392 1809.66 130.966 1787.58 131.383C1763.48 131.8 1758.47 131.748 1724 130.235C1703.26 129.348 1682.52 128.304 1677.83 127.939C1673.15 127.574 1664.11 126.948 1657.76 126.634C1651.4 126.269 1641.36 125.643 1635.68 125.278C1629.99 124.86 1622.29 124.495 1618.95 124.391C1615.27 124.339 1611.25 124.13 1609.24 123.973C1607.57 123.765 1600.21 123.347 1593.52 123.034C1586.49 122.669 1580.8 122.199 1580.8 121.938C1580.8 121.312 1562.74 122.199 1549.35 123.452C1543.33 124.078 1532.96 124.547 1526.94 124.547C1520.58 124.547 1510.21 124.808 1503.85 125.121C1493.48 125.643 1383.4 126.791 1353.29 126.687C1284.36 126.53 1249.57 126.165 1241.2 125.643C1226.48 124.652 1191.69 123.869 1160.9 123.765C1146.18 123.765 1126.44 123.556 1116.74 123.295C1101.35 122.93 1097.33 123.086 1078.26 124.495C1066.89 125.382 1053.5 126.113 1048.82 126.113C1044.14 126.113 1030.75 126.843 1018.71 127.73C1001.98 128.983 990.603 129.4 970.193 129.609C945.1 129.922 940.081 130.183 886.208 134.305C834.688 138.219 827.317 138.636 810.927 138.584C784.157 138.48 765.758 137.749 750.368 136.131C733.308 134.409 711.898 132.479 687.478 130.6C681.658 130.117 675.517 129.634 670.787 129.262L670.777 129.261C667.327 128.991 664.647 128.779 663.377 128.67C660.037 128.409 655.357 128.2 652.667 128.2C650.327 128.2 646.317 127.887 644.307 127.469C642.307 127.104 636.948 126.895 632.598 127C623.908 127.261 594.468 125.539 552.978 122.408C549.618 122.147 539.588 121.938 530.218 121.938C521.178 121.938 507.137 121.625 499.438 121.26C466.318 119.59 444.228 119.277 425.828 120.06C413.788 120.529 395.388 120.738 369.618 120.686C335.498 120.529 329.128 120.373 312.738 119.068C286.978 117.033 283.297 116.981 227.417 117.085C167.527 117.19 111.647 118.025 81.8774 119.173C69.8374 119.59 50.7575 120.164 39.3875 120.425C28.0175 120.634 6.18752 121.99 0.837524 122.408C0.467524 122.406 0.907534 122.403 0.597534 122.406H0.1875V0.862839V0.339844Z" fill="#764C24"/>
</g>
</svg>
