<svg width="1923" height="140" viewBox="0 0 1923 140" fill="none" xmlns="http://www.w3.org/2000/svg">
<mask id="mask0_2286_2646" style="mask-type:luminance" maskUnits="userSpaceOnUse" x="0" y="0" width="1923" height="140">
<path d="M1922.36 0.339844H0.359375V139.34H1922.36V0.339844Z" fill="white"/>
</mask>
<g mask="url(#mask0_2286_2646)">
<path d="M1922.36 139.34C1922.23 139.34 1921.8 139.34 1921.67 139.34L0.360993 139.284L0.359375 20.6196C1.12347 17.6431 13.5122 16.2539 61.6989 12.4711C102.517 9.28813 112.889 8.71414 134.971 8.29669C159.062 7.87924 164.08 7.93142 198.542 9.44467C219.286 10.3317 240.03 11.3753 244.714 11.7405C249.399 12.1058 258.433 12.732 264.789 13.0452C271.147 13.4103 281.183 14.0365 286.871 14.4018C292.559 14.8192 300.255 15.1845 303.601 15.2889C307.281 15.3411 311.296 15.5498 313.303 15.7063C314.977 15.915 322.338 16.3326 329.029 16.6456C336.055 17.0108 341.743 17.4805 341.743 17.7414C341.743 18.3676 359.81 17.4805 373.193 16.2281C379.217 15.6019 389.589 15.1323 395.611 15.1323C401.968 15.1323 412.34 14.8714 418.697 14.5584C429.069 14.0365 539.146 12.8886 569.259 12.9929C638.182 13.1495 672.979 13.5147 681.343 14.0365C696.064 15.0279 730.861 15.8107 761.642 15.915C776.364 15.915 796.105 16.1237 805.808 16.3847C821.198 16.75 825.213 16.5934 844.284 15.1845C855.66 14.2974 869.043 13.5669 873.727 13.5669C878.411 13.5669 891.794 12.8363 903.84 11.9494C920.569 10.697 931.944 10.2796 952.354 10.0708C977.447 9.75775 982.466 9.49685 1036.34 5.37456C1087.86 1.46099 1095.23 1.04354 1111.62 1.09573C1138.39 1.20009 1156.79 1.93062 1172.18 3.54823C1189.24 5.2702 1210.65 7.20088 1235.07 9.0794C1240.89 9.56262 1247.03 10.0458 1251.76 10.4177L1251.77 10.4188C1255.22 10.6889 1257.9 10.9003 1259.17 11.01C1262.51 11.271 1267.19 11.4797 1269.88 11.4797C1272.22 11.4797 1276.23 11.7928 1278.24 12.2102C1280.24 12.5755 1285.6 12.7842 1289.95 12.6799C1298.64 12.4189 1328.08 14.1409 1369.57 17.2718C1372.93 17.5327 1382.96 17.7414 1392.33 17.7414C1401.37 17.7414 1415.41 18.0545 1423.11 18.4197C1456.23 20.0895 1478.32 20.4026 1496.72 19.6198C1508.76 19.1503 1527.16 18.9416 1552.93 18.9937C1587.05 19.1503 1593.42 19.3068 1609.81 20.6113C1635.57 22.6464 1639.25 22.6985 1695.13 22.5942C1755.02 22.4898 1810.9 21.655 1840.67 20.5069C1852.71 20.0895 1871.79 19.5155 1883.16 19.2546C1894.53 19.0459 1916.36 17.6892 1921.71 17.2718C1922.08 17.2735 1921.64 17.277 1921.95 17.2735H1922.36V138.817V139.34Z" fill="#764C24"/>
</g>
</svg>
