<svg width="1923" height="140" viewBox="0 0 1923 140" fill="none" xmlns="http://www.w3.org/2000/svg">
<mask id="mask0_2286_2616" style="mask-type:luminance" maskUnits="userSpaceOnUse" x="0" y="0" width="1923" height="140">
<path d="M1922.19 0.732422H0.1875V139.732H1922.19V0.732422Z" fill="white"/>
</mask>
<g mask="url(#mask0_2286_2616)">
<path d="M1922.19 139.732C1922.06 139.732 1921.63 139.732 1921.5 139.732L0.189118 139.676L0.1875 21.0122C0.951593 18.0357 13.3403 16.6465 61.527 12.8637C102.346 9.68071 112.717 9.10672 134.799 8.68927C158.89 8.27182 163.908 8.324 198.37 9.83725C219.114 10.7243 239.858 11.7679 244.542 12.1331C249.227 12.4984 258.261 13.1246 264.617 13.4378C270.975 13.8029 281.011 14.4291 286.699 14.7944C292.387 15.2118 300.084 15.5771 303.43 15.6815C307.11 15.7337 311.125 15.9424 313.132 16.0989C314.806 16.3076 322.167 16.7252 328.858 17.0382C335.884 17.4034 341.572 17.8731 341.572 18.134C341.572 18.7602 359.639 17.8731 373.022 16.6207C379.046 15.9945 389.418 15.5249 395.44 15.5249C401.797 15.5249 412.169 15.264 418.526 14.951C428.898 14.4291 538.975 13.2812 569.088 13.3855C638.011 13.5421 672.808 13.9073 681.172 14.4291C695.893 15.4205 730.69 16.2033 761.471 16.3076C776.193 16.3076 795.933 16.5163 805.636 16.7773C821.026 17.1426 825.041 16.986 844.112 15.5771C855.488 14.69 868.871 13.9595 873.555 13.9595C878.239 13.9595 891.623 13.2289 903.669 12.342C920.398 11.0896 931.772 10.6721 952.182 10.4634C977.275 10.1503 982.294 9.88943 1036.17 5.76714C1087.69 1.85357 1095.06 1.43612 1111.45 1.48831C1138.22 1.59267 1156.62 2.3232 1172.01 3.94081C1189.07 5.66278 1210.48 7.59346 1234.9 9.47198C1240.72 9.9552 1246.86 10.4384 1251.59 10.8103L1251.6 10.8114C1255.05 11.0815 1257.73 11.2929 1259 11.4026C1262.34 11.6636 1267.02 11.8723 1269.71 11.8723C1272.05 11.8723 1276.06 12.1854 1278.07 12.6028C1280.07 12.9681 1285.43 13.1768 1289.78 13.0725C1298.47 12.8115 1327.91 14.5335 1369.4 17.6644C1372.76 17.9253 1382.79 18.134 1392.16 18.134C1401.2 18.134 1415.24 18.4471 1422.94 18.8123C1456.06 20.4821 1478.15 20.7952 1496.55 20.0124C1508.59 19.5429 1526.99 19.3342 1552.76 19.3863C1586.88 19.5429 1593.25 19.6994 1609.64 21.0039C1635.4 23.039 1639.08 23.0911 1694.96 22.9868C1754.85 22.8824 1810.73 22.0476 1840.5 20.8995C1852.54 20.4821 1871.62 19.9081 1882.99 19.6472C1894.36 19.4385 1916.19 18.0818 1921.54 17.6644C1921.91 17.6661 1921.47 17.6696 1921.78 17.6661H1922.19V139.209V139.732Z" fill="#1048B6"/>
</g>
</svg>
