<svg width="1923" height="139" viewBox="0 0 1923 139" fill="none" xmlns="http://www.w3.org/2000/svg">
<mask id="mask0_2293_2586" style="mask-type:luminance" maskUnits="userSpaceOnUse" x="0" y="0" width="1923" height="139">
<path d="M0.015625 139L1922.02 139V0L0.015625 0V139Z" fill="white"/>
</mask>
<g mask="url(#mask0_2293_2586)">
<path d="M0.015625 0C0.145625 0 0.575566 0 0.705566 0L1922.01 0.0559998L1922.02 118.72C1921.25 121.697 1908.86 123.086 1860.68 126.869C1819.86 130.052 1809.49 130.626 1787.4 131.043C1763.31 131.461 1758.29 131.408 1723.83 129.895C1703.09 129.008 1682.34 127.965 1677.66 127.599C1672.98 127.234 1663.94 126.608 1657.59 126.295C1651.23 125.929 1641.19 125.303 1635.5 124.938C1629.82 124.521 1622.12 124.155 1618.77 124.051C1615.09 123.999 1611.08 123.79 1609.07 123.634C1607.4 123.425 1600.04 123.007 1593.35 122.694C1586.32 122.329 1580.63 121.859 1580.63 121.598C1580.63 120.972 1562.56 121.859 1549.18 123.112C1543.16 123.738 1532.79 124.208 1526.76 124.208C1520.41 124.208 1510.03 124.468 1503.68 124.781C1493.31 125.303 1383.23 126.451 1353.12 126.347C1284.19 126.19 1249.4 125.825 1241.03 125.303C1226.31 124.312 1191.51 123.529 1160.73 123.425C1146.01 123.425 1126.27 123.216 1116.57 122.955C1101.18 122.59 1097.16 122.746 1078.09 124.155C1066.71 125.042 1053.33 125.773 1048.65 125.773C1043.96 125.773 1030.58 126.503 1018.53 127.39C1001.81 128.643 990.431 129.06 970.021 129.269C944.928 129.582 939.909 129.843 886.036 133.965C834.516 137.879 827.146 138.296 810.756 138.244C783.986 138.14 765.586 137.409 750.196 135.792C733.136 134.07 711.726 132.139 687.306 130.26C681.486 129.777 675.346 129.294 670.616 128.922L670.606 128.921C667.156 128.651 664.476 128.439 663.206 128.33C659.866 128.069 655.186 127.86 652.496 127.86C650.156 127.86 646.146 127.547 644.136 127.13C642.136 126.764 636.776 126.556 632.426 126.66C623.736 126.921 594.296 125.199 552.806 122.068C549.446 121.807 539.416 121.598 530.046 121.598C521.006 121.598 506.966 121.285 499.266 120.92C466.146 119.25 444.056 118.937 425.656 119.72C413.616 120.189 395.216 120.398 369.446 120.346C335.326 120.189 328.956 120.033 312.566 118.729C286.806 116.693 283.126 116.641 227.246 116.746C167.356 116.85 111.476 117.685 81.7056 118.833C69.6656 119.25 50.5856 119.824 39.2156 120.085C27.8456 120.294 6.01565 121.651 0.665649 122.068C0.295649 122.066 0.735659 122.063 0.425659 122.066H0.015625V0.522995V0Z" fill="#FF914C"/>
</g>
</svg>
