<svg width="1923" height="140" viewBox="0 0 1923 140" fill="none" xmlns="http://www.w3.org/2000/svg">
<mask id="mask0_2286_2628" style="mask-type:luminance" maskUnits="userSpaceOnUse" x="0" y="0" width="1923" height="140">
<path d="M1922.19 0.837891H0.1875V139.838H1922.19V0.837891Z" fill="white"/>
</mask>
<g mask="url(#mask0_2286_2628)">
<path d="M1922.19 139.838C1922.06 139.838 1921.63 139.838 1921.5 139.838L0.189118 139.782L0.1875 21.1177C0.951593 18.1412 13.3403 16.752 61.527 12.9692C102.346 9.78618 112.717 9.21219 134.799 8.79474C158.89 8.37729 163.908 8.42947 198.37 9.94272C219.114 10.8298 239.858 11.8734 244.542 12.2386C249.227 12.6039 258.261 13.2301 264.617 13.5433C270.975 13.9084 281.011 14.5346 286.699 14.8999C292.387 15.3173 300.084 15.6826 303.43 15.787C307.11 15.8392 311.125 16.0479 313.132 16.2044C314.806 16.4131 322.167 16.8307 328.858 17.1437C335.884 17.5089 341.572 17.9786 341.572 18.2395C341.572 18.8657 359.639 17.9786 373.022 16.7262C379.046 16.1 389.418 15.6304 395.44 15.6304C401.797 15.6304 412.169 15.3695 418.526 15.0565C428.898 14.5346 538.975 13.3867 569.088 13.491C638.011 13.6476 672.808 14.0128 681.172 14.5346C695.893 15.526 730.69 16.3088 761.471 16.4131C776.193 16.4131 795.933 16.6218 805.636 16.8828C821.026 17.2481 825.041 17.0915 844.112 15.6826C855.488 14.7955 868.871 14.065 873.555 14.065C878.239 14.065 891.623 13.3344 903.669 12.4475C920.398 11.1951 931.772 10.7776 952.182 10.5689C977.275 10.2558 982.294 9.9949 1036.17 5.87261C1087.69 1.95904 1095.06 1.54159 1111.45 1.59378C1138.22 1.69814 1156.62 2.42867 1172.01 4.04628C1189.07 5.76825 1210.48 7.69893 1234.9 9.57745C1240.72 10.0607 1246.86 10.5439 1251.59 10.9158L1251.6 10.9169C1255.05 11.187 1257.73 11.3984 1259 11.5081C1262.34 11.7691 1267.02 11.9778 1269.71 11.9778C1272.05 11.9778 1276.06 12.2909 1278.07 12.7083C1280.07 13.0736 1285.43 13.2823 1289.78 13.178C1298.47 12.917 1327.91 14.639 1369.4 17.7699C1372.76 18.0308 1382.79 18.2395 1392.16 18.2395C1401.2 18.2395 1415.24 18.5526 1422.94 18.9178C1456.06 20.5876 1478.15 20.9007 1496.55 20.1179C1508.59 19.6484 1526.99 19.4397 1552.76 19.4918C1586.88 19.6484 1593.25 19.8049 1609.64 21.1094C1635.4 23.1445 1639.08 23.1966 1694.96 23.0923C1754.85 22.9879 1810.73 22.1531 1840.5 21.005C1852.54 20.5876 1871.62 20.0136 1882.99 19.7527C1894.36 19.544 1916.19 18.1873 1921.54 17.7699C1921.91 17.7716 1921.47 17.7751 1921.78 17.7716H1922.19V139.315V139.838Z" fill="#053490"/>
</g>
</svg>
