<svg width="1923" height="140" viewBox="0 0 1923 140" fill="none" xmlns="http://www.w3.org/2000/svg">
<mask id="mask0_2293_2581" style="mask-type:luminance" maskUnits="userSpaceOnUse" x="0" y="0" width="1923" height="140">
<path d="M0.015625 139.732L1922.02 139.732V0.732422L0.015625 0.732422V139.732Z" fill="white"/>
</mask>
<g mask="url(#mask0_2293_2581)">
<path d="M0.015625 0.732422C0.145625 0.732422 0.575566 0.732422 0.705566 0.732422L1922.01 0.788422L1922.02 119.453C1921.25 122.429 1908.86 123.818 1860.68 127.601C1819.86 130.784 1809.49 131.358 1787.4 131.776C1763.31 132.193 1758.29 132.141 1723.83 130.628C1703.09 129.741 1682.34 128.697 1677.66 128.332C1672.98 127.966 1663.94 127.34 1657.59 127.027C1651.23 126.662 1641.19 126.036 1635.5 125.67C1629.82 125.253 1622.12 124.888 1618.77 124.783C1615.09 124.731 1611.08 124.522 1609.07 124.366C1607.4 124.157 1600.04 123.74 1593.35 123.427C1586.32 123.061 1580.63 122.592 1580.63 122.331C1580.63 121.705 1562.56 122.592 1549.18 123.844C1543.16 124.47 1532.79 124.94 1526.76 124.94C1520.41 124.94 1510.03 125.201 1503.68 125.514C1493.31 126.036 1383.23 127.184 1353.12 127.079C1284.19 126.923 1249.4 126.558 1241.03 126.036C1226.31 125.044 1191.51 124.262 1160.73 124.157C1146.01 124.157 1126.27 123.949 1116.57 123.688C1101.18 123.322 1097.16 123.479 1078.09 124.888C1066.71 125.775 1053.33 126.505 1048.65 126.505C1043.96 126.505 1030.58 127.236 1018.53 128.123C1001.81 129.375 990.431 129.793 970.021 130.001C944.928 130.315 939.909 130.575 886.036 134.698C834.516 138.611 827.146 139.029 810.756 138.977C783.986 138.872 765.586 138.142 750.196 136.524C733.136 134.802 711.726 132.871 687.306 130.993C681.486 130.51 675.346 130.026 670.616 129.655L670.606 129.653C667.156 129.383 664.476 129.172 663.206 129.062C659.866 128.801 655.186 128.593 652.496 128.593C650.156 128.593 646.146 128.279 644.136 127.862C642.136 127.497 636.776 127.288 632.426 127.392C623.736 127.653 594.296 125.931 552.806 122.8C549.446 122.54 539.416 122.331 530.046 122.331C521.006 122.331 506.966 122.018 499.266 121.653C466.146 119.983 444.056 119.67 425.656 120.452C413.616 120.922 395.216 121.131 369.446 121.079C335.326 120.922 328.956 120.765 312.566 119.461C286.806 117.426 283.126 117.374 227.246 117.478C167.356 117.582 111.476 118.417 81.7056 119.565C69.6656 119.983 50.5856 120.557 39.2156 120.818C27.8456 121.026 6.01565 122.383 0.665649 122.8C0.295649 122.799 0.735659 122.795 0.425659 122.799H0.015625V1.25542V0.732422Z" fill="#1048B6"/>
</g>
</svg>
