<svg width="1923" height="140" viewBox="0 0 1923 140" fill="none" xmlns="http://www.w3.org/2000/svg">
<mask id="mask0_2293_2601" style="mask-type:luminance" maskUnits="userSpaceOnUse" x="0" y="0" width="1923" height="140">
<path d="M0.1875 139.732L1922.19 139.732V0.732422L0.1875 0.732422V139.732Z" fill="white"/>
</mask>
<g mask="url(#mask0_2293_2601)">
<path d="M0.1875 0.732422C0.3175 0.732422 0.747441 0.732422 0.877441 0.732422L1922.19 0.788422L1922.19 119.453C1921.42 122.429 1909.03 123.818 1860.85 127.601C1820.03 130.784 1809.66 131.358 1787.58 131.776C1763.48 132.193 1758.47 132.141 1724 130.628C1703.26 129.741 1682.52 128.697 1677.83 128.332C1673.15 127.966 1664.11 127.34 1657.76 127.027C1651.4 126.662 1641.36 126.036 1635.68 125.67C1629.99 125.253 1622.29 124.888 1618.95 124.783C1615.27 124.731 1611.25 124.522 1609.24 124.366C1607.57 124.157 1600.21 123.74 1593.52 123.427C1586.49 123.061 1580.8 122.592 1580.8 122.331C1580.8 121.705 1562.74 122.592 1549.35 123.844C1543.33 124.47 1532.96 124.94 1526.94 124.94C1520.58 124.94 1510.21 125.201 1503.85 125.514C1493.48 126.036 1383.4 127.184 1353.29 127.079C1284.36 126.923 1249.57 126.558 1241.2 126.036C1226.48 125.044 1191.69 124.262 1160.9 124.157C1146.18 124.157 1126.44 123.949 1116.74 123.688C1101.35 123.322 1097.33 123.479 1078.26 124.888C1066.89 125.775 1053.5 126.505 1048.82 126.505C1044.14 126.505 1030.75 127.236 1018.71 128.123C1001.98 129.375 990.603 129.793 970.193 130.001C945.1 130.315 940.081 130.575 886.208 134.698C834.688 138.611 827.317 139.029 810.927 138.977C784.157 138.872 765.758 138.142 750.368 136.524C733.308 134.802 711.898 132.871 687.478 130.993C681.658 130.51 675.517 130.026 670.787 129.655L670.777 129.653C667.327 129.383 664.647 129.172 663.377 129.062C660.037 128.801 655.357 128.593 652.667 128.593C650.327 128.593 646.317 128.279 644.307 127.862C642.307 127.497 636.948 127.288 632.598 127.392C623.908 127.653 594.468 125.931 552.978 122.8C549.618 122.54 539.588 122.331 530.218 122.331C521.178 122.331 507.137 122.018 499.438 121.653C466.318 119.983 444.228 119.67 425.828 120.452C413.788 120.922 395.388 121.131 369.618 121.079C335.498 120.922 329.128 120.765 312.738 119.461C286.978 117.426 283.297 117.374 227.417 117.478C167.527 117.582 111.647 118.417 81.8774 119.565C69.8374 119.983 50.7575 120.557 39.3875 120.818C28.0175 121.026 6.18752 122.383 0.837524 122.8C0.467524 122.799 0.907534 122.795 0.597534 122.799H0.1875V1.25542V0.732422Z" fill="#25924F"/>
</g>
</svg>
