<svg width="1923" height="139" viewBox="0 0 1923 139" fill="none" xmlns="http://www.w3.org/2000/svg">
<mask id="mask0_2286_2656" style="mask-type:luminance" maskUnits="userSpaceOnUse" x="0" y="0" width="1923" height="139">
<path d="M1922.36 0H0.359375V139H1922.36V0Z" fill="white"/>
</mask>
<g mask="url(#mask0_2286_2656)">
<path d="M1922.36 139C1922.23 139 1921.8 139 1921.67 139L0.360993 138.944L0.359375 20.2798C1.12347 17.3033 13.5122 15.9141 61.6989 12.1313C102.517 8.94829 112.889 8.3743 134.971 7.95685C159.062 7.5394 164.08 7.59158 198.542 9.10483C219.286 9.9919 240.03 11.0355 244.714 11.4007C249.399 11.766 258.433 12.3922 264.789 12.7054C271.147 13.0705 281.183 13.6967 286.871 14.062C292.559 14.4794 300.255 14.8447 303.601 14.9491C307.281 15.0013 311.296 15.21 313.303 15.3665C314.977 15.5752 322.338 15.9928 329.029 16.3058C336.055 16.671 341.743 17.1407 341.743 17.4016C341.743 18.0278 359.81 17.1407 373.193 15.8883C379.217 15.2621 389.589 14.7925 395.611 14.7925C401.968 14.7925 412.34 14.5316 418.697 14.2186C429.069 13.6967 539.146 12.5488 569.259 12.6531C638.182 12.8097 672.979 13.1749 681.343 13.6967C696.064 14.6881 730.861 15.4709 761.642 15.5752C776.364 15.5752 796.105 15.7839 805.808 16.0449C821.198 16.4102 825.213 16.2536 844.284 14.8447C855.66 13.9576 869.043 13.2271 873.727 13.2271C878.411 13.2271 891.794 12.4965 903.84 11.6096C920.569 10.3572 931.944 9.93971 952.354 9.73099C977.447 9.41791 982.466 9.15701 1036.34 5.03472C1087.86 1.12115 1095.23 0.703701 1111.62 0.755887C1138.39 0.860245 1156.79 1.59078 1172.18 3.20839C1189.24 4.93036 1210.65 6.86104 1235.07 8.73956C1240.89 9.22278 1247.03 9.706 1251.76 10.0779L1251.77 10.079C1255.22 10.3491 1257.9 10.5605 1259.17 10.6702C1262.51 10.9312 1267.19 11.1399 1269.88 11.1399C1272.22 11.1399 1276.23 11.453 1278.24 11.8704C1280.24 12.2357 1285.6 12.4444 1289.95 12.3401C1298.64 12.0791 1328.08 13.8011 1369.57 16.932C1372.93 17.1929 1382.96 17.4016 1392.33 17.4016C1401.37 17.4016 1415.41 17.7147 1423.11 18.0799C1456.23 19.7497 1478.32 20.0628 1496.72 19.28C1508.76 18.8105 1527.16 18.6018 1552.93 18.6539C1587.05 18.8105 1593.42 18.967 1609.81 20.2715C1635.57 22.3066 1639.25 22.3587 1695.13 22.2544C1755.02 22.15 1810.9 21.3152 1840.67 20.1671C1852.71 19.7497 1871.79 19.1757 1883.16 18.9148C1894.53 18.7061 1916.36 17.3494 1921.71 16.932C1922.08 16.9337 1921.64 16.9372 1921.95 16.9337H1922.36V138.477V139Z" fill="white"/>
</g>
</svg>
