<svg width="162" height="73" viewBox="0 0 162 73" fill="none" xmlns="http://www.w3.org/2000/svg">
<path fillRule="evenodd" clipRule="evenodd" d="M141.869 6.78712C144.285 5.34778 147.119 5.55682 149.867 6.91149C152.395 8.15816 154.851 10.9149 155.569 15.209C155.796 16.5709 157.085 17.4903 158.447 17.2626C159.809 17.0349 160.728 15.7464 160.5 14.3846C159.522 8.53001 156.073 4.39666 152.078 2.42697C148.316 0.572176 143.572 -0.0823295 139.248 2.52923L139.209 2.5526L139.171 2.57735C136.984 4.00857 135.3 5.51549 134.244 7.62015C133.21 9.68089 132.931 12.0189 132.905 14.7727L132.905 14.7848V14.7968V17.3199H116.779V15.925C117.135 10.5315 118.621 8.67137 120.277 8.0629L120.314 8.04904L120.352 8.03397C123.843 6.62191 126.515 7.13385 128.966 8.05618C130.259 8.54243 131.7 7.88904 132.187 6.59678C132.673 5.30452 132.019 3.86276 130.727 3.37651C127.542 2.17794 123.518 1.37139 118.513 3.38431C113.892 5.10554 112.156 9.84507 111.784 15.6849L111.779 15.7644V15.8439V19.2364C111.734 19.4236 111.71 19.619 111.71 19.8199C111.71 20.0209 111.734 20.2163 111.779 20.4035V38.8257V49.3918C111.779 50.7725 112.898 51.8918 114.279 51.8918C115.659 51.8918 116.779 50.7725 116.779 49.3918V41.3257H132.905V48.3447C132.905 49.098 133.238 49.7735 133.765 50.2318C132.763 50.0937 131.753 50.0096 130.712 49.9859C126.079 49.8806 121.002 50.9697 113.202 53.3249L113.195 53.327C106.54 55.3571 101.58 56.7372 96.0789 56.9541C90.6093 57.1698 84.4356 56.2364 75.48 53.3396L75.4186 53.3197L75.3561 53.303C70.9238 52.1184 67.0042 51.2441 63.2467 50.7273C63.603 50.6645 63.9811 50.571 64.4035 50.4481L67.6948 49.4916L66.0492 41.8401C65.5912 40.2953 65.1149 39.4822 63.7106 38.2192L47.5433 25.3706C46.651 24.9881 45.8601 24.7785 44.461 24.9183L23.6091 26.9468C22.1438 27.2775 21.5244 27.8722 21.0034 28.3887C19.6019 29.7781 19.5688 31.5578 21.0034 32.8333L21.0634 32.8867C21.7017 33.4558 22.6003 34.2568 24.3008 34.2568L43.0961 33.1637L46.9071 37.8093L18.065 49.4916L23.6091 51.3362C39.0136 45.1718 46.788 44.8642 59.8554 50.3564C58.5505 50.252 57.2525 50.1941 55.9459 50.1848C49.8148 50.141 43.635 51.1665 35.7879 53.3063L35.7795 53.3086L35.7585 53.3144C30.127 54.8711 26.3362 55.9191 22.6426 56.092C19.0722 56.2591 15.4717 55.603 10.3951 53.4213L10.3624 53.4073L10.3292 53.3941C8.48149 52.6617 6.8477 52.2029 5.19489 52.2188C3.49597 52.2351 2.04196 52.7492 0.5625 53.4718L2.7569 57.9646C3.91365 57.3996 4.59578 57.2248 5.24296 57.2186C5.93168 57.2119 6.84638 57.3944 8.45475 58.0296C14.0289 60.421 18.3822 61.2969 22.8764 61.0865C27.135 60.8871 31.4068 59.7057 36.675 58.2486L37.1075 58.129C44.7021 56.0584 50.3984 55.1453 55.9102 55.1847C61.4123 55.224 66.8694 56.213 74.0032 58.1169C83.2658 61.1081 90.0375 62.1963 96.2759 61.9502C102.495 61.705 108.017 60.134 114.65 58.1106C122.391 55.7735 126.816 54.8987 130.598 54.9846C134.336 55.0695 137.632 56.0909 143.206 58.0451C146.457 59.4742 149.25 60.2431 152.211 60.218C155.167 60.193 158.058 59.377 161.476 58.0483L159.664 53.3881C156.441 54.6412 154.22 55.2008 152.169 55.2182C150.152 55.2353 148.068 54.7281 145.136 53.4318L145.046 53.3919L144.953 53.3592C141.672 52.2081 138.93 51.2789 136.277 50.6882C137.228 50.3342 137.905 49.4185 137.905 48.3447V14.809C137.93 12.2849 138.201 10.8822 138.713 9.8622C139.2 8.89155 140.049 7.9835 141.869 6.78712ZM116.779 22.3199H132.905V26.9084H116.779V22.3199ZM116.779 31.9084V36.3257H132.905V31.9084H116.779ZM130.665 66.0076C127.213 65.9232 123.147 66.7813 115.957 69.1177C109.796 71.14 104.626 72.7256 98.7954 72.973C92.9426 73.2214 86.6088 72.1212 77.986 69.1251C71.3722 67.2259 66.3364 66.2468 61.2703 66.2078C56.1945 66.1687 50.9361 67.0729 43.895 69.1388L43.4701 69.2653C38.5959 70.7161 34.5928 71.9078 30.5951 72.1092C26.3502 72.3231 22.2536 71.4293 17.0489 69.0267C15.5664 68.3969 14.766 68.2357 14.1963 68.2416C13.672 68.2471 13.0891 68.3956 12.0265 68.9542L9.70003 64.5284C11.0869 63.7994 12.489 63.259 14.1446 63.2419C15.7507 63.2253 17.3178 63.7054 19.0439 64.4418L19.0784 64.4565L19.1124 64.4722C23.8027 66.6414 27.0958 67.2791 30.3435 67.1155C33.7312 66.9448 37.2168 65.909 42.4736 64.3451L42.4825 64.3425C49.7896 62.1982 55.5663 61.1637 61.3088 61.2079C67.0456 61.2521 72.5961 62.3722 79.4335 64.3387L79.4995 64.3577L79.5643 64.3803C87.866 67.2702 93.559 68.1908 98.5834 67.9775C103.644 67.7628 108.213 66.3972 114.4 64.366L114.407 64.3637C121.657 62.008 126.42 60.9023 130.787 61.0091C135.18 61.1165 138.961 62.4522 144.126 64.4025L144.223 64.4392L144.317 64.4839C147.024 65.7724 148.911 66.2577 150.714 66.2413C152.554 66.2245 154.571 65.6847 157.558 64.435L159.488 69.0476C156.304 70.3797 153.572 71.2155 150.759 71.2411C147.94 71.2668 145.298 70.4782 142.264 69.044C137.084 67.0899 134.071 66.0909 130.665 66.0076ZM90.0487 36.2625C90.0487 41.0841 85.0448 44.9927 78.8722 44.9927C72.6995 44.9927 67.6956 41.0841 67.6956 36.2625C67.6956 31.4409 72.6995 27.5322 78.8722 27.5322C85.0448 27.5322 90.0487 31.4409 90.0487 36.2625Z" fill="#FF914C"/>
</svg>
