<svg width="102" height="101" viewBox="0 0 102 101" fill="none" xmlns="http://www.w3.org/2000/svg">
<path fill-rule="evenodd" clip-rule="evenodd" d="M51.0039 0.798867V0.796875C87.1216 4.07136 104.989 21.5646 100.424 62.054C82.3473 53.8183 71.7921 50.3872 51.0039 49.3689C30.2157 50.3872 19.6605 53.8183 1.58402 62.0541C-2.98096 21.5646 14.8862 4.07335 51.0039 0.798867Z" fill="#FF914C"/>
<path fill-rule="evenodd" clip-rule="evenodd" d="M101.125 87.4589V76.3608C82.7136 65.8354 73.0134 63.4009 58.8802 76.3608C55.8714 78.8668 54.1301 79.5524 51.0041 78.1413V85.3109C54.677 84.2154 56.4762 84.5504 58.8802 87.4589C72.8173 100.281 82.3815 98.7078 101.125 87.4589ZM65.8123 82.0126C65.8123 86.9224 71.4043 90.9026 78.3023 90.9026C85.2004 90.9026 90.7923 86.9224 90.7923 82.0126C90.7923 77.1027 85.2004 73.1225 78.3023 73.1225C71.4043 73.1225 65.8123 77.1027 65.8123 82.0126ZM0.882812 87.4589V76.3608C19.2943 65.8354 28.9944 63.4009 43.1276 76.3608C46.1364 78.8668 47.8777 79.5524 51.0037 78.1413V85.3109C47.3308 84.2154 45.5316 84.5504 43.1276 87.4589C29.1905 100.281 19.6263 98.7078 0.882812 87.4589ZM36.1955 82.0126C36.1955 86.9224 30.6035 90.9026 23.7055 90.9026C16.8074 90.9026 11.2155 86.9224 11.2155 82.0126C11.2155 77.1027 16.8074 73.1225 23.7055 73.1225C30.6035 73.1225 36.1955 77.1027 36.1955 82.0126Z" fill="#FF914C"/>
</svg>
