<svg width="101" height="101" viewBox="0 0 101 101" fill="none" xmlns="http://www.w3.org/2000/svg">
<path d="M33.7645 14.4745C28.369 12.5217 25.7083 12.7274 21.2386 14.4745C15.3834 17.4831 12.8381 20.1362 10.4368 27.4601C8.559 36.6619 8.88674 41.1929 10.4368 48.8345C13.1089 60.9825 14.466 67.9037 16.6437 80.4365C17.1716 85.8065 16.9008 88.9491 20.4349 95.0308C26.8941 103.712 35.4323 101.514 42.3839 93.9966C44.6615 90.9129 43.9916 85.7605 42.3839 79.0575C40.0988 68.4359 39.4794 61.8115 40.4303 47.8002C42.2226 40.0309 42.7099 35.5919 42.3839 27.4601C41.6156 21.2228 40.2834 18.0907 33.7645 14.4745Z" fill="#FF914C"/>
<path fill-rule="evenodd" clip-rule="evenodd" d="M26.8254 24.9986C26.8785 23.6928 27.045 22.9844 27.6496 22.3059C28.5865 21.3706 30.4255 21.5889 30.2384 22.3059C30.0512 23.0228 29.6935 23.1737 28.9287 23.3975C28.5048 23.9453 28.4002 24.3592 28.6715 25.0761C29.1441 25.2558 29.6482 25.5568 30.2294 25.9835C44.387 39.0532 44.0359 50.6171 37.3898 67.9434C34.9404 70.0282 31.9401 67.894 32.8072 65.6521C40.1169 49.3574 39.6869 41.5697 29.5134 30.423C28.214 29.2707 27.5085 29.1883 26.2196 30.423C10.9947 49.4393 11.2524 56.8181 21.3506 66.3681C22.0002 67.1891 21.1741 71.3386 17.4834 69.0891C13.8029 64.7106 12.2454 62.1877 11.4694 57.5312C11.0282 54.8249 11.1934 53.2124 11.3713 51.4763C11.4049 51.1487 11.4389 50.8167 11.4694 50.4721C14.4961 39.485 16.8854 33.7736 24.9308 25.9835C25.6573 25.4951 26.2628 25.1643 26.8254 24.9986Z" fill="white"/>
<path d="M68.0883 2.18049C73.4647 0.234621 76.116 0.43956 80.5698 2.18049C86.4043 5.1785 88.9406 7.82219 91.3334 15.1201C93.2045 24.2893 92.878 28.8043 91.3334 36.4189C88.6708 48.5238 87.3185 55.4205 85.1485 67.909C84.6224 73.2599 84.8923 76.3915 81.3707 82.4516C74.9343 91.1025 66.4264 88.9116 59.4994 81.4211C57.2298 78.3483 57.8974 73.2141 59.4994 66.5348C61.7764 55.9508 62.3936 49.3499 61.4461 35.3883C59.6602 27.6464 59.1745 23.2232 59.4994 15.1201C60.265 8.90496 61.5924 5.78393 68.0883 2.18049Z" fill="#FF914C"/>
<path fill-rule="evenodd" clip-rule="evenodd" d="M75.0121 13.755C74.9607 12.4876 74.7992 11.8002 74.2126 11.1418C73.3036 10.2344 71.5196 10.4462 71.7011 11.1418C71.8827 11.8373 72.2297 11.9837 72.9716 12.2008C73.3826 12.7318 73.4842 13.1332 73.2218 13.8278C72.7621 14.0019 72.272 14.2945 71.7066 14.7095C57.972 27.3888 58.3126 38.6072 64.7601 55.416C67.1364 57.4384 70.047 55.368 69.2058 53.1931C62.1145 37.3851 62.5317 29.8301 72.4012 19.0164C73.6618 17.8985 74.3462 17.8185 75.5966 19.0164C90.3667 37.4646 90.1167 44.623 80.3202 53.8877C79.69 54.6842 80.4914 58.7097 84.0719 56.5274C87.6425 52.2797 89.1534 49.8322 89.9062 45.3148C90.3343 42.6893 90.174 41.125 90.0014 39.4408C89.9688 39.1229 89.9358 38.8008 89.9062 38.4665C86.9699 27.8077 84.652 22.2668 76.847 14.7095C76.1436 14.2366 75.557 13.9161 75.0121 13.755Z" fill="white"/>
</svg>
