<svg width="25" height="25" viewBox="0 0 25 25" fill="none" xmlns="http://www.w3.org/2000/svg">
<path fill-rule="evenodd" clip-rule="evenodd" d="M1.90625 12.2764C1.90625 11.8622 2.24204 11.5264 2.65625 11.5264H15.0956L12.6259 9.0567C12.333 8.7638 12.333 8.28893 12.6259 7.99604C12.9188 7.70314 13.3937 7.70314 13.6866 7.99604L17.4366 11.746C17.7295 12.0389 17.7295 12.5138 17.4366 12.8067L13.6866 16.5567C13.3937 16.8496 12.9188 16.8496 12.6259 16.5567C12.333 16.2638 12.333 15.7889 12.6259 15.496L15.0956 13.0264H2.65625C2.24204 13.0264 1.90625 12.6906 1.90625 12.2764ZM9.40625 17.9014C9.40625 18.1997 9.52478 18.4859 9.73575 18.6969C9.94673 18.9078 10.2329 19.0264 10.5312 19.0264H20.2812C20.5796 19.0264 20.8658 18.9078 21.0767 18.6969C21.2877 18.4859 21.4062 18.1997 21.4062 17.9014V6.65137C21.4062 6.353 21.2877 6.06685 21.0767 5.85587C20.8658 5.64489 20.5796 5.52637 20.2812 5.52637L10.5313 5.52637C10.2329 5.52637 9.94673 5.64489 9.73575 5.85587C9.52478 6.06685 9.40625 6.353 9.40625 6.65137V8.52637C9.40625 8.94058 9.07046 9.27637 8.65625 9.27637C8.24204 9.27637 7.90625 8.94058 7.90625 8.52637V6.65137C7.90625 5.95517 8.18281 5.28749 8.67509 4.79521C9.16738 4.30293 9.83506 4.02637 10.5313 4.02637H20.2812C20.9774 4.02637 21.6451 4.30293 22.1374 4.79521C22.6297 5.28749 22.9062 5.95517 22.9062 6.65137V17.9014C22.9062 18.5976 22.6297 19.2652 22.1374 19.7575C21.6451 20.2498 20.9774 20.5264 20.2812 20.5264H10.5312C9.83506 20.5264 9.16738 20.2498 8.67509 19.7575C8.18281 19.2652 7.90625 18.5976 7.90625 17.9014V16.0264C7.90625 15.6122 8.24204 15.2764 8.65625 15.2764C9.07046 15.2764 9.40625 15.6122 9.40625 16.0264V17.9014Z" fill="#0F48B7"/>
</svg>
