<svg xmlns="http://www.w3.org/2000/svg" width="81" height="82" viewBox="0 0 81 82" fill="none">
<path d="M50.2814 26.9137C50.0684 27.5792 50.1322 41.2498 49.6527 42.6384C49.1732 44.027 46.0405 44.1059 45.8459 42.6384C45.6512 41.1709 45.8533 27.2702 45.8496 22.1478C45.8459 17.0254 49.2273 17.3901 53.7302 17.3168H67.7901C72.2191 17.2367 75.3125 17.311 75.3125 22.1478V42.9833C75.3125 44.0021 72.0891 44.474 71.5601 42.9833C71.5601 42.9833 70.7494 27.73 70.5662 26.9137C70.3829 26.0973 69.4875 26.3535 69.1333 26.9137C68.7792 27.4738 69.1333 48.9373 69.1333 48.9373V78.1166C69.164 79.3214 68.4508 79.8215 66.805 80.5695C66.0821 80.8535 65.4106 80.8912 63.9393 80.5695C62.0556 80.0484 61.7509 79.488 61.7005 78.1166C61.7005 78.1166 62.3549 57.2811 61.7005 56.2643C61.0461 55.2474 59.8605 55.219 59.2825 56.2643C58.7046 57.3095 59.2825 78.1166 59.2825 78.1166L59.282 78.1617C59.2652 79.4719 59.2583 80.0149 56.9542 80.5695C55.8043 80.8142 55.3261 80.8134 54.0885 80.5695C52.1302 80.0109 51.7812 79.4137 51.69 78.1166V27.207C51.4918 26.0777 50.4944 26.2481 50.2814 26.9137Z" fill="#FF914C"/>
<path d="M68.0928 9.18371C68.0928 12.6455 64.7116 15.4518 60.5407 15.4518C56.3698 15.4518 52.9887 12.6455 52.9887 9.18371C52.9887 5.72192 56.3698 2.91558 60.5407 2.91558C64.7116 2.91558 68.0928 5.72192 68.0928 9.18371Z" fill="#FF914C"/>
<path d="M23.2059 11.4151C23.6442 11.4061 24.086 11.5214 24.6146 11.7682C25.6433 12.2486 37.3783 17.4737 39.3981 18.7574C41.4179 20.0411 41.0898 21.826 38.1817 22.3295C35.2736 22.8329 7.96178 22.3295 7.96178 22.3295C4.61947 21.9248 4.78357 19.7083 6.55791 18.7574C8.33225 17.8065 20.9162 12.2308 21.9012 11.7682C22.38 11.5434 22.7914 11.4237 23.2059 11.4151ZM23.2059 11.4151V7.0121L23.1247 6.99106C20.6105 6.34027 19.6937 6.10294 19.5413 3.97163C19.3873 1.8175 21.1293 0.805979 23.2059 0.796932C25.2825 0.787884 26.7223 1.85822 27.0692 3.97163M49.6527 42.6384C50.1322 41.2498 50.0684 27.5792 50.2814 26.9137C50.4944 26.2481 51.4918 26.0777 51.69 27.207V78.1166C51.7812 79.4137 52.1302 80.0109 54.0885 80.5695C55.3261 80.8134 55.8043 80.8142 56.9542 80.5695C59.2583 80.0149 59.2652 79.4719 59.282 78.1617L59.2825 78.1166C59.2825 78.1166 58.7046 57.3095 59.2825 56.2643C59.8605 55.219 61.0461 55.2474 61.7005 56.2643C62.3549 57.2811 61.7005 78.1166 61.7005 78.1166C61.7509 79.488 62.0556 80.0484 63.9393 80.5695C65.4106 80.8912 66.0821 80.8535 66.805 80.5695C68.4508 79.8215 69.164 79.3214 69.1333 78.1166V48.9373C69.1333 48.9373 68.7792 27.4738 69.1333 26.9137C69.4875 26.3535 70.3829 26.0973 70.5662 26.9137C70.7494 27.73 71.5601 42.9833 71.5601 42.9833C72.0891 44.474 75.3125 44.0021 75.3125 42.9833V22.1478C75.3125 17.311 72.2191 17.2367 67.7901 17.3168H53.7302C49.2273 17.3901 45.8459 17.0254 45.8496 22.1478C45.8533 27.2702 45.6512 41.1709 45.8459 42.6384C46.0405 44.1059 49.1732 44.027 49.6527 42.6384ZM68.0928 9.18371C68.0928 12.6455 64.7116 15.4518 60.5407 15.4518C56.3698 15.4518 52.9887 12.6455 52.9887 9.18371C52.9887 5.72192 56.3698 2.91558 60.5407 2.91558C64.7116 2.91558 68.0928 5.72192 68.0928 9.18371Z" stroke="#FF914C" stroke-linecap="round"/>
</svg>