<svg width="41" height="41" viewBox="0 0 41 41" fill="none" xmlns="http://www.w3.org/2000/svg">
<path d="M22.7017 20.8739L30.1236 13.452C30.4758 13.1004 30.6739 12.6232 30.6744 12.1255C30.6748 11.6278 30.4775 11.1503 30.1259 10.7981C29.7743 10.4458 29.2971 10.2477 28.7994 10.2473C28.3017 10.2468 27.8242 10.4441 27.472 10.7957L20.0501 18.2176L12.6283 10.7957C12.276 10.4435 11.7983 10.2456 11.3001 10.2456C10.802 10.2456 10.3242 10.4435 9.972 10.7957C9.61976 11.148 9.42188 11.6257 9.42188 12.1239C9.42188 12.622 9.61976 13.0997 9.972 13.452L17.3939 20.8739L9.972 28.2957C9.61976 28.648 9.42188 29.1257 9.42188 29.6239C9.42188 30.122 9.61976 30.5997 9.972 30.952C10.3242 31.3042 10.802 31.5021 11.3001 31.5021C11.7983 31.5021 12.276 31.3042 12.6283 30.952L20.0501 23.5301L27.472 30.952C27.8242 31.3042 28.302 31.5021 28.8001 31.5021C29.2983 31.5021 29.776 31.3042 30.1283 30.952C30.4805 30.5997 30.6784 30.122 30.6784 29.6239C30.6784 29.1257 30.4805 28.648 30.1283 28.2957L22.7017 20.8739Z" fill="white"/>
</svg>
